<svg xmlns="http://www.w3.org/2000/svg" viewBox="0 0 693.28 658.42"><defs><style>.cls-1,.cls-2,.cls-4,.cls-5,.cls-9{fill:none;}.cls-1,.cls-2{stroke:#010101;}.cls-1,.cls-2,.cls-9{stroke-width:0.5px;}.cls-2{stroke-dasharray:3.99 3.99;}.cls-3{isolation:isolate;}.cls-4,.cls-5{stroke:#ccc;}.cls-5{stroke-dasharray:2 2;}.cls-6{fill:#fc9054;}.cls-7,.cls-8{fill:#c6b6b6;}.cls-8{stroke:#c90606;}.cls-11,.cls-8,.cls-9{stroke-miterlimit:10;}.cls-11,.cls-12,.cls-9{stroke:#000;}.cls-10{opacity:0.5;}.cls-11,.cls-12{fill:#e25b00;stroke-width:0.25px;}.cls-12{opacity:0;}</style></defs><g id="Layer_3" data-name="Layer 3"><line class="cls-1" x1="663.55" y1="568.22" x2="661.55" y2="568.22"/><line class="cls-2" x1="657.56" y1="568.22" x2="28.57" y2="568.22"/><line class="cls-1" x1="26.58" y1="568.22" x2="24.58" y2="568.22"/><g class="cls-3"><path d="M20.32,573.21c0-1.54.63-3.56,2.53-3.56,1.73,0,2.59,1.79,2.59,3.58s-.85,3.53-2.52,3.53C21,576.76,20.32,574.74,20.32,573.21Zm4.24,0c0-1.2-.42-2.76-1.71-2.76s-1.71,1.57-1.71,2.77.42,2.78,1.75,2.78S24.56,574.36,24.56,573.2Z" transform="translate(-9.05 -5.23)"/></g><line class="cls-4" x1="663.55" y1="554.52" x2="662.55" y2="554.52"/><line class="cls-5" x1="660.55" y1="554.52" x2="26.57" y2="554.52"/><line class="cls-4" x1="25.58" y1="554.52" x2="24.58" y2="554.52"/><line class="cls-4" x1="663.55" y1="540.81" x2="662.55" y2="540.81"/><line class="cls-5" x1="660.55" y1="540.81" x2="26.57" y2="540.81"/><line class="cls-4" x1="25.58" y1="540.81" x2="24.58" y2="540.81"/><line class="cls-4" x1="663.55" y1="527.11" x2="662.55" y2="527.11"/><line class="cls-5" x1="660.55" y1="527.11" x2="26.57" y2="527.11"/><line class="cls-4" x1="25.58" y1="527.11" x2="24.58" y2="527.11"/><line class="cls-4" x1="663.55" y1="513.4" x2="662.55" y2="513.4"/><line class="cls-5" x1="660.55" y1="513.4" x2="26.57" y2="513.4"/><line class="cls-4" x1="25.58" y1="513.4" x2="24.58" y2="513.4"/><line class="cls-4" x1="663.55" y1="499.7" x2="662.55" y2="499.7"/><line class="cls-5" x1="660.55" y1="499.7" x2="26.57" y2="499.7"/><line class="cls-4" x1="25.58" y1="499.7" x2="24.58" y2="499.7"/><g class="cls-3"><path d="M15,506.29l.75-.24a1.62,1.62,0,0,0,1.54,1.46,1.58,1.58,0,0,0,1.47-1.64,1.47,1.47,0,0,0-1.47-1.57,1.61,1.61,0,0,0-1.34.73l-.72-.3.61-3.5h3.47V502H16.43l-.35,2.09a2.18,2.18,0,0,1,1.34-.48,2.24,2.24,0,0,1,2.15,2.29,2.33,2.33,0,0,1-4.62.41Z" transform="translate(-9.05 -5.23)"/><path d="M20.37,504.68c0-1.54.63-3.55,2.53-3.55,1.73,0,2.59,1.78,2.59,3.57s-.85,3.53-2.52,3.53C21,508.23,20.37,506.21,20.37,504.68Zm4.24,0c0-1.2-.42-2.76-1.71-2.76s-1.71,1.57-1.71,2.77.42,2.78,1.75,2.78S24.61,505.83,24.61,504.67Z" transform="translate(-9.05 -5.23)"/></g><line class="cls-4" x1="663.55" y1="485.99" x2="662.55" y2="485.99"/><line class="cls-5" x1="660.55" y1="485.99" x2="26.57" y2="485.99"/><line class="cls-4" x1="25.58" y1="485.99" x2="24.58" y2="485.99"/><line class="cls-4" x1="663.55" y1="472.29" x2="662.55" y2="472.29"/><line class="cls-5" x1="660.55" y1="472.29" x2="26.57" y2="472.29"/><line class="cls-4" x1="25.58" y1="472.29" x2="24.58" y2="472.29"/><line class="cls-4" x1="663.55" y1="458.58" x2="662.55" y2="458.58"/><line class="cls-5" x1="660.55" y1="458.58" x2="26.57" y2="458.58"/><line class="cls-4" x1="25.58" y1="458.58" x2="24.58" y2="458.58"/><line class="cls-4" x1="663.55" y1="444.87" x2="662.55" y2="444.87"/><line class="cls-5" x1="660.55" y1="444.87" x2="26.57" y2="444.87"/><line class="cls-4" x1="25.58" y1="444.87" x2="24.58" y2="444.87"/><line class="cls-4" x1="663.55" y1="431.17" x2="662.55" y2="431.17"/><line class="cls-5" x1="660.55" y1="431.17" x2="26.57" y2="431.17"/><line class="cls-4" x1="25.58" y1="431.17" x2="24.58" y2="431.17"/><g class="cls-3"><path d="M10.78,434.37H9.17v-.68H10a.79.79,0,0,0,.84-.84v-.14h.77v6.89h-.84Z" transform="translate(-9.05 -5.23)"/><path d="M13,436.15c0-1.53.63-3.55,2.53-3.55,1.73,0,2.58,1.79,2.58,3.58s-.84,3.52-2.51,3.52C13.66,439.7,13,437.68,13,436.15Zm4.24,0c0-1.19-.42-2.75-1.71-2.75s-1.71,1.57-1.71,2.76.42,2.78,1.75,2.78S17.26,437.3,17.26,436.14Z" transform="translate(-9.05 -5.23)"/><path d="M18.88,436.15c0-1.53.63-3.55,2.53-3.55,1.72,0,2.58,1.79,2.58,3.58s-.84,3.52-2.51,3.52C19.52,439.7,18.88,437.68,18.88,436.15Zm4.24,0c0-1.19-.42-2.75-1.71-2.75S19.7,435,19.7,436.15s.42,2.78,1.75,2.78S23.12,437.3,23.12,436.14Z" transform="translate(-9.05 -5.23)"/></g><line class="cls-4" x1="663.55" y1="417.46" x2="662.55" y2="417.46"/><line class="cls-5" x1="660.55" y1="417.46" x2="26.57" y2="417.46"/><line class="cls-4" x1="25.58" y1="417.46" x2="24.58" y2="417.46"/><line class="cls-4" x1="663.55" y1="403.76" x2="662.55" y2="403.76"/><line class="cls-5" x1="660.55" y1="403.76" x2="26.57" y2="403.76"/><line class="cls-4" x1="25.58" y1="403.76" x2="24.58" y2="403.76"/><line class="cls-4" x1="663.55" y1="390.05" x2="662.55" y2="390.05"/><line class="cls-5" x1="660.55" y1="390.05" x2="26.57" y2="390.05"/><line class="cls-4" x1="25.58" y1="390.05" x2="24.58" y2="390.05"/><line class="cls-4" x1="663.55" y1="376.35" x2="662.55" y2="376.35"/><line class="cls-5" x1="660.55" y1="376.35" x2="26.57" y2="376.35"/><line class="cls-4" x1="25.58" y1="376.35" x2="24.58" y2="376.35"/><line class="cls-4" x1="663.55" y1="362.64" x2="662.55" y2="362.64"/><line class="cls-5" x1="660.55" y1="362.64" x2="26.57" y2="362.64"/><line class="cls-4" x1="25.58" y1="362.64" x2="24.58" y2="362.64"/><g class="cls-3"><path d="M10.78,365.84H9.17v-.68H10a.79.79,0,0,0,.84-.84v-.14h.77v6.9h-.84Z" transform="translate(-9.05 -5.23)"/><path d="M13.21,369.24,14,369a1.62,1.62,0,0,0,1.54,1.46A1.58,1.58,0,0,0,17,368.82a1.47,1.47,0,0,0-1.47-1.57,1.61,1.61,0,0,0-1.34.73l-.72-.3.61-3.5h3.47v.74H14.69l-.35,2.1a2.18,2.18,0,0,1,1.34-.48,2.24,2.24,0,0,1,2.14,2.29,2.37,2.37,0,0,1-2.32,2.35A2.4,2.4,0,0,1,13.21,369.24Z" transform="translate(-9.05 -5.23)"/><path d="M18.63,367.63c0-1.54.63-3.56,2.53-3.56,1.72,0,2.58,1.79,2.58,3.58s-.84,3.53-2.51,3.53C19.27,371.18,18.63,369.16,18.63,367.63Zm4.24,0c0-1.2-.42-2.76-1.71-2.76s-1.71,1.57-1.71,2.77.42,2.78,1.75,2.78S22.87,368.78,22.87,367.62Z" transform="translate(-9.05 -5.23)"/></g><line class="cls-4" x1="663.55" y1="348.94" x2="662.55" y2="348.94"/><line class="cls-5" x1="660.55" y1="348.94" x2="26.57" y2="348.94"/><line class="cls-4" x1="25.58" y1="348.94" x2="24.58" y2="348.94"/><line class="cls-4" x1="663.55" y1="335.23" x2="662.55" y2="335.23"/><line class="cls-5" x1="660.55" y1="335.23" x2="26.57" y2="335.23"/><line class="cls-4" x1="25.58" y1="335.23" x2="24.58" y2="335.23"/><line class="cls-4" x1="663.55" y1="321.53" x2="662.55" y2="321.53"/><line class="cls-5" x1="660.55" y1="321.53" x2="26.57" y2="321.53"/><line class="cls-4" x1="25.58" y1="321.53" x2="24.58" y2="321.53"/><line class="cls-4" x1="663.55" y1="307.82" x2="662.55" y2="307.82"/><line class="cls-5" x1="660.55" y1="307.82" x2="26.57" y2="307.82"/><line class="cls-4" x1="25.58" y1="307.82" x2="24.58" y2="307.82"/><line class="cls-4" x1="663.55" y1="294.11" x2="662.55" y2="294.11"/><line class="cls-5" x1="660.55" y1="294.11" x2="26.57" y2="294.11"/><line class="cls-4" x1="25.58" y1="294.11" x2="24.58" y2="294.11"/><g class="cls-3"><path d="M9.15,301.82a14.54,14.54,0,0,0,2.35-1.88,3.75,3.75,0,0,0,1.3-2.33c0-.76-.36-1.35-1.2-1.35-1,0-1.34.92-1.37,1.69l-.81-.07a2.21,2.21,0,0,1,2.17-2.32,1.93,1.93,0,0,1,2.05,2,4.63,4.63,0,0,1-1.63,2.9,12.21,12.21,0,0,1-1.66,1.35H14v.72H9.15Z" transform="translate(-9.05 -5.23)"/><path d="M14.78,299.1c0-1.54.63-3.56,2.53-3.56,1.73,0,2.59,1.79,2.59,3.58s-.85,3.53-2.52,3.53C15.42,302.65,14.78,300.63,14.78,299.1Zm4.24,0c0-1.2-.42-2.76-1.71-2.76s-1.71,1.57-1.71,2.77.42,2.78,1.75,2.78S19,300.25,19,299.09Z" transform="translate(-9.05 -5.23)"/><path d="M20.64,299.1c0-1.54.63-3.56,2.53-3.56,1.73,0,2.59,1.79,2.59,3.58s-.85,3.53-2.52,3.53C21.28,302.65,20.64,300.63,20.64,299.1Zm4.24,0c0-1.2-.42-2.76-1.71-2.76s-1.71,1.57-1.71,2.77.42,2.78,1.75,2.78S24.88,300.25,24.88,299.09Z" transform="translate(-9.05 -5.23)"/></g><line class="cls-4" x1="663.55" y1="280.41" x2="662.55" y2="280.41"/><line class="cls-5" x1="660.55" y1="280.41" x2="26.57" y2="280.41"/><line class="cls-4" x1="25.58" y1="280.41" x2="24.58" y2="280.41"/><line class="cls-4" x1="663.55" y1="266.7" x2="662.55" y2="266.7"/><line class="cls-5" x1="660.55" y1="266.7" x2="26.57" y2="266.7"/><line class="cls-4" x1="25.58" y1="266.7" x2="24.58" y2="266.7"/><line class="cls-4" x1="663.55" y1="253" x2="662.55" y2="253"/><line class="cls-5" x1="660.55" y1="253" x2="26.57" y2="253"/><line class="cls-4" x1="25.58" y1="253" x2="24.58" y2="253"/><line class="cls-4" x1="663.55" y1="239.29" x2="662.55" y2="239.29"/><line class="cls-5" x1="660.55" y1="239.29" x2="26.57" y2="239.29"/><line class="cls-4" x1="25.58" y1="239.29" x2="24.58" y2="239.29"/><line class="cls-4" x1="663.55" y1="225.59" x2="662.55" y2="225.59"/><line class="cls-5" x1="660.55" y1="225.59" x2="26.57" y2="225.59"/><line class="cls-4" x1="25.58" y1="225.59" x2="24.58" y2="225.59"/><g class="cls-3"><path d="M9.15,233.29a14.54,14.54,0,0,0,2.35-1.88,3.75,3.75,0,0,0,1.3-2.33c0-.76-.36-1.35-1.2-1.35-1,0-1.34.92-1.37,1.69l-.81-.07A2.21,2.21,0,0,1,11.59,227a1.93,1.93,0,0,1,2.05,2A4.63,4.63,0,0,1,12,232a12.21,12.21,0,0,1-1.66,1.35H14V234H9.15Z" transform="translate(-9.05 -5.23)"/><path d="M15,232.18l.75-.24a1.62,1.62,0,0,0,1.54,1.46,1.58,1.58,0,0,0,1.47-1.64,1.47,1.47,0,0,0-1.47-1.57,1.61,1.61,0,0,0-1.34.73l-.72-.3.61-3.5h3.47v.74H16.45L16.1,230a2.18,2.18,0,0,1,1.34-.48,2.24,2.24,0,0,1,2.15,2.29,2.33,2.33,0,0,1-4.62.41Z" transform="translate(-9.05 -5.23)"/><path d="M20.39,230.57c0-1.54.63-3.55,2.53-3.55,1.73,0,2.59,1.78,2.59,3.57s-.85,3.53-2.52,3.53C21,234.12,20.39,232.1,20.39,230.57Zm4.24,0c0-1.2-.42-2.76-1.71-2.76s-1.71,1.57-1.71,2.77.42,2.78,1.75,2.78S24.63,231.72,24.63,230.56Z" transform="translate(-9.05 -5.23)"/></g><line class="cls-4" x1="663.55" y1="211.88" x2="662.55" y2="211.88"/><line class="cls-5" x1="660.55" y1="211.88" x2="26.57" y2="211.88"/><line class="cls-4" x1="25.58" y1="211.88" x2="24.58" y2="211.88"/><line class="cls-4" x1="663.55" y1="198.18" x2="662.55" y2="198.18"/><line class="cls-5" x1="660.55" y1="198.18" x2="26.57" y2="198.18"/><line class="cls-4" x1="25.58" y1="198.18" x2="24.58" y2="198.18"/><line class="cls-4" x1="663.55" y1="184.47" x2="662.55" y2="184.47"/><line class="cls-5" x1="660.55" y1="184.47" x2="26.57" y2="184.47"/><line class="cls-4" x1="25.58" y1="184.47" x2="24.58" y2="184.47"/><line class="cls-4" x1="663.55" y1="170.76" x2="662.55" y2="170.76"/><line class="cls-5" x1="660.55" y1="170.76" x2="26.57" y2="170.76"/><line class="cls-4" x1="25.58" y1="170.76" x2="24.58" y2="170.76"/><line class="cls-4" x1="663.55" y1="157.06" x2="662.55" y2="157.06"/><line class="cls-5" x1="660.55" y1="157.06" x2="26.57" y2="157.06"/><line class="cls-4" x1="25.58" y1="157.06" x2="24.58" y2="157.06"/><g class="cls-3"><path d="M9.1,163.52l.78-.08a1.44,1.44,0,0,0,1.58,1.41A1.43,1.43,0,0,0,13,163.5c0-.89-.69-1.29-1.49-1.29h-.5v-.74h.5a1,1,0,0,0,1.11-1.09,1.13,1.13,0,0,0-1.22-1.13,1.17,1.17,0,0,0-1.24,1.18l-.77-.08a1.84,1.84,0,0,1,2-1.85,1.84,1.84,0,0,1,2,1.8,1.72,1.72,0,0,1-.79,1.48,1.76,1.76,0,0,1,1.16,1.74,2.09,2.09,0,0,1-2.36,2.07A2.09,2.09,0,0,1,9.1,163.52Z" transform="translate(-9.05 -5.23)"/><path d="M14.76,162.05c0-1.54.63-3.56,2.53-3.56,1.73,0,2.59,1.79,2.59,3.58s-.85,3.52-2.52,3.52C15.4,165.59,14.76,163.57,14.76,162.05ZM19,162c0-1.2-.42-2.76-1.71-2.76s-1.71,1.57-1.71,2.77.42,2.77,1.75,2.77S19,163.19,19,162Z" transform="translate(-9.05 -5.23)"/><path d="M20.62,162.05c0-1.54.63-3.56,2.53-3.56,1.73,0,2.59,1.79,2.59,3.58s-.85,3.52-2.52,3.52C21.26,165.59,20.62,163.57,20.62,162.05Zm4.24,0c0-1.2-.42-2.76-1.71-2.76s-1.71,1.57-1.71,2.77.42,2.77,1.75,2.77S24.86,163.19,24.86,162Z" transform="translate(-9.05 -5.23)"/></g><line class="cls-4" x1="663.55" y1="143.35" x2="662.55" y2="143.35"/><line class="cls-5" x1="660.55" y1="143.35" x2="26.57" y2="143.35"/><line class="cls-4" x1="25.58" y1="143.35" x2="24.58" y2="143.35"/><line class="cls-4" x1="663.55" y1="129.65" x2="662.55" y2="129.65"/><line class="cls-5" x1="660.55" y1="129.65" x2="26.57" y2="129.65"/><line class="cls-4" x1="25.58" y1="129.65" x2="24.58" y2="129.65"/><line class="cls-4" x1="663.55" y1="115.94" x2="662.55" y2="115.94"/><line class="cls-5" x1="660.55" y1="115.94" x2="26.57" y2="115.94"/><line class="cls-4" x1="25.58" y1="115.94" x2="24.58" y2="115.94"/><line class="cls-4" x1="663.55" y1="102.24" x2="662.55" y2="102.24"/><line class="cls-5" x1="660.55" y1="102.24" x2="26.57" y2="102.24"/><line class="cls-4" x1="25.58" y1="102.24" x2="24.58" y2="102.24"/><line class="cls-4" x1="663.55" y1="88.53" x2="662.55" y2="88.53"/><line class="cls-5" x1="660.55" y1="88.53" x2="26.57" y2="88.53"/><line class="cls-4" x1="25.58" y1="88.53" x2="24.58" y2="88.53"/><g class="cls-3"><path d="M9.1,95l.78-.07a1.44,1.44,0,0,0,1.58,1.41A1.43,1.43,0,0,0,13,95a1.31,1.31,0,0,0-1.49-1.3h-.5v-.74h.5a1,1,0,0,0,1.11-1.09,1.13,1.13,0,0,0-1.22-1.13A1.17,1.17,0,0,0,10.2,91.9l-.77-.08a1.84,1.84,0,0,1,2-1.85,1.84,1.84,0,0,1,2,1.8,1.72,1.72,0,0,1-.79,1.48A1.77,1.77,0,0,1,13.82,95a2.1,2.1,0,0,1-2.36,2.08A2.1,2.1,0,0,1,9.1,95Z" transform="translate(-9.05 -5.23)"/><path d="M15,95.13l.75-.24a1.62,1.62,0,0,0,1.54,1.46,1.58,1.58,0,0,0,1.47-1.64,1.47,1.47,0,0,0-1.47-1.57,1.61,1.61,0,0,0-1.34.73l-.72-.3.61-3.5h3.47v.74H16.43l-.35,2.1a2.18,2.18,0,0,1,1.34-.48,2.24,2.24,0,0,1,2.15,2.29,2.33,2.33,0,0,1-4.62.41Z" transform="translate(-9.05 -5.23)"/><path d="M20.37,93.52C20.37,92,21,90,22.9,90c1.73,0,2.59,1.79,2.59,3.58s-.85,3.53-2.52,3.53C21,97.07,20.37,95.05,20.37,93.52Zm4.24,0c0-1.2-.42-2.76-1.71-2.76s-1.71,1.57-1.71,2.77.42,2.78,1.75,2.78S24.61,94.67,24.61,93.51Z" transform="translate(-9.05 -5.23)"/></g><line class="cls-4" x1="663.55" y1="74.83" x2="662.55" y2="74.83"/><line class="cls-5" x1="660.55" y1="74.83" x2="26.57" y2="74.83"/><line class="cls-4" x1="25.58" y1="74.83" x2="24.58" y2="74.83"/><line class="cls-4" x1="663.55" y1="61.12" x2="662.55" y2="61.12"/><line class="cls-5" x1="660.55" y1="61.12" x2="26.57" y2="61.12"/><line class="cls-4" x1="25.58" y1="61.12" x2="24.58" y2="61.12"/><line class="cls-4" x1="663.55" y1="47.42" x2="662.55" y2="47.42"/><line class="cls-5" x1="660.55" y1="47.42" x2="26.57" y2="47.42"/><line class="cls-4" x1="25.58" y1="47.42" x2="24.58" y2="47.42"/><line class="cls-4" x1="663.55" y1="33.71" x2="662.55" y2="33.71"/><line class="cls-5" x1="660.55" y1="33.71" x2="26.57" y2="33.71"/><line class="cls-4" x1="25.58" y1="33.71" x2="24.58" y2="33.71"/><line class="cls-4" x1="663.55" y1="20" x2="662.55" y2="20"/><line class="cls-5" x1="660.55" y1="20" x2="26.57" y2="20"/><line class="cls-4" x1="25.58" y1="20" x2="24.58" y2="20"/><g class="cls-3"><path d="M12.24,26.62H9.05v-.48l3.27-4.6h.74v4.35h1.09v.73H13.06v1.82h-.82Zm0-.73V22.81l-2.19,3.08Z" transform="translate(-9.05 -5.23)"/><path d="M14.86,25c0-1.54.63-3.56,2.53-3.56C19.12,21.43,20,23.22,20,25s-.85,3.53-2.52,3.53C15.5,28.54,14.86,26.52,14.86,25Zm4.24,0c0-1.2-.42-2.76-1.71-2.76S15.68,23.79,15.68,25s.42,2.78,1.75,2.78S19.1,26.14,19.1,25Z" transform="translate(-9.05 -5.23)"/><path d="M20.72,25c0-1.54.63-3.56,2.53-3.56,1.73,0,2.59,1.79,2.59,3.58s-.85,3.53-2.52,3.53C21.36,28.54,20.72,26.52,20.72,25ZM25,25c0-1.2-.42-2.76-1.71-2.76S21.54,23.79,21.54,25s.42,2.78,1.75,2.78S25,26.14,25,25Z" transform="translate(-9.05 -5.23)"/></g><path class="cls-4" d="M33.62,573.46h653.8" transform="translate(-9.05 -5.23)"/><path class="cls-4" d="M33.62,626.84h653.8" transform="translate(-9.05 -5.23)"/><line class="cls-4" x1="34.22" y1="567.72" x2="34.22" y2="573.72"/><g class="cls-3"><path d="M45.83,586.1v-1.61h.68v.84a.79.79,0,0,0,.84.84h.14v.77H40.6v-.84Z" transform="translate(-9.05 -5.23)"/><path d="M43.12,591.26a2.6,2.6,0,0,1-.06-.56,2.22,2.22,0,0,1,2.21-2.31,2.32,2.32,0,1,1,0,4.63,2.24,2.24,0,0,1-1.19-.34l-3.49-2v-.92Zm2.16,1a1.51,1.51,0,1,0-1.55-1.51A1.52,1.52,0,0,0,45.28,592.21Z" transform="translate(-9.05 -5.23)"/><path d="M42.51,594.15a1.89,1.89,0,0,1,1.8,1.18,1.71,1.71,0,0,1,1.49-.83,2,2,0,0,1,0,4,1.71,1.71,0,0,1-1.49-.83,1.89,1.89,0,0,1-1.8,1.18c-1.36,0-2-1.1-2-2.36A2.07,2.07,0,0,1,42.51,594.15Zm.06,3.87a1.54,1.54,0,0,0,0-3.06,1.54,1.54,0,0,0,0,3.06Zm3.14-.3a1.13,1.13,0,0,0,1.15-1.21,1.11,1.11,0,0,0-1.08-1.19,1.14,1.14,0,0,0-1.2,1.2A1.12,1.12,0,0,0,45.71,597.72Z" transform="translate(-9.05 -5.23)"/><path d="M44,599.8c1.54,0,3.56.63,3.56,2.53,0,1.73-1.79,2.58-3.58,2.58s-3.52-.85-3.52-2.51C40.5,600.44,42.51,599.8,44,599.8Zm0,4.23c1.2,0,2.76-.41,2.76-1.7s-1.57-1.71-2.77-1.71-2.77.42-2.77,1.75S42.89,604,44.05,604Z" transform="translate(-9.05 -5.23)"/></g><g class="cls-3"><path d="M34.56,639.88h1.11l3,5.83v-5.83h.84v6.9H38.36l-3-5.83v5.83h-.84Z" transform="translate(-9.05 -5.23)"/><path d="M41.23,644.8v-2.9H42v2.9c0,.67.19,1.39,1,1.39a1.51,1.51,0,0,0,1.43-1.51V641.9h.8v4.88h-.8V646a1.79,1.79,0,0,1-1.51.89C41.7,646.89,41.23,645.9,41.23,644.8Z" transform="translate(-9.05 -5.23)"/><path d="M47.08,641.9h.8v.79a1.43,1.43,0,0,1,1.31-.88,1.53,1.53,0,0,1,1.49,1,1.62,1.62,0,0,1,1.52-.94c1.23,0,1.71.94,1.71,2v3h-.8v-2.87c0-.67-.21-1.4-1-1.4A1.35,1.35,0,0,0,50.89,644v2.76h-.8v-2.89c0-.67-.2-1.38-1-1.38A1.35,1.35,0,0,0,47.88,644v2.76h-.8Z" transform="translate(-9.05 -5.23)"/><path d="M56.4,646.13v.65h-.8v-6.9h.8v2.67a1.75,1.75,0,0,1,1.5-.76c1.28,0,2,1.15,2,2.55s-.7,2.54-2,2.54A1.74,1.74,0,0,1,56.4,646.13Zm2.68-1.79c0-1-.43-1.84-1.38-1.84s-1.36.87-1.36,1.84.41,1.83,1.36,1.83S59.08,645.32,59.08,644.34Z" transform="translate(-9.05 -5.23)"/><path d="M60.94,644.37a2.24,2.24,0,0,1,2.15-2.53c1.62,0,2.1,1.23,2.1,2.57a1.8,1.8,0,0,1,0,.2H61.78a1.39,1.39,0,0,0,1.39,1.52,1.7,1.7,0,0,0,1.36-.51l.54.44a2.38,2.38,0,0,1-1.89.78A2.22,2.22,0,0,1,60.94,644.37Zm3.49-.4a1.29,1.29,0,0,0-1.34-1.43A1.32,1.32,0,0,0,61.78,644Z" transform="translate(-9.05 -5.23)"/><path d="M66.42,641.9h.81v.89a1.44,1.44,0,0,1,1.34-1,1.52,1.52,0,0,1,.87.25l-.3.66a.93.93,0,0,0-.62-.21c-.85,0-1.3,1-1.3,2.16v2.09h-.8Z" transform="translate(-9.05 -5.23)"/><path d="M69.64,645.65l.66-.34a1.25,1.25,0,0,0,1.18.87c.5,0,1-.22,1-.77,0-1.19-2.61-.38-2.61-2.19a1.46,1.46,0,0,1,1.56-1.39,1.83,1.83,0,0,1,1.65,1l-.61.35a1.09,1.09,0,0,0-1-.62c-.45,0-.82.22-.82.66,0,1,2.64.27,2.64,2.18a1.58,1.58,0,0,1-1.72,1.51A1.9,1.9,0,0,1,69.64,645.65Z" transform="translate(-9.05 -5.23)"/><path d="M76.85,644.36a2.36,2.36,0,1,1,2.35,2.52A2.38,2.38,0,0,1,76.85,644.36Zm3.81,0c0-1-.41-1.82-1.46-1.82s-1.46.87-1.46,1.82.41,1.82,1.46,1.82S80.66,645.31,80.66,644.36Z" transform="translate(-9.05 -5.23)"/><path d="M83.25,642.58h-.89v-.67h.89v-.86a1.26,1.26,0,0,1,1.38-1.27,1.94,1.94,0,0,1,.79.18l-.2.65a1,1,0,0,0-.49-.13.62.62,0,0,0-.68.59v.83h1.37v.68H84.05v4.2h-.8Z" transform="translate(-9.05 -5.23)"/><path d="M89.21,641.9H90v.65a1.73,1.73,0,0,1,1.5-.75c1.27,0,2,1.14,2,2.54s-.71,2.54-2,2.54a1.73,1.73,0,0,1-1.5-.75v2.78h-.8Zm3.47,2.44c0-1-.42-1.83-1.37-1.83s-1.36.86-1.36,1.83.4,1.83,1.36,1.83S92.68,645.32,92.68,644.34Z" transform="translate(-9.05 -5.23)"/><path d="M94.82,641.9h.81v.89a1.44,1.44,0,0,1,1.34-1,1.52,1.52,0,0,1,.87.25l-.3.66a.93.93,0,0,0-.62-.21c-.85,0-1.3,1-1.3,2.16v2.09h-.8Z" transform="translate(-9.05 -5.23)"/><path d="M98.14,644.36a2.36,2.36,0,1,1,2.35,2.52A2.38,2.38,0,0,1,98.14,644.36Zm3.81,0c0-1-.41-1.82-1.46-1.82s-1.46.87-1.46,1.82.41,1.82,1.46,1.82S102,645.31,102,644.36Z" transform="translate(-9.05 -5.23)"/><path d="M103,648.77l.18-.63a2.43,2.43,0,0,0,.55.08c.39,0,.5-.29.5-.62v-5.7h.8v5.59c0,.82-.38,1.42-1.27,1.42A2.71,2.71,0,0,1,103,648.77Zm1.17-8.92h.91v1h-.91Z" transform="translate(-9.05 -5.23)"/><path d="M106.45,644.37a2.24,2.24,0,0,1,2.15-2.53c1.62,0,2.1,1.23,2.1,2.57a1.8,1.8,0,0,1,0,.2h-3.39a1.39,1.39,0,0,0,1.39,1.52,1.7,1.7,0,0,0,1.36-.51l.54.44a2.38,2.38,0,0,1-1.89.78A2.22,2.22,0,0,1,106.45,644.37Zm3.49-.4a1.29,1.29,0,0,0-1.34-1.43,1.32,1.32,0,0,0-1.31,1.43Z" transform="translate(-9.05 -5.23)"/><path d="M111.66,644.35a2.24,2.24,0,0,1,2.15-2.53,2,2,0,0,1,1.93,1.3l-.76.31a1.18,1.18,0,0,0-1.17-.91c-1,0-1.34,1-1.34,1.83s.34,1.83,1.34,1.83a1.19,1.19,0,0,0,1.17-.91l.7.29a1.87,1.87,0,0,1-1.86,1.32A2.24,2.24,0,0,1,111.66,644.35Z" transform="translate(-9.05 -5.23)"/><path d="M117.18,645.49v-2.91h-.76v-.68h.76v-1.12l.8-.7v1.82h1.25v.68H118v2.93c0,.49.2.67.52.67a1.65,1.65,0,0,0,.63-.1v.7a2.2,2.2,0,0,1-.7.1C117.56,646.88,117.18,646.32,117.18,645.49Z" transform="translate(-9.05 -5.23)"/><path d="M119.88,645.65l.66-.34a1.25,1.25,0,0,0,1.18.87c.5,0,1-.22,1-.77,0-1.19-2.61-.38-2.61-2.19a1.46,1.46,0,0,1,1.56-1.39,1.83,1.83,0,0,1,1.65,1l-.61.35a1.09,1.09,0,0,0-1-.62c-.45,0-.82.22-.82.66,0,1,2.64.27,2.64,2.18a1.58,1.58,0,0,1-1.72,1.51A1.9,1.9,0,0,1,119.88,645.65Z" transform="translate(-9.05 -5.23)"/></g><g class="cls-3"><path d="M11.64,6.43H13l2,5.45,2-5.45h1.33v6.9h-.84V7.26l-2,5.47h-.92l-2-5.47v6.07h-.84Z" transform="translate(-9.05 -5.23)"/><path d="M20.12,12.34V6.43h.8v6s0,.29.27.29a2.42,2.42,0,0,0,.44-.05v.65a2.54,2.54,0,0,1-.67.1C20.24,13.43,20.12,13,20.12,12.34Z" transform="translate(-9.05 -5.23)"/><path d="M22.9,8.45h.8V9.2a1.81,1.81,0,0,1,1.51-.83c1.23,0,1.7.94,1.7,2v3h-.8V10.46c0-.67-.2-1.33-1-1.33a1.45,1.45,0,0,0-1.42,1.45v2.75h-.8Z" transform="translate(-9.05 -5.23)"/><path d="M32.77,13.39a2.22,2.22,0,0,1-2.05-1.86l.8-.22a1.5,1.5,0,0,0,1.63,1.33c.8,0,1.35-.38,1.35-1.19,0-1.68-3.32-1.25-3.32-3.35a1.75,1.75,0,0,1,1.59-1.75V5.23h.58V6.34A2,2,0,0,1,35,7.43l-.65.42a1.43,1.43,0,0,0-1.29-.79A1,1,0,0,0,32,8c0,1.6,3.32,1.15,3.32,3.37a2,2,0,0,1-2,2v1.13h-.58Z" transform="translate(-9.05 -5.23)"/></g><line class="cls-4" x1="49.76" y1="567.72" x2="49.76" y2="573.72"/><g class="cls-3"><path d="M61.38,586.1v-1.61h.68v.84a.79.79,0,0,0,.84.84H63v.77h-6.9v-.84Z" transform="translate(-9.05 -5.23)"/><path d="M58.67,591.26a2.6,2.6,0,0,1-.06-.56,2.22,2.22,0,0,1,2.21-2.31,2.32,2.32,0,1,1,0,4.63,2.24,2.24,0,0,1-1.19-.34l-3.5-2v-.92Zm2.16,1a1.51,1.51,0,1,0-1.55-1.51A1.52,1.52,0,0,0,60.83,592.21Z" transform="translate(-9.05 -5.23)"/><path d="M58.06,594.15a1.89,1.89,0,0,1,1.8,1.18,1.71,1.71,0,0,1,1.49-.83,2,2,0,0,1,0,4,1.71,1.71,0,0,1-1.49-.83,1.89,1.89,0,0,1-1.8,1.18c-1.37,0-2-1.1-2-2.36S56.7,594.15,58.06,594.15Zm.06,3.87a1.54,1.54,0,0,0,0-3.06,1.54,1.54,0,0,0,0,3.06Zm3.14-.3a1.13,1.13,0,0,0,1.15-1.21,1.11,1.11,0,0,0-1.08-1.19,1.14,1.14,0,0,0-1.2,1.2A1.12,1.12,0,0,0,61.26,597.72Z" transform="translate(-9.05 -5.23)"/><path d="M61.38,601.38v-1.61h.68v.84a.79.79,0,0,0,.84.84H63v.77h-6.9v-.84Z" transform="translate(-9.05 -5.23)"/></g><line class="cls-4" x1="65.31" y1="567.72" x2="65.31" y2="573.72"/><g class="cls-3"><path d="M76.93,586.1v-1.61h.68v.84a.79.79,0,0,0,.84.84h.14v.77h-6.9v-.84Z" transform="translate(-9.05 -5.23)"/><path d="M74.22,591.26a2.6,2.6,0,0,1-.06-.56,2.22,2.22,0,0,1,2.21-2.31,2.32,2.32,0,1,1,0,4.63,2.24,2.24,0,0,1-1.19-.34l-3.5-2v-.92Zm2.16,1a1.51,1.51,0,1,0-1.55-1.51A1.52,1.52,0,0,0,76.38,592.21Z" transform="translate(-9.05 -5.23)"/><path d="M73.61,594.15a1.89,1.89,0,0,1,1.8,1.18,1.71,1.71,0,0,1,1.49-.83,2,2,0,0,1,0,4,1.71,1.71,0,0,1-1.49-.83,1.89,1.89,0,0,1-1.8,1.18c-1.37,0-2-1.1-2-2.36A2.07,2.07,0,0,1,73.61,594.15Zm.06,3.87a1.54,1.54,0,0,0,0-3.06,1.54,1.54,0,0,0,0,3.06Zm3.14-.3A1.13,1.13,0,0,0,78,596.51a1.11,1.11,0,0,0-1.08-1.19,1.14,1.14,0,0,0-1.2,1.2A1.12,1.12,0,0,0,76.81,597.72Z" transform="translate(-9.05 -5.23)"/><path d="M72.42,599.75a14.54,14.54,0,0,0,1.88,2.35,3.74,3.74,0,0,0,2.33,1.29c.76,0,1.35-.35,1.35-1.19,0-1-.92-1.34-1.69-1.37l.07-.81a2.21,2.21,0,0,1,2.32,2.17,1.93,1.93,0,0,1-2,2,4.61,4.61,0,0,1-2.9-1.62A12.21,12.21,0,0,1,72.41,601v3.62h-.72v-4.82Z" transform="translate(-9.05 -5.23)"/></g><line class="cls-4" x1="80.86" y1="567.72" x2="80.86" y2="573.72"/><g class="cls-3"><path d="M92.48,586.1v-1.61h.68v.84a.79.79,0,0,0,.84.84h.14v.77h-6.9v-.84Z" transform="translate(-9.05 -5.23)"/><path d="M89.77,591.26a2.6,2.6,0,0,1-.06-.56,2.22,2.22,0,0,1,2.21-2.31,2.32,2.32,0,0,1,0,4.63,2.24,2.24,0,0,1-1.19-.34l-3.5-2v-.92Zm2.16,1a1.51,1.51,0,1,0-1.55-1.51A1.52,1.52,0,0,0,91.93,592.21Z" transform="translate(-9.05 -5.23)"/><path d="M89.16,594.15a1.89,1.89,0,0,1,1.8,1.18,1.71,1.71,0,0,1,1.49-.83,2,2,0,0,1,0,4,1.71,1.71,0,0,1-1.49-.83,1.89,1.89,0,0,1-1.8,1.18c-1.37,0-2-1.1-2-2.36A2.07,2.07,0,0,1,89.16,594.15Zm.06,3.87a1.54,1.54,0,0,0,0-3.06,1.54,1.54,0,0,0,0,3.06Zm3.14-.3a1.13,1.13,0,0,0,1.15-1.21,1.11,1.11,0,0,0-1.08-1.19,1.14,1.14,0,0,0-1.2,1.2A1.12,1.12,0,0,0,92.36,597.72Z" transform="translate(-9.05 -5.23)"/><path d="M89.22,599.7l.07.78a1.59,1.59,0,0,0-.06,3.16,1.31,1.31,0,0,0,1.3-1.49v-.5h.74v.5a1,1,0,0,0,1.09,1.11A1.13,1.13,0,0,0,93.49,602a1.17,1.17,0,0,0-1.18-1.24l.08-.77a2,2,0,0,1,0,4,1.72,1.72,0,0,1-1.48-.79,1.76,1.76,0,0,1-1.74,1.15,2.37,2.37,0,0,1,0-4.71Z" transform="translate(-9.05 -5.23)"/></g><line class="cls-4" x1="96.41" y1="567.72" x2="96.41" y2="573.72"/><g class="cls-3"><path d="M108,586.1v-1.61h.68v.84a.79.79,0,0,0,.84.84h.14v.77h-6.9v-.84Z" transform="translate(-9.05 -5.23)"/><path d="M105.32,591.26a2.6,2.6,0,0,1-.06-.56,2.22,2.22,0,0,1,2.21-2.31,2.32,2.32,0,1,1,0,4.63,2.24,2.24,0,0,1-1.19-.34l-3.5-2v-.92Zm2.16,1a1.51,1.51,0,1,0-1.55-1.51A1.52,1.52,0,0,0,107.48,592.21Z" transform="translate(-9.05 -5.23)"/><path d="M104.71,594.15a1.89,1.89,0,0,1,1.8,1.18,1.71,1.71,0,0,1,1.49-.83,2,2,0,0,1,0,4,1.71,1.71,0,0,1-1.49-.83,1.89,1.89,0,0,1-1.8,1.18c-1.37,0-2-1.1-2-2.36A2.07,2.07,0,0,1,104.71,594.15Zm.06,3.87a1.54,1.54,0,0,0,0-3.06,1.54,1.54,0,0,0,0,3.06Zm3.14-.3a1.13,1.13,0,0,0,1.15-1.21,1.11,1.11,0,0,0-1.08-1.19,1.14,1.14,0,0,0-1.2,1.2A1.12,1.12,0,0,0,107.91,597.72Z" transform="translate(-9.05 -5.23)"/><path d="M104.61,602.84v-3.19h.48l4.6,3.27v.74h-4.35v1.09h-.73v-1.09h-1.82v-.82Zm.73,0h3.08l-3.08-2.19Z" transform="translate(-9.05 -5.23)"/></g><line class="cls-4" x1="111.96" y1="567.72" x2="111.96" y2="573.72"/><g class="cls-3"><path d="M123.58,586.1v-1.61h.68v.84a.79.79,0,0,0,.84.84h.14v.77h-6.9v-.84Z" transform="translate(-9.05 -5.23)"/><path d="M120.87,591.26a2.6,2.6,0,0,1-.06-.56,2.22,2.22,0,0,1,2.21-2.31,2.32,2.32,0,1,1,0,4.63,2.24,2.24,0,0,1-1.19-.34l-3.5-2v-.92Zm2.16,1a1.51,1.51,0,1,0-1.55-1.51A1.52,1.52,0,0,0,123,592.21Z" transform="translate(-9.05 -5.23)"/><path d="M120.26,594.15a1.89,1.89,0,0,1,1.8,1.18,1.71,1.71,0,0,1,1.49-.83,2,2,0,0,1,0,4,1.71,1.71,0,0,1-1.49-.83,1.89,1.89,0,0,1-1.8,1.18c-1.37,0-2-1.1-2-2.36A2.07,2.07,0,0,1,120.26,594.15Zm.06,3.87a1.54,1.54,0,0,0,0-3.06,1.54,1.54,0,0,0,0,3.06Zm3.14-.3a1.13,1.13,0,0,0,1.15-1.21,1.11,1.11,0,0,0-1.08-1.19,1.14,1.14,0,0,0-1.2,1.2A1.12,1.12,0,0,0,123.46,597.72Z" transform="translate(-9.05 -5.23)"/><path d="M120.18,600l.24.75a1.62,1.62,0,0,0-1.46,1.54,1.58,1.58,0,0,0,1.64,1.47,1.47,1.47,0,0,0,1.57-1.47,1.61,1.61,0,0,0-.73-1.34l.3-.72,3.5.61v3.47h-.74v-2.83l-2.1-.35a2.18,2.18,0,0,1,.48,1.34,2.24,2.24,0,0,1-2.29,2.14,2.37,2.37,0,0,1-2.35-2.32A2.4,2.4,0,0,1,120.18,600Z" transform="translate(-9.05 -5.23)"/></g><line class="cls-4" x1="127.51" y1="567.72" x2="127.51" y2="573.72"/><g class="cls-3"><path d="M139.12,586.1v-1.61h.68v.84a.79.79,0,0,0,.84.84h.14v.77h-6.89v-.84Z" transform="translate(-9.05 -5.23)"/><path d="M136.42,591.26a2.6,2.6,0,0,1-.06-.56,2.22,2.22,0,0,1,2.2-2.31,2.32,2.32,0,1,1,0,4.63,2.24,2.24,0,0,1-1.19-.34l-3.49-2v-.92Zm2.15,1A1.51,1.51,0,1,0,137,590.7,1.52,1.52,0,0,0,138.57,592.21Z" transform="translate(-9.05 -5.23)"/><path d="M135.81,594.15a1.88,1.88,0,0,1,1.79,1.18,1.71,1.71,0,0,1,1.49-.83,2,2,0,0,1,0,4,1.71,1.71,0,0,1-1.49-.83,1.88,1.88,0,0,1-1.79,1.18c-1.37,0-2-1.1-2-2.36A2.07,2.07,0,0,1,135.81,594.15Zm.06,3.87a1.54,1.54,0,0,0,0-3.06,1.54,1.54,0,0,0,0,3.06Zm3.13-.3a1.13,1.13,0,0,0,1.15-1.21,1.11,1.11,0,0,0-1.08-1.19,1.13,1.13,0,0,0-1.19,1.2A1.11,1.11,0,0,0,139,597.72Z" transform="translate(-9.05 -5.23)"/><path d="M136.1,600.09a2.16,2.16,0,0,1,1.19.34l3.49,2v.93l-2.53-1.52a2.6,2.6,0,0,1,.06.56,2.21,2.21,0,0,1-2.2,2.3,2.31,2.31,0,1,1,0-4.62Zm0,3.81a1.5,1.5,0,1,0,0-3,1.5,1.5,0,1,0,0,3Z" transform="translate(-9.05 -5.23)"/></g><line class="cls-4" x1="143.06" y1="567.72" x2="143.06" y2="573.72"/><g class="cls-3"><path d="M154.67,586.1v-1.61h.68v.84a.79.79,0,0,0,.84.84h.14v.77h-6.89v-.84Z" transform="translate(-9.05 -5.23)"/><path d="M152,591.26a2.6,2.6,0,0,1-.06-.56,2.22,2.22,0,0,1,2.21-2.31,2.32,2.32,0,1,1,0,4.63,2.24,2.24,0,0,1-1.19-.34l-3.49-2v-.92Zm2.16,1a1.51,1.51,0,1,0-1.55-1.51A1.52,1.52,0,0,0,154.12,592.21Z" transform="translate(-9.05 -5.23)"/><path d="M151.35,594.15a1.89,1.89,0,0,1,1.8,1.18,1.71,1.71,0,0,1,1.49-.83,2,2,0,0,1,0,4,1.71,1.71,0,0,1-1.49-.83,1.89,1.89,0,0,1-1.8,1.18c-1.36,0-2-1.1-2-2.36A2.07,2.07,0,0,1,151.35,594.15Zm.06,3.87a1.54,1.54,0,0,0,0-3.06,1.54,1.54,0,0,0,0,3.06Zm3.14-.3a1.13,1.13,0,0,0,1.15-1.21,1.11,1.11,0,0,0-1.08-1.19,1.14,1.14,0,0,0-1.2,1.2A1.12,1.12,0,0,0,154.55,597.72Z" transform="translate(-9.05 -5.23)"/><path d="M155.59,603.3v-3.6h.74v4.57h-.42l-6.47-3v-.92Z" transform="translate(-9.05 -5.23)"/></g><line class="cls-4" x1="158.6" y1="567.72" x2="158.6" y2="573.72"/><g class="cls-3"><path d="M170.22,586.1v-1.61h.68v.84a.79.79,0,0,0,.84.84h.14v.77H165v-.84Z" transform="translate(-9.05 -5.23)"/><path d="M167.51,591.26a2.6,2.6,0,0,1-.06-.56,2.22,2.22,0,0,1,2.21-2.31,2.32,2.32,0,1,1,0,4.63,2.24,2.24,0,0,1-1.19-.34l-3.5-2v-.92Zm2.16,1a1.51,1.51,0,1,0-1.55-1.51A1.52,1.52,0,0,0,169.67,592.21Z" transform="translate(-9.05 -5.23)"/><path d="M166.9,594.15a1.89,1.89,0,0,1,1.8,1.18,1.71,1.71,0,0,1,1.49-.83,2,2,0,0,1,0,4,1.71,1.71,0,0,1-1.49-.83,1.89,1.89,0,0,1-1.8,1.18c-1.37,0-2-1.1-2-2.36A2.07,2.07,0,0,1,166.9,594.15ZM167,598a1.54,1.54,0,0,0,0-3.06,1.54,1.54,0,0,0,0,3.06Zm3.14-.3a1.13,1.13,0,0,0,1.15-1.21,1.11,1.11,0,0,0-1.08-1.19,1.14,1.14,0,0,0-1.2,1.2A1.12,1.12,0,0,0,170.1,597.72Z" transform="translate(-9.05 -5.23)"/><path d="M166.9,600a1.89,1.89,0,0,1,1.8,1.18,1.71,1.71,0,0,1,1.49-.83,2,2,0,0,1,0,4,1.71,1.71,0,0,1-1.49-.83,1.88,1.88,0,0,1-1.8,1.17c-1.37,0-2-1.09-2-2.35A2.07,2.07,0,0,1,166.9,600Zm.06,3.86a1.54,1.54,0,0,0,0-3,1.53,1.53,0,0,0,0,3Zm3.14-.29a1.13,1.13,0,0,0,1.15-1.21,1.11,1.11,0,0,0-1.08-1.19,1.14,1.14,0,0,0-1.2,1.2A1.12,1.12,0,0,0,170.1,603.52Z" transform="translate(-9.05 -5.23)"/></g><line class="cls-4" x1="174.15" y1="567.72" x2="174.15" y2="573.72"/><g class="cls-3"><path d="M185.77,586.1v-1.61h.68v.84a.79.79,0,0,0,.84.84h.14v.77h-6.9v-.84Z" transform="translate(-9.05 -5.23)"/><path d="M183.06,591.26a2.6,2.6,0,0,1-.06-.56,2.22,2.22,0,0,1,2.21-2.31,2.32,2.32,0,1,1,0,4.63,2.24,2.24,0,0,1-1.19-.34l-3.5-2v-.92Zm2.16,1a1.51,1.51,0,1,0-1.55-1.51A1.52,1.52,0,0,0,185.22,592.21Z" transform="translate(-9.05 -5.23)"/><path d="M182.45,594.15a1.89,1.89,0,0,1,1.8,1.18,1.71,1.71,0,0,1,1.49-.83,2,2,0,0,1,0,4,1.71,1.71,0,0,1-1.49-.83,1.89,1.89,0,0,1-1.8,1.18c-1.37,0-2-1.1-2-2.36A2.07,2.07,0,0,1,182.45,594.15Zm.06,3.87a1.54,1.54,0,0,0,0-3.06,1.54,1.54,0,0,0,0,3.06Zm3.14-.3a1.13,1.13,0,0,0,1.15-1.21,1.11,1.11,0,0,0-1.08-1.19,1.14,1.14,0,0,0-1.2,1.2A1.12,1.12,0,0,0,185.65,597.72Z" transform="translate(-9.05 -5.23)"/><path d="M183.06,602.72a2.6,2.6,0,0,1-.06-.56,2.22,2.22,0,0,1,2.21-2.31,2.32,2.32,0,0,1,0,4.63,2.24,2.24,0,0,1-1.19-.34l-3.5-2v-.92Zm2.16.95a1.51,1.51,0,1,0-1.55-1.51A1.52,1.52,0,0,0,185.22,603.67Z" transform="translate(-9.05 -5.23)"/></g><line class="cls-4" x1="189.7" y1="567.72" x2="189.7" y2="573.72"/><g class="cls-3"><path d="M201.32,586.1v-1.61H202v.84a.79.79,0,0,0,.84.84H203v.77h-6.9v-.84Z" transform="translate(-9.05 -5.23)"/><path d="M198.61,591.26a2.6,2.6,0,0,1-.06-.56,2.22,2.22,0,0,1,2.21-2.31,2.32,2.32,0,1,1,0,4.63,2.24,2.24,0,0,1-1.19-.34l-3.5-2v-.92Zm2.16,1a1.51,1.51,0,1,0-1.55-1.51A1.52,1.52,0,0,0,200.77,592.21Z" transform="translate(-9.05 -5.23)"/><path d="M198.61,596.92a2.6,2.6,0,0,1-.06-.56,2.22,2.22,0,0,1,2.21-2.31,2.32,2.32,0,1,1,0,4.63,2.16,2.16,0,0,1-1.19-.34l-3.5-2v-.92Zm2.16,1a1.51,1.51,0,1,0-1.55-1.51A1.52,1.52,0,0,0,200.77,597.87Z" transform="translate(-9.05 -5.23)"/><path d="M199.53,599.66c1.54,0,3.56.63,3.56,2.53,0,1.72-1.79,2.58-3.58,2.58s-3.53-.84-3.53-2.51C196,600.3,198,599.66,199.53,599.66Zm0,4.23c1.2,0,2.76-.41,2.76-1.7s-1.57-1.71-2.77-1.71-2.78.42-2.78,1.75S198.38,603.89,199.54,603.89Z" transform="translate(-9.05 -5.23)"/></g><line class="cls-4" x1="205.25" y1="567.72" x2="205.25" y2="573.72"/><g class="cls-3"><path d="M216.87,586.1v-1.61h.68v.84a.79.79,0,0,0,.84.84h.14v.77h-6.9v-.84Z" transform="translate(-9.05 -5.23)"/><path d="M214.16,591.26a2.6,2.6,0,0,1-.06-.56,2.22,2.22,0,0,1,2.21-2.31,2.31,2.31,0,1,1,0,4.62,2.16,2.16,0,0,1-1.19-.34l-3.5-2v-.92Zm2.16.94a1.5,1.5,0,1,0-1.55-1.5A1.52,1.52,0,0,0,216.32,592.2Z" transform="translate(-9.05 -5.23)"/><path d="M214.16,596.92a2.6,2.6,0,0,1-.06-.56,2.22,2.22,0,0,1,2.21-2.31,2.31,2.31,0,1,1,0,4.62,2.08,2.08,0,0,1-1.19-.34l-3.5-2v-.92Zm2.16.94a1.5,1.5,0,1,0-1.55-1.5A1.52,1.52,0,0,0,216.32,597.86Z" transform="translate(-9.05 -5.23)"/><path d="M216.87,601.24v-1.61h.68v.84a.79.79,0,0,0,.84.84h.14v.77h-6.9v-.84Z" transform="translate(-9.05 -5.23)"/></g><line class="cls-4" x1="220.8" y1="567.72" x2="220.8" y2="573.72"/><g class="cls-3"><path d="M232.42,586.1v-1.61h.68v.84a.79.79,0,0,0,.84.84h.14v.77h-6.9v-.84Z" transform="translate(-9.05 -5.23)"/><path d="M229.71,591.26a2.6,2.6,0,0,1-.06-.56,2.22,2.22,0,0,1,2.21-2.31,2.31,2.31,0,1,1,0,4.62,2.16,2.16,0,0,1-1.19-.34l-3.5-2v-.92Zm2.16.94a1.5,1.5,0,1,0-1.55-1.5A1.52,1.52,0,0,0,231.87,592.2Z" transform="translate(-9.05 -5.23)"/><path d="M229.71,596.92a2.6,2.6,0,0,1-.06-.56,2.22,2.22,0,0,1,2.21-2.31,2.31,2.31,0,1,1,0,4.62,2.08,2.08,0,0,1-1.19-.34l-3.5-2v-.92Zm2.16.94a1.5,1.5,0,1,0-1.55-1.5A1.52,1.52,0,0,0,231.87,597.86Z" transform="translate(-9.05 -5.23)"/><path d="M227.91,599.61a14.54,14.54,0,0,0,1.88,2.35,3.75,3.75,0,0,0,2.33,1.3c.76,0,1.35-.37,1.35-1.2,0-1-.92-1.34-1.69-1.37l.07-.81a2.21,2.21,0,0,1,2.32,2.17,1.93,1.93,0,0,1-2,2,4.66,4.66,0,0,1-2.9-1.62,12.21,12.21,0,0,1-1.35-1.66v3.62h-.72v-4.82Z" transform="translate(-9.05 -5.23)"/></g><line class="cls-4" x1="236.35" y1="567.72" x2="236.35" y2="573.72"/><g class="cls-3"><path d="M248,586.1v-1.61h.68v.84a.78.78,0,0,0,.83.84h.15v.77h-6.9v-.84Z" transform="translate(-9.05 -5.23)"/><path d="M245.26,591.26a2.6,2.6,0,0,1-.06-.56,2.22,2.22,0,0,1,2.21-2.31,2.31,2.31,0,0,1,0,4.62,2.16,2.16,0,0,1-1.19-.34l-3.5-2v-.92Zm2.16.94a1.5,1.5,0,1,0-1.55-1.5A1.52,1.52,0,0,0,247.42,592.2Z" transform="translate(-9.05 -5.23)"/><path d="M245.26,596.92a2.6,2.6,0,0,1-.06-.56,2.22,2.22,0,0,1,2.21-2.31,2.31,2.31,0,0,1,0,4.62,2.08,2.08,0,0,1-1.19-.34l-3.5-2v-.92Zm2.16.94a1.5,1.5,0,1,0-1.55-1.5A1.52,1.52,0,0,0,247.42,597.86Z" transform="translate(-9.05 -5.23)"/><path d="M244.71,599.56l.07.78a1.44,1.44,0,0,0-1.41,1.58,1.42,1.42,0,0,0,1.35,1.57A1.31,1.31,0,0,0,246,602v-.5h.74v.5a1,1,0,0,0,1.09,1.1A1.12,1.12,0,0,0,249,601.9a1.16,1.16,0,0,0-1.17-1.24l.08-.77a2,2,0,0,1,.05,4,1.72,1.72,0,0,1-1.48-.79,1.77,1.77,0,0,1-1.74,1.16,2.37,2.37,0,0,1,0-4.71Z" transform="translate(-9.05 -5.23)"/></g><line class="cls-4" x1="251.9" y1="567.72" x2="251.9" y2="573.72"/><g class="cls-3"><path d="M263.51,586.1v-1.61h.68v.84a.79.79,0,0,0,.84.84h.14v.77h-6.89v-.84Z" transform="translate(-9.05 -5.23)"/><path d="M260.81,591.26a2.6,2.6,0,0,1-.06-.56,2.22,2.22,0,0,1,2.21-2.31,2.31,2.31,0,0,1,0,4.62,2.13,2.13,0,0,1-1.19-.34l-3.5-2v-.92Zm2.16.94a1.5,1.5,0,1,0-1.55-1.5A1.51,1.51,0,0,0,263,592.2Z" transform="translate(-9.05 -5.23)"/><path d="M260.81,596.92a2.6,2.6,0,0,1-.06-.56,2.22,2.22,0,0,1,2.21-2.31,2.31,2.31,0,0,1,0,4.62,2.05,2.05,0,0,1-1.19-.34l-3.5-2v-.92Zm2.16.94a1.5,1.5,0,1,0-1.55-1.5A1.51,1.51,0,0,0,263,597.86Z" transform="translate(-9.05 -5.23)"/><path d="M260.1,602.69v-3.18h.48l4.59,3.26v.75h-4.34v1.09h-.73v-1.09h-1.82v-.83Zm.73,0h3.07l-3.07-2.18Z" transform="translate(-9.05 -5.23)"/></g><line class="cls-4" x1="298.54" y1="567.68" x2="298.54" y2="573.68"/><g class="cls-3"><path d="M310.16,586.06v-1.61h.68v.84a.79.79,0,0,0,.84.84h.14v.77h-6.9v-.84Z" transform="translate(-9.05 -5.23)"/><path d="M307.45,591.22a2.6,2.6,0,0,1-.06-.56,2.22,2.22,0,0,1,2.21-2.31,2.32,2.32,0,0,1,0,4.63,2.16,2.16,0,0,1-1.19-.34l-3.5-2v-.92Zm2.16.95a1.51,1.51,0,1,0-1.55-1.51A1.52,1.52,0,0,0,309.61,592.17Z" transform="translate(-9.05 -5.23)"/><path d="M307.45,596.88a2.6,2.6,0,0,1-.06-.56A2.22,2.22,0,0,1,309.6,594a2.32,2.32,0,1,1,0,4.63,2.16,2.16,0,0,1-1.19-.34l-3.5-2v-.92Zm2.16,1a1.51,1.51,0,1,0-1.55-1.51A1.52,1.52,0,0,0,309.61,597.83Z" transform="translate(-9.05 -5.23)"/><path d="M311.08,603.12v-3.6h.74v4.58h-.42l-6.48-3v-.92Z" transform="translate(-9.05 -5.23)"/></g><line class="cls-4" x1="329.64" y1="567.45" x2="329.64" y2="573.45"/><g class="cls-3"><path d="M341.26,585.82v-1.6h.68v.84a.78.78,0,0,0,.84.83h.14v.77H336v-.84Z" transform="translate(-9.05 -5.23)"/><path d="M338.55,591a2.6,2.6,0,0,1-.06-.56,2.21,2.21,0,0,1,2.21-2.3,2.31,2.31,0,1,1,0,4.62,2.16,2.16,0,0,1-1.19-.34l-3.5-2v-.91Zm2.16.95a1.5,1.5,0,1,0-1.55-1.51A1.52,1.52,0,0,0,340.71,591.93Z" transform="translate(-9.05 -5.23)"/><path d="M338.55,596.64a2.6,2.6,0,0,1-.06-.56,2.22,2.22,0,0,1,2.21-2.3,2.31,2.31,0,1,1,0,4.62,2.16,2.16,0,0,1-1.19-.34l-3.5-2v-.92Zm2.16,1a1.5,1.5,0,1,0-1.55-1.51A1.52,1.52,0,0,0,340.71,597.59Z" transform="translate(-9.05 -5.23)"/><path d="M338.55,602.3a2.6,2.6,0,0,1-.06-.56,2.22,2.22,0,0,1,2.21-2.3,2.31,2.31,0,1,1,0,4.62,2.16,2.16,0,0,1-1.19-.34l-3.5-2v-.91Zm2.16,1a1.51,1.51,0,1,0-1.55-1.51A1.52,1.52,0,0,0,340.71,603.25Z" transform="translate(-9.05 -5.23)"/></g><line class="cls-4" x1="267.44" y1="567.72" x2="267.44" y2="573.72"/><g class="cls-3"><path d="M279.06,586.1v-1.61h.68v.84a.79.79,0,0,0,.84.84h.14v.77h-6.89v-.84Z" transform="translate(-9.05 -5.23)"/><path d="M276.35,591.26a2.59,2.59,0,0,1-.05-.56,2.21,2.21,0,0,1,2.2-2.31,2.31,2.31,0,1,1,0,4.62,2.16,2.16,0,0,1-1.19-.34l-3.49-2v-.92Zm2.16.94a1.5,1.5,0,1,0-1.54-1.5A1.52,1.52,0,0,0,278.51,592.2Z" transform="translate(-9.05 -5.23)"/><path d="M276.35,596.92a2.59,2.59,0,0,1-.05-.56,2.21,2.21,0,0,1,2.2-2.31,2.31,2.31,0,1,1,0,4.62,2.08,2.08,0,0,1-1.19-.34l-3.49-2v-.92Zm2.16.94a1.5,1.5,0,1,0-1.54-1.5A1.52,1.52,0,0,0,278.51,597.86Z" transform="translate(-9.05 -5.23)"/><path d="M275.67,599.85l.24.75a1.62,1.62,0,0,0-1.46,1.54,1.57,1.57,0,0,0,1.64,1.46,1.47,1.47,0,0,0,1.56-1.46,1.61,1.61,0,0,0-.73-1.34l.3-.72,3.5.61v3.46H280v-2.82l-2.1-.35a2.18,2.18,0,0,1,.48,1.33,2.24,2.24,0,0,1-2.28,2.15,2.32,2.32,0,0,1-.41-4.61Z" transform="translate(-9.05 -5.23)"/></g><line class="cls-4" x1="282.99" y1="567.72" x2="282.99" y2="573.72"/><g class="cls-3"><path d="M294.61,586.1v-1.61h.68v.84a.79.79,0,0,0,.84.84h.14v.77h-6.89v-.84Z" transform="translate(-9.05 -5.23)"/><path d="M291.9,591.26a2.6,2.6,0,0,1-.06-.56,2.22,2.22,0,0,1,2.21-2.31,2.32,2.32,0,1,1,0,4.63,2.24,2.24,0,0,1-1.19-.34l-3.49-2v-.92Zm2.16,1a1.51,1.51,0,1,0-1.55-1.51A1.52,1.52,0,0,0,294.06,592.21Z" transform="translate(-9.05 -5.23)"/><path d="M291.9,596.92a2.6,2.6,0,0,1-.06-.56,2.22,2.22,0,0,1,2.21-2.31,2.32,2.32,0,1,1,0,4.63,2.16,2.16,0,0,1-1.19-.34l-3.49-2v-.92Zm2.16,1a1.51,1.51,0,1,0-1.55-1.51A1.52,1.52,0,0,0,294.06,597.87Z" transform="translate(-9.05 -5.23)"/><path d="M291.58,599.5a2.16,2.16,0,0,1,1.19.34l3.5,2v.93l-2.53-1.52a2.6,2.6,0,0,1,.06.56,2.21,2.21,0,0,1-2.21,2.3,2.31,2.31,0,0,1,0-4.62Zm0,3.81a1.5,1.5,0,1,0-1.55-1.49A1.51,1.51,0,0,0,291.58,603.31Z" transform="translate(-9.05 -5.23)"/></g><line class="cls-4" x1="314.09" y1="567.72" x2="314.09" y2="573.72"/><g class="cls-3"><path d="M325.71,586.1v-1.61h.68v.84a.79.79,0,0,0,.84.84h.14v.77h-6.9v-.84Z" transform="translate(-9.05 -5.23)"/><path d="M323,591.26a2.6,2.6,0,0,1-.06-.56,2.22,2.22,0,0,1,2.21-2.31,2.31,2.31,0,1,1,0,4.62,2.16,2.16,0,0,1-1.19-.34l-3.5-2v-.92Zm2.16.94a1.5,1.5,0,1,0-1.55-1.5A1.52,1.52,0,0,0,325.16,592.2Z" transform="translate(-9.05 -5.23)"/><path d="M323,596.92a2.6,2.6,0,0,1-.06-.56,2.22,2.22,0,0,1,2.21-2.31,2.31,2.31,0,1,1,0,4.62,2.08,2.08,0,0,1-1.19-.34l-3.5-2v-.92Zm2.16.94a1.5,1.5,0,1,0-1.55-1.5A1.52,1.52,0,0,0,325.16,597.86Z" transform="translate(-9.05 -5.23)"/><path d="M322.39,599.81a1.89,1.89,0,0,1,1.8,1.18,1.71,1.71,0,0,1,1.49-.83,2,2,0,0,1,0,4,1.71,1.71,0,0,1-1.49-.83,1.89,1.89,0,0,1-1.8,1.18c-1.37,0-2-1.1-2-2.36A2.07,2.07,0,0,1,322.39,599.81Zm.06,3.86a1.54,1.54,0,0,0,0-3,1.53,1.53,0,0,0,0,3Zm3.14-.3a1.13,1.13,0,0,0,1.15-1.2,1.11,1.11,0,0,0-1.08-1.19,1.14,1.14,0,0,0-1.2,1.2A1.11,1.11,0,0,0,325.59,603.37Z" transform="translate(-9.05 -5.23)"/></g><line class="cls-4" x1="345.19" y1="567.72" x2="345.19" y2="573.72"/><g class="cls-3"><path d="M352.3,584.47a14.54,14.54,0,0,0,1.88,2.35,3.75,3.75,0,0,0,2.33,1.3c.76,0,1.34-.36,1.34-1.2,0-1-.91-1.34-1.68-1.37l.07-.81a2.21,2.21,0,0,1,2.31,2.17,1.93,1.93,0,0,1-2,2.05,4.63,4.63,0,0,1-2.9-1.63,12.21,12.21,0,0,1-1.35-1.66v3.63h-.72v-4.83Z" transform="translate(-9.05 -5.23)"/><path d="M355,590.1c1.54,0,3.55.63,3.55,2.53,0,1.72-1.78,2.59-3.57,2.59s-3.53-.85-3.53-2.52C351.47,590.74,353.49,590.1,355,590.1Zm0,4.24c1.2,0,2.76-.42,2.76-1.71s-1.57-1.71-2.77-1.71-2.78.42-2.78,1.75S353.87,594.34,355,594.34Z" transform="translate(-9.05 -5.23)"/><path d="M355,596c1.54,0,3.55.63,3.55,2.53,0,1.73-1.78,2.58-3.57,2.58s-3.53-.84-3.53-2.51C351.47,596.6,353.49,596,355,596Zm0,4.23c1.2,0,2.76-.41,2.76-1.7s-1.57-1.71-2.77-1.71-2.78.42-2.78,1.75S353.87,600.19,355,600.19Z" transform="translate(-9.05 -5.23)"/><path d="M355,601.82c1.54,0,3.55.63,3.55,2.53,0,1.72-1.78,2.59-3.57,2.59s-3.53-.85-3.53-2.52C351.47,602.46,353.49,601.82,355,601.82Zm0,4.24c1.2,0,2.76-.42,2.76-1.71s-1.57-1.71-2.77-1.71-2.78.42-2.78,1.75S353.87,606.06,355,606.06Z" transform="translate(-9.05 -5.23)"/></g><line class="cls-4" x1="360.74" y1="567.72" x2="360.74" y2="573.72"/><g class="cls-3"><path d="M367.85,584.47a14.54,14.54,0,0,0,1.88,2.35,3.76,3.76,0,0,0,2.32,1.3c.76,0,1.35-.36,1.35-1.2,0-1-.92-1.34-1.68-1.37l.06-.81a2.21,2.21,0,0,1,2.32,2.17,1.93,1.93,0,0,1-2,2,4.61,4.61,0,0,1-2.89-1.62,12.21,12.21,0,0,1-1.35-1.66v3.62h-.72v-4.82Z" transform="translate(-9.05 -5.23)"/><path d="M370.57,590.1c1.53,0,3.55.63,3.55,2.53,0,1.72-1.79,2.58-3.57,2.58s-3.53-.85-3.53-2.51C367,590.74,369,590.1,370.57,590.1Zm0,4.24c1.19,0,2.75-.42,2.75-1.71s-1.57-1.71-2.76-1.71-2.78.42-2.78,1.75S369.42,594.34,370.58,594.34Z" transform="translate(-9.05 -5.23)"/><path d="M370.57,596c1.53,0,3.55.63,3.55,2.53,0,1.72-1.79,2.58-3.57,2.58s-3.53-.84-3.53-2.51C367,596.6,369,596,370.57,596Zm0,4.23c1.19,0,2.75-.42,2.75-1.7s-1.57-1.71-2.76-1.71-2.78.42-2.78,1.75S369.42,600.19,370.58,600.19Z" transform="translate(-9.05 -5.23)"/><path d="M372.35,603.4v-1.61H373v.84a.79.79,0,0,0,.84.84H374v.77h-6.89v-.84Z" transform="translate(-9.05 -5.23)"/></g><line class="cls-4" x1="391.83" y1="568.2" x2="391.83" y2="574.2"/><g class="cls-3"><path d="M398.94,584.94a14.54,14.54,0,0,0,1.88,2.35,3.75,3.75,0,0,0,2.33,1.3c.76,0,1.35-.36,1.35-1.2,0-1-.92-1.34-1.69-1.37l.07-.81a2.21,2.21,0,0,1,2.32,2.17,1.93,1.93,0,0,1-2,2,4.63,4.63,0,0,1-2.9-1.63,12.21,12.21,0,0,1-1.35-1.66v3.63h-.71v-4.83Z" transform="translate(-9.05 -5.23)"/><path d="M401.66,590.57c1.54,0,3.56.63,3.56,2.53,0,1.73-1.79,2.59-3.58,2.59s-3.52-.85-3.52-2.52C398.12,591.21,400.13,590.57,401.66,590.57Zm0,4.24c1.2,0,2.76-.42,2.76-1.71s-1.57-1.71-2.77-1.71-2.78.42-2.78,1.75S400.51,594.81,401.67,594.81Z" transform="translate(-9.05 -5.23)"/><path d="M401.66,596.43c1.54,0,3.56.63,3.56,2.53,0,1.73-1.79,2.59-3.58,2.59s-3.52-.85-3.52-2.52C398.12,597.07,400.13,596.43,401.66,596.43Zm0,4.24c1.2,0,2.76-.42,2.76-1.71s-1.57-1.71-2.77-1.71-2.78.42-2.78,1.75S400.51,600.67,401.67,600.67Z" transform="translate(-9.05 -5.23)"/><path d="M400.19,602.19l.07.78a1.59,1.59,0,0,0-.06,3.16,1.31,1.31,0,0,0,1.3-1.49v-.5h.74v.5a1,1,0,0,0,1.09,1.11,1.13,1.13,0,0,0,1.13-1.22,1.17,1.17,0,0,0-1.18-1.24l.08-.77a2,2,0,0,1,.05,4,1.72,1.72,0,0,1-1.48-.79,1.77,1.77,0,0,1-1.74,1.16,2.38,2.38,0,0,1,0-4.72Z" transform="translate(-9.05 -5.23)"/></g><line class="cls-4" x1="376.29" y1="567.72" x2="376.29" y2="573.72"/><g class="cls-3"><path d="M383.4,584.47a14.82,14.82,0,0,0,1.87,2.35,3.75,3.75,0,0,0,2.33,1.3c.76,0,1.35-.36,1.35-1.2,0-1-.92-1.34-1.69-1.37l.07-.81a2.21,2.21,0,0,1,2.32,2.17,1.93,1.93,0,0,1-2,2,4.56,4.56,0,0,1-2.89-1.62,12.21,12.21,0,0,1-1.35-1.66v3.62h-.72v-4.82Z" transform="translate(-9.05 -5.23)"/><path d="M386.11,590.1c1.54,0,3.56.63,3.56,2.53,0,1.72-1.79,2.58-3.58,2.58s-3.52-.85-3.52-2.51C382.57,590.74,384.59,590.1,386.11,590.1Zm0,4.24c1.2,0,2.76-.42,2.76-1.71s-1.57-1.71-2.77-1.71-2.77.42-2.77,1.75S385,594.34,386.12,594.34Z" transform="translate(-9.05 -5.23)"/><path d="M386.11,596c1.54,0,3.56.63,3.56,2.53,0,1.72-1.79,2.58-3.58,2.58s-3.52-.84-3.52-2.51C382.57,596.6,384.59,596,386.11,596Zm0,4.23c1.2,0,2.76-.42,2.76-1.7s-1.57-1.71-2.77-1.71-2.77.42-2.77,1.75S385,600.19,386.12,600.19Z" transform="translate(-9.05 -5.23)"/><path d="M383.4,601.77a14.82,14.82,0,0,0,1.87,2.35,3.75,3.75,0,0,0,2.33,1.3c.76,0,1.35-.36,1.35-1.2,0-1-.92-1.34-1.69-1.37l.07-.81a2.21,2.21,0,0,1,2.32,2.17,1.93,1.93,0,0,1-2,2,4.56,4.56,0,0,1-2.89-1.62,12.21,12.21,0,0,1-1.35-1.66v3.62h-.72v-4.82Z" transform="translate(-9.05 -5.23)"/></g><line class="cls-4" x1="407.38" y1="567.72" x2="407.38" y2="573.72"/><g class="cls-3"><path d="M414.49,584.47a14.54,14.54,0,0,0,1.88,2.35,3.75,3.75,0,0,0,2.33,1.3c.76,0,1.35-.36,1.35-1.2,0-1-.92-1.34-1.69-1.37l.07-.81a2.21,2.21,0,0,1,2.32,2.17,1.93,1.93,0,0,1-2,2.05,4.63,4.63,0,0,1-2.9-1.63,12.21,12.21,0,0,1-1.35-1.66v3.63h-.72v-4.83Z" transform="translate(-9.05 -5.23)"/><path d="M417.21,590.1c1.54,0,3.56.63,3.56,2.53,0,1.72-1.79,2.59-3.58,2.59s-3.53-.85-3.53-2.52C413.66,590.74,415.68,590.1,417.21,590.1Zm0,4.24c1.2,0,2.76-.42,2.76-1.71s-1.57-1.71-2.77-1.71-2.78.42-2.78,1.75S416.06,594.34,417.22,594.34Z" transform="translate(-9.05 -5.23)"/><path d="M417.21,596c1.54,0,3.56.63,3.56,2.53,0,1.73-1.79,2.58-3.58,2.58s-3.53-.84-3.53-2.51C413.66,596.6,415.68,596,417.21,596Zm0,4.23c1.2,0,2.76-.41,2.76-1.7s-1.57-1.71-2.77-1.71-2.78.42-2.78,1.75S416.06,600.19,417.22,600.19Z" transform="translate(-9.05 -5.23)"/><path d="M415.58,604.86v-3.19h.48l4.6,3.27v.74h-4.35v1.09h-.73v-1.09h-1.82v-.82Zm.73,0h3.08l-3.08-2.19Z" transform="translate(-9.05 -5.23)"/></g><line class="cls-4" x1="422.93" y1="567.72" x2="422.93" y2="573.72"/><g class="cls-3"><path d="M430,584.47a14.54,14.54,0,0,0,1.88,2.35,3.75,3.75,0,0,0,2.33,1.3c.76,0,1.35-.36,1.35-1.2,0-1-.92-1.34-1.69-1.37l.07-.81a2.21,2.21,0,0,1,2.32,2.17,1.93,1.93,0,0,1-2,2,4.61,4.61,0,0,1-2.9-1.62,12.21,12.21,0,0,1-1.35-1.66v3.62h-.72v-4.82Z" transform="translate(-9.05 -5.23)"/><path d="M432.76,590.1c1.54,0,3.56.63,3.56,2.53,0,1.72-1.79,2.58-3.58,2.58s-3.53-.85-3.53-2.51C429.21,590.74,431.23,590.1,432.76,590.1Zm0,4.24c1.2,0,2.76-.42,2.76-1.71s-1.57-1.71-2.77-1.71-2.78.42-2.78,1.75S431.61,594.34,432.77,594.34Z" transform="translate(-9.05 -5.23)"/><path d="M432.76,596c1.54,0,3.56.63,3.56,2.53,0,1.72-1.79,2.58-3.58,2.58s-3.53-.84-3.53-2.51C429.21,596.6,431.23,596,432.76,596Zm0,4.23c1.2,0,2.76-.42,2.76-1.7s-1.57-1.71-2.77-1.71-2.78.42-2.78,1.75S431.61,600.19,432.77,600.19Z" transform="translate(-9.05 -5.23)"/><path d="M431.15,602l.24.75a1.62,1.62,0,0,0-1.46,1.54,1.58,1.58,0,0,0,1.64,1.47,1.48,1.48,0,0,0,1.57-1.47,1.61,1.61,0,0,0-.73-1.34l.3-.72,3.5.61v3.46h-.74v-2.82l-2.1-.35a2.18,2.18,0,0,1,.48,1.34,2.24,2.24,0,0,1-2.29,2.14,2.32,2.32,0,0,1-.41-4.61Z" transform="translate(-9.05 -5.23)"/></g><line class="cls-4" x1="438.48" y1="567.72" x2="438.48" y2="573.72"/><g class="cls-3"><path d="M445.59,584.47a14.54,14.54,0,0,0,1.88,2.35,3.75,3.75,0,0,0,2.33,1.3c.76,0,1.35-.36,1.35-1.2,0-1-.92-1.34-1.69-1.37l.07-.81a2.21,2.21,0,0,1,2.32,2.17,1.93,1.93,0,0,1-2,2.05,4.63,4.63,0,0,1-2.9-1.63,12.21,12.21,0,0,1-1.35-1.66v3.63h-.72v-4.83Z" transform="translate(-9.05 -5.23)"/><path d="M448.31,590.1c1.54,0,3.56.63,3.56,2.53,0,1.72-1.79,2.59-3.58,2.59s-3.53-.85-3.53-2.52C444.76,590.74,446.78,590.1,448.31,590.1Zm0,4.24c1.2,0,2.76-.42,2.76-1.71s-1.57-1.71-2.77-1.71-2.78.42-2.78,1.75S447.16,594.34,448.32,594.34Z" transform="translate(-9.05 -5.23)"/><path d="M448.31,596c1.54,0,3.56.63,3.56,2.53,0,1.73-1.79,2.58-3.58,2.58s-3.53-.84-3.53-2.51C444.76,596.6,446.78,596,448.31,596Zm0,4.23c1.2,0,2.76-.41,2.76-1.7s-1.57-1.71-2.77-1.71-2.78.42-2.78,1.75S447.16,600.19,448.32,600.19Z" transform="translate(-9.05 -5.23)"/><path d="M447.07,602.11a2.16,2.16,0,0,1,1.19.34l3.5,2v.93l-2.53-1.52a2.6,2.6,0,0,1,.06.56,2.21,2.21,0,0,1-2.21,2.3,2.31,2.31,0,1,1,0-4.62Zm0,3.82a1.51,1.51,0,1,0-1.55-1.5A1.52,1.52,0,0,0,447.07,605.93Z" transform="translate(-9.05 -5.23)"/></g><line class="cls-4" x1="656.16" y1="567.72" x2="656.16" y2="573.72"/><g class="cls-3"><path d="M669.44,585.06v1.11l-5.83,3h5.83V590h-6.9v-1.12l5.83-3h-5.83v-.84Z" transform="translate(-9.05 -5.23)"/><path d="M663.9,591.42c1,0,1.45.75,1.45,1.8v1.47c.9,0,1.45-.3,1.45-1.21a1.56,1.56,0,0,0-.7-1.27l.45-.6a2.19,2.19,0,0,1,1,1.91,1.78,1.78,0,0,1-2,1.9h-3v-.65l.84,0a1.89,1.89,0,0,1-.94-1.73A1.48,1.48,0,0,1,663.9,591.42Zm.81,3.27v-1.4c0-.59-.29-1-.81-1s-.75.45-.75,1A1.56,1.56,0,0,0,664.71,594.69Z" transform="translate(-9.05 -5.23)"/><path d="M669.44,597.07v1.11l-5.83,3h5.83V602h-6.9v-1.12l5.83-3h-5.83v-.84Z" transform="translate(-9.05 -5.23)"/></g><line class="cls-4" x1="454.03" y1="567.72" x2="454.03" y2="573.72"/><g class="cls-3"><path d="M461.14,584.47a14.54,14.54,0,0,0,1.88,2.35,3.75,3.75,0,0,0,2.33,1.3c.76,0,1.34-.36,1.34-1.2,0-1-.91-1.34-1.68-1.37l.07-.81a2.21,2.21,0,0,1,2.31,2.17,1.93,1.93,0,0,1-2,2.05,4.63,4.63,0,0,1-2.9-1.63,12.21,12.21,0,0,1-1.35-1.66v3.63h-.72v-4.83Z" transform="translate(-9.05 -5.23)"/><path d="M463.86,590.1c1.54,0,3.55.63,3.55,2.53,0,1.72-1.78,2.59-3.57,2.59s-3.53-.85-3.53-2.52C460.31,590.74,462.33,590.1,463.86,590.1Zm0,4.24c1.2,0,2.76-.42,2.76-1.71s-1.57-1.71-2.77-1.71-2.78.42-2.78,1.75S462.71,594.34,463.87,594.34Z" transform="translate(-9.05 -5.23)"/><path d="M463.86,596c1.54,0,3.55.63,3.55,2.53,0,1.73-1.78,2.58-3.57,2.58s-3.53-.84-3.53-2.51C460.31,596.6,462.33,596,463.86,596Zm0,4.23c1.2,0,2.76-.41,2.76-1.7s-1.57-1.71-2.77-1.71-2.78.42-2.78,1.75S462.71,600.19,463.87,600.19Z" transform="translate(-9.05 -5.23)"/><path d="M466.56,605.32v-3.6h.74v4.58h-.42l-6.47-3v-.92Z" transform="translate(-9.05 -5.23)"/></g><line class="cls-4" x1="469.58" y1="567.72" x2="469.58" y2="573.72"/><g class="cls-3"><path d="M476.69,584.47a14.54,14.54,0,0,0,1.88,2.35,3.75,3.75,0,0,0,2.33,1.3c.76,0,1.35-.36,1.35-1.2,0-1-.92-1.34-1.69-1.37l.07-.81a2.21,2.21,0,0,1,2.32,2.17,1.93,1.93,0,0,1-2,2,4.61,4.61,0,0,1-2.9-1.62,12.21,12.21,0,0,1-1.35-1.66v3.62H476v-4.82Z" transform="translate(-9.05 -5.23)"/><path d="M479.41,590.1c1.54,0,3.56.63,3.56,2.53,0,1.72-1.79,2.58-3.58,2.58s-3.53-.85-3.53-2.51C475.86,590.74,477.88,590.1,479.41,590.1Zm0,4.24c1.2,0,2.76-.42,2.76-1.71s-1.57-1.71-2.77-1.71-2.78.42-2.78,1.75S478.26,594.34,479.42,594.34Z" transform="translate(-9.05 -5.23)"/><path d="M479.41,596c1.54,0,3.56.63,3.56,2.53,0,1.72-1.79,2.58-3.58,2.58s-3.53-.84-3.53-2.51C475.86,596.6,477.88,596,479.41,596Zm0,4.23c1.2,0,2.76-.42,2.76-1.7s-1.57-1.71-2.77-1.71-2.78.42-2.78,1.75S478.26,600.19,479.42,600.19Z" transform="translate(-9.05 -5.23)"/><path d="M477.88,602a1.89,1.89,0,0,1,1.8,1.18,1.71,1.71,0,0,1,1.49-.83,2,2,0,0,1,0,4,1.69,1.69,0,0,1-1.49-.83,1.89,1.89,0,0,1-1.8,1.18,2.37,2.37,0,0,1,0-4.69Zm.06,3.86a1.54,1.54,0,0,0,0-3.05,1.53,1.53,0,0,0,0,3.05Zm3.14-.3a1.13,1.13,0,0,0,1.15-1.2,1.11,1.11,0,0,0-1.08-1.19,1.14,1.14,0,0,0-1.2,1.2A1.11,1.11,0,0,0,481.08,605.53Z" transform="translate(-9.05 -5.23)"/></g><line class="cls-4" x1="485.13" y1="567.72" x2="485.13" y2="573.72"/><g class="cls-3"><path d="M492.24,584.47a14.54,14.54,0,0,0,1.88,2.35,3.75,3.75,0,0,0,2.33,1.3c.76,0,1.34-.36,1.34-1.2,0-1-.91-1.34-1.68-1.37l.06-.81a2.21,2.21,0,0,1,2.32,2.17,1.93,1.93,0,0,1-2,2.05,4.63,4.63,0,0,1-2.89-1.63,12.21,12.21,0,0,1-1.35-1.66v3.63h-.72v-4.83Z" transform="translate(-9.05 -5.23)"/><path d="M495,590.1c1.54,0,3.55.63,3.55,2.53,0,1.72-1.79,2.59-3.57,2.59s-3.53-.85-3.53-2.52C491.41,590.74,493.43,590.1,495,590.1Zm0,4.24c1.2,0,2.75-.42,2.75-1.71s-1.56-1.71-2.76-1.71-2.78.42-2.78,1.75S493.81,594.34,495,594.34Z" transform="translate(-9.05 -5.23)"/><path d="M495,596c1.54,0,3.55.63,3.55,2.53,0,1.73-1.79,2.58-3.57,2.58s-3.53-.84-3.53-2.51C491.41,596.6,493.43,596,495,596Zm0,4.23c1.2,0,2.75-.41,2.75-1.7s-1.56-1.71-2.76-1.71-2.78.42-2.78,1.75S493.81,600.19,495,600.19Z" transform="translate(-9.05 -5.23)"/><path d="M494,604.74a2.6,2.6,0,0,1-.06-.56,2.22,2.22,0,0,1,2.21-2.31,2.31,2.31,0,0,1,0,4.62,2.16,2.16,0,0,1-1.19-.34l-3.5-2v-.92Zm2.16,1a1.51,1.51,0,1,0-1.55-1.51A1.52,1.52,0,0,0,496.2,605.69Z" transform="translate(-9.05 -5.23)"/></g><line class="cls-4" x1="500.67" y1="567.72" x2="500.67" y2="573.72"/><g class="cls-3"><path d="M507.78,584.47a14.54,14.54,0,0,0,1.88,2.35,3.75,3.75,0,0,0,2.33,1.3c.76,0,1.35-.36,1.35-1.2,0-1-.92-1.34-1.69-1.37l.07-.81a2.21,2.21,0,0,1,2.32,2.17,1.93,1.93,0,0,1-2,2,4.61,4.61,0,0,1-2.9-1.62,12.21,12.21,0,0,1-1.35-1.66v3.62h-.72v-4.82Z" transform="translate(-9.05 -5.23)"/><path d="M510.5,590.1c1.54,0,3.56.63,3.56,2.53,0,1.72-1.79,2.58-3.58,2.58s-3.52-.85-3.52-2.51C507,590.74,509,590.1,510.5,590.1Zm0,4.24c1.2,0,2.76-.42,2.76-1.71s-1.57-1.71-2.77-1.71-2.78.42-2.78,1.75S509.35,594.34,510.51,594.34Z" transform="translate(-9.05 -5.23)"/><path d="M512.29,597.54v-1.61H513v.84a.79.79,0,0,0,.84.84H514v.77h-6.9v-.84Z" transform="translate(-9.05 -5.23)"/><path d="M510.5,599.78c1.54,0,3.56.63,3.56,2.53,0,1.72-1.79,2.58-3.58,2.58S507,604,507,602.38C507,600.42,509,599.78,510.5,599.78Zm0,4.24c1.2,0,2.76-.42,2.76-1.71s-1.57-1.71-2.77-1.71-2.78.42-2.78,1.75S509.35,604,510.51,604Z" transform="translate(-9.05 -5.23)"/></g><line class="cls-4" x1="516.22" y1="567.72" x2="516.22" y2="573.72"/><g class="cls-3"><path d="M523.33,584.47a14.54,14.54,0,0,0,1.88,2.35,3.75,3.75,0,0,0,2.33,1.3c.76,0,1.35-.36,1.35-1.2,0-1-.92-1.34-1.69-1.37l.07-.81a2.21,2.21,0,0,1,2.32,2.17,1.93,1.93,0,0,1-2,2.05,4.63,4.63,0,0,1-2.9-1.63,12.21,12.21,0,0,1-1.35-1.66v3.63h-.72v-4.83Z" transform="translate(-9.05 -5.23)"/><path d="M526.05,590.1c1.54,0,3.56.63,3.56,2.53,0,1.72-1.79,2.59-3.58,2.59s-3.53-.85-3.53-2.52C522.5,590.74,524.52,590.1,526.05,590.1Zm0,4.24c1.2,0,2.76-.42,2.76-1.71s-1.57-1.71-2.77-1.71-2.78.42-2.78,1.75S524.9,594.34,526.06,594.34Z" transform="translate(-9.05 -5.23)"/><path d="M527.84,597.54v-1.61h.68v.84a.79.79,0,0,0,.84.84h.14v.77h-6.9v-.84Z" transform="translate(-9.05 -5.23)"/><path d="M527.84,601.36v-1.61h.68v.84a.79.79,0,0,0,.84.84h.14v.77h-6.9v-.84Z" transform="translate(-9.05 -5.23)"/></g><line class="cls-4" x1="531.77" y1="567.72" x2="531.77" y2="573.72"/><g class="cls-3"><path d="M538.88,584.47a14.54,14.54,0,0,0,1.88,2.35,3.75,3.75,0,0,0,2.33,1.3c.76,0,1.35-.36,1.35-1.2,0-1-.92-1.34-1.69-1.37l.07-.81a2.21,2.21,0,0,1,2.32,2.17,1.93,1.93,0,0,1-2,2,4.61,4.61,0,0,1-2.9-1.62,12.21,12.21,0,0,1-1.35-1.66v3.62h-.72v-4.82Z" transform="translate(-9.05 -5.23)"/><path d="M541.6,590.1c1.54,0,3.56.63,3.56,2.53,0,1.72-1.79,2.58-3.58,2.58s-3.53-.85-3.53-2.51C538.05,590.74,540.07,590.1,541.6,590.1Zm0,4.24c1.2,0,2.76-.42,2.76-1.71s-1.57-1.71-2.77-1.71-2.78.42-2.78,1.75S540.45,594.34,541.61,594.34Z" transform="translate(-9.05 -5.23)"/><path d="M543.39,597.54v-1.61h.68v.84a.79.79,0,0,0,.84.84h.14v.77h-6.9v-.84Z" transform="translate(-9.05 -5.23)"/><path d="M538.88,599.73a14.54,14.54,0,0,0,1.88,2.35,3.75,3.75,0,0,0,2.33,1.3c.76,0,1.35-.36,1.35-1.2,0-1-.92-1.34-1.69-1.37l.07-.81a2.21,2.21,0,0,1,2.32,2.17,1.93,1.93,0,0,1-2,2,4.66,4.66,0,0,1-2.9-1.62,12.21,12.21,0,0,1-1.35-1.66v3.62h-.72v-4.82Z" transform="translate(-9.05 -5.23)"/></g><line class="cls-4" x1="547.32" y1="567.72" x2="547.32" y2="573.72"/><g class="cls-3"><path d="M554.43,584.47a14.54,14.54,0,0,0,1.88,2.35,3.75,3.75,0,0,0,2.33,1.3c.76,0,1.35-.36,1.35-1.2,0-1-.92-1.34-1.69-1.37l.07-.81a2.21,2.21,0,0,1,2.32,2.17,1.93,1.93,0,0,1-2,2.05,4.63,4.63,0,0,1-2.9-1.63,12.21,12.21,0,0,1-1.35-1.66v3.63h-.72v-4.83Z" transform="translate(-9.05 -5.23)"/><path d="M557.15,590.1c1.54,0,3.56.63,3.56,2.53,0,1.72-1.79,2.59-3.58,2.59s-3.53-.85-3.53-2.52C553.6,590.74,555.62,590.1,557.15,590.1Zm0,4.24c1.2,0,2.76-.42,2.76-1.71s-1.57-1.71-2.77-1.71-2.78.42-2.78,1.75S556,594.34,557.16,594.34Z" transform="translate(-9.05 -5.23)"/><path d="M558.94,597.54v-1.61h.68v.84a.79.79,0,0,0,.84.84h.14v.77h-6.9v-.84Z" transform="translate(-9.05 -5.23)"/><path d="M555.68,599.68l.07.78a1.59,1.59,0,0,0-.06,3.16,1.31,1.31,0,0,0,1.3-1.49v-.5h.74v.5a1,1,0,0,0,1.09,1.11A1.13,1.13,0,0,0,560,602a1.17,1.17,0,0,0-1.18-1.24l.08-.77a2,2,0,0,1,0,4,1.71,1.71,0,0,1-1.48-.78,1.77,1.77,0,0,1-1.74,1.15,2.37,2.37,0,0,1,0-4.71Z" transform="translate(-9.05 -5.23)"/></g><line class="cls-4" x1="562.87" y1="567.72" x2="562.87" y2="573.72"/><g class="cls-3"><path d="M570,584.47a14.54,14.54,0,0,0,1.88,2.35,3.75,3.75,0,0,0,2.33,1.3c.76,0,1.34-.36,1.34-1.2,0-1-.91-1.34-1.68-1.37l.07-.81a2.21,2.21,0,0,1,2.31,2.17,1.93,1.93,0,0,1-2,2,4.61,4.61,0,0,1-2.9-1.62,12.21,12.21,0,0,1-1.35-1.66v3.62h-.72v-4.82Z" transform="translate(-9.05 -5.23)"/><path d="M572.7,590.1c1.54,0,3.55.63,3.55,2.53,0,1.72-1.78,2.58-3.57,2.58s-3.53-.85-3.53-2.51C569.15,590.74,571.17,590.1,572.7,590.1Zm0,4.24c1.2,0,2.76-.42,2.76-1.71s-1.57-1.71-2.77-1.71-2.78.42-2.78,1.75S571.55,594.34,572.71,594.34Z" transform="translate(-9.05 -5.23)"/><path d="M574.49,597.54v-1.61h.68v.84a.78.78,0,0,0,.83.84h.14v.77h-6.89v-.84Z" transform="translate(-9.05 -5.23)"/><path d="M571.07,602.81v-3.18h.48l4.59,3.26v.75H571.8v1.09h-.73v-1.09h-1.82v-.83Zm.73,0h3.08l-3.08-2.18Z" transform="translate(-9.05 -5.23)"/></g><line class="cls-4" x1="578.42" y1="567.72" x2="578.42" y2="573.72"/><g class="cls-3"><path d="M585.53,584.47a14.54,14.54,0,0,0,1.88,2.35,3.76,3.76,0,0,0,2.32,1.3c.76,0,1.35-.36,1.35-1.2,0-1-.92-1.34-1.69-1.37l.07-.81a2.21,2.21,0,0,1,2.32,2.17,1.93,1.93,0,0,1-2,2.05,4.6,4.6,0,0,1-2.89-1.63,12.21,12.21,0,0,1-1.35-1.66v3.63h-.72v-4.83Z" transform="translate(-9.05 -5.23)"/><path d="M588.25,590.1c1.53,0,3.55.63,3.55,2.53,0,1.72-1.79,2.59-3.58,2.59s-3.52-.85-3.52-2.52C584.7,590.74,586.72,590.1,588.25,590.1Zm0,4.24c1.19,0,2.75-.42,2.75-1.71s-1.57-1.71-2.76-1.71-2.78.42-2.78,1.75S587.1,594.34,588.26,594.34Z" transform="translate(-9.05 -5.23)"/><path d="M590,597.54v-1.61h.68v.84a.79.79,0,0,0,.84.84h.14v.77H584.8v-.84Z" transform="translate(-9.05 -5.23)"/><path d="M586.64,600l.24.75a1.62,1.62,0,0,0-1.46,1.54,1.58,1.58,0,0,0,1.64,1.47,1.47,1.47,0,0,0,1.57-1.47,1.63,1.63,0,0,0-.73-1.34l.3-.72,3.49.61v3.46H591v-2.82l-2.1-.35a2.18,2.18,0,0,1,.48,1.34,2.23,2.23,0,0,1-2.28,2.14,2.37,2.37,0,0,1-2.35-2.32A2.4,2.4,0,0,1,586.64,600Z" transform="translate(-9.05 -5.23)"/></g><line class="cls-4" x1="593.97" y1="567.72" x2="593.97" y2="573.72"/><g class="cls-3"><path d="M601.08,584.47a14.17,14.17,0,0,0,1.87,2.35,3.75,3.75,0,0,0,2.33,1.3c.76,0,1.35-.36,1.35-1.2,0-1-.92-1.34-1.69-1.37l.07-.81a2.21,2.21,0,0,1,2.32,2.17,1.93,1.93,0,0,1-2,2,4.56,4.56,0,0,1-2.89-1.62,12.21,12.21,0,0,1-1.35-1.66v3.62h-.72v-4.82Z" transform="translate(-9.05 -5.23)"/><path d="M603.79,590.1c1.54,0,3.56.63,3.56,2.53,0,1.72-1.79,2.58-3.58,2.58s-3.52-.85-3.52-2.51C600.25,590.74,602.26,590.1,603.79,590.1Zm0,4.24c1.2,0,2.76-.42,2.76-1.71s-1.57-1.71-2.77-1.71-2.77.42-2.77,1.75S602.64,594.34,603.8,594.34Z" transform="translate(-9.05 -5.23)"/><path d="M605.58,597.54v-1.61h.68v.84a.79.79,0,0,0,.84.84h.14v.77h-6.89v-.84Z" transform="translate(-9.05 -5.23)"/><path d="M602.55,600.07a2.16,2.16,0,0,1,1.19.34l3.5,2v.93l-2.53-1.52a2.6,2.6,0,0,1,.06.56,2.22,2.22,0,0,1-2.21,2.3,2.31,2.31,0,0,1,0-4.62Zm0,3.81a1.5,1.5,0,1,0-1.54-1.49A1.51,1.51,0,0,0,602.55,603.88Z" transform="translate(-9.05 -5.23)"/></g><line class="cls-4" x1="609.51" y1="567.72" x2="609.51" y2="573.72"/><g class="cls-3"><path d="M616.63,584.47a14.54,14.54,0,0,0,1.88,2.35,3.71,3.71,0,0,0,2.32,1.3c.76,0,1.35-.36,1.35-1.2,0-1-.92-1.34-1.69-1.37l.07-.81a2.21,2.21,0,0,1,2.32,2.17,1.93,1.93,0,0,1-2,2.05,4.58,4.58,0,0,1-2.89-1.63,12.21,12.21,0,0,1-1.35-1.66v3.63h-.72v-4.83Z" transform="translate(-9.05 -5.23)"/><path d="M619.34,590.1c1.54,0,3.56.63,3.56,2.53,0,1.72-1.79,2.59-3.58,2.59s-3.52-.85-3.52-2.52C615.8,590.74,617.82,590.1,619.34,590.1Zm0,4.24c1.2,0,2.76-.42,2.76-1.71s-1.57-1.71-2.77-1.71-2.77.42-2.77,1.75S618.2,594.34,619.35,594.34Z" transform="translate(-9.05 -5.23)"/><path d="M621.13,597.54v-1.61h.68v.84a.79.79,0,0,0,.84.84h.14v.77H615.9v-.84Z" transform="translate(-9.05 -5.23)"/><path d="M622.05,603.28v-3.6h.74v4.58h-.42l-6.47-3v-.92Z" transform="translate(-9.05 -5.23)"/></g><line class="cls-4" x1="625.06" y1="567.72" x2="625.06" y2="573.72"/><g class="cls-3"><path d="M632.17,584.47a14.54,14.54,0,0,0,1.88,2.35,3.75,3.75,0,0,0,2.33,1.3c.76,0,1.35-.36,1.35-1.2,0-1-.92-1.34-1.69-1.37l.07-.81a2.21,2.21,0,0,1,2.32,2.17,1.93,1.93,0,0,1-2,2,4.61,4.61,0,0,1-2.9-1.62,12.58,12.58,0,0,1-1.34-1.66v3.62h-.72v-4.82Z" transform="translate(-9.05 -5.23)"/><path d="M634.89,590.1c1.54,0,3.56.63,3.56,2.53,0,1.72-1.79,2.58-3.58,2.58s-3.52-.85-3.52-2.51C631.35,590.74,633.36,590.1,634.89,590.1Zm0,4.24c1.2,0,2.76-.42,2.76-1.71s-1.57-1.71-2.77-1.71-2.77.42-2.77,1.75S633.74,594.34,634.9,594.34Z" transform="translate(-9.05 -5.23)"/><path d="M636.68,597.54v-1.61h.68v.84a.79.79,0,0,0,.84.84h.14v.77h-6.89v-.84Z" transform="translate(-9.05 -5.23)"/><path d="M633.36,599.93a1.89,1.89,0,0,1,1.8,1.18,1.71,1.71,0,0,1,1.49-.83,2,2,0,0,1,0,4,1.69,1.69,0,0,1-1.49-.83,1.89,1.89,0,0,1-1.8,1.18c-1.36,0-2-1.1-2-2.35A2.07,2.07,0,0,1,633.36,599.93Zm.06,3.86a1.54,1.54,0,0,0,0-3,1.53,1.53,0,0,0,0,3Zm3.14-.3a1.13,1.13,0,0,0,1.15-1.2,1.11,1.11,0,0,0-1.08-1.19,1.14,1.14,0,0,0-1.2,1.2A1.11,1.11,0,0,0,636.56,603.49Z" transform="translate(-9.05 -5.23)"/></g><line class="cls-4" x1="640.61" y1="567.72" x2="640.61" y2="573.72"/><g class="cls-3"><path d="M647.72,584.47a14.54,14.54,0,0,0,1.88,2.35,3.75,3.75,0,0,0,2.33,1.3c.76,0,1.35-.36,1.35-1.2,0-1-.92-1.34-1.69-1.37l.07-.81a2.21,2.21,0,0,1,2.32,2.17,1.93,1.93,0,0,1-2,2.05,4.63,4.63,0,0,1-2.9-1.63,12.21,12.21,0,0,1-1.35-1.66v3.63H647v-4.83Z" transform="translate(-9.05 -5.23)"/><path d="M650.44,590.1c1.54,0,3.56.63,3.56,2.53,0,1.73-1.79,2.59-3.58,2.59s-3.53-.85-3.53-2.52C646.89,590.74,648.91,590.1,650.44,590.1Zm0,4.24c1.2,0,2.76-.42,2.76-1.71s-1.57-1.71-2.77-1.71-2.78.42-2.78,1.75S649.29,594.34,650.45,594.34Z" transform="translate(-9.05 -5.23)"/><path d="M652.23,597.54v-1.61h.68v.84a.79.79,0,0,0,.84.84h.14v.77H647v-.84Z" transform="translate(-9.05 -5.23)"/><path d="M649.52,602.7a2.6,2.6,0,0,1-.06-.56,2.22,2.22,0,0,1,2.21-2.31,2.32,2.32,0,1,1,0,4.63,2.24,2.24,0,0,1-1.19-.34l-3.5-2v-.92Zm2.16.94a1.5,1.5,0,1,0-1.55-1.5A1.52,1.52,0,0,0,651.68,603.64Z" transform="translate(-9.05 -5.23)"/></g></g><g id="Layer_1" data-name="Layer 1"><rect class="cls-6" x="27.22" y="549.82" width="14" height="17.9"/><rect class="cls-6" x="42.76" y="500.54" width="14" height="67.18"/><rect class="cls-6" x="58.31" y="461.65" width="14" height="106.07"/><rect class="cls-6" x="73.86" y="508.29" width="14" height="59.43"/><rect class="cls-6" x="89.41" y="488.22" width="14" height="79.5"/><rect class="cls-6" x="104.96" y="347.15" width="14" height="220.58"/><rect class="cls-6" x="120.51" y="515.98" width="14" height="51.74"/><rect class="cls-6" x="136.06" y="504.06" width="14" height="63.66"/><rect class="cls-6" x="151.6" y="511.17" width="14" height="56.55"/><rect class="cls-6" x="167.15" y="512.75" width="14" height="54.97"/><rect class="cls-6" x="182.7" y="495.99" width="14" height="71.73"/><rect class="cls-6" x="198.25" y="516.75" width="14" height="50.97"/><rect class="cls-6" x="213.8" y="489.13" width="14" height="78.59"/><rect class="cls-6" x="229.35" y="563.34" width="14" height="4.39"/><rect class="cls-6" x="244.9" y="258.3" width="14" height="309.43"/><rect class="cls-6" x="291.54" y="446.66" width="14" height="121.02"/><rect class="cls-6" x="322.64" y="500.28" width="14" height="67.17"/><rect class="cls-6" x="260.44" y="451.1" width="14" height="116.62"/><rect class="cls-6" x="275.99" y="455.24" width="14" height="112.48"/><rect class="cls-6" x="307.09" y="491.73" width="14" height="75.99"/><rect class="cls-6" x="338.19" y="440.84" width="14" height="126.88"/><rect class="cls-6" x="353.74" y="382.55" width="14" height="185.17"/><rect class="cls-6" x="384.83" y="504.34" width="14" height="63.86"/><rect class="cls-6" x="369.29" y="452.06" width="14" height="115.66"/><rect class="cls-6" x="400.38" y="455.34" width="14" height="112.38"/><rect class="cls-6" x="415.93" y="403.13" width="14" height="164.59"/><rect class="cls-6" x="431.48" y="490.16" width="14" height="77.57"/><rect class="cls-7" x="649.16" y="241.72" width="14" height="326"/><rect class="cls-6" x="447.03" y="466.27" width="14" height="101.45"/><rect class="cls-6" x="462.58" y="462.16" width="14" height="105.56"/><rect class="cls-6" x="478.13" y="440.4" width="14" height="127.32"/><rect class="cls-6" x="493.67" y="457.1" width="14" height="110.63"/><rect class="cls-6" x="509.22" y="393.53" width="14" height="174.19"/><rect class="cls-6" x="524.77" y="276.82" width="14" height="290.9"/><rect class="cls-6" x="540.32" y="400.49" width="14" height="167.24"/><rect class="cls-6" x="555.87" y="319.57" width="14" height="248.15"/><rect class="cls-6" x="571.42" y="363.05" width="14" height="204.68"/><rect class="cls-6" x="586.97" y="477.06" width="14" height="90.66"/><rect class="cls-6" x="602.51" y="405.7" width="14" height="162.03"/><rect class="cls-6" x="618.06" y="17.72" width="14" height="550"/><rect class="cls-6" x="633.61" y="264.51" width="14" height="303.21"/></g><g id="Layer_2" data-name="Layer 2"><g class="cls-3"><path d="M34.17,444.16a1.89,1.89,0,0,1,1.18-1.8,1.71,1.71,0,0,1-.83-1.49,2,2,0,0,1,4,0,1.71,1.71,0,0,1-.83,1.49,1.89,1.89,0,0,1,1.18,1.8c0,1.37-1.1,2-2.36,2A2.07,2.07,0,0,1,34.17,444.16ZM38,444.1a1.54,1.54,0,0,0-3.06,0,1.54,1.54,0,0,0,3.06,0Zm-.3-3.14a1.13,1.13,0,0,0-1.21-1.15,1.11,1.11,0,0,0-1.19,1.08,1.14,1.14,0,0,0,1.2,1.2A1.12,1.12,0,0,0,37.74,441Z" transform="translate(-9.05 -5.23)"/><path d="M42.74,443.55a2.6,2.6,0,0,1-.56.06,2.22,2.22,0,0,1-2.31-2.21,2.32,2.32,0,0,1,4.63,0,2.16,2.16,0,0,1-.34,1.19l-2,3.5h-.92Zm.95-2.16a1.51,1.51,0,1,0-1.51,1.55A1.52,1.52,0,0,0,43.69,441.39Z" transform="translate(-9.05 -5.23)"/><path d="M45.59,445.09h1v1h-1Z" transform="translate(-9.05 -5.23)"/><path d="M49.08,440.84H47.47v-.68h.84a.79.79,0,0,0,.84-.84v-.14h.77v6.9h-.84Z" transform="translate(-9.05 -5.23)"/><path d="M51.32,442.63c0-1.54.63-3.56,2.53-3.56,1.73,0,2.59,1.79,2.59,3.58s-.85,3.53-2.52,3.53C52,446.18,51.32,444.16,51.32,442.63Zm4.24,0c0-1.2-.42-2.76-1.71-2.76s-1.71,1.57-1.71,2.77.42,2.78,1.75,2.78S55.56,443.78,55.56,442.62Z" transform="translate(-9.05 -5.23)"/><path d="M60.47,439.18H61.8l2,5.45,2-5.45h1.33v6.9h-.84V440l-2,5.47h-.92l-2-5.47v6.07h-.84Z" transform="translate(-9.05 -5.23)"/><path d="M69,445.09v-5.91h.8v6s0,.29.27.29a2.42,2.42,0,0,0,.44-.05v.65a2.54,2.54,0,0,1-.67.1C69.07,446.18,69,445.72,69,445.09Z" transform="translate(-9.05 -5.23)"/><path d="M71.73,441.2h.8V442a1.81,1.81,0,0,1,1.51-.83c1.23,0,1.7.94,1.7,2v3h-.8v-2.87c0-.67-.2-1.33-1-1.33a1.45,1.45,0,0,0-1.42,1.45v2.75h-.8Z" transform="translate(-9.05 -5.23)"/><path d="M81.6,446.14a2.22,2.22,0,0,1-2-1.86l.8-.22A1.5,1.5,0,0,0,82,445.39c.8,0,1.35-.38,1.35-1.19,0-1.68-3.32-1.25-3.32-3.35a1.75,1.75,0,0,1,1.59-1.75V438h.58v1.11a2,2,0,0,1,1.68,1.09l-.65.42a1.43,1.43,0,0,0-1.29-.79,1,1,0,0,0-1.08,1c0,1.6,3.32,1.15,3.32,3.37a2,2,0,0,1-2,2v1.13H81.6Z" transform="translate(-9.05 -5.23)"/></g><g class="cls-3"><path d="M34.55,429h.8v.78a1.43,1.43,0,0,1,1.31-.87,1.53,1.53,0,0,1,1.49.94,1.61,1.61,0,0,1,1.52-.93c1.23,0,1.71.93,1.71,2v3h-.8V431c0-.67-.21-1.4-1-1.4a1.35,1.35,0,0,0-1.22,1.51v2.76h-.8v-2.89c0-.67-.2-1.38-1-1.38a1.35,1.35,0,0,0-1.22,1.51v2.76h-.8Z" transform="translate(-9.05 -5.23)"/><path d="M42.59,431.42a2.24,2.24,0,0,1,2.15-2.53c1.62,0,2.1,1.23,2.1,2.57a1.8,1.8,0,0,1,0,.2H43.43a1.39,1.39,0,0,0,1.39,1.52,1.7,1.7,0,0,0,1.36-.51l.54.44a2.38,2.38,0,0,1-1.89.78A2.22,2.22,0,0,1,42.59,431.42Zm3.49-.4a1.28,1.28,0,0,0-1.34-1.42A1.31,1.31,0,0,0,43.43,431Z" transform="translate(-9.05 -5.23)"/><path d="M47.74,432.47c0-1,.75-1.45,1.8-1.45H51c0-.9-.31-1.45-1.22-1.45a1.56,1.56,0,0,0-1.27.7l-.6-.45a2.19,2.19,0,0,1,1.91-.94,1.78,1.78,0,0,1,1.91,1.95v3H51.1L51,433a1.89,1.89,0,0,1-1.73.94A1.48,1.48,0,0,1,47.74,432.47Zm3.28-.81H49.61c-.59,0-1,.29-1,.81s.45.75.95.75A1.56,1.56,0,0,0,51,431.66Z" transform="translate(-9.05 -5.23)"/><path d="M53.37,429h.8v.74a1.8,1.8,0,0,1,1.51-.82c1.23,0,1.7.93,1.7,2v3h-.8V431c0-.67-.2-1.32-1-1.32a1.44,1.44,0,0,0-1.42,1.44v2.75h-.8Z" transform="translate(-9.05 -5.23)"/></g><g class="cls-3"><path d="M685.76,507.89V507l3.79-1L685.76,505v-.72l3.78-1.09-3.78-1v-.84l4.88,1.38v.76l-3.84,1.12,3.84,1.12v.76Z" transform="translate(-9.05 -5.23)"/><path d="M688.23,500.62a2.24,2.24,0,0,1-2.53-2.15c0-1.62,1.23-2.1,2.57-2.1l.2,0v3.39a1.39,1.39,0,0,0,1.52-1.39,1.7,1.7,0,0,0-.51-1.36l.44-.54a2.38,2.38,0,0,1,.78,1.89A2.22,2.22,0,0,1,688.23,500.62Zm-.4-3.49a1.29,1.29,0,0,0-1.43,1.34,1.32,1.32,0,0,0,1.43,1.31Z" transform="translate(-9.05 -5.23)"/><path d="M683.74,492.3v-.8h2.77a1.81,1.81,0,0,1-.83-1.51c0-1.23.94-1.7,2-1.7h3v.8h-2.87c-.67,0-1.33.2-1.33,1a1.45,1.45,0,0,0,1.45,1.42h2.75v.8Z" transform="translate(-9.05 -5.23)"/><path d="M689.28,487.08c-1,0-1.45-.75-1.45-1.8V483.8c-.9,0-1.45.31-1.45,1.22a1.56,1.56,0,0,0,.7,1.27l-.45.6a2.19,2.19,0,0,1-1-1.91,1.78,1.78,0,0,1,2-1.91h3v.65l-.84.06a1.89,1.89,0,0,1,.94,1.73A1.48,1.48,0,0,1,689.28,487.08Zm-.81-3.28v1.41c0,.59.29,1.05.81,1.05s.75-.45.75-.95A1.56,1.56,0,0,0,688.47,483.8Z" transform="translate(-9.05 -5.23)"/><path d="M685.76,482.22v-.87L689.6,480l-3.84-1.33v-.86l4.88,1.84v.7Z" transform="translate(-9.05 -5.23)"/><path d="M688.23,477.19A2.24,2.24,0,0,1,685.7,475c0-1.62,1.23-2.1,2.57-2.1l.2,0v3.39A1.39,1.39,0,0,0,690,475a1.7,1.7,0,0,0-.51-1.36l.44-.54a2.38,2.38,0,0,1,.78,1.89A2.22,2.22,0,0,1,688.23,477.19Zm-.4-3.49A1.29,1.29,0,0,0,686.4,475a1.32,1.32,0,0,0,1.43,1.31Z" transform="translate(-9.05 -5.23)"/><path d="M689.51,469.39l-.34-.66a1.25,1.25,0,0,0,.87-1.18c0-.5-.22-.95-.77-.95-1.19,0-.38,2.61-2.19,2.61a1.46,1.46,0,0,1-1.39-1.56,1.83,1.83,0,0,1,1-1.65l.35.61a1.09,1.09,0,0,0-.62,1c0,.45.22.82.66.82,1,0,.27-2.64,2.18-2.64a1.58,1.58,0,0,1,1.51,1.72A1.9,1.9,0,0,1,689.51,469.39Z" transform="translate(-9.05 -5.23)"/><path d="M688.23,464.93a2.24,2.24,0,0,1-2.53-2.15c0-1.62,1.23-2.1,2.57-2.1l.2,0v3.39A1.39,1.39,0,0,0,690,462.7a1.7,1.7,0,0,0-.51-1.36l.44-.53a2.35,2.35,0,0,1,.78,1.88A2.22,2.22,0,0,1,688.23,464.93Zm-.4-3.49a1.29,1.29,0,0,0-1.43,1.34,1.32,1.32,0,0,0,1.43,1.31Z" transform="translate(-9.05 -5.23)"/><path d="M685.76,460.13v-.87l3.84-1.32-3.84-1.33v-.86l4.88,1.84v.7Z" transform="translate(-9.05 -5.23)"/><path d="M688.23,455.1A2.24,2.24,0,0,1,685.7,453c0-1.62,1.23-2.1,2.57-2.1l.2,0v3.39a1.39,1.39,0,0,0,1.52-1.39,1.7,1.7,0,0,0-.51-1.36l.44-.53a2.35,2.35,0,0,1,.78,1.88A2.22,2.22,0,0,1,688.23,455.1Zm-.4-3.49A1.29,1.29,0,0,0,686.4,453a1.32,1.32,0,0,0,1.43,1.31Z" transform="translate(-9.05 -5.23)"/><path d="M685.76,449.62v-.81h.89a1.44,1.44,0,0,1-1-1.34,1.52,1.52,0,0,1,.25-.87l.66.3a.93.93,0,0,0-.21.62c0,.85,1,1.3,2.16,1.3h2.09v.8Z" transform="translate(-9.05 -5.23)"/><path d="M689.28,446.3c-1,0-1.45-.75-1.45-1.8V443c-.9,0-1.45.31-1.45,1.22a1.56,1.56,0,0,0,.7,1.27l-.45.6a2.19,2.19,0,0,1-1-1.91,1.78,1.78,0,0,1,2-1.9h3v.64l-.84.06a1.89,1.89,0,0,1,.94,1.73A1.48,1.48,0,0,1,689.28,446.3Zm-.81-3.28v1.41c0,.59.29,1.05.81,1.05s.75-.45.75-1A1.56,1.56,0,0,0,688.47,443Z" transform="translate(-9.05 -5.23)"/><path d="M689.65,440.66h-5.91v-.8h6s.29,0,.29-.27a2.42,2.42,0,0,0,0-.44h.65a2.54,2.54,0,0,1,.1.67C690.74,440.54,690.28,440.66,689.65,440.66Z" transform="translate(-9.05 -5.23)"/><path d="M685.76,435.13v-.8h.75a1.81,1.81,0,0,1-.83-1.51c0-1.23.94-1.69,2-1.69h3v.79h-2.87c-.67,0-1.33.2-1.33,1a1.45,1.45,0,0,0,1.45,1.42h2.75v.8Z" transform="translate(-9.05 -5.23)"/><path d="M689.28,429.91c-1,0-1.45-.75-1.45-1.8v-1.47c-.9,0-1.45.3-1.45,1.21a1.56,1.56,0,0,0,.7,1.27l-.45.6a2.19,2.19,0,0,1-1-1.91,1.78,1.78,0,0,1,2-1.91h3v.66l-.84.05a1.89,1.89,0,0,1,.94,1.73A1.48,1.48,0,0,1,689.28,429.91Zm-.81-3.27V428c0,.59.29,1,.81,1s.75-.45.75-.95A1.56,1.56,0,0,0,688.47,426.64Z" transform="translate(-9.05 -5.23)"/><path d="M685.76,424.28v-.8h.75a1.81,1.81,0,0,1-.83-1.5c0-1.24.94-1.7,2-1.7h3v.79h-2.87c-.67,0-1.33.2-1.33,1a1.45,1.45,0,0,0,1.45,1.42h2.75v.8Z" transform="translate(-9.05 -5.23)"/><path d="M689.51,419.16l-.34-.66a1.25,1.25,0,0,0,.87-1.18c0-.5-.22-.95-.77-.95-1.19,0-.38,2.61-2.19,2.61a1.46,1.46,0,0,1-1.39-1.56,1.83,1.83,0,0,1,1-1.65l.35.61a1.09,1.09,0,0,0-.62,1c0,.45.22.82.66.82,1,0,.27-2.64,2.18-2.64a1.58,1.58,0,0,1,1.51,1.72A1.9,1.9,0,0,1,689.51,419.16Z" transform="translate(-9.05 -5.23)"/><path d="M683.71,411.58v-.91h1v.91Zm2-.06v-.8h4.88v.8Z" transform="translate(-9.05 -5.23)"/><path d="M685.76,408.88v-.8h.75a1.81,1.81,0,0,1-.83-1.51c0-1.22.94-1.69,2-1.69h3v.79h-2.87c-.67,0-1.33.21-1.33,1a1.45,1.45,0,0,0,1.45,1.42h2.75v.8Z" transform="translate(-9.05 -5.23)"/><path d="M689.35,400.35h-2.91v.76h-.68v-.76h-1.12l-.7-.8h1.82v-1.24h.68v1.24h2.93c.49,0,.67-.2.67-.52a1.65,1.65,0,0,0-.1-.63h.7a2.2,2.2,0,0,1,.1.7C690.74,400,690.18,400.35,689.35,400.35Z" transform="translate(-9.05 -5.23)"/><path d="M683.74,397.13v-.8h2.77a1.81,1.81,0,0,1-.83-1.51c0-1.22.94-1.69,2-1.69h3v.79h-2.87c-.67,0-1.33.21-1.33,1a1.45,1.45,0,0,0,1.45,1.42h2.75v.8Z" transform="translate(-9.05 -5.23)"/><path d="M683.71,391.54v-.91h1v.91Zm2-.06v-.8h4.88v.8Z" transform="translate(-9.05 -5.23)"/><path d="M689.51,389.36l-.34-.66a1.25,1.25,0,0,0,.87-1.18c0-.5-.22-.95-.77-.95-1.19,0-.38,2.61-2.19,2.61a1.46,1.46,0,0,1-1.39-1.56,1.83,1.83,0,0,1,1-1.64l.35.6a1.09,1.09,0,0,0-.62,1c0,.45.22.82.66.82,1,0,.27-2.63,2.18-2.63a1.58,1.58,0,0,1,1.51,1.71A1.9,1.9,0,0,1,689.51,389.36Z" transform="translate(-9.05 -5.23)"/><path d="M688.2,382.11c-1.4,0-2.54-.7-2.54-2a1.74,1.74,0,0,1,.75-1.5h-2.67v-.8h6.9v.8H690a1.74,1.74,0,0,1,.75,1.5C690.74,381.41,689.6,382.11,688.2,382.11Zm0-3.52c-1,0-1.8.39-1.8,1.35s.83,1.37,1.8,1.37,1.81-.43,1.81-1.37S689.18,378.59,688.2,378.59Z" transform="translate(-9.05 -5.23)"/><path d="M689.28,376.35c-1,0-1.45-.75-1.45-1.8v-1.48c-.9,0-1.45.32-1.45,1.22a1.56,1.56,0,0,0,.7,1.27l-.45.6a2.19,2.19,0,0,1-1-1.91,1.78,1.78,0,0,1,2-1.9h3V373l-.84.07a1.86,1.86,0,0,1,.94,1.72A1.48,1.48,0,0,1,689.28,376.35Zm-.81-3.28v1.41c0,.59.29,1,.81,1s.75-.45.75-.95A1.57,1.57,0,0,0,688.47,373.07Z" transform="translate(-9.05 -5.23)"/><path d="M689.35,370.58h-2.91v.76h-.68v-.76h-1.12l-.7-.8h1.82v-1.25h.68v1.25h2.93c.49,0,.67-.2.67-.52a1.56,1.56,0,0,0-.1-.62h.7a2.09,2.09,0,0,1,.1.69C690.74,370.2,690.18,370.58,689.35,370.58Z" transform="translate(-9.05 -5.23)"/><path d="M689.28,367.78c-1,0-1.45-.75-1.45-1.8v-1.47c-.9,0-1.45.3-1.45,1.22a1.56,1.56,0,0,0,.7,1.26l-.45.6a2.19,2.19,0,0,1-1-1.91,1.78,1.78,0,0,1,2-1.9h3v.65l-.84.05a1.89,1.89,0,0,1,.94,1.73A1.48,1.48,0,0,1,689.28,367.78Zm-.81-3.27v1.4c0,.59.29,1,.81,1s.75-.45.75-.95A1.56,1.56,0,0,0,688.47,364.51Z" transform="translate(-9.05 -5.23)"/><path d="M689.51,362.67l-.34-.66a1.25,1.25,0,0,0,.87-1.18c0-.5-.22-.94-.77-.94-1.19,0-.38,2.6-2.19,2.6a1.46,1.46,0,0,1-1.39-1.56,1.8,1.8,0,0,1,1-1.64l.35.6a1.09,1.09,0,0,0-.62,1c0,.45.22.82.66.82,1,0,.27-2.63,2.18-2.63a1.57,1.57,0,0,1,1.51,1.71A1.9,1.9,0,0,1,689.51,362.67Z" transform="translate(-9.05 -5.23)"/><path d="M688.23,358.21a2.24,2.24,0,0,1-2.53-2.15c0-1.61,1.23-2.09,2.57-2.09l.2,0v3.38A1.39,1.39,0,0,0,690,356a1.69,1.69,0,0,0-.51-1.35l.44-.54a2.38,2.38,0,0,1,.78,1.89A2.22,2.22,0,0,1,688.23,358.21Zm-.4-3.48a1.28,1.28,0,0,0-1.43,1.33,1.32,1.32,0,0,0,1.43,1.31Z" transform="translate(-9.05 -5.23)"/><path d="M689.35,352.5h-2.91v.76h-.68v-.76h-1.12l-.7-.8h1.82v-1.24h.68v1.24h2.93c.49,0,.67-.2.67-.52a1.56,1.56,0,0,0-.1-.62h.7a2.09,2.09,0,0,1,.1.69C690.74,352.12,690.18,352.5,689.35,352.5Z" transform="translate(-9.05 -5.23)"/><path d="M683.63,349.3v-.88l5.12.14v.6Zm6,.06v-1h1v1Z" transform="translate(-9.05 -5.23)"/></g><g class="cls-3"><path d="M272.36,648.41h4.49v.74H273.2v2.34h3.22v.74H273.2v2.31h3.65v.77h-4.49Z" transform="translate(-9.05 -5.23)"/><path d="M279.35,652.85l-1.63-2.42h1l1.12,1.79,1.12-1.79h1l-1.64,2.42,1.64,2.46h-1l-1.12-1.82-1.12,1.82h-1Z" transform="translate(-9.05 -5.23)"/><path d="M283.16,654v-2.91h-.76v-.68h.76v-1.12l.8-.7v1.82h1.25v.68H284V654c0,.49.2.67.52.67a1.65,1.65,0,0,0,.63-.1v.7a2.42,2.42,0,0,1-.7.09C283.54,655.4,283.16,654.85,283.16,654Z" transform="translate(-9.05 -5.23)"/><path d="M286.29,650.43h.81v.89a1.44,1.44,0,0,1,1.34-1,1.52,1.52,0,0,1,.87.25l-.3.66a.93.93,0,0,0-.62-.21c-.85,0-1.3,1-1.3,2.16v2.09h-.8Z" transform="translate(-9.05 -5.23)"/><path d="M289.61,652.9a2.24,2.24,0,0,1,2.15-2.53c1.62,0,2.1,1.23,2.1,2.57a1.8,1.8,0,0,1,0,.2h-3.39a1.39,1.39,0,0,0,1.39,1.52,1.7,1.7,0,0,0,1.36-.51l.54.44a2.41,2.41,0,0,1-1.89.77A2.22,2.22,0,0,1,289.61,652.9Zm3.49-.4a1.29,1.29,0,0,0-1.34-1.43,1.32,1.32,0,0,0-1.31,1.43Z" transform="translate(-9.05 -5.23)"/><path d="M295.19,650.43h.8v.79a1.43,1.43,0,0,1,1.31-.88,1.53,1.53,0,0,1,1.49.95,1.62,1.62,0,0,1,1.52-.94c1.23,0,1.71.94,1.71,2v3h-.8v-2.87c0-.67-.21-1.4-1-1.4a1.35,1.35,0,0,0-1.22,1.51v2.76h-.8v-2.89c0-.67-.2-1.38-1-1.38a1.35,1.35,0,0,0-1.22,1.51v2.76h-.8Z" transform="translate(-9.05 -5.23)"/><path d="M303.23,652.9a2.24,2.24,0,0,1,2.15-2.53c1.62,0,2.1,1.23,2.1,2.57a1.8,1.8,0,0,1,0,.2h-3.39a1.39,1.39,0,0,0,1.39,1.52,1.7,1.7,0,0,0,1.36-.51l.54.44a2.41,2.41,0,0,1-1.89.77A2.22,2.22,0,0,1,303.23,652.9Zm3.49-.4a1.29,1.29,0,0,0-1.34-1.43,1.32,1.32,0,0,0-1.31,1.43Z" transform="translate(-9.05 -5.23)"/><path d="M308.81,654.32v-5.91h.8v6s0,.29.27.29a2.42,2.42,0,0,0,.44-.05v.65a2.8,2.8,0,0,1-.67.09C308.93,655.4,308.81,655,308.81,654.32Z" transform="translate(-9.05 -5.23)"/><path d="M312.74,655.26l-1.87-4.83h.88l1.39,3.9,1.37-3.9h.88l-2.64,7h-.83Z" transform="translate(-9.05 -5.23)"/><path d="M319.22,654.32v-5.91h.8v6s0,.29.27.29a2.42,2.42,0,0,0,.44-.05v.65a2.8,2.8,0,0,1-.67.09C319.34,655.4,319.22,655,319.22,654.32Z" transform="translate(-9.05 -5.23)"/><path d="M321.58,652.89a2.36,2.36,0,1,1,2.35,2.51A2.38,2.38,0,0,1,321.58,652.89Zm3.81,0c0-.95-.41-1.82-1.46-1.82s-1.46.87-1.46,1.82.41,1.82,1.46,1.82S325.39,653.84,325.39,652.89Z" transform="translate(-9.05 -5.23)"/><path d="M327,650.43h.85l1,3.79,1.09-3.79h.72l1.09,3.78,1-3.78h.85l-1.39,4.88h-.76l-1.12-3.84-1.12,3.84h-.76Z" transform="translate(-9.05 -5.23)"/><path d="M338.6,655.26l-1.87-4.83h.88l1.39,3.9,1.37-3.9h.88l-2.64,7h-.83Z" transform="translate(-9.05 -5.23)"/><path d="M341.9,652.9a2.24,2.24,0,0,1,2.15-2.53c1.62,0,2.1,1.23,2.1,2.57a1.8,1.8,0,0,1,0,.2h-3.39a1.39,1.39,0,0,0,1.39,1.52,1.7,1.7,0,0,0,1.36-.51l.54.44a2.41,2.41,0,0,1-1.89.77A2.22,2.22,0,0,1,341.9,652.9Zm3.49-.4a1.29,1.29,0,0,0-1.34-1.43,1.32,1.32,0,0,0-1.31,1.43Z" transform="translate(-9.05 -5.23)"/><path d="M347.05,654c0-1,.75-1.45,1.8-1.45h1.48c0-.9-.31-1.45-1.22-1.45a1.56,1.56,0,0,0-1.27.7l-.6-.45a2.19,2.19,0,0,1,1.91-.95,1.78,1.78,0,0,1,1.91,2v3h-.65l-.06-.84a1.88,1.88,0,0,1-1.73.93A1.47,1.47,0,0,1,347.05,654Zm3.28-.81h-1.41c-.59,0-1.05.29-1.05.81s.45.75.95.75A1.56,1.56,0,0,0,350.33,653.14Z" transform="translate(-9.05 -5.23)"/><path d="M352.59,650.43h.81v.89a1.44,1.44,0,0,1,1.34-1,1.52,1.52,0,0,1,.87.25l-.3.66a.93.93,0,0,0-.62-.21c-.85,0-1.3,1-1.3,2.16v2.09h-.8Z" transform="translate(-9.05 -5.23)"/></g><line class="cls-8" x1="24.58" y1="447.17" x2="663.55" y2="447.17"/><path class="cls-9" d="M265,652H252.62a6.4,6.4,0,0,1-6.4-6.4V641.6" transform="translate(-9.05 -5.23)"/><polyline class="cls-9" points="238.84 638.03 237.17 636.37 235.5 638.03"/><path class="cls-9" d="M687.72,343.3V330.89a6.41,6.41,0,0,0-6.4-6.4h-4" transform="translate(-9.05 -5.23)"/><polyline class="cls-9" points="669.98 320.93 668.32 319.26 669.98 317.59"/></g><g id="Layer_4" data-name="Layer 4"><g class="cls-10"><circle class="cls-11" cx="34.52" cy="621.61" r="2.46"/><circle class="cls-12" cx="34.52" cy="621.61" r="2.46"/></g><g class="cls-10"><circle class="cls-11" cx="50.07" cy="621.61" r="3.48"/><circle class="cls-12" cx="50.07" cy="621.61" r="3.48"/></g><g class="cls-10"><circle class="cls-11" cx="65.62" cy="621.61" r="3.89"/><circle class="cls-12" cx="65.62" cy="621.61" r="3.89"/></g><g class="cls-10"><circle class="cls-11" cx="81.17" cy="621.61" r="3.89"/><circle class="cls-12" cx="81.17" cy="621.61" r="3.89"/></g><g class="cls-10"><circle class="cls-11" cx="95.01" cy="621.61" r="3.01"/><circle class="cls-12" cx="95.01" cy="621.61" r="3.01"/></g><g class="cls-10"><circle class="cls-11" cx="112.27" cy="621.61" r="4.92"/><circle class="cls-12" cx="112.27" cy="621.61" r="4.92"/></g><g class="cls-10"><circle class="cls-11" cx="127.81" cy="621.61" r="3.89"/><circle class="cls-12" cx="127.81" cy="621.61" r="3.89"/></g><g class="cls-10"><circle class="cls-11" cx="143.36" cy="621.61" r="2.46"/><circle class="cls-12" cx="143.36" cy="621.61" r="2.46"/></g><g class="cls-10"><circle class="cls-11" cx="158.91" cy="621.61" r="4.26"/><circle class="cls-12" cx="158.91" cy="621.61" r="4.26"/></g><g class="cls-10"><circle class="cls-11" cx="174.46" cy="621.61" r="2.46"/><circle class="cls-12" cx="174.46" cy="621.61" r="2.46"/></g><g class="cls-10"><circle class="cls-11" cx="190.01" cy="621.61" r="4.26"/><circle class="cls-12" cx="190.01" cy="621.61" r="4.26"/></g><g class="cls-10"><circle class="cls-11" cx="205.56" cy="621.61" r="4.26"/><circle class="cls-12" cx="205.56" cy="621.61" r="4.26"/></g><g class="cls-10"><circle class="cls-11" cx="221.11" cy="621.61" r="4.6"/><circle class="cls-12" cx="221.11" cy="621.61" r="4.6"/></g><g class="cls-10"><circle class="cls-11" cx="236.66" cy="621.61" r="2.46"/><circle class="cls-12" cx="236.66" cy="621.61" r="2.46"/></g><g class="cls-10"><circle class="cls-11" cx="252.2" cy="621.61" r="5.77"/><circle class="cls-12" cx="252.2" cy="621.61" r="5.77"/></g><g class="cls-10"><circle class="cls-11" cx="298.85" cy="621.61" r="5.77"/><circle class="cls-12" cx="298.85" cy="621.61" r="5.77"/></g><g class="cls-10"><circle class="cls-11" cx="329.95" cy="621.61" r="8.16"/><circle class="cls-12" cx="329.95" cy="621.61" r="8.16"/></g><g class="cls-10"><circle class="cls-11" cx="267.75" cy="621.61" r="4.26"/><circle class="cls-12" cx="267.75" cy="621.61" r="4.26"/></g><g class="cls-10"><circle class="cls-11" cx="282.99" cy="621.61" r="4.26"/><circle class="cls-12" cx="282.99" cy="621.61" r="4.26"/></g><g class="cls-10"><circle class="cls-11" cx="314.4" cy="621.61" r="5.22"/><circle class="cls-12" cx="314.4" cy="621.61" r="5.22"/></g><g class="cls-10"><circle class="cls-11" cx="345.5" cy="621.61" r="8.34"/><circle class="cls-12" cx="345.5" cy="621.61" r="8.34"/></g><g class="cls-10"><circle class="cls-11" cx="361.04" cy="621.61" r="10.14"/><circle class="cls-12" cx="361.04" cy="621.61" r="10.14"/></g><g class="cls-10"><circle class="cls-11" cx="392.14" cy="621.61" r="8.16"/><circle class="cls-12" cx="392.14" cy="621.61" r="8.16"/></g><g class="cls-10"><circle class="cls-11" cx="376.59" cy="621.61" r="9.99"/><circle class="cls-12" cx="376.59" cy="621.61" r="9.99"/></g><g class="cls-10"><circle class="cls-11" cx="407.69" cy="621.61" r="11.54"/><circle class="cls-12" cx="407.69" cy="621.61" r="11.54"/></g><g class="cls-10"><circle class="cls-11" cx="423.24" cy="621.61" r="14.76"/><circle class="cls-12" cx="423.24" cy="621.61" r="14.76"/></g><g class="cls-10"><circle class="cls-11" cx="438.79" cy="621.61" r="12.9"/><circle class="cls-12" cx="438.79" cy="621.61" r="12.9"/></g><g class="cls-10"><circle class="cls-11" cx="656.47" cy="621.61" r="36.69"/><circle class="cls-12" cx="656.47" cy="621.61" r="36.69"/></g><g class="cls-10"><circle class="cls-11" cx="454.34" cy="621.61" r="5.77"/><circle class="cls-12" cx="454.34" cy="621.61" r="5.77"/></g><g class="cls-10"><circle class="cls-11" cx="469.89" cy="621.61" r="3.01"/><circle class="cls-12" cx="469.89" cy="621.61" r="3.01"/></g><g class="cls-10"><circle class="cls-11" cx="485.44" cy="621.61" r="4.92"/><circle class="cls-12" cx="485.44" cy="621.61" r="4.92"/></g><g class="cls-10"><circle class="cls-11" cx="500.98" cy="621.61" r="4.6"/><circle class="cls-12" cx="500.98" cy="621.61" r="4.6"/></g><g class="cls-10"><circle class="cls-11" cx="516.53" cy="621.61" r="6.02"/><circle class="cls-12" cx="516.53" cy="621.61" r="6.02"/></g><g class="cls-10"><circle class="cls-11" cx="532.08" cy="621.61" r="8.52"/><circle class="cls-12" cx="532.08" cy="621.61" r="8.52"/></g><g class="cls-10"><circle class="cls-11" cx="547.63" cy="621.61" r="10.58"/><circle class="cls-12" cx="547.63" cy="621.61" r="10.58"/></g><g class="cls-10"><circle class="cls-11" cx="563.18" cy="621.61" r="9.04"/><circle class="cls-12" cx="563.18" cy="621.61" r="9.04"/></g><g class="cls-10"><circle class="cls-11" cx="578.72" cy="621.61" r="9.99"/><circle class="cls-12" cx="578.72" cy="621.61" r="9.99"/></g><g class="cls-10"><circle class="cls-11" cx="594.27" cy="621.61" r="8.87"/><circle class="cls-12" cx="594.27" cy="621.61" r="8.87"/></g><g class="cls-10"><circle class="cls-11" cx="609.82" cy="621.61" r="11.8"/><circle class="cls-12" cx="609.82" cy="621.61" r="11.8"/></g><g class="cls-10"><circle class="cls-11" cx="625.37" cy="621.61" r="12.42"/><circle class="cls-12" cx="625.37" cy="621.61" r="12.42"/></g><g class="cls-10"><circle class="cls-11" cx="640.92" cy="621.61" r="11.4"/><circle class="cls-12" cx="640.92" cy="621.61" r="11.4"/></g></g></svg>