<svg id="flowchunks" xmlns="http://www.w3.org/2000/svg" viewBox="0 0 964.29 559.59"><defs><style>.cls-1{fill:#abd5ff;}.cls-2{fill:#61a9ff;}.cls-3{fill:#e6f4ff;}.cls-4{fill:#fff;}</style></defs><path class="cls-1" d="M469.22,421.83h-.08v1.91c104,0,155.8,22.34,207.87,44.73s104.35,44.89,208.54,44.89h.09v-1.91c-104,0-155.81-22.33-207.88-44.73s-104.35-44.89-208.54-44.89"/><rect class="cls-1" x="46.64" y="284.18" width="416.5" height="140.03"/><path class="cls-2" d="M46.64,284.18V83.83c101.72,0,151.13-2.37,203.44-4.88s106.53-5.12,213.06-5.12V274.18c-101.73,0-151.14,2.37-203.45,4.88S153.16,284.18,46.64,284.18Z"/><path class="cls-3" d="M463.14,473.83c-104.61,0-157.78-2.55-209.2-5-51-2.45-103.66-5-207.3-5V424.21c104.6,0,157.77,2.55,209.2,5,51,2.45,103.65,5,207.3,5Z"/><path class="cls-1" d="M884.64,464.24c-105.11,0-158.53-12.33-210.19-24.26-50.72-11.71-103.17-23.81-206.31-23.81V399c105.1,0,158.52,12.33,210.18,24.25C729,435,781.49,447.07,884.64,447.07Z"/><path class="cls-1" d="M468.14,371.81V331c103.63,0,156.32-2.53,207.27-5,51.43-2.47,104.61-5,209.23-5v40.8c-103.64,0-156.33,2.53-207.28,5C625.93,369.25,572.75,371.81,468.14,371.81Z"/><path class="cls-1" d="M468.14,331V284.18c100.25,0,149.05-16.59,200.71-34.15,53-18,107.79-36.65,215.79-36.65v46.83c-100.26,0-149.06,16.59-200.72,34.15C630.93,312.38,576.13,331,468.14,331Z"/><path class="cls-1" d="M884.64,501.46c-104.65,0-157.84-20.33-209.27-40-51-19.48-103.63-39.62-207.23-39.62v-5.67c104.64,0,157.83,20.33,209.26,40,51,19.48,103.63,39.63,207.24,39.63Z"/><path class="cls-1" d="M884.64,523.83c-46.74,0-87.2-5.09-123.72-15.57-32.55-9.35-59-22-84.63-34.26s-52-24.9-84.57-34.23c-36.47-10.47-76.9-15.56-123.58-15.56v-.46c46.73,0,87.19,5.1,123.71,15.58,32.55,9.34,59,22,84.63,34.25s52,24.9,84.57,34.24c36.47,10.46,76.9,15.55,123.59,15.55Z"/><path class="cls-1" d="M884.64,437.07c-105.36,0-158.91-9.79-210.7-19.26C621,408.14,571,399,468.14,399V371.81c105.35,0,158.9,9.79,210.69,19.25,52.92,9.68,102.91,18.82,205.81,18.82Z"/><path class="cls-2" d="M884.64,311c-105.92,0-159.75-9.52-211.81-18.73-52.64-9.31-102.36-18.1-204.69-18.1v-40.8c105.91,0,159.74,9.52,211.8,18.73,52.64,9.31,102.36,18.1,204.7,18.1Z"/><path class="cls-2" d="M468.14,185V134.7c101.73,0,151.16-9.5,203.5-19.55s106.48-20.45,213-20.45V145c-101.74,0-151.17,9.49-203.51,19.55S574.65,185,468.14,185Z"/><path class="cls-2" d="M468.14,233.38V185c102.39,0,152.13-7.17,204.79-14.76C725,162.73,778.78,155,884.64,155v48.4c-102.4,0-152.14,7.17-204.8,14.75C627.8,225.63,574,233.38,468.14,233.38Z"/><path class="cls-2" d="M468.14,134.7V73.83c100.52,0,149.39-11.73,201.14-24.16C722.19,37,776.91,23.83,884.64,23.83V84.7c-100.53,0-149.4,11.73-201.15,24.15C630.58,121.56,575.86,134.7,468.14,134.7Z"/><path class="cls-3" d="M468.14,462.28V434.21c102.06,0,151.68-14.87,204.22-30.61,52.16-15.63,106.09-31.79,212.28-31.79v28.07c-102.07,0-151.69,14.87-204.23,30.61C628.25,446.12,574.32,462.28,468.14,462.28Z"/><path class="cls-3" d="M884.64,485.79c-104.3,0-157.31-3.05-208.59-6-51.11-2.93-104-6-207.91-6V462.28c104.29,0,157.3,3.05,208.58,6,51.11,2.93,104,6,207.92,6Z"/><rect x="41.38" y="83.83" width="5" height="380"/><path d="M18.89,323.91c-4.92,0-9.08-2.52-9.08-8a7.47,7.47,0,0,1,4.74-7.22l.82,2A5.44,5.44,0,0,0,11.8,316c0,4.11,3.26,5.85,7,5.85,3.91,0,7.2-1.74,7.2-5.9a5.38,5.38,0,0,0-5.56-5.46v4H18.69v-6h9v1.76l-3.11.07A5.91,5.91,0,0,1,28,315.9C28,321.36,23.81,323.91,18.89,323.91Z"/><path d="M21.54,305.08c-3.36,0-6.45-1.79-6.45-5.49,0-4.13,3.14-5.35,6.56-5.35a5,5,0,0,1,.51.05v8.65c2.09,0,3.87-1.23,3.87-3.55a4.35,4.35,0,0,0-1.3-3.47l1.13-1.38a6.1,6.1,0,0,1,2,4.82C27.85,303.19,24.94,305.08,21.54,305.08Zm-1-8.9c-2.14.05-3.64,1.14-3.64,3.41s1.65,3.25,3.64,3.35Z"/><path d="M15.24,291.1V289h2.27a3.7,3.7,0,0,1-2.45-3.42,3.88,3.88,0,0,1,.64-2.22l1.69.77a2.32,2.32,0,0,0-.54,1.58c0,2.17,2.45,3.31,5.51,3.31h5.33v2.05Z"/><path d="M15.24,281.53v-2h2A3.64,3.64,0,0,1,15,276.14a3.9,3.9,0,0,1,2.43-3.8,4.12,4.12,0,0,1-2.4-3.88c0-3.14,2.4-4.36,5.08-4.36h7.57v2H20.37c-1.71,0-3.57.54-3.57,2.55s1.86,3.12,3.85,3.12h7v2H20.32c-1.71,0-3.52.51-3.52,2.52s1.86,3.11,3.85,3.11h7v2Z"/><path d="M24.22,261c-2.65,0-3.7-1.92-3.7-4.6v-3.77c-2.29,0-3.7.79-3.7,3.11A4,4,0,0,0,18.61,259l-1.15,1.53A5.59,5.59,0,0,1,15,255.65c0-3.11,2-4.87,5-4.87h7.65v1.66l-2.14.15A4.81,4.81,0,0,1,28,257,3.77,3.77,0,0,1,24.22,261Zm-2.06-8.37v3.6c0,1.5.74,2.68,2.06,2.68s1.92-1.15,1.92-2.43A4,4,0,0,0,22.16,252.64Z"/><path d="M15.24,246.64v-2h1.92A4.6,4.6,0,0,1,15,240.75c0-3.14,2.4-4.34,5.08-4.34h7.57v2H20.37c-1.71,0-3.39.51-3.39,2.53a3.7,3.7,0,0,0,3.7,3.62h7v2Z"/><path d="M27.57,229.31l-12.33,4.77v-2.24l10-3.55-10-3.49v-2.25l17.81,6.74v2.11Z"/><rect class="cls-4" x="292.19" y="442.31" width="175.95" height="23.43"/><path d="M405.77,450.3l-.17,0h-.11a.61.61,0,0,1-.44-.16.56.56,0,0,1,0-.78.93.93,0,0,1,.43-.23l2.61-.71.19,0h.19a.28.28,0,0,1,.26.16.71.71,0,0,1,.1.41v9.51h1.4a2.44,2.44,0,0,1,1,.13.52.52,0,0,1,.21.48.58.58,0,0,1-.18.47.72.72,0,0,1-.52.16h-5.26a.76.76,0,0,1-.53-.16.61.61,0,0,1-.17-.47.52.52,0,0,1,.21-.48,2.41,2.41,0,0,1,1-.13h1.46v-8.58Z"/><path d="M418.67,460a3,3,0,0,1-2.62-1.56,9.88,9.88,0,0,1,0-8.54,3,3,0,0,1,5.25,0,9.86,9.86,0,0,1,0,8.53A3,3,0,0,1,418.67,460Zm0-10.4a1.72,1.72,0,0,0-1.57,1.19,10.34,10.34,0,0,0,0,6.77,1.63,1.63,0,0,0,3.15,0,10.51,10.51,0,0,0,0-6.77A1.72,1.72,0,0,0,418.67,449.62Z"/><path d="M427.75,458.29a1.44,1.44,0,0,1,.48-1.12,1.73,1.73,0,0,1,1.24-.44,1.8,1.8,0,0,1,1.26.43,1.46,1.46,0,0,1,.47,1.13,1.43,1.43,0,0,1-.48,1.13,1.76,1.76,0,0,1-1.25.43,1.79,1.79,0,0,1-1.25-.43A1.46,1.46,0,0,1,427.75,458.29Z"/><path d="M440.06,459.73a.82.82,0,0,1-.57-.14.62.62,0,0,1-.15-.49.57.57,0,0,1,.16-.46.67.67,0,0,1,.49-.15h1V457h-4.1a.47.47,0,0,1-.35-.14.63.63,0,0,1-.12-.41v-.61a1.33,1.33,0,0,1,.26-.73l.07-.12,3.71-6.29a.8.8,0,0,1,.2-.28.33.33,0,0,1,.21-.06h.18l.07,0,.9.14a.28.28,0,0,1,.2.14.57.57,0,0,1,.07.31v6.68h.45a.34.34,0,0,0,.3-.15.29.29,0,0,1,.24-.16.45.45,0,0,1,.3.13.48.48,0,0,1,.12.33.61.61,0,0,1,0,.14.74.74,0,0,1,0,.14l-.07.36a.79.79,0,0,1-.18.43.48.48,0,0,1-.37.12h-.74v1.47h.31a1.54,1.54,0,0,1,.77.14.52.52,0,0,1,.21.47.58.58,0,0,1-.17.47.75.75,0,0,1-.53.16Zm.95-4.05v-6l-3.33,6Z"/><path d="M447.48,451a2.21,2.21,0,0,1,.73-1.7,2.61,2.61,0,0,1,1.85-.68,2.57,2.57,0,0,1,1.82.68,2.24,2.24,0,0,1,.72,1.7,2.21,2.21,0,0,1-.72,1.7,2.57,2.57,0,0,1-1.82.68,2.61,2.61,0,0,1-1.85-.68A2.18,2.18,0,0,1,447.48,451Zm6.35,1.55.13,0h.12a.48.48,0,0,1,.36.13.48.48,0,0,1,.13.35.46.46,0,0,1-.1.29.59.59,0,0,1-.26.2l-5.9,2.34-.13,0h-.11a.45.45,0,0,1-.35-.14.48.48,0,0,1-.13-.35.44.44,0,0,1,.1-.28.59.59,0,0,1,.26-.2ZM448.58,451a1.22,1.22,0,0,0,.4,1,1.52,1.52,0,0,0,1.08.37,1.56,1.56,0,0,0,1.07-.36,1.38,1.38,0,0,0,0-1.94,1.56,1.56,0,0,0-1.07-.36A1.52,1.52,0,0,0,449,450,1.23,1.23,0,0,0,448.58,451Zm.95,6.38a2.22,2.22,0,0,1,.72-1.7,2.88,2.88,0,0,1,3.69,0,2.37,2.37,0,0,1,0,3.4,2.86,2.86,0,0,1-3.68,0A2.21,2.21,0,0,1,449.53,457.38Zm1.1,0a1.24,1.24,0,0,0,.41,1,1.49,1.49,0,0,0,1.06.37,1.52,1.52,0,0,0,1.08-.37,1.27,1.27,0,0,0,.4-1,1.22,1.22,0,0,0-.4-1,1.52,1.52,0,0,0-1.08-.37,1.49,1.49,0,0,0-1.06.37A1.23,1.23,0,0,0,450.63,457.38Z"/><path d="M301.56,454.35V447h1.52v7.33c0,2.25.65,3.83,2.88,3.83s2.88-1.58,2.88-3.83V447h1.51v7.24c0,3.17-1.28,5.36-4.39,5.36S301.56,457.43,301.56,454.35Z"/><path d="M313.48,447h2.4l3.54,9.81L323,447h2.39v12.42h-1.51V448.51l-3.6,9.85h-1.66l-3.6-9.85v10.93h-1.51Z"/><path d="M328.69,447h1.51v12.42h-1.51Z"/><path d="M332.94,453.23c0-3.47,1.78-6.41,5.63-6.41a5.27,5.27,0,0,1,5.1,3.35l-1.4.58a3.51,3.51,0,0,0-3.71-2.53c-2.9,0-4.13,2.31-4.13,4.92s1.23,5.08,4.16,5.08a3.61,3.61,0,0,0,3.69-2.54l1.41.58a5.29,5.29,0,0,1-5.1,3.36C334.74,459.62,332.94,456.71,332.94,453.23Z"/><path d="M345.23,457.41l1.19-.61a2.25,2.25,0,0,0,2.13,1.56c.9,0,1.71-.39,1.71-1.38,0-2.15-4.7-.69-4.7-4a2.63,2.63,0,0,1,2.81-2.5,3.31,3.31,0,0,1,3,1.75l-1.1.63a2,2,0,0,0-1.87-1.12c-.81,0-1.48.4-1.48,1.19,0,1.82,4.75.49,4.75,3.92a2.84,2.84,0,0,1-3.09,2.72A3.42,3.42,0,0,1,345.23,457.41Z"/><rect class="cls-4" x="292.19" y="161.92" width="175.69" height="23.43"/><path d="M307.54,166.63h1.52v11h5.31v1.39h-6.83Z"/><path d="M316.69,166.63h2.39l3.55,9.82,3.55-9.82h2.39v12.43h-1.51V168.13l-3.6,9.85H321.8l-3.6-9.85v10.93h-1.51Z"/><path d="M331.9,166.63h1.51v12.43H331.9Z"/><path d="M336.15,172.84c0-3.47,1.78-6.41,5.63-6.41a5.3,5.3,0,0,1,5.1,3.35l-1.41.58a3.49,3.49,0,0,0-3.71-2.52c-2.89,0-4.12,2.3-4.12,4.92s1.23,5.07,4.16,5.07a3.61,3.61,0,0,0,3.69-2.54l1.41.58a5.28,5.28,0,0,1-5.1,3.37C338,179.24,336.15,176.32,336.15,172.84Z"/><path d="M348.44,177l1.19-.61a2.24,2.24,0,0,0,2.12,1.57c.9,0,1.71-.4,1.71-1.39,0-2.14-4.7-.68-4.7-3.94a2.63,2.63,0,0,1,2.81-2.51,3.28,3.28,0,0,1,3,1.75l-1.09.63a2,2,0,0,0-1.88-1.12c-.81,0-1.47.4-1.47,1.19,0,1.82,4.75.49,4.75,3.93a2.84,2.84,0,0,1-3.1,2.72A3.43,3.43,0,0,1,348.44,177Z"/><path d="M405.89,172.18a8.17,8.17,0,0,1,1.07-.31,4.49,4.49,0,0,1,.94-.1,3.43,3.43,0,0,1,2.57,1.07,4,4,0,0,1-.11,5.42,4.07,4.07,0,0,1-2.91,1.09A6.83,6.83,0,0,1,405,179c-.66-.27-1-.59-1-1a.53.53,0,0,1,.19-.41.58.58,0,0,1,.43-.18,8.35,8.35,0,0,1,1,.33,5,5,0,0,0,1.74.34,2.65,2.65,0,0,0,1.91-.7,2.43,2.43,0,0,0,.73-1.83,2.52,2.52,0,0,0-.69-1.81,2.3,2.3,0,0,0-1.75-.73,3.25,3.25,0,0,0-1.55.4,3.67,3.67,0,0,1-.92.39.38.38,0,0,1-.37-.19,1.46,1.46,0,0,1-.11-.7V168.5a.49.49,0,0,1,.18-.42,1.18,1.18,0,0,1,.62-.12h4.45a1,1,0,0,1,.63.17.61.61,0,0,1,.22.52.64.64,0,0,1-.22.5.93.93,0,0,1-.63.19h-4Z"/><path d="M415.61,179.06a1.09,1.09,0,0,1-.69-.19.73.73,0,0,1-.22-.59c0-.38.56-1.09,1.68-2.14l.26-.25.74-.7q3-2.87,3-4.18a2.16,2.16,0,0,0-.54-1.52,1.78,1.78,0,0,0-1.39-.58,2.5,2.5,0,0,0-1.05.22,2.25,2.25,0,0,0-.82.62l-.17.24c-.21.39-.46.59-.72.59a.5.5,0,0,1-.45-.2,1.4,1.4,0,0,1-.13-.74,1.3,1.3,0,0,1,.06-.46.94.94,0,0,1,.23-.31,4.22,4.22,0,0,1,1.39-.87,4.75,4.75,0,0,1,1.7-.32,3.38,3.38,0,0,1,2.44.95,3.07,3.07,0,0,1,1,2.31q0,1.73-3,4.58c-.51.48-.9.85-1.17,1.12l-1.08,1h4a1.06,1.06,0,0,1,.2-.59.6.6,0,0,1,.46-.2.57.57,0,0,1,.46.2.78.78,0,0,1,.17.53.44.44,0,0,1,0,.09.34.34,0,0,0,0,.09l-.07.68a.73.73,0,0,1-.16.42.41.41,0,0,1-.34.16Z"/><path d="M427.75,177.62a1.46,1.46,0,0,1,.48-1.13,1.77,1.77,0,0,1,1.24-.44,1.8,1.8,0,0,1,1.26.43,1.49,1.49,0,0,1,.47,1.14,1.46,1.46,0,0,1-.48,1.13,1.76,1.76,0,0,1-1.25.43,1.79,1.79,0,0,1-1.25-.43A1.49,1.49,0,0,1,427.75,177.62Z"/><path d="M440.41,178.88a.79.79,0,0,1-.14.27.31.31,0,0,1-.23.07h-.77a.47.47,0,0,1-.28-.08.23.23,0,0,1-.1-.19.68.68,0,0,1,0-.14s0-.09,0-.15l3.45-9.38h-4.46a1,1,0,0,1-.19.61.53.53,0,0,1-.46.2.61.61,0,0,1-.45-.15.62.62,0,0,1-.14-.46v-.14s0-.05,0-.07l.09-.8a.55.55,0,0,1,.18-.37.6.6,0,0,1,.42-.13h5.81a.55.55,0,0,1,.37.1.46.46,0,0,1,.12.35v.3a1.16,1.16,0,0,1,0,.28c0,.11-.08.27-.14.46Z"/><path d="M447.48,170.33a2.23,2.23,0,0,1,.73-1.71,2.6,2.6,0,0,1,1.85-.67,2.56,2.56,0,0,1,1.82.67,2.38,2.38,0,0,1,0,3.41,2.56,2.56,0,0,1-1.82.67,2.6,2.6,0,0,1-1.85-.67A2.21,2.21,0,0,1,447.48,170.33Zm6.35,1.55.13,0,.12,0a.49.49,0,0,1,.36.14.45.45,0,0,1,.13.35.44.44,0,0,1-.1.28.52.52,0,0,1-.26.2l-5.9,2.35-.13,0h-.11a.48.48,0,0,1-.35-.14.48.48,0,0,1-.13-.35.42.42,0,0,1,.1-.28.61.61,0,0,1,.26-.21Zm-5.25-1.55a1.25,1.25,0,0,0,.4,1,1.57,1.57,0,0,0,1.08.37,1.52,1.52,0,0,0,1.07-.37,1.36,1.36,0,0,0,0-1.93,1.75,1.75,0,0,0-2.15,0A1.25,1.25,0,0,0,448.58,170.33Zm.95,6.37a2.2,2.2,0,0,1,.72-1.69,2.88,2.88,0,0,1,3.69,0,2.36,2.36,0,0,1,0,3.39,2.86,2.86,0,0,1-3.68,0A2.2,2.2,0,0,1,449.53,176.7Zm1.1,0a1.23,1.23,0,0,0,.41,1,1.5,1.5,0,0,0,1.06.38,1.53,1.53,0,0,0,1.08-.38,1.25,1.25,0,0,0,.4-1,1.24,1.24,0,0,0-.4-1,1.57,1.57,0,0,0-1.08-.36,1.53,1.53,0,0,0-1.06.36A1.23,1.23,0,0,0,450.63,176.7Z"/><rect class="cls-4" x="292.19" y="342.48" width="175.69" height="23.43"/><path d="M313.72,347.19h1.51v11h5.31v1.39h-6.82Z"/><path d="M322.79,347.19H326c4.05,0,6.28,2.22,6.28,6.31,0,3.92-2.28,6.12-6.3,6.12h-3.22Zm3,11c2.86,0,5-1.44,5-4.82,0-3.17-1.55-4.85-4.79-4.85H324.3v9.67Z"/><path d="M334.54,353.41c0-3.48,1.79-6.41,5.64-6.41a5.27,5.27,0,0,1,5.09,3.34l-1.4.58a3.49,3.49,0,0,0-3.71-2.52c-2.9,0-4.12,2.3-4.12,4.92s1.22,5.07,4.16,5.07a3.62,3.62,0,0,0,3.69-2.54l1.4.58a5.26,5.26,0,0,1-5.09,3.37C336.34,359.8,334.54,356.88,334.54,353.41Z"/><path d="M346.84,357.58,348,357a2.25,2.25,0,0,0,2.13,1.57c.9,0,1.71-.4,1.71-1.39,0-2.14-4.7-.68-4.7-3.94A2.63,2.63,0,0,1,350,350.7a3.28,3.28,0,0,1,3,1.75l-1.1.63A2,2,0,0,0,350,352c-.81,0-1.48.39-1.48,1.18,0,1.82,4.76.49,4.76,3.93a2.85,2.85,0,0,1-3.1,2.72A3.41,3.41,0,0,1,346.84,357.58Z"/><path d="M409.24,353.82a2.8,2.8,0,0,1,2.16,2.84,3.21,3.21,0,0,1-1.09,2.52,4.08,4.08,0,0,1-2.82,1,5.24,5.24,0,0,1-2.38-.52c-.69-.34-1-.71-1-1.12a.56.56,0,0,1,.19-.44.69.69,0,0,1,.46-.17,5.28,5.28,0,0,1,1.09.45,4,4,0,0,0,1.74.45,2.4,2.4,0,0,0,1.7-.6,2,2,0,0,0,.66-1.55,2,2,0,0,0-.46-1.32,2,2,0,0,0-1.24-.69c-.16,0-.37,0-.62-.07-.5,0-.74-.24-.74-.62s.24-.54.72-.6l.47-.06a1.86,1.86,0,0,0,1.1-.57,1.56,1.56,0,0,0,.42-1.1,1.89,1.89,0,0,0-.51-1.37,1.79,1.79,0,0,0-1.32-.52,3,3,0,0,0-1.52.45,3,3,0,0,1-1,.46.56.56,0,0,1-.41-.16.51.51,0,0,1-.16-.39c0-.36.33-.72,1-1.07a4.48,4.48,0,0,1,2.18-.53,3.2,3.2,0,0,1,2.28.83,2.63,2.63,0,0,1,.91,2,2.51,2.51,0,0,1-.43,1.52A2.76,2.76,0,0,1,409.24,353.82Z"/><path d="M416.59,354.11a3.12,3.12,0,0,1,1.05-.92,2.62,2.62,0,0,1,1.27-.31,3.11,3.11,0,0,1,2.36,1.05,3.67,3.67,0,0,1,1,2.57,3.76,3.76,0,0,1-.94,2.63,3.11,3.11,0,0,1-2.41,1,3.3,3.3,0,0,1-2.77-1.38,5.88,5.88,0,0,1-1-3.67,7.2,7.2,0,0,1,1.53-4.8,5.06,5.06,0,0,1,4.06-1.81,3.37,3.37,0,0,1,1.13.12.47.47,0,0,1,.27.47c0,.37-.34.56-1,.58a6.24,6.24,0,0,0-1.09.08,3.6,3.6,0,0,0-2.26,1.4A5.94,5.94,0,0,0,416.59,354.11Zm.19,2.34a2.64,2.64,0,0,0,.57,1.76,1.81,1.81,0,0,0,1.47.68,1.72,1.72,0,0,0,1.38-.64,2.53,2.53,0,0,0,.54-1.68,2.65,2.65,0,0,0-.55-1.74,1.82,1.82,0,0,0-1.44-.66,1.77,1.77,0,0,0-1.41.64A2.4,2.4,0,0,0,416.78,356.45Z"/><path d="M427.75,358.43a1.47,1.47,0,0,1,.48-1.13,1.77,1.77,0,0,1,1.24-.44,1.85,1.85,0,0,1,1.26.43,1.49,1.49,0,0,1,.47,1.14,1.44,1.44,0,0,1-.48,1.13,1.76,1.76,0,0,1-1.25.43,1.79,1.79,0,0,1-1.25-.43A1.47,1.47,0,0,1,427.75,358.43Z"/><path d="M438.52,354.19a3.23,3.23,0,0,1-1.29-1.07,2.73,2.73,0,0,1-.43-1.51,2.89,2.89,0,0,1,1-2.24,4,4,0,0,1,5,0,2.75,2.75,0,0,1,1,2.14,2.85,2.85,0,0,1-.42,1.59,3,3,0,0,1-1.31,1.08,2.87,2.87,0,0,1,1.36,1.06,2.8,2.8,0,0,1,.48,1.63,3.05,3.05,0,0,1-1,2.37,3.72,3.72,0,0,1-2.59.91,3.65,3.65,0,0,1-2.58-.92,3.12,3.12,0,0,1-1-2.39,2.76,2.76,0,0,1,.47-1.6A3,3,0,0,1,438.52,354.19Zm-.38,2.66a2,2,0,0,0,.58,1.51,2.14,2.14,0,0,0,1.55.58,2.18,2.18,0,0,0,1.56-.56,2,2,0,0,0,.59-1.5,1.94,1.94,0,0,0-.6-1.48,2.38,2.38,0,0,0-3.08,0A1.9,1.9,0,0,0,438.14,356.85Zm.09-5.24a1.91,1.91,0,0,0,.57,1.43,2,2,0,0,0,1.47.55,2,2,0,0,0,1.48-.56,1.89,1.89,0,0,0,.58-1.44,1.83,1.83,0,0,0-.58-1.39,2.25,2.25,0,0,0-2.95,0A1.88,1.88,0,0,0,438.23,351.61Z"/><path d="M447.48,351.14a2.21,2.21,0,0,1,.73-1.7,2.61,2.61,0,0,1,1.85-.68,2.57,2.57,0,0,1,1.82.68,2.37,2.37,0,0,1,0,3.4,2.56,2.56,0,0,1-1.82.67,2.6,2.6,0,0,1-1.85-.67A2.2,2.2,0,0,1,447.48,351.14Zm6.35,1.55.13,0h.12a.48.48,0,0,1,.36.13.46.46,0,0,1,.13.35.44.44,0,0,1-.1.28.47.47,0,0,1-.26.2l-5.9,2.35-.13,0h-.11a.45.45,0,0,1-.35-.14.48.48,0,0,1-.13-.35.44.44,0,0,1,.1-.28.52.52,0,0,1,.26-.2Zm-5.25-1.55a1.25,1.25,0,0,0,.4,1,1.75,1.75,0,0,0,2.15,0,1.22,1.22,0,0,0,.4-1,1.24,1.24,0,0,0-.4-1,1.79,1.79,0,0,0-2.15,0A1.25,1.25,0,0,0,448.58,351.14Zm.95,6.37a2.2,2.2,0,0,1,.72-1.69,2.88,2.88,0,0,1,3.69,0,2.2,2.2,0,0,1,.72,1.69,2.24,2.24,0,0,1-.72,1.71,2.86,2.86,0,0,1-3.68,0A2.22,2.22,0,0,1,449.53,357.51Zm1.1,0a1.21,1.21,0,0,0,.41,1,1.5,1.5,0,0,0,1.06.38,1.53,1.53,0,0,0,1.08-.38,1.24,1.24,0,0,0,.4-1,1.25,1.25,0,0,0-.4-1,1.57,1.57,0,0,0-1.08-.36,1.49,1.49,0,0,0-1.06.37A1.21,1.21,0,0,0,450.63,357.51Z"/><rect x="462.88" y="434.21" width="5" height="39.62"/><rect x="462.88" y="73.83" width="5" height="200.35"/><rect x="462.88" y="284.18" width="5" height="140.03"/><rect x="884.38" y="447.07" width="5" height="17.17"/><path d="M898.21,449.66h2.37a2.4,2.4,0,0,1,2.65,2.21,2,2,0,0,1-1,1.7,2.28,2.28,0,0,1,1.45,2.08,2.45,2.45,0,0,1-2.64,2.29h-2.79Zm2.39,3.59c.87,0,1.61-.37,1.61-1.27a1.46,1.46,0,0,0-1.61-1.41h-1.4v2.68ZM901,457a1.48,1.48,0,0,0,1.61-1.44,1.45,1.45,0,0,0-1.61-1.4H899.2V457Z"/><path d="M904.78,456.31c0-1.25.9-1.74,2.16-1.74h1.78c0-1.08-.38-1.74-1.47-1.74a1.88,1.88,0,0,0-1.52.84l-.72-.54A2.62,2.62,0,0,1,907.3,452a2.14,2.14,0,0,1,2.29,2.35v3.6h-.78l-.07-1a2.27,2.27,0,0,1-2.08,1.13A1.78,1.78,0,0,1,904.78,456.31Zm3.94-1H907c-.7,0-1.26.35-1.26,1s.54.9,1.14.9A1.88,1.88,0,0,0,908.72,455.33Z"/><path d="M911.54,452.08h1v.9a2.16,2.16,0,0,1,1.81-1c1.47,0,2,1.13,2,2.38v3.57h-1v-3.45c0-.8-.24-1.59-1.19-1.59a1.73,1.73,0,0,0-1.7,1.74v3.3h-1Z"/><path d="M917.81,458.79a1.92,1.92,0,0,1,.11-.64l1-.42a1.56,1.56,0,0,1-1-1.26,1.88,1.88,0,0,0,.39-2.43,2,2,0,0,1,2.13-2,2.6,2.6,0,0,1,1.08.24l1-.84.53.71-.87.64a2,2,0,0,1-1.7,3.28,2.51,2.51,0,0,1-1.26-.33,1.12,1.12,0,0,0-.41.73c0,.62,1.08.6,1.87.62,1.24,0,2.46.13,2.46,1.58s-1.32,2-2.65,2S917.81,460.18,917.81,458.79Zm4.39-.07c0-.74-.75-.82-1.58-.82-.31,0-.65,0-1,0l-1,.79c0,.15.16,1.09,1.81,1.09C921.15,459.76,922.2,459.59,922.2,458.72Zm-.57-4.68a1.19,1.19,0,1,0-2.37,0,1.19,1.19,0,1,0,2.37,0Z"/><path d="M924.53,456.75v-7.09h1v7.21s0,.35.33.35a2.79,2.79,0,0,0,.52-.06v.78a3,3,0,0,1-.8.12C924.68,458.06,924.53,457.51,924.53,456.75Z"/><path d="M927.37,456.31c0-1.25.89-1.74,2.15-1.74h1.78c0-1.08-.37-1.74-1.46-1.74a1.88,1.88,0,0,0-1.53.84l-.72-.54a2.63,2.63,0,0,1,2.29-1.14,2.13,2.13,0,0,1,2.29,2.35v3.6h-.77l-.08-1a2.26,2.26,0,0,1-2.07,1.13A1.77,1.77,0,0,1,927.37,456.31Zm3.93-1h-1.69c-.71,0-1.26.35-1.26,1s.54.9,1.14.9A1.88,1.88,0,0,0,931.3,455.33Z"/><path d="M933.66,455c0-1.68.84-3.05,2.38-3.05a2.1,2.1,0,0,1,1.8.9v-3.2h1v8.28h-1v-.78a2.1,2.1,0,0,1-1.8.9C934.5,458.06,933.66,456.69,933.66,455Zm4.24,0c0-1.16-.48-2.16-1.62-2.16s-1.66,1-1.66,2.16.52,2.17,1.66,2.17S937.9,456.19,937.9,455Z"/><path d="M940.58,455.05c0-1.59.84-3,2.58-3,1.94,0,2.51,1.48,2.51,3.08a2.39,2.39,0,0,1,0,.24h-4.07a1.68,1.68,0,0,0,1.67,1.83,2,2,0,0,0,1.63-.61l.65.52a2.84,2.84,0,0,1-2.27.94A2.66,2.66,0,0,1,940.58,455.05Zm4.18-.48a1.54,1.54,0,0,0-1.6-1.72c-1,0-1.53.78-1.58,1.72Z"/><path d="M946.64,456.58l.79-.41a1.49,1.49,0,0,0,1.41,1.05c.6,0,1.14-.27,1.14-.93,0-1.42-3.13-.45-3.13-2.62a1.75,1.75,0,0,1,1.87-1.67,2.18,2.18,0,0,1,2,1.16l-.73.42a1.31,1.31,0,0,0-1.25-.74c-.54,0-1,.26-1,.79,0,1.21,3.17.33,3.17,2.62a1.9,1.9,0,0,1-2.07,1.81A2.28,2.28,0,0,1,946.64,456.58Z"/><path d="M952.49,449.66h1V453a2.18,2.18,0,0,1,1.81-1c1.48,0,2,1.13,2,2.38v3.57h-1v-3.45c0-.8-.24-1.59-1.18-1.59a1.74,1.74,0,0,0-1.71,1.74v3.3h-1Z"/><rect x="884.38" y="270.21" width="5" height="40.8"/><path d="M898.21,284.62h2.37a2.4,2.4,0,0,1,2.65,2.2,2,2,0,0,1-1,1.71,2.27,2.27,0,0,1,1.45,2.07,2.45,2.45,0,0,1-2.64,2.29h-2.79Zm2.4,3.58c.86,0,1.6-.37,1.6-1.27a1.45,1.45,0,0,0-1.6-1.4H899.2v2.67ZM901,292a1.49,1.49,0,0,0,1.6-1.44,1.45,1.45,0,0,0-1.6-1.41H899.2V292Z"/><path d="M904.78,290a2.83,2.83,0,1,1,2.82,3A2.85,2.85,0,0,1,904.78,290Zm4.57,0c0-1.14-.49-2.18-1.75-2.18s-1.75,1-1.75,2.18.49,2.18,1.75,2.18S909.35,291.13,909.35,290Z"/><path d="M912.14,291.7v-7.08h1v7.2s0,.35.32.35a3,3,0,0,0,.53-.06v.78a3,3,0,0,1-.8.12C912.28,293,912.14,292.46,912.14,291.7Z"/><path d="M915.41,284.58h1.1v1.19h-1.1Zm.08,2.46h1v5.85h-1Z"/><path d="M917.73,287h1l1.59,4.6L922,287h1l-2.2,5.85h-.84Z"/><path d="M924.21,284.58h1.09v1.19h-1.09Zm.07,2.46h1v5.85h-1Z"/><path d="M927,291.26c0-1.25.9-1.74,2.16-1.74h1.77c0-1.08-.37-1.74-1.46-1.74a1.88,1.88,0,0,0-1.53.84l-.72-.54a2.65,2.65,0,0,1,2.29-1.14,2.15,2.15,0,0,1,2.3,2.35v3.6H931l-.08-1a2.26,2.26,0,0,1-2.07,1.13A1.76,1.76,0,0,1,927,291.26Zm3.93-1h-1.69c-.71,0-1.26.35-1.26,1s.54.9,1.14.9A1.88,1.88,0,0,0,930.88,290.29Z"/><rect x="884.38" y="409.88" width="5" height="27.19"/><path d="M898.21,417.48h2.37a2.4,2.4,0,0,1,2.65,2.21,2,2,0,0,1-1,1.7,2.28,2.28,0,0,1,1.45,2.08,2.45,2.45,0,0,1-2.64,2.29h-2.79Zm2.4,3.59c.86,0,1.6-.37,1.6-1.27a1.46,1.46,0,0,0-1.6-1.41H899.2v2.68Zm.42,3.75a1.48,1.48,0,0,0,1.6-1.44A1.44,1.44,0,0,0,901,422H899.2v2.84Z"/><path d="M905.15,423.38V419.9h1v3.48c0,.81.23,1.67,1.18,1.67a1.82,1.82,0,0,0,1.71-1.81V419.9h1v5.86h-1v-.94a2.13,2.13,0,0,1-1.81,1.07C905.72,425.89,905.15,424.7,905.15,423.38Z"/><path d="M912.05,419.9h1V421a1.73,1.73,0,0,1,1.6-1.15,1.81,1.81,0,0,1,1,.3l-.36.79a1.13,1.13,0,0,0-.75-.25c-1,0-1.56,1.15-1.56,2.59v2.51h-1Z"/><path d="M916.41,423.38V419.9h1v3.48c0,.81.23,1.67,1.17,1.67a1.82,1.82,0,0,0,1.72-1.81V419.9h1v5.86h-1v-.94a2.15,2.15,0,0,1-1.81,1.07C917,425.89,916.41,424.7,916.41,423.38Z"/><path d="M923.42,419.9h1v.9a2.16,2.16,0,0,1,1.81-1c1.47,0,2,1.13,2,2.38v3.57h-1v-3.45c0-.8-.24-1.59-1.19-1.59a1.74,1.74,0,0,0-1.7,1.74v3.3h-1Z"/><path d="M929.73,422.83c0-1.68.84-3.05,2.38-3.05a2.08,2.08,0,0,1,1.79.9v-3.2h1v8.28h-1V425a2.08,2.08,0,0,1-1.79.9C930.57,425.88,929.73,424.51,929.73,422.83Zm4.23,0c0-1.16-.48-2.16-1.62-2.16s-1.65,1-1.65,2.16.52,2.17,1.65,2.17S934,424,934,422.83Z"/><path d="M937.09,417.45h1.09v1.18h-1.09Zm.07,2.45h1v5.86h-1Z"/><rect x="884.38" y="474.24" width="5" height="11.55"/><path d="M897.79,478.16c0-2.32,1.18-4.27,3.75-4.27a3.5,3.5,0,0,1,3.39,2.23l-.93.38a2.33,2.33,0,0,0-2.47-1.68c-1.93,0-2.75,1.54-2.75,3.28s.82,3.38,2.77,3.38a2.41,2.41,0,0,0,2.46-1.69l.94.38a3.52,3.52,0,0,1-3.4,2.25C899,482.42,897.79,480.47,897.79,478.16Z"/><path d="M906.1,479.39a2.83,2.83,0,1,1,2.82,3A2.86,2.86,0,0,1,906.1,479.39Zm4.57,0c0-1.14-.49-2.18-1.75-2.18s-1.75,1-1.75,2.18.49,2.19,1.75,2.19S910.67,480.53,910.67,479.39Z"/><path d="M913.46,481.11V474h1v7.21s0,.35.32.35a3,3,0,0,0,.53-.06v.78a3,3,0,0,1-.8.12C913.6,482.42,913.46,481.86,913.46,481.11Z"/><path d="M916.29,479.39a2.83,2.83,0,1,1,2.82,3A2.86,2.86,0,0,1,916.29,479.39Zm4.57,0c0-1.14-.49-2.18-1.75-2.18s-1.75,1-1.75,2.18.49,2.19,1.75,2.19S920.86,480.53,920.86,479.39Z"/><path d="M923.65,476.44h1v.95a1.7,1.7,0,0,1,1.57-1.06,1.83,1.83,0,0,1,1.78,1.14,1.94,1.94,0,0,1,1.83-1.12c1.47,0,2.05,1.12,2.05,2.38v3.57h-1v-3.45c0-.8-.25-1.68-1.2-1.68s-1.46.88-1.46,1.81v3.32h-1v-3.47c0-.8-.24-1.66-1.19-1.66s-1.46.88-1.46,1.81v3.32h-1Z"/><path d="M934.83,481.52v.78h-1V474h1v3.2a2.09,2.09,0,0,1,1.8-.91c1.53,0,2.37,1.38,2.37,3.06s-.84,3.05-2.37,3.05A2.08,2.08,0,0,1,934.83,481.52Zm3.21-2.15c0-1.16-.51-2.21-1.65-2.21s-1.63,1-1.63,2.21.49,2.19,1.63,2.19S938,480.54,938,479.37Z"/><path d="M940.72,474h1.09v1.19h-1.09Zm.07,2.46h1v5.86h-1Z"/><path d="M943.46,480.66c0-1.24.9-1.74,2.16-1.74h1.77c0-1.07-.37-1.73-1.46-1.73a1.83,1.83,0,0,0-1.52.84l-.72-.54a2.62,2.62,0,0,1,2.29-1.14,2.14,2.14,0,0,1,2.29,2.35v3.6h-.78l-.07-1a2.27,2.27,0,0,1-2.08,1.13A1.77,1.77,0,0,1,943.46,480.66Zm3.93-1H945.7c-.71,0-1.26.35-1.26,1s.54.9,1.14.9A1.87,1.87,0,0,0,947.39,479.69Z"/><rect x="884.38" y="154.98" width="5" height="48.4"/><path d="M898.18,171h5.39v.88h-4.38v2.81h3.86v.89h-3.86v2.77h4.38v.92h-5.39Z"/><path d="M905,180.11a1.77,1.77,0,0,1,.11-.63l1-.42a1.59,1.59,0,0,1-1-1.26,2.1,2.1,0,0,1,.67-1.36,2.05,2.05,0,0,1,1.85-3.1,2.45,2.45,0,0,1,1.08.24l1-.84.53.71-.87.63a2,2,0,0,1,.45,1.28,2,2,0,0,1-2.15,2,2.51,2.51,0,0,1-1.26-.34,1.12,1.12,0,0,0-.41.73c0,.63,1.08.6,1.87.63,1.24,0,2.46.13,2.46,1.58s-1.32,2-2.65,2S905,181.5,905,180.11Zm4.39-.07c0-.73-.75-.81-1.58-.81-.31,0-.65,0-.95,0l-1,.79c0,.16.16,1.09,1.81,1.09C908.3,181.08,909.35,180.92,909.35,180Zm-.57-4.68a1.19,1.19,0,1,0-2.37,0,1.19,1.19,0,1,0,2.37,0Z"/><path d="M913.05,179.2l-2.24-5.79h1.05l1.67,4.68,1.64-4.68h1.06l-3.17,8.37h-1Z"/><path d="M917.54,173.41h1v.78a2.07,2.07,0,0,1,1.8-.9c1.52,0,2.37,1.37,2.37,3s-.85,3-2.37,3a2.07,2.07,0,0,1-1.8-.9v3.35h-1Zm4.16,2.92c0-1.16-.5-2.19-1.64-2.19s-1.63,1-1.63,2.19.48,2.2,1.63,2.2S921.7,177.51,921.7,176.33Z"/><path d="M924.55,177.71v-3.49h-.92v-.81h.92v-1.34l1-.84v2.18H927v.81h-1.49v3.52c0,.59.23.8.62.8a1.94,1.94,0,0,0,.75-.12v.84a2.61,2.61,0,0,1-.84.12C925,179.38,924.55,178.71,924.55,177.71Z"/><rect x="884.38" y="495.79" width="5" height="5.67"/><path d="M898.18,492.63h5.39v.89h-4.38v2.8h3.86v.89h-3.86V500h4.38v.93h-5.39Z"/><path d="M905.62,499.36v-3.49h-.91v-.82h.91v-1.34l1-.84v2.18h1.5v.82h-1.5v3.51c0,.59.24.81.63.81a1.94,1.94,0,0,0,.75-.12v.84a2.61,2.61,0,0,1-.84.12C906.08,501,905.62,500.35,905.62,499.36Z"/><path d="M909.49,492.63h1V496a2.16,2.16,0,0,1,1.81-1c1.47,0,2,1.12,2,2.38v3.57h-1v-3.45c0-.8-.24-1.59-1.19-1.59a1.73,1.73,0,0,0-1.7,1.74v3.3h-1Z"/><path d="M916.19,492.59h1.1v1.19h-1.1Zm.08,2.46h1v5.86h-1Z"/><path d="M918.93,498a2.83,2.83,0,1,1,2.82,3A2.86,2.86,0,0,1,918.93,498Zm4.57,0c0-1.14-.49-2.18-1.75-2.18s-1.75,1-1.75,2.18.49,2.19,1.75,2.19S923.5,499.14,923.5,498Z"/><path d="M926.3,495.05h1v.78a2.07,2.07,0,0,1,1.8-.9c1.52,0,2.37,1.37,2.37,3.05s-.85,3-2.37,3a2.07,2.07,0,0,1-1.8-.9v3.34h-1Zm4.16,2.93c0-1.16-.5-2.2-1.64-2.2s-1.63,1-1.63,2.2.48,2.19,1.63,2.19S930.46,499.15,930.46,498Z"/><path d="M933.08,492.59h1.09v1.19h-1.09Zm.07,2.46h1v5.86h-1Z"/><path d="M935.81,499.27c0-1.24.9-1.73,2.16-1.73h1.78c0-1.08-.37-1.74-1.46-1.74a1.86,1.86,0,0,0-1.53.84l-.72-.54a2.63,2.63,0,0,1,2.29-1.14,2.13,2.13,0,0,1,2.29,2.35v3.6h-.78l-.07-1A2.26,2.26,0,0,1,937.7,501,1.78,1.78,0,0,1,935.81,499.27Zm3.94-1h-1.69c-.71,0-1.26.35-1.26,1s.54.9,1.14.9A1.87,1.87,0,0,0,939.75,498.3Z"/><rect x="884.38" y="23.83" width="5" height="60.86"/><path d="M898.12,48.27h1v8.27h-1Z"/><path d="M901.31,50.69h1v.9a2.2,2.2,0,0,1,1.81-1c1.48,0,2,1.13,2,2.39v3.56h-1V53.1c0-.8-.24-1.59-1.18-1.59a1.74,1.74,0,0,0-1.71,1.74v3.29h-1Z"/><path d="M907.63,53.62c0-1.68.84-3,2.37-3a2.08,2.08,0,0,1,1.8.9v-3.2h1v8.27h-1v-.78a2.06,2.06,0,0,1-1.8.9C908.47,56.66,907.63,55.3,907.63,53.62Zm4.23,0c0-1.17-.48-2.16-1.62-2.16s-1.65,1-1.65,2.16.51,2.17,1.65,2.17S911.86,54.79,911.86,53.62Z"/><path d="M915,48.23h1.09v1.19H915Zm.07,2.46h1v5.85h-1Z"/><path d="M917.72,54.91c0-1.24.9-1.74,2.16-1.74h1.77c0-1.08-.37-1.74-1.46-1.74a1.87,1.87,0,0,0-1.52.84l-.72-.54a2.64,2.64,0,0,1,2.29-1.14A2.15,2.15,0,0,1,922.53,53v3.59h-.78l-.07-1a2.27,2.27,0,0,1-2.08,1.12A1.76,1.76,0,0,1,917.72,54.91Zm3.93-1H920c-.71,0-1.26.35-1.26,1s.54.9,1.14.9A1.87,1.87,0,0,0,921.65,53.94Z"/><rect x="884.38" y="94.7" width="5" height="50.28"/><path d="M898.18,113.84h1v4.78l4.5-4.78H905l-3.16,3.29,3.11,5h-1.21l-2.59-4.3-2,2v2.26h-1Z"/><path d="M905.79,119.23c0-1.59.84-3,2.58-3,1.94,0,2.52,1.48,2.52,3.09a1.85,1.85,0,0,1,0,.24H906.8a1.66,1.66,0,0,0,1.67,1.82,2,2,0,0,0,1.63-.61l.64.53a2.85,2.85,0,0,1-2.26.93A2.67,2.67,0,0,1,905.79,119.23Zm4.19-.48a1.55,1.55,0,0,0-1.61-1.72c-1,0-1.52.78-1.57,1.72Z"/><path d="M912.47,116.27h1v.9a2.17,2.17,0,0,1,1.81-1c1.48,0,2,1.13,2,2.39v3.56h-1v-3.44c0-.81-.24-1.6-1.18-1.6a1.74,1.74,0,0,0-1.71,1.74v3.3h-1Z"/><path d="M920.62,122.06l-2.24-5.79h1l1.67,4.67,1.64-4.67h1.06l-3.17,8.37h-1Z"/><path d="M924.58,120.49c0-1.25.9-1.74,2.16-1.74h1.78c0-1.08-.38-1.74-1.47-1.74a1.88,1.88,0,0,0-1.52.84l-.72-.54a2.62,2.62,0,0,1,2.29-1.14,2.14,2.14,0,0,1,2.29,2.35v3.6h-.78l-.07-1a2.26,2.26,0,0,1-2.07,1.13A1.78,1.78,0,0,1,924.58,120.49Zm3.94-1h-1.69c-.71,0-1.26.34-1.26,1s.54.9,1.14.9A1.88,1.88,0,0,0,928.52,119.52Z"/><rect x="884.38" y="371.81" width="5" height="28.07"/><path d="M898.18,379.85h1v7.35h3.54v.92h-4.55Z"/><path d="M903.75,385.23c0-1.58.84-3,2.58-3,1.94,0,2.52,1.47,2.52,3.08a1.62,1.62,0,0,1,0,.24h-4.06a1.66,1.66,0,0,0,1.67,1.82,2,2,0,0,0,1.63-.61l.64.53a2.85,2.85,0,0,1-2.26.94A2.67,2.67,0,0,1,903.75,385.23Zm4.19-.48a1.54,1.54,0,0,0-1.61-1.71,1.58,1.58,0,0,0-1.57,1.71Z"/><path d="M911.47,387.34v.78h-1v-8.27h1v3.2a2.09,2.09,0,0,1,1.79-.91c1.54,0,2.38,1.38,2.38,3.06s-.84,3-2.38,3A2.06,2.06,0,0,1,911.47,387.34Zm3.21-2.14c0-1.17-.52-2.21-1.65-2.21s-1.64,1-1.64,2.21.5,2.19,1.64,2.19S914.68,386.37,914.68,385.2Z"/><path d="M916.91,386.49c0-1.24.9-1.74,2.16-1.74h1.78c0-1.08-.37-1.74-1.47-1.74a1.88,1.88,0,0,0-1.52.84l-.72-.54a2.65,2.65,0,0,1,2.29-1.14,2.14,2.14,0,0,1,2.29,2.36v3.59h-.78l-.07-1a2.25,2.25,0,0,1-2.07,1.12A1.77,1.77,0,0,1,916.91,386.49Zm3.94-1h-1.69c-.71,0-1.26.35-1.26,1s.54.9,1.14.9A1.87,1.87,0,0,0,920.85,385.52Z"/><path d="M923.67,382.27h1v.9a2.17,2.17,0,0,1,1.81-1c1.48,0,2,1.13,2,2.39v3.56h-1v-3.44c0-.8-.24-1.59-1.19-1.59a1.74,1.74,0,0,0-1.7,1.74v3.29h-1Z"/><path d="M929.93,385.22a2.83,2.83,0,1,1,2.82,3A2.86,2.86,0,0,1,929.93,385.22Zm4.57,0c0-1.14-.49-2.18-1.75-2.18s-1.75,1-1.75,2.18.49,2.18,1.75,2.18S934.5,386.36,934.5,385.22Z"/><path d="M937.28,382.27h1v.9a2.17,2.17,0,0,1,1.81-1c1.47,0,2,1.13,2,2.39v3.56h-1v-3.44c0-.8-.24-1.59-1.19-1.59a1.73,1.73,0,0,0-1.7,1.74v3.29h-1Z"/><rect x="884.38" y="523.37" width="5" height="0.46"/><path d="M898.18,517.62h2.42a2.37,2.37,0,0,1,2.63,2.33,2.14,2.14,0,0,1-1.74,2.13l2.24,3.81h-1.16l-2.12-3.68h-1.26v3.68h-1Zm2.57,3.68a1.39,1.39,0,0,0,1.49-1.37,1.43,1.43,0,0,0-1.62-1.41H899.2v2.78Z"/><path d="M904.31,520h1l1.17,4.55,1.3-4.55h.87l1.3,4.53,1.17-4.53h1l-1.67,5.85h-.91l-1.34-4.6-1.35,4.6H906Z"/><path d="M913,524.25c0-1.25.9-1.74,2.16-1.74H917c0-1.08-.37-1.74-1.46-1.74a1.87,1.87,0,0,0-1.52.84l-.72-.54a2.64,2.64,0,0,1,2.29-1.14,2.15,2.15,0,0,1,2.29,2.36v3.59h-.78l-.07-1a2.27,2.27,0,0,1-2.08,1.12A1.76,1.76,0,0,1,913,524.25Zm3.93-1h-1.69c-.71,0-1.26.35-1.26,1s.54.9,1.14.9A1.87,1.87,0,0,0,917,523.28Z"/><path d="M919.79,520h1v.9a2.19,2.19,0,0,1,1.81-1c1.48,0,2,1.13,2,2.39v3.56h-1v-3.44c0-.8-.24-1.59-1.18-1.59a1.74,1.74,0,0,0-1.71,1.74v3.29h-1Z"/><path d="M926.11,523c0-1.68.84-3.05,2.37-3.05a2.08,2.08,0,0,1,1.8.9v-3.2h1v8.27h-1v-.78a2.06,2.06,0,0,1-1.8.9C927,526,926.11,524.64,926.11,523Zm4.23,0c0-1.17-.48-2.16-1.62-2.16s-1.65,1-1.65,2.16.51,2.17,1.65,2.17S930.34,524.13,930.34,523Z"/><path d="M933,524.25c0-1.25.9-1.74,2.16-1.74H937c0-1.08-.37-1.74-1.46-1.74a1.88,1.88,0,0,0-1.53.84l-.72-.54a2.66,2.66,0,0,1,2.3-1.14,2.15,2.15,0,0,1,2.29,2.36v3.59h-.78l-.07-1A2.27,2.27,0,0,1,934.9,526,1.76,1.76,0,0,1,933,524.25Zm3.93-1h-1.69c-.71,0-1.26.35-1.26,1s.54.9,1.14.9A1.87,1.87,0,0,0,937,523.28Z"/><rect x="884.38" y="511.46" width="5" height="1.91"/><path d="M897.52,512.56l1-.29a1.8,1.8,0,0,0,2,1.6c1,0,1.62-.46,1.62-1.43,0-2-4-1.5-4-4a2.15,2.15,0,0,1,2.29-2.12,2.5,2.5,0,0,1,2.33,1.32l-.78.51a1.7,1.7,0,0,0-1.55-.95,1.21,1.21,0,0,0-1.29,1.16c0,1.92,4,1.38,4,4a2.4,2.4,0,0,1-2.61,2.41A2.74,2.74,0,0,1,897.52,512.56Z"/><path d="M904.57,512.32v-3.48h1v3.48c0,.81.22,1.67,1.17,1.67a1.81,1.81,0,0,0,1.71-1.81v-3.34h1v5.86h-1v-.94a2.13,2.13,0,0,1-1.81,1.07C905.13,514.83,904.57,513.64,904.57,512.32Z"/><path d="M911.12,511.77c0-1.68.84-3,2.37-3a2.08,2.08,0,0,1,1.8.9v-3.2h1v8.28h-1v-.78a2.08,2.08,0,0,1-1.8.9C912,514.82,911.12,513.45,911.12,511.77Zm4.23,0c0-1.16-.48-2.16-1.62-2.16s-1.65,1-1.65,2.16.51,2.17,1.65,2.17S915.35,513,915.35,511.77Z"/><path d="M918,513.07c0-1.25.9-1.74,2.16-1.74H922c0-1.08-.37-1.74-1.46-1.74a1.87,1.87,0,0,0-1.52.84l-.72-.54a2.62,2.62,0,0,1,2.29-1.14,2.14,2.14,0,0,1,2.29,2.35v3.6h-.78l-.07-1a2.27,2.27,0,0,1-2.08,1.13A1.77,1.77,0,0,1,918,513.07Zm3.93-1h-1.69c-.71,0-1.26.35-1.26,1s.54.9,1.14.9A1.88,1.88,0,0,0,922,512.09Z"/><path d="M924.79,508.84h1v.9a2.19,2.19,0,0,1,1.82-1c1.47,0,2,1.13,2,2.38v3.57h-1v-3.44c0-.81-.23-1.6-1.18-1.6a1.74,1.74,0,0,0-1.71,1.74v3.3h-1Z"/><rect x="884.38" y="213.38" width="5" height="46.83"/><path d="M899.93,231.65h-2.77v-.85h6.55v.85h-2.77v7.43h-1Z"/><path d="M903.35,237.45c0-1.25.9-1.74,2.16-1.74h1.78c0-1.08-.37-1.74-1.47-1.74a1.88,1.88,0,0,0-1.52.84l-.72-.54a2.63,2.63,0,0,1,2.29-1.14,2.13,2.13,0,0,1,2.29,2.35v3.6h-.78l-.07-1a2.26,2.26,0,0,1-2.07,1.13A1.78,1.78,0,0,1,903.35,237.45Zm3.94-1H905.6c-.71,0-1.26.35-1.26,1s.54.9,1.14.9A1.88,1.88,0,0,0,907.29,236.47Z"/><path d="M910.11,233.22h1v.9a2.16,2.16,0,0,1,1.81-1c1.48,0,2,1.13,2,2.38v3.57h-1v-3.45c0-.8-.24-1.59-1.19-1.59a1.74,1.74,0,0,0-1.7,1.74v3.3h-1Z"/><path d="M916.17,238.37l3.51-4.33h-3.34v-.82h4.51V234l-3.46,4.26h3.46v.82h-4.68Z"/><path d="M921.85,237.45c0-1.25.89-1.74,2.15-1.74h1.78c0-1.08-.37-1.74-1.46-1.74a1.88,1.88,0,0,0-1.53.84l-.72-.54a2.63,2.63,0,0,1,2.29-1.14,2.14,2.14,0,0,1,2.3,2.35v3.6h-.79l-.07-1a2.26,2.26,0,0,1-2.07,1.13A1.77,1.77,0,0,1,921.85,237.45Zm3.93-1h-1.69c-.71,0-1.26.35-1.26,1s.54.9,1.14.9A1.88,1.88,0,0,0,925.78,236.47Z"/><path d="M928.6,233.22h1v.9a2.16,2.16,0,0,1,1.81-1c1.48,0,2,1.13,2,2.38v3.57h-1v-3.45c0-.8-.24-1.59-1.19-1.59a1.74,1.74,0,0,0-1.7,1.74v3.3h-1Z"/><path d="M935.31,230.77h1.09V232h-1.09Zm.07,2.45h1v5.86h-1Z"/><path d="M938.05,237.45c0-1.25.9-1.74,2.15-1.74H942c0-1.08-.37-1.74-1.46-1.74a1.88,1.88,0,0,0-1.53.84l-.72-.54a2.63,2.63,0,0,1,2.29-1.14,2.14,2.14,0,0,1,2.3,2.35v3.6h-.78l-.08-1a2.26,2.26,0,0,1-2.07,1.13A1.77,1.77,0,0,1,938.05,237.45Zm3.93-1h-1.69c-.71,0-1.26.35-1.26,1s.54.9,1.14.9A1.88,1.88,0,0,0,942,236.47Z"/><rect x="884.38" y="321.01" width="5" height="40.8"/><path d="M898,338.2v-4.88h1v4.88c0,1.5.43,2.56,1.92,2.56s1.92-1.06,1.92-2.56v-4.88h1v4.82c0,2.11-.85,3.58-2.92,3.58S898,340.25,898,338.2Z"/><path d="M905.43,342.45a1.92,1.92,0,0,1,.11-.64l1-.42a1.55,1.55,0,0,1-1-1.26,1.86,1.86,0,0,0,.38-2.43,2,2,0,0,1,2.14-2,2.64,2.64,0,0,1,1.08.24l1-.84.53.71-.86.64a2,2,0,0,1,.44,1.28,2,2,0,0,1-2.14,2,2.48,2.48,0,0,1-1.26-.33,1.12,1.12,0,0,0-.41.73c0,.62,1.08.6,1.87.62,1.23,0,2.46.13,2.46,1.59s-1.32,2-2.65,2S905.43,343.84,905.43,342.45Zm4.39-.07c0-.73-.76-.82-1.58-.82-.32,0-.65,0-1,0l-1,.79c0,.16.15,1.09,1.81,1.09C908.76,343.42,909.82,343.25,909.82,342.38Zm-.58-4.68a1.18,1.18,0,1,0-2.36,0,1.18,1.18,0,1,0,2.36,0Z"/><path d="M911.63,340c0-1.25.9-1.74,2.16-1.74h1.78c0-1.08-.37-1.74-1.47-1.74a1.88,1.88,0,0,0-1.52.84l-.72-.54a2.62,2.62,0,0,1,2.29-1.14,2.13,2.13,0,0,1,2.29,2.35v3.6h-.78l-.07-1a2.26,2.26,0,0,1-2.07,1.13A1.78,1.78,0,0,1,911.63,340Zm3.94-1h-1.69c-.71,0-1.26.34-1.26,1s.54.9,1.14.9A1.88,1.88,0,0,0,915.57,339Z"/><path d="M918.39,335.75h1v.89a2.16,2.16,0,0,1,1.81-1c1.47,0,2,1.13,2,2.39v3.56h-1v-3.44c0-.81-.24-1.6-1.19-1.6a1.74,1.74,0,0,0-1.7,1.74v3.3h-1Z"/><path d="M924.7,338.67c0-1.68.84-3,2.38-3a2.07,2.07,0,0,1,1.79.89v-3.2h1v8.28h-1v-.78a2.08,2.08,0,0,1-1.79.9C925.54,341.72,924.7,340.35,924.7,338.67Zm4.24,0c0-1.16-.49-2.16-1.62-2.16s-1.66,1-1.66,2.16.52,2.17,1.66,2.17S928.94,339.85,928.94,338.67Z"/><path d="M931.61,340c0-1.25.9-1.74,2.16-1.74h1.78c0-1.08-.37-1.74-1.47-1.74a1.88,1.88,0,0,0-1.52.84l-.72-.54a2.63,2.63,0,0,1,2.29-1.14,2.13,2.13,0,0,1,2.29,2.35v3.6h-.78l-.07-1a2.26,2.26,0,0,1-2.07,1.13A1.78,1.78,0,0,1,931.61,340Zm3.94-1h-1.69c-.71,0-1.26.34-1.26,1s.54.9,1.14.9A1.88,1.88,0,0,0,935.55,339Z"/><rect class="cls-1" x="847.6" y="491.85" width="34.31" height="12.16"/><rect class="cls-1" x="847.39" y="506.48" width="34.31" height="12.16"/><rect class="cls-1" x="847.28" y="523.6" width="34.31" height="12.16"/><path d="M844.93,50.26h-.18a.39.39,0,0,1-.29-.1.34.34,0,0,1-.12-.27.33.33,0,0,1,.1-.25.67.67,0,0,1,.29-.16l1.74-.47.12,0h.13a.21.21,0,0,1,.18.1.55.55,0,0,1,.06.28v6.34h.94a1.69,1.69,0,0,1,.66.08.36.36,0,0,1,.14.32.41.41,0,0,1-.12.32.49.49,0,0,1-.35.1h-3.5a.49.49,0,0,1-.35-.1.41.41,0,0,1-.12-.32.36.36,0,0,1,.14-.32,1.69,1.69,0,0,1,.66-.08h1V50Z"/><path d="M852.15,52.71a2.13,2.13,0,0,1,.7-.62,1.74,1.74,0,0,1,.84-.2,2.1,2.1,0,0,1,1.58.69,2.45,2.45,0,0,1,.64,1.72,2.51,2.51,0,0,1-.62,1.75,2.09,2.09,0,0,1-1.61.69,2.22,2.22,0,0,1-1.85-.92,4,4,0,0,1-.69-2.45,4.82,4.82,0,0,1,1-3.2A3.41,3.41,0,0,1,854.87,49a2.31,2.31,0,0,1,.75.08.32.32,0,0,1,.18.31q0,.38-.69.39a5.93,5.93,0,0,0-.73.06,2.39,2.39,0,0,0-1.5.93A3.93,3.93,0,0,0,852.15,52.71Zm.12,1.56a1.72,1.72,0,0,0,.39,1.17,1.21,1.21,0,0,0,1,.45,1.17,1.17,0,0,0,.93-.42,1.69,1.69,0,0,0,.36-1.12,1.77,1.77,0,0,0-.37-1.16,1.19,1.19,0,0,0-1-.45,1.17,1.17,0,0,0-.94.43A1.6,1.6,0,0,0,852.27,54.27Z"/><path d="M859.59,55.58a1,1,0,0,1,.32-.75,1.33,1.33,0,0,1,1.66,0,1.05,1.05,0,0,1,0,1.51,1.35,1.35,0,0,1-1.67,0A1,1,0,0,1,859.59,55.58Z"/><path d="M866.54,50.26h-.19a.39.39,0,0,1-.29-.1.34.34,0,0,1-.12-.27.37.37,0,0,1,.1-.25.73.73,0,0,1,.29-.16l1.74-.47.13,0h.12a.19.19,0,0,1,.18.1.55.55,0,0,1,.06.28v6.34h.94a1.69,1.69,0,0,1,.66.08.34.34,0,0,1,.14.32.44.44,0,0,1-.11.32.52.52,0,0,1-.35.1h-3.51a.5.5,0,0,1-.35-.1.41.41,0,0,1-.12-.32.36.36,0,0,1,.14-.32,1.79,1.79,0,0,1,.67-.08h1V50Z"/><path d="M872.74,50.73a1.5,1.5,0,0,1,.48-1.14,1.77,1.77,0,0,1,1.24-.45,1.72,1.72,0,0,1,1.22.45,1.58,1.58,0,0,1,0,2.27,1.72,1.72,0,0,1-1.22.45,1.77,1.77,0,0,1-1.24-.45A1.49,1.49,0,0,1,872.74,50.73Zm4.24,1,.08,0h.08a.32.32,0,0,1,.24.09.32.32,0,0,1,.09.23.28.28,0,0,1-.07.19.33.33,0,0,1-.17.14l-3.94,1.56-.08,0h-.08a.33.33,0,0,1-.23-.1.32.32,0,0,1-.09-.23.28.28,0,0,1,.07-.19.37.37,0,0,1,.17-.13Zm-3.51-1a.8.8,0,0,0,.27.63,1,1,0,0,0,.72.25,1,1,0,0,0,.71-.24.91.91,0,0,0,0-1.29,1,1,0,0,0-.71-.24,1,1,0,0,0-.72.24A.85.85,0,0,0,873.47,50.73Zm.64,4.24a1.49,1.49,0,0,1,.48-1.13,1.94,1.94,0,0,1,2.46,0,1.58,1.58,0,0,1,0,2.27,1.73,1.73,0,0,1-1.23.45,1.76,1.76,0,0,1-1.23-.45A1.5,1.5,0,0,1,874.11,55Zm.73,0a.83.83,0,0,0,.27.65,1.15,1.15,0,0,0,1.43,0,.83.83,0,0,0,.27-.65.81.81,0,0,0-.27-.64,1,1,0,0,0-.72-.25,1,1,0,0,0-.71.25A.82.82,0,0,0,874.84,55Z"/><path d="M844.93,115.83l-.11,0h-.07a.39.39,0,0,1-.29-.1.34.34,0,0,1-.12-.27.35.35,0,0,1,.1-.25.57.57,0,0,1,.29-.15l1.74-.47a.53.53,0,0,1,.12,0h.13a.24.24,0,0,1,.18.1.55.55,0,0,1,.06.28v6.34h.94a1.46,1.46,0,0,1,.66.09.34.34,0,0,1,.14.32.39.39,0,0,1-.12.31.49.49,0,0,1-.35.11h-3.5a.49.49,0,0,1-.35-.11.39.39,0,0,1-.12-.31.34.34,0,0,1,.14-.32,1.46,1.46,0,0,1,.66-.09h1v-5.72Z"/><path d="M854.45,118.09a1.87,1.87,0,0,1,1.06.68,1.94,1.94,0,0,1,.38,1.21,2.15,2.15,0,0,1-.73,1.68,2.72,2.72,0,0,1-1.88.65,3.5,3.5,0,0,1-1.58-.34c-.47-.23-.7-.48-.7-.75a.38.38,0,0,1,.13-.29.43.43,0,0,1,.31-.12,3.73,3.73,0,0,1,.72.3,2.7,2.7,0,0,0,1.16.3,1.6,1.6,0,0,0,1.14-.4,1.45,1.45,0,0,0,.13-1.91,1.35,1.35,0,0,0-.83-.46,3,3,0,0,0-.41,0c-.33,0-.5-.16-.5-.41s.16-.36.49-.4l.31,0a1.23,1.23,0,0,0,.73-.38,1,1,0,0,0,.29-.74,1.26,1.26,0,0,0-.35-.91,1.19,1.19,0,0,0-.88-.35,1.94,1.94,0,0,0-1,.31,2.1,2.1,0,0,1-.65.3.36.36,0,0,1-.27-.1.37.37,0,0,1-.11-.27c0-.24.22-.47.66-.71a3,3,0,0,1,1.45-.35,2.15,2.15,0,0,1,1.52.55,1.75,1.75,0,0,1,.61,1.36,1.73,1.73,0,0,1-.29,1A2,2,0,0,1,854.45,118.09Z"/><path d="M859.59,121.16a.93.93,0,0,1,.32-.75,1.16,1.16,0,0,1,.83-.3,1.2,1.2,0,0,1,.83.29,1.05,1.05,0,0,1,0,1.51,1.35,1.35,0,0,1-1.67,0A1,1,0,0,1,859.59,121.16Z"/><path d="M865.9,122.12a.67.67,0,0,1-.46-.13.47.47,0,0,1-.15-.39c0-.25.37-.73,1.12-1.43l.17-.16.5-.47c1.35-1.27,2-2.2,2-2.78a1.49,1.49,0,0,0-.35-1,1.21,1.21,0,0,0-.93-.39,1.74,1.74,0,0,0-.71.15,1.49,1.49,0,0,0-.54.41l-.11.16c-.14.26-.31.39-.49.39a.33.33,0,0,1-.3-.13,1.05,1.05,0,0,1-.08-.49.74.74,0,0,1,0-.3.69.69,0,0,1,.15-.21,2.58,2.58,0,0,1,.93-.58,3.18,3.18,0,0,1,1.13-.21,2.3,2.3,0,0,1,1.63.62,2.09,2.09,0,0,1,.65,1.55c0,.76-.66,1.78-2,3.05l-.78.75-.72.69h2.68a.63.63,0,0,1,.14-.39.35.35,0,0,1,.3-.13.39.39,0,0,1,.31.13.52.52,0,0,1,.11.35.18.18,0,0,1,0,.06v.06l0,.45a.59.59,0,0,1-.1.29.33.33,0,0,1-.23.1Z"/><path d="M872.74,116.3a1.5,1.5,0,0,1,.48-1.14,1.77,1.77,0,0,1,1.24-.45,1.72,1.72,0,0,1,1.22.45,1.5,1.5,0,0,1,.48,1.14,1.47,1.47,0,0,1-.48,1.13,1.72,1.72,0,0,1-1.22.45,1.77,1.77,0,0,1-1.24-.45A1.47,1.47,0,0,1,872.74,116.3Zm4.24,1,.08,0h.08a.36.36,0,0,1,.24.08.32.32,0,0,1,.09.24.3.3,0,0,1-.07.19.37.37,0,0,1-.17.13l-3.94,1.56-.08,0h-.08a.32.32,0,0,1-.23-.09.34.34,0,0,1-.09-.24.3.3,0,0,1,.07-.19.45.45,0,0,1,.17-.13Zm-3.51-1a.84.84,0,0,0,.27.64,1,1,0,0,0,.72.24,1,1,0,0,0,.71-.24.81.81,0,0,0,.27-.64.83.83,0,0,0-.27-.65,1,1,0,0,0-.71-.24,1,1,0,0,0-.72.25A.81.81,0,0,0,873.47,116.3Zm.64,4.25a1.46,1.46,0,0,1,.48-1.13,1.91,1.91,0,0,1,2.46,0,1.46,1.46,0,0,1,.48,1.13,1.49,1.49,0,0,1-.48,1.13,1.73,1.73,0,0,1-1.23.45,1.76,1.76,0,0,1-1.23-.45A1.49,1.49,0,0,1,874.11,120.55Zm.73,0a.86.86,0,0,0,.27.65,1.19,1.19,0,0,0,1.43,0,.86.86,0,0,0,.27-.65.83.83,0,0,0-.27-.65,1.19,1.19,0,0,0-1.43,0A.85.85,0,0,0,874.84,120.55Z"/><path d="M844.93,172.89l-.11,0h-.07a.4.4,0,0,1-.29-.11.34.34,0,0,1-.12-.27.35.35,0,0,1,.1-.25.57.57,0,0,1,.29-.15l1.74-.47.12,0h.13a.24.24,0,0,1,.18.1.58.58,0,0,1,.06.28v6.34h.94a1.46,1.46,0,0,1,.66.09.34.34,0,0,1,.14.32.39.39,0,0,1-.12.31.49.49,0,0,1-.35.11h-3.5a.49.49,0,0,1-.35-.11.39.39,0,0,1-.12-.31.34.34,0,0,1,.14-.32,1.46,1.46,0,0,1,.66-.09h1v-5.72Z"/><path d="M851.5,179.18a.65.65,0,0,1-.46-.13.47.47,0,0,1-.15-.39c0-.25.37-.73,1.12-1.43l.17-.16.49-.47c1.35-1.27,2-2.2,2-2.78a1.44,1.44,0,0,0-.36-1,1.19,1.19,0,0,0-.92-.39,1.74,1.74,0,0,0-.71.15,1.61,1.61,0,0,0-.54.41,1.59,1.59,0,0,1-.11.16c-.15.26-.31.39-.49.39a.35.35,0,0,1-.3-.12,1,1,0,0,1-.09-.5.71.71,0,0,1,.05-.3.46.46,0,0,1,.15-.21,2.72,2.72,0,0,1,.93-.58,3.14,3.14,0,0,1,1.13-.21,2.3,2.3,0,0,1,1.63.62,2.09,2.09,0,0,1,.65,1.55c0,.76-.66,1.78-2,3l-.78.75-.72.69h2.68a.69.69,0,0,1,.13-.39.43.43,0,0,1,.62,0,.52.52,0,0,1,.11.35.35.35,0,0,0,0,.06v.06l0,.45a.51.51,0,0,1-.11.29.31.31,0,0,1-.23.1Z"/><path d="M859.59,178.22a.93.93,0,0,1,.32-.75,1.15,1.15,0,0,1,.83-.29,1.19,1.19,0,0,1,.83.28,1,1,0,0,1,.32.76,1,1,0,0,1-.32.75,1.35,1.35,0,0,1-1.67,0A1,1,0,0,1,859.59,178.22Z"/><path d="M868,179.06a.51.51,0,0,1-.08.18.22.22,0,0,1-.16,0h-.51a.36.36,0,0,1-.19,0,.16.16,0,0,1-.06-.13.28.28,0,0,1,0-.09.36.36,0,0,1,0-.1l2.3-6.26h-3a.71.71,0,0,1-.12.41.39.39,0,0,1-.32.13.37.37,0,0,1-.29-.1.4.4,0,0,1-.1-.31v-.09a.09.09,0,0,0,0,0l.06-.53a.37.37,0,0,1,.12-.25.41.41,0,0,1,.28-.09h3.87a.34.34,0,0,1,.25.08.27.27,0,0,1,.08.23v.2a.67.67,0,0,1,0,.18c0,.08-.05.18-.09.31Z"/><path d="M872.74,173.36a1.5,1.5,0,0,1,.48-1.14,1.77,1.77,0,0,1,1.24-.45,1.72,1.72,0,0,1,1.22.45,1.5,1.5,0,0,1,.48,1.14,1.46,1.46,0,0,1-.48,1.13,1.72,1.72,0,0,1-1.22.45,1.77,1.77,0,0,1-1.24-.45A1.46,1.46,0,0,1,872.74,173.36Zm4.24,1,.08,0h.08a.36.36,0,0,1,.24.08.32.32,0,0,1,.09.24.28.28,0,0,1-.07.19.37.37,0,0,1-.17.13l-3.94,1.57-.08,0h-.08a.32.32,0,0,1-.23-.09.34.34,0,0,1-.09-.24.26.26,0,0,1,.07-.18.39.39,0,0,1,.17-.14Zm-3.51-1a.82.82,0,0,0,.27.64,1,1,0,0,0,.72.25,1,1,0,0,0,.71-.25.81.81,0,0,0,.27-.64.85.85,0,0,0-.27-.65,1,1,0,0,0-.71-.24,1,1,0,0,0-.72.25A.82.82,0,0,0,873.47,173.36Zm.64,4.25a1.46,1.46,0,0,1,.48-1.13,1.91,1.91,0,0,1,2.46,0,1.46,1.46,0,0,1,.48,1.13,1.47,1.47,0,0,1-.48,1.13,1.73,1.73,0,0,1-1.23.45,1.76,1.76,0,0,1-1.23-.45A1.47,1.47,0,0,1,874.11,177.61Zm.73,0a.86.86,0,0,0,.27.65,1.15,1.15,0,0,0,1.43,0,.86.86,0,0,0,.27-.65.83.83,0,0,0-.27-.65,1.19,1.19,0,0,0-1.43,0A.85.85,0,0,0,874.84,177.61Z"/><path d="M844.93,232.79l-.11,0h-.07a.39.39,0,0,1-.29-.1.34.34,0,0,1-.12-.27.33.33,0,0,1,.1-.25.67.67,0,0,1,.29-.16l1.74-.47.12,0h.13a.21.21,0,0,1,.18.1.55.55,0,0,1,.06.28v6.34h.94a1.46,1.46,0,0,1,.66.09.33.33,0,0,1,.14.31.39.39,0,0,1-.12.32.49.49,0,0,1-.35.11h-3.5a.49.49,0,0,1-.35-.11.39.39,0,0,1-.12-.32.33.33,0,0,1,.14-.31,1.46,1.46,0,0,1,.66-.09h1v-5.72Z"/><path d="M851.5,239.08A.7.7,0,0,1,851,239a.47.47,0,0,1-.15-.39c0-.25.37-.73,1.12-1.43l.17-.16.49-.47c1.35-1.27,2-2.2,2-2.78a1.44,1.44,0,0,0-.36-1,1.19,1.19,0,0,0-.92-.39,1.74,1.74,0,0,0-.71.15,1.49,1.49,0,0,0-.54.41l-.11.16c-.15.26-.31.39-.49.39a.33.33,0,0,1-.3-.13.91.91,0,0,1-.09-.49.8.8,0,0,1,.05-.31.5.5,0,0,1,.15-.2,2.58,2.58,0,0,1,.93-.58,3.15,3.15,0,0,1,1.13-.22,2.26,2.26,0,0,1,1.63.63,2.07,2.07,0,0,1,.65,1.54c0,.77-.66,1.79-2,3.06l-.78.74-.72.7h2.68a.69.69,0,0,1,.13-.39.39.39,0,0,1,.31-.13.41.41,0,0,1,.31.12.57.57,0,0,1,.11.36.35.35,0,0,0,0,.06v.06l0,.45a.45.45,0,0,1-.11.28.28.28,0,0,1-.23.11Z"/><path d="M859.59,238.12a.93.93,0,0,1,.32-.75,1.16,1.16,0,0,1,.83-.3,1.2,1.2,0,0,1,.83.29,1.05,1.05,0,0,1,0,1.51,1.35,1.35,0,0,1-1.67,0A1,1,0,0,1,859.59,238.12Z"/><path d="M868.85,235.05a1.85,1.85,0,0,1,1.44,1.89,2.18,2.18,0,0,1-.72,1.68,2.76,2.76,0,0,1-1.89.65,3.5,3.5,0,0,1-1.58-.34c-.46-.23-.69-.48-.69-.76a.4.4,0,0,1,.12-.29.49.49,0,0,1,.31-.11,3.25,3.25,0,0,1,.72.3,2.74,2.74,0,0,0,1.17.3,1.64,1.64,0,0,0,1.13-.4,1.34,1.34,0,0,0,.44-1,1.28,1.28,0,0,0-.31-.88,1.32,1.32,0,0,0-.82-.46,3.47,3.47,0,0,0-.42,0c-.33,0-.49-.16-.49-.41s.16-.37.48-.41l.31,0a1.22,1.22,0,0,0,.74-.37,1.08,1.08,0,0,0,.28-.74,1.26,1.26,0,0,0-.35-.91,1.19,1.19,0,0,0-.88-.35,1.94,1.94,0,0,0-1,.31,2,2,0,0,1-.65.3.39.39,0,0,1-.27-.11.35.35,0,0,1-.11-.26c0-.24.22-.47.66-.71a3,3,0,0,1,1.45-.36,2.16,2.16,0,0,1,1.52.56,1.75,1.75,0,0,1,.61,1.36,1.68,1.68,0,0,1-.29,1A1.82,1.82,0,0,1,868.85,235.05Z"/><path d="M872.74,233.26a1.5,1.5,0,0,1,.48-1.14,1.77,1.77,0,0,1,1.24-.45,1.72,1.72,0,0,1,1.22.45,1.5,1.5,0,0,1,.48,1.14,1.47,1.47,0,0,1-.48,1.13,1.72,1.72,0,0,1-1.22.45,1.77,1.77,0,0,1-1.24-.45A1.47,1.47,0,0,1,872.74,233.26Zm4.24,1,.08,0h.08a.31.31,0,0,1,.33.33.3.3,0,0,1-.07.19.37.37,0,0,1-.17.13l-3.94,1.56-.08,0h-.08a.29.29,0,0,1-.23-.1.32.32,0,0,1-.09-.23.28.28,0,0,1,.07-.19.37.37,0,0,1,.17-.13Zm-3.51-1a.84.84,0,0,0,.27.64,1,1,0,0,0,.72.24,1,1,0,0,0,.71-.24.91.91,0,0,0,0-1.29,1,1,0,0,0-.71-.24,1,1,0,0,0-.72.24A.85.85,0,0,0,873.47,233.26Zm.64,4.25a1.46,1.46,0,0,1,.48-1.13,1.91,1.91,0,0,1,2.46,0,1.46,1.46,0,0,1,.48,1.13,1.49,1.49,0,0,1-.48,1.13,1.73,1.73,0,0,1-1.23.45,1.76,1.76,0,0,1-1.23-.45A1.49,1.49,0,0,1,874.11,237.51Zm.73,0a.82.82,0,0,0,.27.64,1.15,1.15,0,0,0,1.43,0,.91.91,0,0,0,0-1.29,1.19,1.19,0,0,0-1.43,0A.85.85,0,0,0,874.84,237.51Z"/><path d="M844.93,286.6l-.11,0h-.07a.4.4,0,0,1-.29-.11.32.32,0,0,1-.12-.27.33.33,0,0,1,.1-.24.58.58,0,0,1,.29-.16l1.74-.47.12,0h.13a.22.22,0,0,1,.18.11.51.51,0,0,1,.06.27v6.34h.94a1.46,1.46,0,0,1,.66.09.35.35,0,0,1,.14.32.42.42,0,0,1-.12.32.49.49,0,0,1-.35.1h-3.5a.49.49,0,0,1-.35-.1.42.42,0,0,1-.12-.32.35.35,0,0,1,.14-.32,1.46,1.46,0,0,1,.66-.09h1v-5.72Z"/><path d="M853.53,293.08a2,2,0,0,1-1.74-1,6.55,6.55,0,0,1,0-5.69,2,2,0,0,1,1.74-1,2,2,0,0,1,1.76,1,6.55,6.55,0,0,1,0,5.69A2,2,0,0,1,853.53,293.08Zm0-6.93a1.15,1.15,0,0,0-1,.79,6.91,6.91,0,0,0,0,4.52,1.09,1.09,0,0,0,2.1,0,7.09,7.09,0,0,0,0-4.52A1.16,1.16,0,0,0,853.53,286.15Z"/><path d="M859.59,291.93a.93.93,0,0,1,.32-.75,1.15,1.15,0,0,1,.83-.29,1.19,1.19,0,0,1,.83.28,1.06,1.06,0,0,1,0,1.52,1.39,1.39,0,0,1-1.67,0A1,1,0,0,1,859.59,291.93Z"/><path d="M868,292.77a.74.74,0,0,1-.08.19.28.28,0,0,1-.16,0h-.51a.36.36,0,0,1-.19-.05.16.16,0,0,1-.06-.13.28.28,0,0,1,0-.09.44.44,0,0,1,0-.1l2.3-6.26h-3a.71.71,0,0,1-.12.41.39.39,0,0,1-.32.13.37.37,0,0,1-.29-.1.4.4,0,0,1-.1-.31v-.08a.13.13,0,0,0,0-.06l.06-.52a.38.38,0,0,1,.12-.26.47.47,0,0,1,.28-.08h3.87a.34.34,0,0,1,.25.07.28.28,0,0,1,.08.23v.2a.67.67,0,0,1,0,.18c0,.08-.05.18-.09.31Z"/><path d="M872.74,287.07a1.49,1.49,0,0,1,.48-1.13,1.73,1.73,0,0,1,1.24-.46,1.68,1.68,0,0,1,1.22.46,1.58,1.58,0,0,1,0,2.27,1.76,1.76,0,0,1-1.22.44,1.81,1.81,0,0,1-1.24-.44A1.5,1.5,0,0,1,872.74,287.07Zm4.24,1,.08,0h.08a.32.32,0,0,1,.24.09.29.29,0,0,1,.09.23.28.28,0,0,1-.07.19.31.31,0,0,1-.17.13l-3.94,1.57-.08,0h-.08a.32.32,0,0,1-.23-.09.32.32,0,0,1-.09-.24.27.27,0,0,1,.07-.18.39.39,0,0,1,.17-.14Zm-3.51-1a.82.82,0,0,0,.27.64,1,1,0,0,0,.72.25,1,1,0,0,0,.71-.25.81.81,0,0,0,.27-.64.85.85,0,0,0-.27-.65,1,1,0,0,0-.71-.24,1,1,0,0,0-.72.25A.82.82,0,0,0,873.47,287.07Zm.64,4.25a1.47,1.47,0,0,1,.48-1.13,1.91,1.91,0,0,1,2.46,0,1.47,1.47,0,0,1,.48,1.13,1.46,1.46,0,0,1-.48,1.13,1.73,1.73,0,0,1-1.23.45,1.76,1.76,0,0,1-1.23-.45A1.46,1.46,0,0,1,874.11,291.32Zm.73,0a.85.85,0,0,0,.27.65,1.15,1.15,0,0,0,1.43,0,.85.85,0,0,0,.27-.65.83.83,0,0,0-.27-.65,1,1,0,0,0-.72-.24,1,1,0,0,0-.71.25A.81.81,0,0,0,874.84,291.32Z"/><path d="M844.93,335.12l-.11,0h-.07a.39.39,0,0,1-.29-.1.34.34,0,0,1-.12-.27.33.33,0,0,1,.1-.25.67.67,0,0,1,.29-.16l1.74-.47.12,0h.13a.21.21,0,0,1,.18.1.55.55,0,0,1,.06.28v6.34h.94a1.46,1.46,0,0,1,.66.09.33.33,0,0,1,.14.31.39.39,0,0,1-.12.32.49.49,0,0,1-.35.11h-3.5a.49.49,0,0,1-.35-.11.39.39,0,0,1-.12-.32.33.33,0,0,1,.14-.31,1.46,1.46,0,0,1,.66-.09h1v-5.72Z"/><path d="M853.53,341.6a2,2,0,0,1-1.74-1,6.57,6.57,0,0,1,0-5.7,2,2,0,0,1,1.74-1,2,2,0,0,1,1.76,1.05,6.53,6.53,0,0,1,0,5.68A2,2,0,0,1,853.53,341.6Zm0-6.94a1.16,1.16,0,0,0-1,.8,6.88,6.88,0,0,0,0,4.51,1.09,1.09,0,0,0,2.1,0,7.06,7.06,0,0,0,0-4.51A1.17,1.17,0,0,0,853.53,334.66Z"/><path d="M859.59,340.45a.93.93,0,0,1,.32-.75,1.16,1.16,0,0,1,.83-.3,1.2,1.2,0,0,1,.83.29,1.05,1.05,0,0,1,0,1.51,1.35,1.35,0,0,1-1.67,0A1,1,0,0,1,859.59,340.45Z"/><path d="M868,341.29a.81.81,0,0,1-.08.18.22.22,0,0,1-.16,0h-.51a.36.36,0,0,1-.19,0,.18.18,0,0,1-.06-.13.25.25,0,0,1,0-.09.52.52,0,0,1,0-.11l2.3-6.25h-3a.74.74,0,0,1-.12.41.39.39,0,0,1-.32.13.37.37,0,0,1-.29-.1.41.41,0,0,1-.1-.31v-.09a.11.11,0,0,0,0-.05l.06-.53a.35.35,0,0,1,.12-.25A.41.41,0,0,1,866,334h3.87a.34.34,0,0,1,.25.08c.06,0,.08.12.08.23v.2a.82.82,0,0,1,0,.18c0,.08-.05.18-.09.31Z"/><path d="M872.74,335.59a1.5,1.5,0,0,1,.48-1.14,1.77,1.77,0,0,1,1.24-.45,1.72,1.72,0,0,1,1.22.45,1.5,1.5,0,0,1,.48,1.14,1.47,1.47,0,0,1-.48,1.13,1.72,1.72,0,0,1-1.22.45,1.77,1.77,0,0,1-1.24-.45A1.47,1.47,0,0,1,872.74,335.59Zm4.24,1,.08,0h.08a.31.31,0,0,1,.33.33.3.3,0,0,1-.07.19.37.37,0,0,1-.17.13l-3.94,1.56-.08,0h-.08a.29.29,0,0,1-.23-.1.32.32,0,0,1-.09-.23.28.28,0,0,1,.07-.19.37.37,0,0,1,.17-.13Zm-3.51-1a.84.84,0,0,0,.27.64,1,1,0,0,0,.72.24,1,1,0,0,0,.71-.24.91.91,0,0,0,0-1.29,1,1,0,0,0-.71-.24,1,1,0,0,0-.72.24A.85.85,0,0,0,873.47,335.59Zm.64,4.25a1.46,1.46,0,0,1,.48-1.13,1.91,1.91,0,0,1,2.46,0,1.46,1.46,0,0,1,.48,1.13,1.49,1.49,0,0,1-.48,1.13,1.73,1.73,0,0,1-1.23.45,1.76,1.76,0,0,1-1.23-.45A1.49,1.49,0,0,1,874.11,339.84Zm.73,0a.82.82,0,0,0,.27.64,1.15,1.15,0,0,0,1.43,0,.91.91,0,0,0,0-1.29,1.19,1.19,0,0,0-1.43,0A.85.85,0,0,0,874.84,339.84Z"/><path d="M853.62,389.42a.49.49,0,0,1-.09.18s-.07,0-.15,0h-.51a.36.36,0,0,1-.19,0,.19.19,0,0,1-.07-.13s0-.07,0-.09l0-.11L855,383h-3a.83.83,0,0,1-.13.41.36.36,0,0,1-.31.13.37.37,0,0,1-.29-.1.41.41,0,0,1-.1-.31v-.09s0,0,0-.05l.06-.53a.35.35,0,0,1,.12-.25.41.41,0,0,1,.28-.09h3.87a.36.36,0,0,1,.25.08.29.29,0,0,1,.08.23v.2a.82.82,0,0,1,0,.18c0,.08,0,.18-.09.31Z"/><path d="M859.59,388.58a.93.93,0,0,1,.32-.75,1.16,1.16,0,0,1,.83-.3,1.2,1.2,0,0,1,.83.29,1.05,1.05,0,0,1,0,1.51,1.35,1.35,0,0,1-1.67,0A1,1,0,0,1,859.59,388.58Z"/><path d="M868.85,385.51a1.85,1.85,0,0,1,1.44,1.89,2.18,2.18,0,0,1-.72,1.68,2.76,2.76,0,0,1-1.89.65,3.5,3.5,0,0,1-1.58-.34c-.46-.23-.69-.48-.69-.76a.4.4,0,0,1,.12-.29.47.47,0,0,1,.31-.11,3.25,3.25,0,0,1,.72.3,2.74,2.74,0,0,0,1.17.3,1.59,1.59,0,0,0,1.13-.4,1.34,1.34,0,0,0,.44-1,1.33,1.33,0,0,0-1.13-1.34,3.47,3.47,0,0,0-.42-.05c-.33,0-.49-.16-.49-.41s.16-.37.48-.4l.31-.05a1.22,1.22,0,0,0,.74-.37,1.08,1.08,0,0,0,.28-.74,1.26,1.26,0,0,0-.35-.91,1.19,1.19,0,0,0-.88-.35,1.94,1.94,0,0,0-1,.31,2,2,0,0,1-.65.3.38.38,0,0,1-.38-.37c0-.24.22-.47.66-.71a3,3,0,0,1,1.45-.36,2.16,2.16,0,0,1,1.52.56,1.75,1.75,0,0,1,.61,1.36,1.68,1.68,0,0,1-.29,1A1.82,1.82,0,0,1,868.85,385.51Z"/><path d="M872.74,383.72a1.5,1.5,0,0,1,.48-1.14,1.77,1.77,0,0,1,1.24-.45,1.72,1.72,0,0,1,1.22.45,1.5,1.5,0,0,1,.48,1.14,1.47,1.47,0,0,1-.48,1.13,1.72,1.72,0,0,1-1.22.45,1.77,1.77,0,0,1-1.24-.45A1.47,1.47,0,0,1,872.74,383.72Zm4.24,1,.08,0h.08a.31.31,0,0,1,.33.33.3.3,0,0,1-.07.19.37.37,0,0,1-.17.13l-3.94,1.56-.08,0h-.08a.29.29,0,0,1-.23-.1.32.32,0,0,1-.09-.23.28.28,0,0,1,.07-.19.37.37,0,0,1,.17-.13Zm-3.51-1a.84.84,0,0,0,.27.64,1,1,0,0,0,.72.24,1,1,0,0,0,.71-.24.91.91,0,0,0,0-1.29,1,1,0,0,0-.71-.24,1,1,0,0,0-.72.24A.85.85,0,0,0,873.47,383.72Zm.64,4.25a1.46,1.46,0,0,1,.48-1.13,1.73,1.73,0,0,1,1.23-.45,1.7,1.7,0,0,1,1.22.45,1.43,1.43,0,0,1,.49,1.13,1.49,1.49,0,0,1-.48,1.13,1.73,1.73,0,0,1-1.23.45,1.76,1.76,0,0,1-1.23-.45A1.49,1.49,0,0,1,874.11,388Zm.73,0a.82.82,0,0,0,.27.64,1.15,1.15,0,0,0,1.43,0,.91.91,0,0,0,0-1.29,1.19,1.19,0,0,0-1.43,0A.85.85,0,0,0,874.84,388Z"/><path d="M853.62,427.08a.49.49,0,0,1-.09.18s-.07,0-.15,0h-.51a.29.29,0,0,1-.19-.05.15.15,0,0,1-.07-.12s0-.07,0-.1a.62.62,0,0,0,0-.1l2.3-6.25h-3a.83.83,0,0,1-.13.41.36.36,0,0,1-.31.13.37.37,0,0,1-.29-.1.41.41,0,0,1-.1-.31v-.09a.43.43,0,0,1,0-.05l.06-.53a.35.35,0,0,1,.12-.25.41.41,0,0,1,.28-.09h3.87a.41.41,0,0,1,.25.07.33.33,0,0,1,.08.24v.2a.82.82,0,0,1,0,.18c0,.08,0,.18-.09.31Z"/><path d="M859.59,426.23a1,1,0,0,1,.32-.75,1.33,1.33,0,0,1,1.66,0,1.05,1.05,0,0,1,0,1.51,1.35,1.35,0,0,1-1.67,0A1,1,0,0,1,859.59,426.23Z"/><path d="M866.54,420.91l-.12,0h-.07a.39.39,0,0,1-.29-.1.34.34,0,0,1-.12-.27.37.37,0,0,1,.1-.25.73.73,0,0,1,.29-.16l1.74-.47.13,0h.12a.19.19,0,0,1,.18.1.55.55,0,0,1,.06.28v6.34h.94a1.69,1.69,0,0,1,.66.08.34.34,0,0,1,.14.32.44.44,0,0,1-.11.32.52.52,0,0,1-.35.11h-3.51a.51.51,0,0,1-.35-.11.41.41,0,0,1-.12-.32.36.36,0,0,1,.14-.32,1.79,1.79,0,0,1,.67-.08h1v-5.73Z"/><path d="M872.74,421.38a1.5,1.5,0,0,1,.48-1.14,1.77,1.77,0,0,1,1.24-.45,1.72,1.72,0,0,1,1.22.45,1.58,1.58,0,0,1,0,2.27,1.72,1.72,0,0,1-1.22.45,1.77,1.77,0,0,1-1.24-.45A1.49,1.49,0,0,1,872.74,421.38Zm4.24,1,.08,0h.08a.31.31,0,0,1,.33.33.3.3,0,0,1-.07.19.37.37,0,0,1-.17.13l-3.94,1.56-.08,0h-.08a.29.29,0,0,1-.23-.1.32.32,0,0,1-.09-.23.28.28,0,0,1,.07-.19.37.37,0,0,1,.17-.13Zm-3.51-1a.84.84,0,0,0,.27.64,1,1,0,0,0,.72.24,1,1,0,0,0,.71-.24.91.91,0,0,0,0-1.29,1,1,0,0,0-.71-.24,1,1,0,0,0-.72.24A.85.85,0,0,0,873.47,421.38Zm.64,4.25a1.5,1.5,0,0,1,.48-1.14,1.94,1.94,0,0,1,2.46,0,1.58,1.58,0,0,1,0,2.27,1.73,1.73,0,0,1-1.23.45,1.76,1.76,0,0,1-1.23-.45A1.49,1.49,0,0,1,874.11,425.63Zm.73,0a.82.82,0,0,0,.27.64,1.15,1.15,0,0,0,1.43,0,.91.91,0,0,0,0-1.29,1.15,1.15,0,0,0-1.43,0A.83.83,0,0,0,874.84,425.63Z"/><path d="M854.22,459.34a.62.62,0,0,1-.39-.09.46.46,0,0,1-.1-.33.42.42,0,0,1,.11-.31.5.5,0,0,1,.33-.09h.68v-1h-2.74a.3.3,0,0,1-.23-.09.41.41,0,0,1-.08-.27v-.4a.94.94,0,0,1,.17-.5l0-.07,2.47-4.2a.7.7,0,0,1,.14-.19.26.26,0,0,1,.14,0h.12l.05,0,.59.09a.22.22,0,0,1,.14.09.41.41,0,0,1,.05.21v4.45H856a.21.21,0,0,0,.2-.1.19.19,0,0,1,.16-.1.25.25,0,0,1,.2.09.26.26,0,0,1,.08.21v.1a.32.32,0,0,1,0,.09l0,.24a.61.61,0,0,1-.12.29.37.37,0,0,1-.25.07h-.49v1h.2a1.07,1.07,0,0,1,.52.09.34.34,0,0,1,.14.31.41.41,0,0,1-.12.32.52.52,0,0,1-.35.1Zm.63-2.7v-4l-2.22,4Z"/><path d="M860.41,458.38a1,1,0,0,1,.32-.75,1.2,1.2,0,0,1,.83-.29,1.24,1.24,0,0,1,.84.29,1.06,1.06,0,0,1,0,1.51,1.2,1.2,0,0,1-.83.29,1.18,1.18,0,0,1-.83-.29A1,1,0,0,1,860.41,458.38Z"/><path d="M867.44,454.76c.26-.09.5-.16.71-.21a3.52,3.52,0,0,1,.63-.06,2.25,2.25,0,0,1,1.71.71,2.64,2.64,0,0,1-.07,3.61,2.71,2.71,0,0,1-1.94.73,4.45,4.45,0,0,1-1.65-.27c-.44-.18-.66-.39-.66-.65a.37.37,0,0,1,.12-.27.4.4,0,0,1,.29-.12,6.56,6.56,0,0,1,.69.23,3.37,3.37,0,0,0,1.15.22,1.79,1.79,0,0,0,1.28-.47,1.6,1.6,0,0,0,.49-1.22,1.74,1.74,0,0,0-.46-1.21,1.56,1.56,0,0,0-1.17-.48,2.25,2.25,0,0,0-1,.26,2.34,2.34,0,0,1-.62.27.29.29,0,0,1-.25-.13,1,1,0,0,1-.07-.47v-2.92a.32.32,0,0,1,.12-.28.73.73,0,0,1,.42-.09h3a.67.67,0,0,1,.43.12.43.43,0,0,1,.14.34.41.41,0,0,1-.15.34.66.66,0,0,1-.42.12h-2.65Z"/><path d="M873.56,453.53a1.47,1.47,0,0,1,.49-1.14,1.89,1.89,0,0,1,2.45,0,1.58,1.58,0,0,1,0,2.27,1.89,1.89,0,0,1-2.45,0A1.46,1.46,0,0,1,873.56,453.53Zm4.24,1,.08,0H878a.32.32,0,0,1,.24.09.32.32,0,0,1,.09.23.28.28,0,0,1-.07.19.39.39,0,0,1-.17.14l-3.94,1.56-.08,0H874a.33.33,0,0,1-.24-.1.32.32,0,0,1-.09-.23.34.34,0,0,1,.07-.19.58.58,0,0,1,.17-.14Zm-3.5-1a.8.8,0,0,0,.27.63,1,1,0,0,0,.71.25,1,1,0,0,0,.71-.24.91.91,0,0,0,0-1.29,1.13,1.13,0,0,0-1.42,0A.83.83,0,0,0,874.3,453.53Zm.63,4.24a1.49,1.49,0,0,1,.48-1.13,1.94,1.94,0,0,1,2.46,0,1.58,1.58,0,0,1,0,2.27,1.72,1.72,0,0,1-1.22.45,1.77,1.77,0,0,1-1.24-.45A1.5,1.5,0,0,1,874.93,457.77Zm.73,0a.85.85,0,0,0,.27.65,1.15,1.15,0,0,0,1.43,0,.85.85,0,0,0,.27-.65.81.81,0,0,0-.27-.64,1.15,1.15,0,0,0-1.43,0A.82.82,0,0,0,875.66,457.77Z"/><path d="M868.85,479.57a1.85,1.85,0,0,1,1.44,1.89,2.18,2.18,0,0,1-.72,1.68,2.76,2.76,0,0,1-1.89.65,3.5,3.5,0,0,1-1.58-.34q-.69-.34-.69-.75a.37.37,0,0,1,.12-.29.45.45,0,0,1,.31-.12,3.25,3.25,0,0,1,.72.3,2.74,2.74,0,0,0,1.17.3,1.59,1.59,0,0,0,1.13-.4,1.33,1.33,0,0,0,.44-1,1.28,1.28,0,0,0-.31-.88,1.32,1.32,0,0,0-.82-.46,3.47,3.47,0,0,0-.42-.05c-.33,0-.49-.16-.49-.41s.16-.36.48-.4l.31,0a1.29,1.29,0,0,0,.74-.38,1.08,1.08,0,0,0,.28-.74,1.26,1.26,0,0,0-.35-.91,1.19,1.19,0,0,0-.88-.35,1.94,1.94,0,0,0-1,.31,2,2,0,0,1-.65.3.38.38,0,0,1-.27-.1.37.37,0,0,1-.11-.27c0-.24.22-.47.66-.71a3,3,0,0,1,1.45-.35,2.15,2.15,0,0,1,1.52.55,1.75,1.75,0,0,1,.61,1.36,1.73,1.73,0,0,1-.29,1A1.88,1.88,0,0,1,868.85,479.57Z"/><path d="M872.74,477.78a1.5,1.5,0,0,1,.48-1.14,1.77,1.77,0,0,1,1.24-.45,1.72,1.72,0,0,1,1.22.45,1.5,1.5,0,0,1,.48,1.14,1.47,1.47,0,0,1-.48,1.13,1.72,1.72,0,0,1-1.22.45,1.77,1.77,0,0,1-1.24-.45A1.47,1.47,0,0,1,872.74,477.78Zm4.24,1,.08,0h.08a.36.36,0,0,1,.24.08.32.32,0,0,1,.09.24.3.3,0,0,1-.07.19.37.37,0,0,1-.17.13L873.29,481l-.08,0h-.08a.32.32,0,0,1-.23-.09.34.34,0,0,1-.09-.24.3.3,0,0,1,.07-.19.45.45,0,0,1,.17-.13Zm-3.51-1a.84.84,0,0,0,.27.64,1,1,0,0,0,.72.24,1,1,0,0,0,.71-.24.81.81,0,0,0,.27-.64.83.83,0,0,0-.27-.65,1,1,0,0,0-.71-.24,1,1,0,0,0-.72.25A.81.81,0,0,0,873.47,477.78Zm.64,4.25a1.46,1.46,0,0,1,.48-1.13,1.91,1.91,0,0,1,2.46,0,1.46,1.46,0,0,1,.48,1.13,1.49,1.49,0,0,1-.48,1.13,1.73,1.73,0,0,1-1.23.45,1.76,1.76,0,0,1-1.23-.45A1.49,1.49,0,0,1,874.11,482Zm.73,0a.86.86,0,0,0,.27.65,1.19,1.19,0,0,0,1.43,0,.86.86,0,0,0,.27-.65.83.83,0,0,0-.27-.65,1.19,1.19,0,0,0-1.43,0A.85.85,0,0,0,874.84,482Z"/><path d="M852.39,495.39l-.11,0h-.07a.44.44,0,0,1-.3-.1.37.37,0,0,1-.11-.27.33.33,0,0,1,.1-.25.67.67,0,0,1,.29-.16l1.74-.47.12,0h.13a.19.19,0,0,1,.17.1.47.47,0,0,1,.07.28v6.34h.94a1.76,1.76,0,0,1,.66.08.36.36,0,0,1,.14.32.41.41,0,0,1-.12.32.5.5,0,0,1-.35.1h-3.5a.53.53,0,0,1-.36-.1.44.44,0,0,1-.11-.32.34.34,0,0,1,.14-.32,1.69,1.69,0,0,1,.66-.08h1v-5.73Z"/><path d="M859.84,500.71a1,1,0,0,1,.32-.75,1.35,1.35,0,0,1,1.67,0,1.05,1.05,0,0,1,0,1.51,1.22,1.22,0,0,1-.84.29,1.2,1.2,0,0,1-.83-.29A1,1,0,0,1,859.84,500.71Z"/><path d="M868.05,501.67a.6.6,0,0,1-.38-.09.46.46,0,0,1-.1-.33.38.38,0,0,1,.11-.3.42.42,0,0,1,.33-.1h.68v-1H866a.3.3,0,0,1-.23-.09.41.41,0,0,1-.08-.27v-.4a1,1,0,0,1,.17-.5l.05-.07,2.47-4.2a.63.63,0,0,1,.13-.18.24.24,0,0,1,.14,0l.13,0h0l.6.09a.18.18,0,0,1,.13.09.35.35,0,0,1,0,.21V499h.3a.22.22,0,0,0,.2-.1.19.19,0,0,1,.16-.1.27.27,0,0,1,.2.09.3.3,0,0,1,.08.21v.1l0,.09-.05.24a.46.46,0,0,1-.12.29.33.33,0,0,1-.24.07h-.5v1h.21a1,1,0,0,1,.51.09.32.32,0,0,1,.14.31.4.4,0,0,1-.11.32.52.52,0,0,1-.35.1Zm.64-2.7v-4l-2.22,4Z"/><path d="M873,495.86a1.5,1.5,0,0,1,.48-1.14,1.75,1.75,0,0,1,1.24-.45,1.69,1.69,0,0,1,1.21.45,1.58,1.58,0,0,1,0,2.27,1.69,1.69,0,0,1-1.21.45,1.75,1.75,0,0,1-1.24-.45A1.49,1.49,0,0,1,873,495.86Zm4.24,1,.08,0h.08a.32.32,0,0,1,.24.09.32.32,0,0,1,.09.23.4.4,0,0,1-.07.2.43.43,0,0,1-.17.13l-3.94,1.56-.09,0h-.07a.29.29,0,0,1-.23-.1.32.32,0,0,1-.09-.23.28.28,0,0,1,.07-.19.37.37,0,0,1,.17-.13Zm-3.51-1a.8.8,0,0,0,.27.63,1,1,0,0,0,.72.25,1,1,0,0,0,.71-.24.91.91,0,0,0,0-1.29,1.19,1.19,0,0,0-1.43,0A.85.85,0,0,0,873.73,495.86Zm.63,4.24a1.5,1.5,0,0,1,.49-1.13,1.93,1.93,0,0,1,2.45,0,1.57,1.57,0,0,1,0,2.27,1.91,1.91,0,0,1-2.46,0A1.5,1.5,0,0,1,874.36,500.1Zm.74,0a.83.83,0,0,0,.27.65,1.15,1.15,0,0,0,1.43,0,.83.83,0,0,0,.27-.65.81.81,0,0,0-.27-.64,1,1,0,0,0-.72-.25,1,1,0,0,0-.71.25A.82.82,0,0,0,875.1,500.1Z"/><path d="M853.74,516.45a2,2,0,0,1-1.75-1,6.67,6.67,0,0,1,0-5.7,2,2,0,0,1,3.51,0,6.53,6.53,0,0,1,0,5.68A2,2,0,0,1,853.74,516.45Zm0-6.94a1.16,1.16,0,0,0-1,.8,7.06,7.06,0,0,0,0,4.51,1.1,1.1,0,0,0,2.11,0,7.06,7.06,0,0,0,0-4.51A1.17,1.17,0,0,0,853.74,509.51Z"/><path d="M859.8,515.29a1,1,0,0,1,.32-.75,1.17,1.17,0,0,1,.82-.29,1.21,1.21,0,0,1,.84.29,1.05,1.05,0,0,1,0,1.51,1.35,1.35,0,0,1-1.67,0A1,1,0,0,1,859.8,515.29Z"/><path d="M866.83,511.67a4.86,4.86,0,0,1,.71-.2,2.83,2.83,0,0,1,.63-.07,2.3,2.3,0,0,1,1.71.71,2.46,2.46,0,0,1,.68,1.77,2.42,2.42,0,0,1-.76,1.84,2.63,2.63,0,0,1-1.93.73,4.38,4.38,0,0,1-1.65-.27c-.44-.18-.66-.39-.66-.64a.38.38,0,0,1,.12-.28.4.4,0,0,1,.29-.12,6,6,0,0,1,.68.23,3.47,3.47,0,0,0,1.16.22,1.74,1.74,0,0,0,1.28-.47,1.63,1.63,0,0,0,.49-1.21,1.67,1.67,0,0,0-.47-1.21,1.51,1.51,0,0,0-1.16-.49,2.21,2.21,0,0,0-1,.27,2.55,2.55,0,0,1-.61.26.26.26,0,0,1-.25-.13,1,1,0,0,1-.07-.47v-2.92a.32.32,0,0,1,.12-.28.74.74,0,0,1,.42-.08h3a.62.62,0,0,1,.42.11.41.41,0,0,1,.14.35.39.39,0,0,1-.14.33.6.6,0,0,1-.42.13h-2.65Z"/><path d="M873,510.44a1.5,1.5,0,0,1,.48-1.14,1.77,1.77,0,0,1,1.24-.45,1.72,1.72,0,0,1,1.22.45,1.58,1.58,0,0,1,0,2.27,1.72,1.72,0,0,1-1.22.45,1.77,1.77,0,0,1-1.24-.45A1.49,1.49,0,0,1,873,510.44Zm4.24,1,.08,0h.08a.31.31,0,0,1,.33.33.3.3,0,0,1-.07.19.37.37,0,0,1-.17.13l-3.94,1.56-.08,0h-.08a.29.29,0,0,1-.23-.1.32.32,0,0,1-.09-.23.28.28,0,0,1,.07-.19.37.37,0,0,1,.17-.13Zm-3.51-1a.84.84,0,0,0,.27.64,1.19,1.19,0,0,0,1.43,0,.91.91,0,0,0,0-1.29,1.19,1.19,0,0,0-1.43,0A.85.85,0,0,0,873.68,510.44Zm.64,4.25a1.5,1.5,0,0,1,.48-1.14,1.93,1.93,0,0,1,2.45,0,1.47,1.47,0,0,1,.49,1.14,1.49,1.49,0,0,1-.48,1.13,1.73,1.73,0,0,1-1.23.45,1.76,1.76,0,0,1-1.23-.45A1.49,1.49,0,0,1,874.32,514.69Zm.73,0a.82.82,0,0,0,.27.64,1.15,1.15,0,0,0,1.43,0,.91.91,0,0,0,0-1.29,1.15,1.15,0,0,0-1.43,0A.85.85,0,0,0,875.05,514.69Z"/><path d="M853.64,533.57a2,2,0,0,1-1.75-1,6.57,6.57,0,0,1,0-5.7,2,2,0,0,1,3.5,0,6.53,6.53,0,0,1,0,5.68A2,2,0,0,1,853.64,533.57Zm0-6.94a1.16,1.16,0,0,0-1,.8,7.06,7.06,0,0,0,0,4.51,1.09,1.09,0,0,0,2.1,0,6.88,6.88,0,0,0,0-4.51A1.16,1.16,0,0,0,853.64,526.63Z"/><path d="M859.69,532.41a1,1,0,0,1,.32-.75,1.35,1.35,0,0,1,1.67,0,1.07,1.07,0,0,1,0,1.51,1.24,1.24,0,0,1-.84.29,1.2,1.2,0,0,1-.83-.29A1,1,0,0,1,859.69,532.41Z"/><path d="M866.64,527.09l-.11,0h-.07a.44.44,0,0,1-.3-.1.37.37,0,0,1-.11-.27.33.33,0,0,1,.1-.25.67.67,0,0,1,.29-.16l1.74-.47.12,0h.13a.19.19,0,0,1,.17.1.47.47,0,0,1,.07.28v6.34h.94a1.76,1.76,0,0,1,.66.08.36.36,0,0,1,.14.32.41.41,0,0,1-.12.32.51.51,0,0,1-.35.11h-3.5a.53.53,0,0,1-.36-.11A.44.44,0,0,1,866,533a.34.34,0,0,1,.14-.32,1.69,1.69,0,0,1,.66-.08h1v-5.73Z"/><path d="M872.85,527.56a1.5,1.5,0,0,1,.48-1.14,1.89,1.89,0,0,1,2.45,0,1.58,1.58,0,0,1,0,2.27,1.89,1.89,0,0,1-2.45,0A1.49,1.49,0,0,1,872.85,527.56Zm4.23,1,.09,0h.08a.32.32,0,0,1,.23.09.32.32,0,0,1,.09.24.35.35,0,0,1-.06.19.46.46,0,0,1-.18.13l-3.93,1.56-.09,0h-.07a.28.28,0,0,1-.23-.1.32.32,0,0,1-.09-.23.33.33,0,0,1,.06-.19.46.46,0,0,1,.18-.13Zm-3.5-1a.84.84,0,0,0,.27.64,1.19,1.19,0,0,0,1.43,0,.91.91,0,0,0,0-1.29,1.19,1.19,0,0,0-1.43,0A.85.85,0,0,0,873.58,527.56Zm.63,4.25a1.5,1.5,0,0,1,.48-1.14,1.81,1.81,0,0,1,1.24-.44,1.76,1.76,0,0,1,1.22.44,1.58,1.58,0,0,1,0,2.27,1.89,1.89,0,0,1-2.45,0A1.46,1.46,0,0,1,874.21,531.81Zm.73,0a.8.8,0,0,0,.28.64,1.13,1.13,0,0,0,1.42,0,.91.91,0,0,0,0-1.29,1.13,1.13,0,0,0-1.42,0A.81.81,0,0,0,874.94,531.81Z"/></svg>