<svg xmlns="http://www.w3.org/2000/svg" viewBox="0 0 883.49 221.23"><defs><style>.cls-1{fill:#ff3e3e;}.cls-2{fill:#ff9f9f;}.cls-3{fill:#bababa;}.cls-4{isolation:isolate;}</style></defs><g id="Layer_5" data-name="Layer 5"><circle class="cls-1" cx="220.02" cy="40.72" r="2.78"/><circle class="cls-1" cx="227.57" cy="40.72" r="2.78"/><circle class="cls-1" cx="235.12" cy="40.72" r="2.78"/><circle class="cls-1" cx="242.66" cy="40.72" r="2.78"/><circle class="cls-1" cx="250.21" cy="40.72" r="2.78"/><circle class="cls-1" cx="257.75" cy="40.72" r="2.78"/><circle class="cls-1" cx="265.3" cy="40.72" r="2.78"/><circle class="cls-1" cx="272.85" cy="40.72" r="2.78"/><circle class="cls-1" cx="280.39" cy="40.72" r="2.78"/><circle class="cls-1" cx="287.94" cy="40.72" r="2.78"/><circle class="cls-1" cx="220.02" cy="47.21" r="2.78"/><circle class="cls-1" cx="227.57" cy="47.21" r="2.78"/><circle class="cls-1" cx="235.12" cy="47.21" r="2.78"/><circle class="cls-1" cx="242.66" cy="47.21" r="2.78"/><circle class="cls-1" cx="250.21" cy="47.21" r="2.78"/><circle class="cls-1" cx="257.75" cy="47.21" r="2.78"/><circle class="cls-1" cx="265.3" cy="47.21" r="2.78"/><circle class="cls-1" cx="272.85" cy="47.21" r="2.78"/><circle class="cls-1" cx="280.39" cy="47.21" r="2.78"/><circle class="cls-1" cx="287.94" cy="47.21" r="2.78"/><circle class="cls-1" cx="220.02" cy="53.69" r="2.78"/><circle class="cls-1" cx="227.57" cy="53.69" r="2.78"/><circle class="cls-1" cx="235.12" cy="53.69" r="2.78"/><circle class="cls-1" cx="242.66" cy="53.69" r="2.78"/><circle class="cls-1" cx="250.21" cy="53.69" r="2.78"/><circle class="cls-1" cx="257.75" cy="53.69" r="2.78"/><circle class="cls-1" cx="265.3" cy="53.69" r="2.78"/><circle class="cls-1" cx="272.85" cy="53.69" r="2.78"/><circle class="cls-1" cx="280.39" cy="53.69" r="2.78"/><circle class="cls-1" cx="287.94" cy="53.69" r="2.78"/><circle class="cls-1" cx="220.02" cy="60.18" r="2.78"/><circle class="cls-1" cx="227.57" cy="60.18" r="2.78"/><circle class="cls-1" cx="235.12" cy="60.18" r="2.78"/><circle class="cls-1" cx="242.66" cy="60.18" r="2.78"/><circle class="cls-1" cx="250.21" cy="60.18" r="2.78"/><circle class="cls-1" cx="257.75" cy="60.18" r="2.78"/><circle class="cls-1" cx="265.3" cy="60.18" r="2.78"/><circle class="cls-1" cx="272.85" cy="60.18" r="2.78"/><circle class="cls-1" cx="280.39" cy="60.18" r="2.78"/><circle class="cls-1" cx="287.94" cy="60.18" r="2.78"/><circle class="cls-1" cx="220.02" cy="66.66" r="2.78"/><circle class="cls-1" cx="227.57" cy="66.66" r="2.78"/><circle class="cls-1" cx="235.12" cy="66.66" r="2.78"/><circle class="cls-2" cx="242.66" cy="66.66" r="2.78"/><circle class="cls-2" cx="250.21" cy="66.66" r="2.78"/><circle class="cls-2" cx="257.75" cy="66.66" r="2.78"/><circle class="cls-2" cx="265.3" cy="66.66" r="2.78"/><circle class="cls-2" cx="272.85" cy="66.66" r="2.78"/><circle class="cls-2" cx="280.39" cy="66.66" r="2.78"/><circle class="cls-2" cx="287.94" cy="66.66" r="2.78"/><circle class="cls-2" cx="220.02" cy="73.15" r="2.78"/><circle class="cls-2" cx="227.57" cy="73.15" r="2.78"/><circle class="cls-2" cx="235.12" cy="73.15" r="2.78"/><circle class="cls-2" cx="242.66" cy="73.15" r="2.78"/><circle class="cls-2" cx="250.21" cy="73.15" r="2.78"/><circle class="cls-2" cx="257.75" cy="73.15" r="2.78"/><circle class="cls-2" cx="265.3" cy="73.15" r="2.78"/><circle class="cls-2" cx="272.85" cy="73.15" r="2.78"/><circle class="cls-2" cx="280.39" cy="73.15" r="2.78"/><circle class="cls-2" cx="287.94" cy="73.15" r="2.78"/><circle class="cls-3" cx="220.02" cy="79.64" r="2.78"/><circle class="cls-3" cx="227.57" cy="79.64" r="2.78"/><circle class="cls-3" cx="235.12" cy="79.64" r="2.78"/><circle class="cls-3" cx="242.66" cy="79.64" r="2.78"/><circle class="cls-3" cx="250.21" cy="79.64" r="2.78"/><circle class="cls-3" cx="257.75" cy="79.64" r="2.78"/><circle class="cls-3" cx="265.3" cy="79.64" r="2.78"/><circle class="cls-3" cx="272.85" cy="79.64" r="2.78"/><circle class="cls-3" cx="280.39" cy="79.64" r="2.78"/><circle class="cls-3" cx="287.94" cy="79.64" r="2.78"/><circle class="cls-3" cx="220.02" cy="86.12" r="2.78"/><circle class="cls-3" cx="227.57" cy="86.12" r="2.78"/><circle class="cls-3" cx="235.12" cy="86.12" r="2.78"/><circle class="cls-3" cx="242.66" cy="86.12" r="2.78"/><circle class="cls-3" cx="250.21" cy="86.12" r="2.78"/><circle class="cls-3" cx="257.75" cy="86.12" r="2.78"/><circle class="cls-3" cx="265.3" cy="86.12" r="2.78"/><circle class="cls-3" cx="272.85" cy="86.12" r="2.78"/><circle class="cls-3" cx="280.39" cy="86.12" r="2.78"/><circle class="cls-3" cx="287.94" cy="86.12" r="2.78"/><circle class="cls-3" cx="280.39" cy="92.61" r="2.78"/><circle class="cls-3" cx="287.94" cy="92.61" r="2.78"/><circle class="cls-3" cx="220.02" cy="92.61" r="2.78"/><circle class="cls-3" cx="227.57" cy="92.61" r="2.78"/><circle class="cls-3" cx="235.12" cy="92.61" r="2.78"/><circle class="cls-3" cx="242.66" cy="92.61" r="2.78"/><circle class="cls-3" cx="250.21" cy="92.61" r="2.78"/><circle class="cls-3" cx="257.75" cy="92.61" r="2.78"/><circle class="cls-3" cx="265.3" cy="92.61" r="2.78"/><circle class="cls-3" cx="272.85" cy="92.61" r="2.78"/><circle class="cls-3" cx="280.39" cy="99.09" r="2.78"/><circle class="cls-3" cx="287.94" cy="99.09" r="2.78"/><circle class="cls-3" cx="220.02" cy="99.09" r="2.78"/><circle class="cls-3" cx="227.57" cy="99.09" r="2.78"/><circle class="cls-3" cx="235.12" cy="99.09" r="2.78"/><circle class="cls-3" cx="242.66" cy="99.09" r="2.78"/><circle class="cls-3" cx="250.21" cy="99.09" r="2.78"/><circle class="cls-3" cx="257.75" cy="99.09" r="2.78"/><circle class="cls-3" cx="265.3" cy="99.09" r="2.78"/><circle class="cls-3" cx="272.85" cy="99.09" r="2.78"/><g class="cls-4"><path d="M218.19,18.66H219v4l3.75-4h1.1l-2.63,2.74,2.59,4.16h-1L220.67,22,219,23.68v1.88h-.84Z"/><path d="M224.53,23.15a2.24,2.24,0,0,1,2.15-2.53c1.62,0,2.1,1.23,2.1,2.57a1.8,1.8,0,0,1,0,.2h-3.39a1.39,1.39,0,0,0,1.39,1.52,1.7,1.7,0,0,0,1.36-.51l.54.44a2.38,2.38,0,0,1-1.89.78A2.22,2.22,0,0,1,224.53,23.15Zm3.49-.4a1.29,1.29,0,0,0-1.34-1.43,1.32,1.32,0,0,0-1.31,1.43Z"/><path d="M230.1,20.68h.8v.75a1.81,1.81,0,0,1,1.51-.83c1.23,0,1.7.94,1.7,2v3h-.8V22.69c0-.67-.2-1.33-1-1.33a1.45,1.45,0,0,0-1.42,1.45v2.75h-.8Z"/><path d="M236.89,25.51,235,20.68h.88l1.39,3.9,1.37-3.9h.88l-2.64,7h-.83Z"/><path d="M240.19,24.2c0-1,.75-1.45,1.8-1.45h1.48c0-.9-.31-1.45-1.22-1.45A1.56,1.56,0,0,0,241,22l-.6-.45a2.19,2.19,0,0,1,1.91-.95,1.78,1.78,0,0,1,1.91,2v3h-.65l-.06-.84a1.89,1.89,0,0,1-1.73.94A1.48,1.48,0,0,1,240.19,24.2Zm3.28-.81h-1.41c-.59,0-1.05.29-1.05.81s.45.75,1,.75A1.56,1.56,0,0,0,243.47,23.39Z"/></g><circle class="cls-1" cx="220.02" cy="140.37" r="2.78"/><circle class="cls-1" cx="227.57" cy="140.37" r="2.78"/><circle class="cls-1" cx="235.12" cy="140.37" r="2.78"/><circle class="cls-1" cx="242.66" cy="140.37" r="2.78"/><circle class="cls-1" cx="250.21" cy="140.37" r="2.78"/><circle class="cls-1" cx="257.75" cy="140.37" r="2.78"/><circle class="cls-1" cx="265.3" cy="140.37" r="2.78"/><circle class="cls-1" cx="272.85" cy="140.37" r="2.78"/><circle class="cls-1" cx="280.39" cy="140.37" r="2.78"/><circle class="cls-1" cx="287.94" cy="140.37" r="2.78"/><circle class="cls-1" cx="220.02" cy="146.86" r="2.78"/><circle class="cls-1" cx="227.57" cy="146.86" r="2.78"/><circle class="cls-1" cx="235.12" cy="146.86" r="2.78"/><circle class="cls-1" cx="242.66" cy="146.86" r="2.78"/><circle class="cls-1" cx="250.21" cy="146.86" r="2.78"/><circle class="cls-1" cx="257.75" cy="146.86" r="2.78"/><circle class="cls-1" cx="265.3" cy="146.86" r="2.78"/><circle class="cls-1" cx="272.85" cy="146.86" r="2.78"/><circle class="cls-1" cx="280.39" cy="146.86" r="2.78"/><circle class="cls-1" cx="287.94" cy="146.86" r="2.78"/><circle class="cls-1" cx="220.02" cy="153.34" r="2.78"/><circle class="cls-1" cx="227.57" cy="153.34" r="2.78"/><circle class="cls-1" cx="235.12" cy="153.34" r="2.78"/><circle class="cls-1" cx="242.66" cy="153.34" r="2.78"/><circle class="cls-1" cx="250.21" cy="153.34" r="2.78"/><circle class="cls-1" cx="257.75" cy="153.34" r="2.78"/><circle class="cls-1" cx="265.3" cy="153.34" r="2.78"/><circle class="cls-1" cx="272.85" cy="153.34" r="2.78"/><circle class="cls-1" cx="280.39" cy="153.34" r="2.78"/><circle class="cls-1" cx="287.94" cy="153.34" r="2.78"/><circle class="cls-1" cx="220.02" cy="159.83" r="2.78"/><circle class="cls-1" cx="227.57" cy="159.83" r="2.78"/><circle class="cls-1" cx="235.12" cy="159.83" r="2.78"/><circle class="cls-1" cx="242.66" cy="159.83" r="2.78"/><circle class="cls-1" cx="250.21" cy="159.83" r="2.78"/><circle class="cls-1" cx="257.75" cy="159.83" r="2.78"/><circle class="cls-1" cx="265.3" cy="159.83" r="2.78"/><circle class="cls-1" cx="272.85" cy="159.83" r="2.78"/><circle class="cls-1" cx="280.39" cy="159.83" r="2.78"/><circle class="cls-1" cx="287.94" cy="159.83" r="2.78"/><circle class="cls-1" cx="220.02" cy="166.31" r="2.78"/><circle class="cls-1" cx="227.57" cy="166.31" r="2.78"/><circle class="cls-1" cx="235.12" cy="166.31" r="2.78"/><circle class="cls-1" cx="242.66" cy="166.31" r="2.78"/><circle class="cls-1" cx="250.21" cy="166.31" r="2.78"/><circle class="cls-1" cx="257.75" cy="166.31" r="2.78"/><circle class="cls-1" cx="265.3" cy="166.31" r="2.78"/><circle class="cls-1" cx="272.85" cy="166.31" r="2.78"/><circle class="cls-1" cx="280.39" cy="166.31" r="2.78"/><circle class="cls-1" cx="287.94" cy="166.31" r="2.78"/><circle class="cls-1" cx="220.02" cy="172.8" r="2.78"/><circle class="cls-1" cx="227.57" cy="172.8" r="2.78"/><circle class="cls-1" cx="235.12" cy="172.8" r="2.78"/><circle class="cls-1" cx="242.66" cy="172.8" r="2.78"/><circle class="cls-1" cx="250.21" cy="172.8" r="2.78"/><circle class="cls-1" cx="257.75" cy="172.8" r="2.78"/><circle class="cls-1" cx="265.3" cy="172.8" r="2.78"/><circle class="cls-1" cx="272.85" cy="172.8" r="2.78"/><circle class="cls-1" cx="280.39" cy="172.8" r="2.78"/><circle class="cls-1" cx="287.94" cy="172.8" r="2.78"/><circle class="cls-1" cx="220.02" cy="179.29" r="2.78"/><circle class="cls-1" cx="227.57" cy="179.29" r="2.78"/><circle class="cls-1" cx="235.12" cy="179.29" r="2.78"/><circle class="cls-1" cx="242.66" cy="179.29" r="2.78"/><circle class="cls-1" cx="250.21" cy="179.29" r="2.78"/><circle class="cls-2" cx="257.75" cy="179.29" r="2.78"/><circle class="cls-2" cx="265.3" cy="179.29" r="2.78"/><circle class="cls-2" cx="272.85" cy="179.29" r="2.78"/><circle class="cls-2" cx="280.39" cy="179.29" r="2.78"/><circle class="cls-2" cx="287.94" cy="179.29" r="2.78"/><circle class="cls-2" cx="220.02" cy="185.77" r="2.78"/><circle class="cls-2" cx="227.57" cy="185.77" r="2.78"/><circle class="cls-2" cx="235.12" cy="185.77" r="2.78"/><circle class="cls-2" cx="242.66" cy="185.77" r="2.78"/><circle class="cls-3" cx="250.21" cy="185.77" r="2.78"/><circle class="cls-3" cx="257.75" cy="185.77" r="2.78"/><circle class="cls-3" cx="265.3" cy="185.77" r="2.78"/><circle class="cls-3" cx="272.85" cy="185.77" r="2.78"/><circle class="cls-3" cx="280.39" cy="185.77" r="2.78"/><circle class="cls-3" cx="287.94" cy="185.77" r="2.78"/><circle class="cls-3" cx="280.39" cy="192.26" r="2.78"/><circle class="cls-3" cx="287.94" cy="192.26" r="2.78"/><circle class="cls-3" cx="220.02" cy="192.26" r="2.78"/><circle class="cls-3" cx="227.57" cy="192.26" r="2.78"/><circle class="cls-3" cx="235.12" cy="192.26" r="2.78"/><circle class="cls-3" cx="242.66" cy="192.26" r="2.78"/><circle class="cls-3" cx="250.21" cy="192.26" r="2.78"/><circle class="cls-3" cx="257.75" cy="192.26" r="2.78"/><circle class="cls-3" cx="265.3" cy="192.26" r="2.78"/><circle class="cls-3" cx="272.85" cy="192.26" r="2.78"/><circle class="cls-3" cx="280.39" cy="198.74" r="2.78"/><circle class="cls-3" cx="287.94" cy="198.74" r="2.78"/><circle class="cls-3" cx="220.02" cy="198.74" r="2.78"/><circle class="cls-3" cx="227.57" cy="198.74" r="2.78"/><circle class="cls-3" cx="235.12" cy="198.74" r="2.78"/><circle class="cls-3" cx="242.66" cy="198.74" r="2.78"/><circle class="cls-3" cx="250.21" cy="198.74" r="2.78"/><circle class="cls-3" cx="257.75" cy="198.74" r="2.78"/><circle class="cls-3" cx="265.3" cy="198.74" r="2.78"/><circle class="cls-3" cx="272.85" cy="198.74" r="2.78"/><g class="cls-4"><path d="M217.86,121.76c0-1.93,1-3.56,3.13-3.56a2.93,2.93,0,0,1,2.83,1.86l-.78.32A1.94,1.94,0,0,0,221,119c-1.61,0-2.29,1.28-2.29,2.73s.68,2.82,2.31,2.82a2,2,0,0,0,2.05-1.41l.78.32A2.92,2.92,0,0,1,221,125.3C218.86,125.3,217.86,123.69,217.86,121.76Z"/><path d="M224.79,122.79a2.36,2.36,0,1,1,2.35,2.51A2.38,2.38,0,0,1,224.79,122.79Zm3.81,0c0-1-.41-1.82-1.46-1.82s-1.46.87-1.46,1.82.41,1.82,1.46,1.82S228.6,123.74,228.6,122.79Z"/><path d="M230.92,124.22v-5.91h.8v6s0,.29.27.29a2.42,2.42,0,0,0,.44,0v.64a2.54,2.54,0,0,1-.67.1C231,125.3,230.92,124.85,230.92,124.22Z"/><path d="M233.28,122.79a2.36,2.36,0,1,1,2.35,2.51A2.38,2.38,0,0,1,233.28,122.79Zm3.81,0c0-1-.41-1.82-1.46-1.82s-1.46.87-1.46,1.82.41,1.82,1.46,1.82S237.09,123.74,237.09,122.79Z"/><path d="M239.41,120.33h.8v.79a1.43,1.43,0,0,1,1.31-.88,1.53,1.53,0,0,1,1.49,1,1.62,1.62,0,0,1,1.52-.94c1.23,0,1.71.94,1.71,2v3h-.8v-2.86c0-.67-.21-1.4-1-1.4a1.35,1.35,0,0,0-1.22,1.51v2.75h-.8v-2.88c0-.67-.2-1.38-1-1.38a1.35,1.35,0,0,0-1.22,1.51v2.75h-.8Z"/><path d="M248.73,124.56v.64h-.8v-6.89h.8V121a1.75,1.75,0,0,1,1.5-.76c1.28,0,2,1.15,2,2.55s-.7,2.53-2,2.53A1.73,1.73,0,0,1,248.73,124.56Zm2.68-1.79c0-1-.43-1.84-1.38-1.84s-1.36.87-1.36,1.84.41,1.83,1.36,1.83S251.41,123.75,251.41,122.77Z"/><path d="M253.64,118.28h.91v1h-.91Zm.06,2h.8v4.87h-.8Z"/><path d="M255.92,123.85c0-1,.75-1.45,1.8-1.45h1.48c0-.9-.31-1.45-1.22-1.45a1.56,1.56,0,0,0-1.27.7l-.6-.45a2.19,2.19,0,0,1,1.91-1,1.78,1.78,0,0,1,1.91,2v3h-.65l-.06-.83a1.88,1.88,0,0,1-1.73.93A1.47,1.47,0,0,1,255.92,123.85Zm3.28-.81h-1.41c-.59,0-1.05.29-1.05.81s.45.75.95.75A1.56,1.56,0,0,0,259.2,123Z"/></g><g class="cls-4"><path d="M31.89,19.37H29.58v-.71H35v.71h-2.3v6.19h-.84Z"/><path d="M34.74,24.2c0-1,.75-1.45,1.8-1.45H38c0-.9-.3-1.45-1.21-1.45a1.56,1.56,0,0,0-1.27.7l-.6-.45a2.19,2.19,0,0,1,1.91-.95,1.78,1.78,0,0,1,1.9,2v3H38.1L38,24.72a1.86,1.86,0,0,1-1.72.94A1.48,1.48,0,0,1,34.74,24.2ZM38,23.39h-1.4c-.59,0-1,.29-1,.81s.45.75.95.75A1.56,1.56,0,0,0,38,23.39Z"/><path d="M40.37,20.68h.8v.75a1.81,1.81,0,0,1,1.51-.83c1.22,0,1.69.94,1.69,2v3h-.79V22.69c0-.67-.21-1.33-1-1.33a1.45,1.45,0,0,0-1.42,1.45v2.75h-.8Z"/><path d="M45.42,25l2.93-3.61H45.56v-.68h3.75v.65l-2.87,3.55h2.87v.68H45.42Z"/><path d="M50.15,24.2c0-1,.75-1.45,1.8-1.45h1.48c0-.9-.31-1.45-1.22-1.45a1.56,1.56,0,0,0-1.27.7l-.6-.45a2.19,2.19,0,0,1,1.91-.95,1.78,1.78,0,0,1,1.9,2v3h-.64l-.06-.84a1.89,1.89,0,0,1-1.73.94A1.48,1.48,0,0,1,50.15,24.2Zm3.28-.81H52c-.59,0-1.05.29-1.05.81s.45.75,1,.75A1.56,1.56,0,0,0,53.43,23.39Z"/><path d="M55.78,20.68h.8v.75a1.81,1.81,0,0,1,1.51-.83c1.22,0,1.69.94,1.69,2v3H59V22.69c0-.67-.21-1.33-1-1.33a1.45,1.45,0,0,0-1.42,1.45v2.75h-.8Z"/><path d="M61.37,18.63h.91v1h-.91Zm.06,2.05h.8v4.88h-.8Z"/><path d="M63.65,24.2c0-1,.75-1.45,1.8-1.45h1.48c0-.9-.31-1.45-1.22-1.45a1.56,1.56,0,0,0-1.27.7l-.6-.45a2.19,2.19,0,0,1,1.91-.95,1.78,1.78,0,0,1,1.9,2v3H67L67,24.72a1.89,1.89,0,0,1-1.73.94A1.48,1.48,0,0,1,63.65,24.2Zm3.28-.81H65.52c-.59,0-1,.29-1,.81s.45.75,1,.75A1.56,1.56,0,0,0,66.93,23.39Z"/></g><circle class="cls-1" cx="32.26" cy="40.72" r="2.78"/><circle class="cls-1" cx="39.8" cy="40.72" r="2.78"/><circle class="cls-1" cx="47.35" cy="40.72" r="2.78"/><circle class="cls-1" cx="54.9" cy="40.72" r="2.78"/><circle class="cls-1" cx="62.44" cy="40.72" r="2.78"/><circle class="cls-1" cx="69.99" cy="40.72" r="2.78"/><circle class="cls-1" cx="77.53" cy="40.72" r="2.78"/><circle class="cls-1" cx="85.08" cy="40.72" r="2.78"/><circle class="cls-1" cx="92.63" cy="40.72" r="2.78"/><circle class="cls-1" cx="100.17" cy="40.72" r="2.78"/><circle class="cls-1" cx="32.26" cy="47.21" r="2.78"/><circle class="cls-1" cx="39.8" cy="47.21" r="2.78"/><circle class="cls-1" cx="47.35" cy="47.21" r="2.78"/><circle class="cls-1" cx="54.9" cy="47.21" r="2.78"/><circle class="cls-1" cx="62.44" cy="47.21" r="2.78"/><circle class="cls-1" cx="69.99" cy="47.21" r="2.78"/><circle class="cls-1" cx="77.53" cy="47.21" r="2.78"/><circle class="cls-1" cx="85.08" cy="47.21" r="2.78"/><circle class="cls-1" cx="92.63" cy="47.21" r="2.78"/><circle class="cls-1" cx="100.17" cy="47.21" r="2.78"/><circle class="cls-1" cx="32.26" cy="53.69" r="2.78"/><circle class="cls-1" cx="39.8" cy="53.69" r="2.78"/><circle class="cls-1" cx="47.35" cy="53.69" r="2.78"/><circle class="cls-1" cx="54.9" cy="53.69" r="2.78"/><circle class="cls-1" cx="62.44" cy="53.69" r="2.78"/><circle class="cls-1" cx="69.99" cy="53.69" r="2.78"/><circle class="cls-1" cx="77.53" cy="53.69" r="2.78"/><circle class="cls-1" cx="85.08" cy="53.69" r="2.78"/><circle class="cls-1" cx="92.63" cy="53.69" r="2.78"/><circle class="cls-1" cx="100.17" cy="53.69" r="2.78"/><circle class="cls-1" cx="32.26" cy="60.18" r="2.78"/><circle class="cls-1" cx="39.8" cy="60.18" r="2.78"/><circle class="cls-1" cx="47.35" cy="60.18" r="2.78"/><circle class="cls-1" cx="54.9" cy="60.18" r="2.78"/><circle class="cls-2" cx="62.44" cy="60.18" r="2.78"/><circle class="cls-2" cx="69.99" cy="60.18" r="2.78"/><circle class="cls-2" cx="77.53" cy="60.18" r="2.78"/><circle class="cls-2" cx="85.08" cy="60.18" r="2.78"/><circle class="cls-2" cx="92.63" cy="60.18" r="2.78"/><circle class="cls-2" cx="100.17" cy="60.18" r="2.78"/><circle class="cls-2" cx="32.26" cy="66.66" r="2.78"/><circle class="cls-2" cx="39.8" cy="66.66" r="2.78"/><circle class="cls-2" cx="47.35" cy="66.66" r="2.78"/><circle class="cls-2" cx="54.9" cy="66.66" r="2.78"/><circle class="cls-2" cx="62.44" cy="66.66" r="2.78"/><circle class="cls-2" cx="69.99" cy="66.66" r="2.78"/><circle class="cls-2" cx="77.53" cy="66.66" r="2.78"/><circle class="cls-2" cx="85.08" cy="66.66" r="2.78"/><circle class="cls-2" cx="92.63" cy="66.66" r="2.78"/><circle class="cls-2" cx="100.17" cy="66.66" r="2.78"/><circle class="cls-2" cx="32.26" cy="73.15" r="2.78"/><circle class="cls-2" cx="39.8" cy="73.15" r="2.78"/><circle class="cls-2" cx="47.35" cy="73.15" r="2.78"/><circle class="cls-2" cx="54.9" cy="73.15" r="2.78"/><circle class="cls-2" cx="62.44" cy="73.15" r="2.78"/><circle class="cls-3" cx="69.99" cy="73.15" r="2.78"/><circle class="cls-3" cx="77.53" cy="73.15" r="2.78"/><circle class="cls-3" cx="85.08" cy="73.15" r="2.78"/><circle class="cls-3" cx="92.63" cy="73.15" r="2.78"/><circle class="cls-3" cx="100.17" cy="73.15" r="2.78"/><circle class="cls-3" cx="32.26" cy="79.64" r="2.78"/><circle class="cls-3" cx="39.8" cy="79.64" r="2.78"/><circle class="cls-3" cx="47.35" cy="79.64" r="2.78"/><circle class="cls-3" cx="54.9" cy="79.64" r="2.78"/><circle class="cls-3" cx="62.44" cy="79.64" r="2.78"/><circle class="cls-3" cx="69.99" cy="79.64" r="2.78"/><circle class="cls-3" cx="77.53" cy="79.64" r="2.78"/><circle class="cls-3" cx="85.08" cy="79.64" r="2.78"/><circle class="cls-3" cx="92.63" cy="79.64" r="2.78"/><circle class="cls-3" cx="100.17" cy="79.64" r="2.78"/><circle class="cls-3" cx="32.26" cy="86.12" r="2.78"/><circle class="cls-3" cx="39.8" cy="86.12" r="2.78"/><circle class="cls-3" cx="47.35" cy="86.12" r="2.78"/><circle class="cls-3" cx="54.9" cy="86.12" r="2.78"/><circle class="cls-3" cx="62.44" cy="86.12" r="2.78"/><circle class="cls-3" cx="69.99" cy="86.12" r="2.78"/><circle class="cls-3" cx="77.53" cy="86.12" r="2.78"/><circle class="cls-3" cx="85.08" cy="86.12" r="2.78"/><circle class="cls-3" cx="92.63" cy="86.12" r="2.78"/><circle class="cls-3" cx="100.17" cy="86.12" r="2.78"/><circle class="cls-3" cx="92.63" cy="92.61" r="2.78"/><circle class="cls-3" cx="100.17" cy="92.61" r="2.78"/><circle class="cls-3" cx="32.26" cy="92.61" r="2.78"/><circle class="cls-3" cx="39.8" cy="92.61" r="2.78"/><circle class="cls-3" cx="47.35" cy="92.61" r="2.78"/><circle class="cls-3" cx="54.9" cy="92.61" r="2.78"/><circle class="cls-3" cx="62.44" cy="92.61" r="2.78"/><circle class="cls-3" cx="69.99" cy="92.61" r="2.78"/><circle class="cls-3" cx="77.53" cy="92.61" r="2.78"/><circle class="cls-3" cx="85.08" cy="92.61" r="2.78"/><circle class="cls-3" cx="92.63" cy="99.09" r="2.78"/><circle class="cls-3" cx="100.17" cy="99.09" r="2.78"/><circle class="cls-3" cx="32.26" cy="99.09" r="2.78"/><circle class="cls-3" cx="39.8" cy="99.09" r="2.78"/><circle class="cls-3" cx="47.35" cy="99.09" r="2.78"/><circle class="cls-3" cx="54.9" cy="99.09" r="2.78"/><circle class="cls-3" cx="62.44" cy="99.09" r="2.78"/><circle class="cls-3" cx="69.99" cy="99.09" r="2.78"/><circle class="cls-3" cx="77.53" cy="99.09" r="2.78"/><circle class="cls-3" cx="85.08" cy="99.09" r="2.78"/><g class="cls-4"><path d="M30.43,121.85h2a2,2,0,0,1,2.18,1.94,1.78,1.78,0,0,1-1.44,1.78l1.86,3.18h-1l-1.76-3.07H31.27v3.07h-.84Zm2.14,3.07a1.15,1.15,0,0,0,1.24-1.14,1.19,1.19,0,0,0-1.35-1.18H31.28v2.32Z"/><path d="M35.54,123.86h.85l1,3.79,1.09-3.79h.72l1.08,3.78,1-3.78h.85l-1.39,4.88h-.75l-1.12-3.84-1.12,3.84h-.76Z"/><path d="M42.81,127.38c0-1,.75-1.45,1.8-1.45h1.48c0-.9-.31-1.45-1.22-1.45a1.56,1.56,0,0,0-1.27.7l-.6-.45a2.19,2.19,0,0,1,1.91-1,1.78,1.78,0,0,1,1.9,2v3h-.64l-.06-.84a1.89,1.89,0,0,1-1.73.94A1.48,1.48,0,0,1,42.81,127.38Zm3.28-.81H44.68c-.59,0-1,.29-1,.81s.45.75.95.75A1.56,1.56,0,0,0,46.09,126.57Z"/><path d="M48.44,123.86h.8v.75a1.81,1.81,0,0,1,1.51-.83c1.22,0,1.69.94,1.69,2v3h-.79v-2.87c0-.67-.2-1.33-1-1.33A1.45,1.45,0,0,0,49.24,126v2.75h-.8Z"/><path d="M53.7,126.3c0-1.4.7-2.54,2-2.54a1.72,1.72,0,0,1,1.49.75v-2.67H58v6.9h-.8v-.65a1.72,1.72,0,0,1-1.49.75C54.4,128.84,53.7,127.7,53.7,126.3Zm3.52,0c0-1-.39-1.8-1.34-1.8s-1.38.83-1.38,1.8.43,1.81,1.38,1.81S57.22,127.28,57.22,126.3Z"/><path d="M59.46,127.38c0-1,.75-1.45,1.8-1.45h1.47c0-.9-.3-1.45-1.21-1.45a1.56,1.56,0,0,0-1.27.7l-.6-.45a2.19,2.19,0,0,1,1.91-1,1.78,1.78,0,0,1,1.9,2v3h-.65l-.06-.84a1.86,1.86,0,0,1-1.72.94A1.48,1.48,0,0,1,59.46,127.38Zm3.27-.81h-1.4c-.59,0-1,.29-1,.81s.45.75.95.75A1.56,1.56,0,0,0,62.73,126.57Z"/></g><circle class="cls-1" cx="32.26" cy="140.37" r="2.78"/><circle class="cls-1" cx="39.8" cy="140.37" r="2.78"/><circle class="cls-1" cx="47.35" cy="140.37" r="2.78"/><circle class="cls-1" cx="54.9" cy="140.37" r="2.78"/><circle class="cls-1" cx="62.44" cy="140.37" r="2.78"/><circle class="cls-1" cx="69.99" cy="140.37" r="2.78"/><circle class="cls-1" cx="77.53" cy="140.37" r="2.78"/><circle class="cls-1" cx="85.08" cy="140.37" r="2.78"/><circle class="cls-1" cx="92.63" cy="140.37" r="2.78"/><circle class="cls-1" cx="100.17" cy="140.37" r="2.78"/><circle class="cls-1" cx="32.26" cy="146.86" r="2.78"/><circle class="cls-1" cx="39.8" cy="146.86" r="2.78"/><circle class="cls-1" cx="47.35" cy="146.86" r="2.78"/><circle class="cls-1" cx="54.9" cy="146.86" r="2.78"/><circle class="cls-1" cx="62.44" cy="146.86" r="2.78"/><circle class="cls-1" cx="69.99" cy="146.86" r="2.78"/><circle class="cls-1" cx="77.53" cy="146.86" r="2.78"/><circle class="cls-1" cx="85.08" cy="146.86" r="2.78"/><circle class="cls-1" cx="92.63" cy="146.86" r="2.78"/><circle class="cls-1" cx="100.17" cy="146.86" r="2.78"/><circle class="cls-1" cx="32.26" cy="153.34" r="2.78"/><circle class="cls-1" cx="39.8" cy="153.34" r="2.78"/><circle class="cls-1" cx="47.35" cy="153.34" r="2.78"/><circle class="cls-1" cx="54.9" cy="153.34" r="2.78"/><circle class="cls-1" cx="62.44" cy="153.34" r="2.78"/><circle class="cls-1" cx="69.99" cy="153.34" r="2.78"/><circle class="cls-1" cx="77.53" cy="153.34" r="2.78"/><circle class="cls-1" cx="85.08" cy="153.34" r="2.78"/><circle class="cls-1" cx="92.63" cy="153.34" r="2.78"/><circle class="cls-1" cx="100.17" cy="153.34" r="2.78"/><circle class="cls-1" cx="32.26" cy="159.83" r="2.78"/><circle class="cls-1" cx="39.8" cy="159.83" r="2.78"/><circle class="cls-1" cx="47.35" cy="159.83" r="2.78"/><circle class="cls-1" cx="54.9" cy="159.83" r="2.78"/><circle class="cls-1" cx="62.44" cy="159.83" r="2.78"/><circle class="cls-1" cx="69.99" cy="159.83" r="2.78"/><circle class="cls-1" cx="77.53" cy="159.83" r="2.78"/><circle class="cls-1" cx="85.08" cy="159.83" r="2.78"/><circle class="cls-1" cx="92.63" cy="159.83" r="2.78"/><circle class="cls-1" cx="100.17" cy="159.83" r="2.78"/><circle class="cls-1" cx="32.26" cy="166.31" r="2.78"/><circle class="cls-1" cx="39.8" cy="166.31" r="2.78"/><circle class="cls-1" cx="47.35" cy="166.31" r="2.78"/><circle class="cls-1" cx="54.9" cy="166.31" r="2.78"/><circle class="cls-1" cx="62.44" cy="166.31" r="2.78"/><circle class="cls-1" cx="69.99" cy="166.31" r="2.78"/><circle class="cls-1" cx="77.53" cy="166.31" r="2.78"/><circle class="cls-1" cx="85.08" cy="166.31" r="2.78"/><circle class="cls-1" cx="92.63" cy="166.31" r="2.78"/><circle class="cls-1" cx="100.17" cy="166.31" r="2.78"/><circle class="cls-1" cx="32.26" cy="172.8" r="2.78"/><circle class="cls-1" cx="39.8" cy="172.8" r="2.78"/><circle class="cls-1" cx="47.35" cy="172.8" r="2.78"/><circle class="cls-1" cx="54.9" cy="172.8" r="2.78"/><circle class="cls-1" cx="62.44" cy="172.8" r="2.78"/><circle class="cls-1" cx="69.99" cy="172.8" r="2.78"/><circle class="cls-1" cx="77.53" cy="172.8" r="2.78"/><circle class="cls-1" cx="85.08" cy="172.8" r="2.78"/><circle class="cls-1" cx="92.63" cy="172.8" r="2.78"/><circle class="cls-1" cx="100.17" cy="172.8" r="2.78"/><circle class="cls-1" cx="32.26" cy="179.29" r="2.78"/><circle class="cls-2" cx="39.8" cy="179.29" r="2.78"/><circle class="cls-2" cx="47.35" cy="179.29" r="2.78"/><circle class="cls-2" cx="54.9" cy="179.29" r="2.78"/><circle class="cls-2" cx="62.44" cy="179.29" r="2.78"/><circle class="cls-2" cx="69.99" cy="179.29" r="2.78"/><circle class="cls-2" cx="77.53" cy="179.29" r="2.78"/><circle class="cls-2" cx="85.08" cy="179.29" r="2.78"/><circle class="cls-2" cx="92.63" cy="179.29" r="2.78"/><circle class="cls-2" cx="100.17" cy="179.29" r="2.78"/><circle class="cls-2" cx="32.26" cy="185.77" r="2.78"/><circle class="cls-2" cx="39.8" cy="185.77" r="2.78"/><circle class="cls-2" cx="47.35" cy="185.77" r="2.78"/><circle class="cls-2" cx="54.9" cy="185.77" r="2.78"/><circle class="cls-2" cx="62.44" cy="185.77" r="2.78"/><circle class="cls-2" cx="69.99" cy="185.77" r="2.78"/><circle class="cls-2" cx="77.53" cy="185.77" r="2.78"/><circle class="cls-3" cx="85.08" cy="185.77" r="2.78"/><circle class="cls-3" cx="92.63" cy="185.77" r="2.78"/><circle class="cls-3" cx="100.17" cy="185.77" r="2.78"/><circle class="cls-3" cx="92.63" cy="192.26" r="2.78"/><circle class="cls-3" cx="100.17" cy="192.26" r="2.78"/><circle class="cls-3" cx="32.26" cy="192.26" r="2.78"/><circle class="cls-3" cx="39.8" cy="192.26" r="2.78"/><circle class="cls-3" cx="47.35" cy="192.26" r="2.78"/><circle class="cls-3" cx="54.9" cy="192.26" r="2.78"/><circle class="cls-3" cx="62.44" cy="192.26" r="2.78"/><circle class="cls-3" cx="69.99" cy="192.26" r="2.78"/><circle class="cls-3" cx="77.53" cy="192.26" r="2.78"/><circle class="cls-3" cx="85.08" cy="192.26" r="2.78"/><circle class="cls-3" cx="92.63" cy="198.74" r="2.78"/><circle class="cls-3" cx="100.17" cy="198.74" r="2.78"/><circle class="cls-3" cx="32.26" cy="198.74" r="2.78"/><circle class="cls-3" cx="39.8" cy="198.74" r="2.78"/><circle class="cls-3" cx="47.35" cy="198.74" r="2.78"/><circle class="cls-3" cx="54.9" cy="198.74" r="2.78"/><circle class="cls-3" cx="62.44" cy="198.74" r="2.78"/><circle class="cls-3" cx="69.99" cy="198.74" r="2.78"/><circle class="cls-3" cx="77.53" cy="198.74" r="2.78"/><circle class="cls-3" cx="85.08" cy="198.74" r="2.78"/><circle class="cls-1" cx="724.79" cy="171.91" r="2.78"/><g class="cls-4"><path d="M732.56,170h.85l1,3.78,1.09-3.78h.72l1.09,3.77,1-3.77h.85l-1.39,4.87H737l-1.12-3.83-1.12,3.83H734Z"/><path d="M740.2,168h.91v1h-.91Zm.06,2h.8v4.87h-.8Z"/><path d="M743,173.6v-2.91h-.76V170H743v-1.12l.8-.7V170h1.25v.68h-1.25v2.93c0,.49.2.66.52.66a1.81,1.81,0,0,0,.63-.09v.69a2.2,2.2,0,0,1-.7.1C743.42,175,743,174.42,743,173.6Z"/><path d="M746.26,168h.8v2.77a1.81,1.81,0,0,1,1.51-.83c1.23,0,1.7.94,1.7,2v3h-.8V172c0-.67-.2-1.33-1-1.33a1.45,1.45,0,0,0-1.42,1.45v2.74h-.8Z"/><path d="M755.51,174.24v.64h-.8V168h.8v2.67a1.75,1.75,0,0,1,1.5-.76c1.28,0,2,1.15,2,2.55s-.7,2.53-2,2.53A1.73,1.73,0,0,1,755.51,174.24Zm2.68-1.79c0-1-.43-1.84-1.38-1.84s-1.36.87-1.36,1.84.41,1.83,1.36,1.83S758.19,173.43,758.19,172.45Z"/><path d="M760.05,172.47A2.36,2.36,0,1,1,762.4,175,2.38,2.38,0,0,1,760.05,172.47Zm3.81,0c0-.95-.41-1.82-1.46-1.82s-1.46.87-1.46,1.82.41,1.81,1.46,1.81S763.86,173.42,763.86,172.47Z"/><path d="M766.31,173.6v-2.91h-.76V170h.76v-1.12l.8-.7V170h1.25v.68h-1.25v2.93c0,.49.2.66.52.66a1.81,1.81,0,0,0,.63-.09v.69a2.2,2.2,0,0,1-.7.1C766.69,175,766.31,174.42,766.31,173.6Z"/><path d="M769.53,168h.8v2.77a1.81,1.81,0,0,1,1.51-.83c1.23,0,1.7.94,1.7,2v3h-.8V172c0-.67-.2-1.33-1-1.33a1.45,1.45,0,0,0-1.42,1.45v2.74h-.8Z"/><path d="M779.07,174.83,777.2,170h.88l1.39,3.9,1.37-3.9h.88l-2.64,7h-.83Z"/><path d="M782.37,172.48a2.24,2.24,0,0,1,2.15-2.53c1.62,0,2.1,1.23,2.1,2.57a1.8,1.8,0,0,1,0,.2h-3.39a1.39,1.39,0,0,0,1.39,1.52,1.73,1.73,0,0,0,1.36-.51l.54.43a2.38,2.38,0,0,1-1.89.78A2.22,2.22,0,0,1,782.37,172.48Zm3.49-.4a1.29,1.29,0,0,0-1.34-1.43,1.32,1.32,0,0,0-1.31,1.43Z"/><path d="M787.52,173.53c0-1,.75-1.45,1.8-1.45h1.48c0-.9-.31-1.45-1.22-1.45a1.56,1.56,0,0,0-1.27.7l-.6-.45a2.19,2.19,0,0,1,1.91-.95,1.78,1.78,0,0,1,1.91,2v3h-.65l-.06-.84a1.87,1.87,0,0,1-1.73.94A1.47,1.47,0,0,1,787.52,173.53Zm3.28-.81h-1.41c-.59,0-1,.29-1,.81s.45.75.95.75A1.57,1.57,0,0,0,790.8,172.72Z"/><path d="M793.06,170h.81v.89a1.44,1.44,0,0,1,1.34-1,1.52,1.52,0,0,1,.87.25l-.3.66a.93.93,0,0,0-.62-.21c-.85,0-1.3,1-1.3,2.16v2.08h-.8Z"/><path d="M799.13,173.53c0-1,.75-1.45,1.8-1.45h1.48c0-.9-.31-1.45-1.22-1.45a1.56,1.56,0,0,0-1.27.7l-.6-.45a2.19,2.19,0,0,1,1.91-.95,1.78,1.78,0,0,1,1.91,2v3h-.65l-.06-.84a1.87,1.87,0,0,1-1.73.94A1.47,1.47,0,0,1,799.13,173.53Zm3.28-.81H801c-.59,0-1,.29-1,.81s.45.75.95.75A1.57,1.57,0,0,0,802.41,172.72Z"/><path d="M804.76,170h.8v.75a1.81,1.81,0,0,1,1.51-.83c1.23,0,1.7.94,1.7,2v3H808V172c0-.67-.2-1.33-1-1.33a1.45,1.45,0,0,0-1.42,1.45v2.74h-.8Z"/><path d="M810,172.45c0-1.4.7-2.54,2-2.54a1.74,1.74,0,0,1,1.5.75V168h.8v6.89h-.8v-.64a1.73,1.73,0,0,1-1.5.74C810.72,175,810,173.85,810,172.45Zm3.53,0c0-1-.4-1.8-1.35-1.8s-1.38.83-1.38,1.8.43,1.8,1.38,1.8S813.55,173.43,813.55,172.45Z"/><path d="M818.57,172.45c0-1.4.7-2.54,2-2.54a1.74,1.74,0,0,1,1.5.75V168h.8v6.89h-.8v-.64a1.73,1.73,0,0,1-1.5.74C819.27,175,818.57,173.85,818.57,172.45Zm3.53,0c0-1-.4-1.8-1.35-1.8s-1.38.83-1.38,1.8.43,1.8,1.38,1.8S822.1,173.43,822.1,172.45Z"/><path d="M824.33,172.47a2.36,2.36,0,1,1,2.35,2.51A2.38,2.38,0,0,1,824.33,172.47Zm3.81,0c0-.95-.41-1.82-1.46-1.82s-1.46.87-1.46,1.82.41,1.81,1.46,1.81S828.14,173.42,828.14,172.47Z"/><path d="M830.45,170h.8v.75a1.81,1.81,0,0,1,1.51-.83c1.23,0,1.7.94,1.7,2v3h-.8V172c0-.67-.2-1.33-1-1.33a1.45,1.45,0,0,0-1.42,1.45v2.74h-.8Z"/><path d="M835.67,172.47A2.36,2.36,0,1,1,838,175,2.38,2.38,0,0,1,835.67,172.47Zm3.81,0c0-.95-.41-1.82-1.46-1.82s-1.46.87-1.46,1.82.41,1.81,1.46,1.81S839.48,173.42,839.48,172.47Z"/><path d="M841.7,170h.81v.89a1.44,1.44,0,0,1,1.34-1,1.52,1.52,0,0,1,.87.25l-.3.66a.93.93,0,0,0-.62-.21c-.85,0-1.3,1-1.3,2.16v2.08h-.8Z"/></g><circle class="cls-2" cx="724.79" cy="185.67" r="2.78"/><g class="cls-4"><path d="M732.56,183.77h.85l1,3.79,1.09-3.79h.72l1.09,3.78,1-3.78h.85l-1.39,4.88H737l-1.12-3.84-1.12,3.84H734Z"/><path d="M740.2,181.72h.91v1h-.91Zm.06,2.05h.8v4.88h-.8Z"/><path d="M743,187.36v-2.91h-.76v-.68H743v-1.12l.8-.7v1.82h1.25v.68h-1.25v2.93c0,.49.2.67.52.67a1.65,1.65,0,0,0,.63-.1v.7a2.2,2.2,0,0,1-.7.1C743.42,188.75,743,188.19,743,187.36Z"/><path d="M746.26,181.75h.8v2.77a1.81,1.81,0,0,1,1.51-.83c1.23,0,1.7.94,1.7,2v3h-.8v-2.87c0-.67-.2-1.33-1-1.33a1.45,1.45,0,0,0-1.42,1.45v2.75h-.8Z"/><path d="M755.8,188.6l-1.87-4.83h.88l1.39,3.9,1.37-3.9h.88l-2.64,7H755Z"/><path d="M759.1,186.24a2.24,2.24,0,0,1,2.15-2.53c1.62,0,2.1,1.23,2.1,2.57a1.8,1.8,0,0,1,0,.2h-3.39a1.39,1.39,0,0,0,1.39,1.52,1.7,1.7,0,0,0,1.36-.51l.54.44a2.38,2.38,0,0,1-1.89.78A2.22,2.22,0,0,1,759.1,186.24Zm3.49-.4a1.29,1.29,0,0,0-1.34-1.43,1.32,1.32,0,0,0-1.31,1.43Z"/><path d="M764.25,187.29c0-1,.75-1.45,1.8-1.45h1.48c0-.9-.31-1.45-1.22-1.45a1.56,1.56,0,0,0-1.27.7l-.6-.45a2.19,2.19,0,0,1,1.91-.95,1.78,1.78,0,0,1,1.91,2v3h-.65l-.06-.84a1.89,1.89,0,0,1-1.73.94A1.48,1.48,0,0,1,764.25,187.29Zm3.28-.81h-1.41c-.59,0-1,.29-1,.81s.45.75.95.75A1.56,1.56,0,0,0,767.53,186.48Z"/><path d="M769.79,183.77h.81v.89a1.44,1.44,0,0,1,1.34-1,1.52,1.52,0,0,1,.87.25l-.3.66a.93.93,0,0,0-.62-.21c-.85,0-1.3,1-1.3,2.16v2.09h-.8Z"/><path d="M777.14,188v.65h-.8v-6.9h.8v2.67a1.75,1.75,0,0,1,1.5-.76c1.28,0,2,1.15,2,2.55s-.7,2.54-2,2.54A1.74,1.74,0,0,1,777.14,188Zm2.68-1.79c0-1-.43-1.84-1.38-1.84s-1.36.87-1.36,1.84.41,1.83,1.36,1.83S779.82,187.19,779.82,186.21Z"/><path d="M782,186.67v-2.9h.8v2.9c0,.67.19,1.39,1,1.39a1.51,1.51,0,0,0,1.43-1.51v-2.78h.8v4.88h-.8v-.78a1.79,1.79,0,0,1-1.51.89C782.46,188.76,782,187.77,782,186.67Z"/><path d="M788,187.36v-2.91h-.76v-.68H788v-1.12l.8-.7v1.82H790v.68h-1.25v2.93c0,.49.2.67.52.67a1.65,1.65,0,0,0,.63-.1v.7a2.2,2.2,0,0,1-.7.1C788.35,188.75,788,188.19,788,187.36Z"/><path d="M793.94,183.77h.8v.75a1.81,1.81,0,0,1,1.51-.83c1.23,0,1.7.94,1.7,2v3h-.8v-2.87c0-.67-.2-1.33-1-1.33a1.45,1.45,0,0,0-1.42,1.45v2.75h-.8Z"/><path d="M799.16,186.23a2.36,2.36,0,1,1,2.35,2.52A2.38,2.38,0,0,1,799.16,186.23Zm3.81,0c0-.95-.41-1.82-1.46-1.82s-1.46.87-1.46,1.82.41,1.82,1.46,1.82S803,187.18,803,186.23Z"/><path d="M807.65,186.21c0-1.4.7-2.54,2-2.54a1.74,1.74,0,0,1,1.5.75v-2.67h.8v6.9h-.8V188a1.74,1.74,0,0,1-1.5.75C808.35,188.75,807.65,187.61,807.65,186.21Zm3.53,0c0-1-.4-1.8-1.35-1.8s-1.38.83-1.38,1.8.43,1.81,1.38,1.81S811.18,187.19,811.18,186.21Z"/><path d="M813.41,186.23a2.36,2.36,0,1,1,2.35,2.52A2.38,2.38,0,0,1,813.41,186.23Zm3.81,0c0-.95-.41-1.82-1.46-1.82s-1.46.87-1.46,1.82.41,1.82,1.46,1.82S817.22,187.18,817.22,186.23Z"/><path d="M819.53,183.77h.8v.75a1.81,1.81,0,0,1,1.51-.83c1.23,0,1.7.94,1.7,2v3h-.8v-2.87c0-.67-.2-1.33-1-1.33a1.45,1.45,0,0,0-1.42,1.45v2.75h-.8Z"/><path d="M824.75,186.23a2.36,2.36,0,1,1,2.35,2.52A2.38,2.38,0,0,1,824.75,186.23Zm3.81,0c0-.95-.41-1.82-1.46-1.82s-1.46.87-1.46,1.82.41,1.82,1.46,1.82S828.56,187.18,828.56,186.23Z"/><path d="M830.78,183.77h.81v.89a1.44,1.44,0,0,1,1.34-1,1.52,1.52,0,0,1,.87.25l-.3.66a.93.93,0,0,0-.62-.21c-.85,0-1.3,1-1.3,2.16v2.09h-.8Z"/></g><circle class="cls-3" cx="724.79" cy="198.64" r="2.78"/><g class="cls-4"><path d="M732.56,196.74h.85l1,3.79,1.09-3.79h.72l1.09,3.78,1-3.78h.85l-1.39,4.88H737l-1.12-3.84-1.12,3.84H734Z"/><path d="M740.2,194.69h.91v1h-.91Zm.06,2.05h.8v4.88h-.8Z"/><path d="M743,200.33v-2.91h-.76v-.68H743v-1.12l.8-.7v1.82h1.25v.68h-1.25v2.93c0,.49.2.67.52.67a1.65,1.65,0,0,0,.63-.1v.7a2.2,2.2,0,0,1-.7.1C743.42,201.72,743,201.16,743,200.33Z"/><path d="M746.26,194.72h.8v2.77a1.81,1.81,0,0,1,1.51-.83c1.23,0,1.7.94,1.7,2v3h-.8v-2.87c0-.67-.2-1.33-1-1.33a1.45,1.45,0,0,0-1.42,1.45v2.75h-.8Z"/><path d="M754.65,196.74h.8v.75a1.81,1.81,0,0,1,1.51-.83c1.23,0,1.7.94,1.7,2v3h-.8v-2.87c0-.67-.2-1.33-1-1.33a1.45,1.45,0,0,0-1.42,1.45v2.75h-.8Z"/><path d="M759.87,199.2a2.36,2.36,0,1,1,2.35,2.52A2.38,2.38,0,0,1,759.87,199.2Zm3.81,0c0-.95-.41-1.82-1.46-1.82s-1.46.87-1.46,1.82.41,1.82,1.46,1.82S763.68,200.15,763.68,199.2Z"/><path d="M769.89,201.57,768,196.74h.88l1.39,3.9,1.37-3.9h.88l-2.64,7h-.83Z"/><path d="M773.19,199.21a2.24,2.24,0,0,1,2.15-2.53c1.62,0,2.1,1.23,2.1,2.57a1.8,1.8,0,0,1,0,.2H774a1.39,1.39,0,0,0,1.39,1.52,1.7,1.7,0,0,0,1.36-.51l.54.44a2.38,2.38,0,0,1-1.89.78A2.22,2.22,0,0,1,773.19,199.21Zm3.49-.4a1.29,1.29,0,0,0-1.34-1.43,1.32,1.32,0,0,0-1.31,1.43Z"/><path d="M778.34,200.26c0-1,.75-1.45,1.8-1.45h1.48c0-.9-.31-1.45-1.22-1.45a1.56,1.56,0,0,0-1.27.7l-.6-.45a2.19,2.19,0,0,1,1.91-1,1.78,1.78,0,0,1,1.91,2v3h-.65l-.06-.84a1.89,1.89,0,0,1-1.73.94A1.48,1.48,0,0,1,778.34,200.26Zm3.28-.81h-1.41c-.59,0-1.05.29-1.05.81s.45.75,1,.75A1.56,1.56,0,0,0,781.62,199.45Z"/><path d="M783.88,196.74h.81v.89a1.44,1.44,0,0,1,1.34-1,1.52,1.52,0,0,1,.87.25l-.3.66a.93.93,0,0,0-.62-.21c-.85,0-1.3,1-1.3,2.16v2.09h-.8Z"/></g><circle class="cls-1" cx="313.91" cy="140.37" r="2.78"/><circle class="cls-1" cx="321.45" cy="140.37" r="2.78"/><circle class="cls-1" cx="329" cy="140.37" r="2.78"/><circle class="cls-1" cx="336.54" cy="140.37" r="2.78"/><circle class="cls-1" cx="344.09" cy="140.37" r="2.78"/><circle class="cls-1" cx="351.64" cy="140.37" r="2.78"/><circle class="cls-1" cx="359.18" cy="140.37" r="2.78"/><circle class="cls-1" cx="366.73" cy="140.37" r="2.78"/><circle class="cls-1" cx="374.27" cy="140.37" r="2.78"/><circle class="cls-1" cx="381.82" cy="140.37" r="2.78"/><circle class="cls-1" cx="313.91" cy="146.86" r="2.78"/><circle class="cls-1" cx="321.45" cy="146.86" r="2.78"/><circle class="cls-1" cx="329" cy="146.86" r="2.78"/><circle class="cls-1" cx="336.54" cy="146.86" r="2.78"/><circle class="cls-1" cx="344.09" cy="146.86" r="2.78"/><circle class="cls-1" cx="351.64" cy="146.86" r="2.78"/><circle class="cls-1" cx="359.18" cy="146.86" r="2.78"/><circle class="cls-1" cx="366.73" cy="146.86" r="2.78"/><circle class="cls-1" cx="374.27" cy="146.86" r="2.78"/><circle class="cls-1" cx="381.82" cy="146.86" r="2.78"/><circle class="cls-1" cx="313.91" cy="153.34" r="2.78"/><circle class="cls-1" cx="321.45" cy="153.34" r="2.78"/><circle class="cls-1" cx="329" cy="153.34" r="2.78"/><circle class="cls-1" cx="336.54" cy="153.34" r="2.78"/><circle class="cls-1" cx="344.09" cy="153.34" r="2.78"/><circle class="cls-1" cx="351.64" cy="153.34" r="2.78"/><circle class="cls-1" cx="359.18" cy="153.34" r="2.78"/><circle class="cls-1" cx="366.73" cy="153.34" r="2.78"/><circle class="cls-2" cx="374.27" cy="153.34" r="2.78"/><circle class="cls-2" cx="381.82" cy="153.34" r="2.78"/><circle class="cls-2" cx="313.91" cy="159.83" r="2.78"/><circle class="cls-2" cx="321.45" cy="159.83" r="2.78"/><circle class="cls-2" cx="329" cy="159.83" r="2.78"/><circle class="cls-2" cx="336.54" cy="159.83" r="2.78"/><circle class="cls-2" cx="344.09" cy="159.83" r="2.78"/><circle class="cls-2" cx="351.64" cy="159.83" r="2.78"/><circle class="cls-2" cx="359.18" cy="159.83" r="2.78"/><circle class="cls-2" cx="366.73" cy="159.83" r="2.78"/><circle class="cls-2" cx="374.27" cy="159.83" r="2.78"/><circle class="cls-2" cx="381.82" cy="159.83" r="2.78"/><circle class="cls-2" cx="313.91" cy="166.31" r="2.78"/><circle class="cls-2" cx="321.45" cy="166.31" r="2.78"/><circle class="cls-2" cx="329" cy="166.31" r="2.78"/><circle class="cls-3" cx="336.54" cy="166.31" r="2.78"/><circle class="cls-3" cx="344.09" cy="166.31" r="2.78"/><circle class="cls-3" cx="351.64" cy="166.31" r="2.78"/><circle class="cls-3" cx="359.18" cy="166.31" r="2.78"/><circle class="cls-3" cx="366.73" cy="166.31" r="2.78"/><circle class="cls-3" cx="374.27" cy="166.31" r="2.78"/><circle class="cls-3" cx="381.82" cy="166.31" r="2.78"/><circle class="cls-3" cx="313.91" cy="172.8" r="2.78"/><circle class="cls-3" cx="321.45" cy="172.8" r="2.78"/><circle class="cls-3" cx="329" cy="172.8" r="2.78"/><circle class="cls-3" cx="336.54" cy="172.8" r="2.78"/><circle class="cls-3" cx="344.09" cy="172.8" r="2.78"/><circle class="cls-3" cx="351.64" cy="172.8" r="2.78"/><circle class="cls-3" cx="359.18" cy="172.8" r="2.78"/><circle class="cls-3" cx="366.73" cy="172.8" r="2.78"/><circle class="cls-3" cx="374.27" cy="172.8" r="2.78"/><circle class="cls-3" cx="381.82" cy="172.8" r="2.78"/><circle class="cls-3" cx="313.91" cy="179.29" r="2.78"/><circle class="cls-3" cx="321.45" cy="179.29" r="2.78"/><circle class="cls-3" cx="329" cy="179.29" r="2.78"/><circle class="cls-3" cx="336.54" cy="179.29" r="2.78"/><circle class="cls-3" cx="344.09" cy="179.29" r="2.78"/><circle class="cls-3" cx="351.64" cy="179.29" r="2.78"/><circle class="cls-3" cx="359.18" cy="179.29" r="2.78"/><circle class="cls-3" cx="366.73" cy="179.29" r="2.78"/><circle class="cls-3" cx="374.27" cy="179.29" r="2.78"/><circle class="cls-3" cx="381.82" cy="179.29" r="2.78"/><circle class="cls-3" cx="313.91" cy="185.77" r="2.78"/><circle class="cls-3" cx="321.45" cy="185.77" r="2.78"/><circle class="cls-3" cx="329" cy="185.77" r="2.78"/><circle class="cls-3" cx="336.54" cy="185.77" r="2.78"/><circle class="cls-3" cx="344.09" cy="185.77" r="2.78"/><circle class="cls-3" cx="351.64" cy="185.77" r="2.78"/><circle class="cls-3" cx="359.18" cy="185.77" r="2.78"/><circle class="cls-3" cx="366.73" cy="185.77" r="2.78"/><circle class="cls-3" cx="374.27" cy="185.77" r="2.78"/><circle class="cls-3" cx="381.82" cy="185.77" r="2.78"/><circle class="cls-3" cx="374.27" cy="192.26" r="2.78"/><circle class="cls-3" cx="381.82" cy="192.26" r="2.78"/><circle class="cls-3" cx="313.91" cy="192.26" r="2.78"/><circle class="cls-3" cx="321.45" cy="192.26" r="2.78"/><circle class="cls-3" cx="329" cy="192.26" r="2.78"/><circle class="cls-3" cx="336.54" cy="192.26" r="2.78"/><circle class="cls-3" cx="344.09" cy="192.26" r="2.78"/><circle class="cls-3" cx="351.64" cy="192.26" r="2.78"/><circle class="cls-3" cx="359.18" cy="192.26" r="2.78"/><circle class="cls-3" cx="366.73" cy="192.26" r="2.78"/><circle class="cls-3" cx="374.27" cy="198.74" r="2.78"/><circle class="cls-3" cx="381.82" cy="198.74" r="2.78"/><circle class="cls-3" cx="313.91" cy="198.74" r="2.78"/><circle class="cls-3" cx="321.45" cy="198.74" r="2.78"/><circle class="cls-3" cx="329" cy="198.74" r="2.78"/><circle class="cls-3" cx="336.54" cy="198.74" r="2.78"/><circle class="cls-3" cx="344.09" cy="198.74" r="2.78"/><circle class="cls-3" cx="351.64" cy="198.74" r="2.78"/><circle class="cls-3" cx="359.18" cy="198.74" r="2.78"/><circle class="cls-3" cx="366.73" cy="198.74" r="2.78"/><g class="cls-4"><path d="M311.93,122.38v-4.07h.84v4.07c0,1.25.36,2.13,1.59,2.13s1.6-.88,1.6-2.13v-4.07h.84v4c0,1.76-.71,3-2.44,3S311.93,124.09,311.93,122.38Z"/><path d="M318.12,125.91a1.59,1.59,0,0,1,.09-.53L319,125a1.29,1.29,0,0,1-.83-1,1.72,1.72,0,0,1,.56-1.13,1.7,1.7,0,0,1-.24-.9,1.67,1.67,0,0,1,1.78-1.69,2.12,2.12,0,0,1,.89.2l.8-.7.44.59-.72.53a1.69,1.69,0,0,1,.37,1.07,1.65,1.65,0,0,1-1.78,1.67,2,2,0,0,1-1.05-.28.94.94,0,0,0-.34.61c0,.52.9.49,1.55.52,1,0,2,.1,2,1.31s-1.1,1.65-2.21,1.65S318.12,127.07,318.12,125.91Zm3.65-.06c0-.61-.63-.68-1.32-.68h-.78l-.86.65c0,.13.13.91,1.5.91C320.89,126.72,321.77,126.58,321.77,125.85Zm-.48-3.89a1,1,0,0,0-1-1,1,1,0,1,0,1,1Z"/><path d="M323.29,123.85c0-1,.75-1.45,1.79-1.45h1.48c0-.9-.31-1.45-1.22-1.45a1.54,1.54,0,0,0-1.26.7l-.6-.45a2.19,2.19,0,0,1,1.9-1,1.78,1.78,0,0,1,1.91,2v3h-.65l-.06-.83a1.88,1.88,0,0,1-1.73.93A1.47,1.47,0,0,1,323.29,123.85Zm3.27-.81h-1.41c-.59,0-1,.29-1,.81s.45.75.94.75A1.56,1.56,0,0,0,326.56,123Z"/><path d="M328.92,120.33h.8v.75a1.78,1.78,0,0,1,1.5-.83c1.23,0,1.7.94,1.7,2v3h-.8v-2.86c0-.67-.2-1.33-1-1.33a1.44,1.44,0,0,0-1.41,1.45v2.74h-.8Z"/><path d="M334.18,122.77c0-1.4.7-2.54,2-2.54a1.74,1.74,0,0,1,1.5.75v-2.67h.8v6.89h-.8v-.64a1.73,1.73,0,0,1-1.5.74C334.88,125.3,334.18,124.17,334.18,122.77Zm3.52,0c0-1-.4-1.8-1.35-1.8s-1.37.83-1.37,1.8.43,1.8,1.37,1.8S337.7,123.75,337.7,122.77Z"/><path d="M339.94,123.85c0-1,.75-1.45,1.79-1.45h1.48c0-.9-.31-1.45-1.22-1.45a1.58,1.58,0,0,0-1.27.7l-.59-.45a2.19,2.19,0,0,1,1.9-1,1.78,1.78,0,0,1,1.91,2v3h-.65l-.06-.83a1.88,1.88,0,0,1-1.73.93A1.47,1.47,0,0,1,339.94,123.85Zm3.27-.81H341.8c-.59,0-1,.29-1,.81s.44.75.94.75A1.56,1.56,0,0,0,343.21,123Z"/></g><circle class="cls-1" cx="313.91" cy="40.72" r="2.78"/><circle class="cls-1" cx="321.45" cy="40.72" r="2.78"/><circle class="cls-1" cx="329" cy="40.72" r="2.78"/><circle class="cls-1" cx="336.54" cy="40.72" r="2.78"/><circle class="cls-1" cx="344.09" cy="40.72" r="2.78"/><circle class="cls-1" cx="351.64" cy="40.72" r="2.78"/><circle class="cls-1" cx="359.18" cy="40.72" r="2.78"/><circle class="cls-1" cx="366.73" cy="40.72" r="2.78"/><circle class="cls-1" cx="374.27" cy="40.72" r="2.78"/><circle class="cls-1" cx="381.82" cy="40.72" r="2.78"/><circle class="cls-1" cx="313.91" cy="47.21" r="2.78"/><circle class="cls-1" cx="321.45" cy="47.21" r="2.78"/><circle class="cls-1" cx="329" cy="47.21" r="2.78"/><circle class="cls-1" cx="336.54" cy="47.21" r="2.78"/><circle class="cls-1" cx="344.09" cy="47.21" r="2.78"/><circle class="cls-1" cx="351.64" cy="47.21" r="2.78"/><circle class="cls-1" cx="359.18" cy="47.21" r="2.78"/><circle class="cls-1" cx="366.73" cy="47.21" r="2.78"/><circle class="cls-1" cx="374.27" cy="47.21" r="2.78"/><circle class="cls-1" cx="381.82" cy="47.21" r="2.78"/><circle class="cls-1" cx="313.91" cy="53.69" r="2.78"/><circle class="cls-1" cx="321.45" cy="53.69" r="2.78"/><circle class="cls-1" cx="329" cy="53.69" r="2.78"/><circle class="cls-1" cx="336.54" cy="53.69" r="2.78"/><circle class="cls-1" cx="344.09" cy="53.69" r="2.78"/><circle class="cls-1" cx="351.64" cy="53.69" r="2.78"/><circle class="cls-1" cx="359.18" cy="53.69" r="2.78"/><circle class="cls-1" cx="366.73" cy="53.69" r="2.78"/><circle class="cls-1" cx="374.27" cy="53.69" r="2.78"/><circle class="cls-1" cx="381.82" cy="53.69" r="2.78"/><circle class="cls-1" cx="313.91" cy="60.18" r="2.78"/><circle class="cls-1" cx="321.45" cy="60.18" r="2.78"/><circle class="cls-1" cx="329" cy="60.18" r="2.78"/><circle class="cls-1" cx="336.54" cy="60.18" r="2.78"/><circle class="cls-1" cx="344.09" cy="60.18" r="2.78"/><circle class="cls-1" cx="351.64" cy="60.18" r="2.78"/><circle class="cls-1" cx="359.18" cy="60.18" r="2.78"/><circle class="cls-1" cx="366.73" cy="60.18" r="2.78"/><circle class="cls-1" cx="374.27" cy="60.18" r="2.78"/><circle class="cls-1" cx="381.82" cy="60.18" r="2.78"/><circle class="cls-1" cx="313.91" cy="66.66" r="2.78"/><circle class="cls-1" cx="321.45" cy="66.66" r="2.78"/><circle class="cls-1" cx="329" cy="66.66" r="2.78"/><circle class="cls-1" cx="336.54" cy="66.66" r="2.78"/><circle class="cls-1" cx="344.09" cy="66.66" r="2.78"/><circle class="cls-1" cx="351.64" cy="66.66" r="2.78"/><circle class="cls-1" cx="359.18" cy="66.66" r="2.78"/><circle class="cls-1" cx="366.73" cy="66.66" r="2.78"/><circle class="cls-1" cx="374.27" cy="66.66" r="2.78"/><circle class="cls-1" cx="381.82" cy="66.66" r="2.78"/><circle class="cls-1" cx="313.91" cy="73.15" r="2.78"/><circle class="cls-1" cx="321.45" cy="73.15" r="2.78"/><circle class="cls-1" cx="329" cy="73.15" r="2.78"/><circle class="cls-1" cx="336.54" cy="73.15" r="2.78"/><circle class="cls-1" cx="344.09" cy="73.15" r="2.78"/><circle class="cls-1" cx="351.64" cy="73.15" r="2.78"/><circle class="cls-1" cx="359.18" cy="73.15" r="2.78"/><circle class="cls-1" cx="366.73" cy="73.15" r="2.78"/><circle class="cls-1" cx="374.27" cy="73.15" r="2.78"/><circle class="cls-1" cx="381.82" cy="73.15" r="2.78"/><circle class="cls-1" cx="313.91" cy="79.64" r="2.78"/><circle class="cls-1" cx="321.45" cy="79.64" r="2.78"/><circle class="cls-1" cx="329" cy="79.64" r="2.78"/><circle class="cls-1" cx="336.54" cy="79.64" r="2.78"/><circle class="cls-1" cx="344.09" cy="79.64" r="2.78"/><circle class="cls-1" cx="351.64" cy="79.64" r="2.78"/><circle class="cls-1" cx="359.18" cy="79.64" r="2.78"/><circle class="cls-1" cx="366.73" cy="79.64" r="2.78"/><circle class="cls-1" cx="374.27" cy="79.64" r="2.78"/><circle class="cls-1" cx="381.82" cy="79.64" r="2.78"/><circle class="cls-1" cx="313.91" cy="86.12" r="2.78"/><circle class="cls-2" cx="321.45" cy="86.12" r="2.78"/><circle class="cls-2" cx="329" cy="86.12" r="2.78"/><circle class="cls-2" cx="336.54" cy="86.12" r="2.78"/><circle class="cls-2" cx="344.09" cy="86.12" r="2.78"/><circle class="cls-2" cx="351.64" cy="86.12" r="2.78"/><circle class="cls-2" cx="359.18" cy="86.12" r="2.78"/><circle class="cls-2" cx="366.73" cy="86.12" r="2.78"/><circle class="cls-2" cx="374.27" cy="86.12" r="2.78"/><circle class="cls-2" cx="381.82" cy="86.12" r="2.78"/><circle class="cls-3" cx="374.27" cy="92.61" r="2.78"/><circle class="cls-3" cx="381.82" cy="92.61" r="2.78"/><circle class="cls-3" cx="313.91" cy="92.61" r="2.78"/><circle class="cls-3" cx="321.45" cy="92.61" r="2.78"/><circle class="cls-3" cx="329" cy="92.61" r="2.78"/><circle class="cls-3" cx="336.54" cy="92.61" r="2.78"/><circle class="cls-3" cx="344.09" cy="92.61" r="2.78"/><circle class="cls-3" cx="351.64" cy="92.61" r="2.78"/><circle class="cls-3" cx="359.18" cy="92.61" r="2.78"/><circle class="cls-3" cx="366.73" cy="92.61" r="2.78"/><circle class="cls-3" cx="374.27" cy="99.09" r="2.78"/><circle class="cls-3" cx="381.82" cy="99.09" r="2.78"/><circle class="cls-3" cx="313.91" cy="99.09" r="2.78"/><circle class="cls-3" cx="321.45" cy="99.09" r="2.78"/><circle class="cls-3" cx="329" cy="99.09" r="2.78"/><circle class="cls-3" cx="336.54" cy="99.09" r="2.78"/><circle class="cls-3" cx="344.09" cy="99.09" r="2.78"/><circle class="cls-3" cx="351.64" cy="99.09" r="2.78"/><circle class="cls-3" cx="359.18" cy="99.09" r="2.78"/><circle class="cls-3" cx="366.73" cy="99.09" r="2.78"/><g class="cls-4"><path d="M312.08,18.66h4.48v.74h-3.64v2.34h3.21v.74h-3.21v2.31h3.64v.77h-4.48Z"/><path d="M318.28,24.27V21.36h-.76v-.68h.76V19.56l.8-.7v1.82h1.24v.68h-1.24v2.93c0,.49.2.67.52.67a1.62,1.62,0,0,0,.62-.1v.7a2.2,2.2,0,0,1-.7.1C318.66,25.66,318.28,25.1,318.28,24.27Z"/><path d="M321.5,18.66h.8v2.77a1.79,1.79,0,0,1,1.5-.83c1.23,0,1.7.94,1.7,2v3h-.8V22.69c0-.67-.2-1.33-1-1.33a1.44,1.44,0,0,0-1.41,1.45v2.75h-.8Z"/><path d="M327.09,18.63h.9v1h-.9Zm.06,2.05h.8v4.88h-.8Z"/><path d="M329.37,23.14a2.35,2.35,0,1,1,4.69,0,2.35,2.35,0,1,1-4.69,0Zm3.8,0c0-.95-.41-1.82-1.46-1.82s-1.45.87-1.45,1.82.4,1.82,1.45,1.82S333.17,24.09,333.17,23.14Z"/><path d="M335.51,20.68h.8v.65a1.72,1.72,0,0,1,1.49-.75c1.27,0,2,1.14,2,2.54s-.71,2.54-2,2.54a1.72,1.72,0,0,1-1.49-.75v2.78h-.8ZM339,23.12c0-1-.42-1.83-1.37-1.83s-1.35.86-1.35,1.83S336.64,25,337.6,25,339,24.1,339,23.12Z"/><path d="M341.16,18.63h.9v1h-.9Zm.06,2.05H342v4.88h-.79Z"/><path d="M343.44,24.2c0-1,.75-1.45,1.79-1.45h1.48c0-.9-.31-1.45-1.22-1.45a1.58,1.58,0,0,0-1.27.7l-.59-.45a2.19,2.19,0,0,1,1.9-.95,1.78,1.78,0,0,1,1.91,2v3h-.65l-.06-.84a1.89,1.89,0,0,1-1.73.94A1.47,1.47,0,0,1,343.44,24.2Zm3.27-.81H345.3c-.59,0-1,.29-1,.81s.44.75.94.75A1.56,1.56,0,0,0,346.71,23.39Z"/></g><circle class="cls-1" cx="407.79" cy="40.72" r="2.78"/><circle class="cls-1" cx="415.34" cy="40.72" r="2.78"/><circle class="cls-1" cx="422.88" cy="40.72" r="2.78"/><circle class="cls-1" cx="430.43" cy="40.72" r="2.78"/><circle class="cls-1" cx="437.97" cy="40.72" r="2.78"/><circle class="cls-1" cx="445.52" cy="40.72" r="2.78"/><circle class="cls-1" cx="453.07" cy="40.72" r="2.78"/><circle class="cls-1" cx="460.61" cy="40.72" r="2.78"/><circle class="cls-1" cx="468.16" cy="40.72" r="2.78"/><circle class="cls-1" cx="475.7" cy="40.72" r="2.78"/><circle class="cls-1" cx="407.79" cy="47.21" r="2.78"/><circle class="cls-1" cx="415.34" cy="47.21" r="2.78"/><circle class="cls-1" cx="422.88" cy="47.21" r="2.78"/><circle class="cls-1" cx="430.43" cy="47.21" r="2.78"/><circle class="cls-1" cx="437.97" cy="47.21" r="2.78"/><circle class="cls-1" cx="445.52" cy="47.21" r="2.78"/><circle class="cls-1" cx="453.07" cy="47.21" r="2.78"/><circle class="cls-1" cx="460.61" cy="47.21" r="2.78"/><circle class="cls-1" cx="468.16" cy="47.21" r="2.78"/><circle class="cls-1" cx="475.7" cy="47.21" r="2.78"/><circle class="cls-1" cx="407.79" cy="53.69" r="2.78"/><circle class="cls-1" cx="415.34" cy="53.69" r="2.78"/><circle class="cls-1" cx="422.88" cy="53.69" r="2.78"/><circle class="cls-1" cx="430.43" cy="53.69" r="2.78"/><circle class="cls-1" cx="437.97" cy="53.69" r="2.78"/><circle class="cls-2" cx="445.52" cy="53.69" r="2.78"/><circle class="cls-2" cx="453.07" cy="53.69" r="2.78"/><circle class="cls-2" cx="460.61" cy="53.69" r="2.78"/><circle class="cls-2" cx="468.16" cy="53.69" r="2.78"/><circle class="cls-2" cx="475.7" cy="53.69" r="2.78"/><circle class="cls-2" cx="407.79" cy="60.18" r="2.78"/><circle class="cls-2" cx="415.34" cy="60.18" r="2.78"/><circle class="cls-2" cx="422.88" cy="60.18" r="2.78"/><circle class="cls-2" cx="430.43" cy="60.18" r="2.78"/><circle class="cls-2" cx="437.97" cy="60.18" r="2.78"/><circle class="cls-2" cx="445.52" cy="60.18" r="2.78"/><circle class="cls-2" cx="453.07" cy="60.18" r="2.78"/><circle class="cls-2" cx="460.61" cy="60.18" r="2.78"/><circle class="cls-2" cx="468.16" cy="60.18" r="2.78"/><circle class="cls-2" cx="475.7" cy="60.18" r="2.78"/><circle class="cls-2" cx="407.79" cy="66.66" r="2.78"/><circle class="cls-2" cx="415.34" cy="66.66" r="2.78"/><circle class="cls-2" cx="422.88" cy="66.66" r="2.78"/><circle class="cls-2" cx="430.43" cy="66.66" r="2.78"/><circle class="cls-2" cx="437.97" cy="66.66" r="2.78"/><circle class="cls-2" cx="445.52" cy="66.66" r="2.78"/><circle class="cls-2" cx="453.07" cy="66.66" r="2.78"/><circle class="cls-2" cx="460.61" cy="66.66" r="2.78"/><circle class="cls-2" cx="468.16" cy="66.66" r="2.78"/><circle class="cls-2" cx="475.7" cy="66.66" r="2.78"/><circle class="cls-2" cx="407.79" cy="73.15" r="2.78"/><circle class="cls-2" cx="415.34" cy="73.15" r="2.78"/><circle class="cls-2" cx="422.88" cy="73.15" r="2.78"/><circle class="cls-2" cx="430.43" cy="73.15" r="2.78"/><circle class="cls-2" cx="437.97" cy="73.15" r="2.78"/><circle class="cls-2" cx="445.52" cy="73.15" r="2.78"/><circle class="cls-3" cx="453.07" cy="73.15" r="2.78"/><circle class="cls-3" cx="460.61" cy="73.15" r="2.78"/><circle class="cls-3" cx="468.16" cy="73.15" r="2.78"/><circle class="cls-3" cx="475.7" cy="73.15" r="2.78"/><circle class="cls-3" cx="407.79" cy="79.64" r="2.78"/><circle class="cls-3" cx="415.34" cy="79.64" r="2.78"/><circle class="cls-3" cx="422.88" cy="79.64" r="2.78"/><circle class="cls-3" cx="430.43" cy="79.64" r="2.78"/><circle class="cls-3" cx="437.97" cy="79.64" r="2.78"/><circle class="cls-3" cx="445.52" cy="79.64" r="2.78"/><circle class="cls-3" cx="453.07" cy="79.64" r="2.78"/><circle class="cls-3" cx="460.61" cy="79.64" r="2.78"/><circle class="cls-3" cx="468.16" cy="79.64" r="2.78"/><circle class="cls-3" cx="475.7" cy="79.64" r="2.78"/><circle class="cls-3" cx="407.79" cy="86.12" r="2.78"/><circle class="cls-3" cx="415.34" cy="86.12" r="2.78"/><circle class="cls-3" cx="422.88" cy="86.12" r="2.78"/><circle class="cls-3" cx="430.43" cy="86.12" r="2.78"/><circle class="cls-3" cx="437.97" cy="86.12" r="2.78"/><circle class="cls-3" cx="445.52" cy="86.12" r="2.78"/><circle class="cls-3" cx="453.07" cy="86.12" r="2.78"/><circle class="cls-3" cx="460.61" cy="86.12" r="2.78"/><circle class="cls-3" cx="468.16" cy="86.12" r="2.78"/><circle class="cls-3" cx="475.7" cy="86.12" r="2.78"/><circle class="cls-3" cx="468.16" cy="92.61" r="2.78"/><circle class="cls-3" cx="475.7" cy="92.61" r="2.78"/><circle class="cls-3" cx="407.79" cy="92.61" r="2.78"/><circle class="cls-3" cx="415.34" cy="92.61" r="2.78"/><circle class="cls-3" cx="422.88" cy="92.61" r="2.78"/><circle class="cls-3" cx="430.43" cy="92.61" r="2.78"/><circle class="cls-3" cx="437.97" cy="92.61" r="2.78"/><circle class="cls-3" cx="445.52" cy="92.61" r="2.78"/><circle class="cls-3" cx="453.07" cy="92.61" r="2.78"/><circle class="cls-3" cx="460.61" cy="92.61" r="2.78"/><circle class="cls-3" cx="468.16" cy="99.09" r="2.78"/><circle class="cls-3" cx="475.7" cy="99.09" r="2.78"/><circle class="cls-3" cx="407.79" cy="99.09" r="2.78"/><circle class="cls-3" cx="415.34" cy="99.09" r="2.78"/><circle class="cls-3" cx="422.88" cy="99.09" r="2.78"/><circle class="cls-3" cx="430.43" cy="99.09" r="2.78"/><circle class="cls-3" cx="437.97" cy="99.09" r="2.78"/><circle class="cls-3" cx="445.52" cy="99.09" r="2.78"/><circle class="cls-3" cx="453.07" cy="99.09" r="2.78"/><circle class="cls-3" cx="460.61" cy="99.09" r="2.78"/><g class="cls-4"><path d="M405.41,23.78l.8-.24a1.5,1.5,0,0,0,1.63,1.33c.8,0,1.35-.38,1.35-1.19,0-1.68-3.32-1.25-3.32-3.35a1.79,1.79,0,0,1,1.91-1.77,2.08,2.08,0,0,1,1.94,1.1l-.65.42a1.43,1.43,0,0,0-1.29-.79,1,1,0,0,0-1.08,1c0,1.6,3.32,1.15,3.32,3.37a2,2,0,0,1-2.18,2A2.28,2.28,0,0,1,405.41,23.78Z"/><path d="M411.28,23.58v-2.9h.8v2.9c0,.67.19,1.39,1,1.39a1.51,1.51,0,0,0,1.43-1.51V20.68h.8v4.88h-.8v-.78a1.79,1.79,0,0,1-1.51.89C411.75,25.67,411.28,24.68,411.28,23.58Z"/><path d="M416.74,23.12c0-1.4.7-2.54,2-2.54a1.74,1.74,0,0,1,1.5.75V18.66h.8v6.9h-.8v-.65a1.74,1.74,0,0,1-1.5.75C417.44,25.66,416.74,24.52,416.74,23.12Zm3.53,0c0-1-.4-1.8-1.35-1.8s-1.38.83-1.38,1.8.43,1.81,1.38,1.81S420.27,24.1,420.27,23.12Z"/><path d="M422.5,24.2c0-1,.75-1.45,1.8-1.45h1.48c0-.9-.31-1.45-1.22-1.45a1.56,1.56,0,0,0-1.27.7l-.6-.45a2.19,2.19,0,0,1,1.91-.95,1.78,1.78,0,0,1,1.91,2v3h-.65l-.06-.84a1.89,1.89,0,0,1-1.73.94A1.48,1.48,0,0,1,422.5,24.2Zm3.28-.81h-1.41c-.59,0-1.05.29-1.05.81s.45.75.95.75A1.56,1.56,0,0,0,425.78,23.39Z"/><path d="M428.13,20.68h.8v.75a1.81,1.81,0,0,1,1.51-.83c1.23,0,1.7.94,1.7,2v3h-.8V22.69c0-.67-.2-1.33-1-1.33a1.45,1.45,0,0,0-1.42,1.45v2.75h-.8Z"/></g><circle class="cls-1" cx="501.67" cy="40.72" r="2.78"/><circle class="cls-1" cx="509.22" cy="40.72" r="2.78"/><circle class="cls-1" cx="516.76" cy="40.72" r="2.78"/><circle class="cls-1" cx="524.31" cy="40.72" r="2.78"/><circle class="cls-1" cx="531.86" cy="40.72" r="2.78"/><circle class="cls-1" cx="539.4" cy="40.72" r="2.78"/><circle class="cls-1" cx="546.95" cy="40.72" r="2.78"/><circle class="cls-1" cx="554.49" cy="40.72" r="2.78"/><circle class="cls-1" cx="562.04" cy="40.72" r="2.78"/><circle class="cls-1" cx="569.59" cy="40.72" r="2.78"/><circle class="cls-1" cx="501.67" cy="47.21" r="2.78"/><circle class="cls-1" cx="509.22" cy="47.21" r="2.78"/><circle class="cls-1" cx="516.76" cy="47.21" r="2.78"/><circle class="cls-1" cx="524.31" cy="47.21" r="2.78"/><circle class="cls-1" cx="531.86" cy="47.21" r="2.78"/><circle class="cls-1" cx="539.4" cy="47.21" r="2.78"/><circle class="cls-1" cx="546.95" cy="47.21" r="2.78"/><circle class="cls-1" cx="554.49" cy="47.21" r="2.78"/><circle class="cls-1" cx="562.04" cy="47.21" r="2.78"/><circle class="cls-1" cx="569.59" cy="47.21" r="2.78"/><circle class="cls-1" cx="501.67" cy="53.69" r="2.78"/><circle class="cls-1" cx="509.22" cy="53.69" r="2.78"/><circle class="cls-1" cx="516.76" cy="53.69" r="2.78"/><circle class="cls-1" cx="524.31" cy="53.69" r="2.78"/><circle class="cls-1" cx="531.86" cy="53.69" r="2.78"/><circle class="cls-1" cx="539.4" cy="53.69" r="2.78"/><circle class="cls-1" cx="546.95" cy="53.69" r="2.78"/><circle class="cls-1" cx="554.49" cy="53.69" r="2.78"/><circle class="cls-1" cx="562.04" cy="53.69" r="2.78"/><circle class="cls-1" cx="569.59" cy="53.69" r="2.78"/><circle class="cls-1" cx="501.67" cy="60.18" r="2.78"/><circle class="cls-1" cx="509.22" cy="60.18" r="2.78"/><circle class="cls-1" cx="516.76" cy="60.18" r="2.78"/><circle class="cls-1" cx="524.31" cy="60.18" r="2.78"/><circle class="cls-1" cx="531.86" cy="60.18" r="2.78"/><circle class="cls-1" cx="539.4" cy="60.18" r="2.78"/><circle class="cls-1" cx="546.95" cy="60.18" r="2.78"/><circle class="cls-1" cx="554.49" cy="60.18" r="2.78"/><circle class="cls-1" cx="562.04" cy="60.18" r="2.78"/><circle class="cls-1" cx="569.59" cy="60.18" r="2.78"/><circle class="cls-1" cx="501.67" cy="66.66" r="2.78"/><circle class="cls-1" cx="509.22" cy="66.66" r="2.78"/><circle class="cls-1" cx="516.76" cy="66.66" r="2.78"/><circle class="cls-1" cx="524.31" cy="66.66" r="2.78"/><circle class="cls-1" cx="531.86" cy="66.66" r="2.78"/><circle class="cls-1" cx="539.4" cy="66.66" r="2.78"/><circle class="cls-1" cx="546.95" cy="66.66" r="2.78"/><circle class="cls-1" cx="554.49" cy="66.66" r="2.78"/><circle class="cls-1" cx="562.04" cy="66.66" r="2.78"/><circle class="cls-1" cx="569.59" cy="66.66" r="2.78"/><circle class="cls-1" cx="501.67" cy="73.15" r="2.78"/><circle class="cls-1" cx="509.22" cy="73.15" r="2.78"/><circle class="cls-1" cx="516.76" cy="73.15" r="2.78"/><circle class="cls-1" cx="524.31" cy="73.15" r="2.78"/><circle class="cls-1" cx="531.86" cy="73.15" r="2.78"/><circle class="cls-2" cx="539.4" cy="73.15" r="2.78"/><circle class="cls-2" cx="546.95" cy="73.15" r="2.78"/><circle class="cls-2" cx="554.49" cy="73.15" r="2.78"/><circle class="cls-2" cx="562.04" cy="73.15" r="2.78"/><circle class="cls-2" cx="569.59" cy="73.15" r="2.78"/><circle class="cls-2" cx="501.67" cy="79.64" r="2.78"/><circle class="cls-2" cx="509.22" cy="79.64" r="2.78"/><circle class="cls-2" cx="516.76" cy="79.64" r="2.78"/><circle class="cls-2" cx="524.31" cy="79.64" r="2.78"/><circle class="cls-2" cx="531.86" cy="79.64" r="2.78"/><circle class="cls-2" cx="539.4" cy="79.64" r="2.78"/><circle class="cls-2" cx="546.95" cy="79.64" r="2.78"/><circle class="cls-2" cx="554.49" cy="79.64" r="2.78"/><circle class="cls-2" cx="562.04" cy="79.64" r="2.78"/><circle class="cls-3" cx="569.59" cy="79.64" r="2.78"/><circle class="cls-3" cx="501.67" cy="86.12" r="2.78"/><circle class="cls-3" cx="509.22" cy="86.12" r="2.78"/><circle class="cls-3" cx="516.76" cy="86.12" r="2.78"/><circle class="cls-3" cx="524.31" cy="86.12" r="2.78"/><circle class="cls-3" cx="531.86" cy="86.12" r="2.78"/><circle class="cls-3" cx="539.4" cy="86.12" r="2.78"/><circle class="cls-3" cx="546.95" cy="86.12" r="2.78"/><circle class="cls-3" cx="554.49" cy="86.12" r="2.78"/><circle class="cls-3" cx="562.04" cy="86.12" r="2.78"/><circle class="cls-3" cx="569.59" cy="86.12" r="2.78"/><circle class="cls-3" cx="562.04" cy="92.61" r="2.78"/><circle class="cls-3" cx="569.59" cy="92.61" r="2.78"/><circle class="cls-3" cx="501.67" cy="92.61" r="2.78"/><circle class="cls-3" cx="509.22" cy="92.61" r="2.78"/><circle class="cls-3" cx="516.76" cy="92.61" r="2.78"/><circle class="cls-3" cx="524.31" cy="92.61" r="2.78"/><circle class="cls-3" cx="531.86" cy="92.61" r="2.78"/><circle class="cls-3" cx="539.4" cy="92.61" r="2.78"/><circle class="cls-3" cx="546.95" cy="92.61" r="2.78"/><circle class="cls-3" cx="554.49" cy="92.61" r="2.78"/><circle class="cls-3" cx="562.04" cy="99.09" r="2.78"/><circle class="cls-3" cx="569.59" cy="99.09" r="2.78"/><circle class="cls-3" cx="501.67" cy="99.09" r="2.78"/><circle class="cls-3" cx="509.22" cy="99.09" r="2.78"/><circle class="cls-3" cx="516.76" cy="99.09" r="2.78"/><circle class="cls-3" cx="524.31" cy="99.09" r="2.78"/><circle class="cls-3" cx="531.86" cy="99.09" r="2.78"/><circle class="cls-3" cx="539.4" cy="99.09" r="2.78"/><circle class="cls-3" cx="546.95" cy="99.09" r="2.78"/><circle class="cls-3" cx="554.49" cy="99.09" r="2.78"/><g class="cls-4"><path d="M499.86,18.66h2a2,2,0,0,1,2.21,1.84,1.69,1.69,0,0,1-.87,1.42,1.9,1.9,0,0,1,1.21,1.73,2,2,0,0,1-2.2,1.91h-2.33Zm2,3c.72,0,1.34-.31,1.34-1.06a1.22,1.22,0,0,0-1.34-1.17h-1.17v2.23Zm.35,3.13a1.24,1.24,0,0,0,1.34-1.2,1.21,1.21,0,0,0-1.34-1.17h-1.52v2.37Z"/><path d="M505.65,23.58v-2.9h.8v2.9c0,.67.19,1.39,1,1.39a1.51,1.51,0,0,0,1.43-1.51V20.68h.8v4.88h-.8v-.78a1.79,1.79,0,0,1-1.51.89C506.12,25.67,505.65,24.68,505.65,23.58Z"/><path d="M511.4,20.68h.81v.89a1.44,1.44,0,0,1,1.34-1,1.52,1.52,0,0,1,.87.25l-.3.66a.93.93,0,0,0-.62-.21c-.85,0-1.3,1-1.3,2.16v2.09h-.8Z"/><path d="M515,23.58v-2.9h.8v2.9c0,.67.19,1.39,1,1.39a1.51,1.51,0,0,0,1.43-1.51V20.68h.8v4.88h-.8v-.78a1.79,1.79,0,0,1-1.51.89C515.5,25.67,515,24.68,515,23.58Z"/><path d="M520.87,20.68h.8v.75a1.81,1.81,0,0,1,1.51-.83c1.23,0,1.7.94,1.7,2v3h-.8V22.69c0-.67-.2-1.33-1-1.33a1.45,1.45,0,0,0-1.42,1.45v2.75h-.8Z"/><path d="M526.13,23.12c0-1.4.7-2.54,2-2.54a1.74,1.74,0,0,1,1.5.75V18.66h.8v6.9h-.8v-.65a1.74,1.74,0,0,1-1.5.75C526.83,25.66,526.13,24.52,526.13,23.12Zm3.53,0c0-1-.4-1.8-1.35-1.8s-1.38.83-1.38,1.8.43,1.81,1.38,1.81S529.66,24.1,529.66,23.12Z"/><path d="M532.26,18.63h.91v1h-.91Zm.06,2.05h.8v4.88h-.8Z"/></g><circle class="cls-1" cx="595.56" cy="40.72" r="2.78"/><circle class="cls-1" cx="603.1" cy="40.72" r="2.78"/><circle class="cls-1" cx="610.65" cy="40.72" r="2.78"/><circle class="cls-1" cx="618.19" cy="40.72" r="2.78"/><circle class="cls-1" cx="625.74" cy="40.72" r="2.78"/><circle class="cls-1" cx="633.29" cy="40.72" r="2.78"/><circle class="cls-1" cx="640.83" cy="40.72" r="2.78"/><circle class="cls-1" cx="648.38" cy="40.72" r="2.78"/><circle class="cls-1" cx="655.92" cy="40.72" r="2.78"/><circle class="cls-1" cx="663.47" cy="40.72" r="2.78"/><circle class="cls-1" cx="595.56" cy="47.21" r="2.78"/><circle class="cls-1" cx="603.1" cy="47.21" r="2.78"/><circle class="cls-1" cx="610.65" cy="47.21" r="2.78"/><circle class="cls-1" cx="618.19" cy="47.21" r="2.78"/><circle class="cls-1" cx="625.74" cy="47.21" r="2.78"/><circle class="cls-1" cx="633.29" cy="47.21" r="2.78"/><circle class="cls-1" cx="640.83" cy="47.21" r="2.78"/><circle class="cls-1" cx="648.38" cy="47.21" r="2.78"/><circle class="cls-1" cx="655.92" cy="47.21" r="2.78"/><circle class="cls-1" cx="663.47" cy="47.21" r="2.78"/><circle class="cls-1" cx="595.56" cy="53.69" r="2.78"/><circle class="cls-1" cx="603.1" cy="53.69" r="2.78"/><circle class="cls-1" cx="610.65" cy="53.69" r="2.78"/><circle class="cls-1" cx="618.19" cy="53.69" r="2.78"/><circle class="cls-1" cx="625.74" cy="53.69" r="2.78"/><circle class="cls-1" cx="633.29" cy="53.69" r="2.78"/><circle class="cls-1" cx="640.83" cy="53.69" r="2.78"/><circle class="cls-1" cx="648.38" cy="53.69" r="2.78"/><circle class="cls-1" cx="655.92" cy="53.69" r="2.78"/><circle class="cls-1" cx="663.47" cy="53.69" r="2.78"/><circle class="cls-1" cx="595.56" cy="60.18" r="2.78"/><circle class="cls-1" cx="603.1" cy="60.18" r="2.78"/><circle class="cls-1" cx="610.65" cy="60.18" r="2.78"/><circle class="cls-1" cx="618.19" cy="60.18" r="2.78"/><circle class="cls-1" cx="625.74" cy="60.18" r="2.78"/><circle class="cls-1" cx="633.29" cy="60.18" r="2.78"/><circle class="cls-1" cx="640.83" cy="60.18" r="2.78"/><circle class="cls-1" cx="648.38" cy="60.18" r="2.78"/><circle class="cls-1" cx="655.92" cy="60.18" r="2.78"/><circle class="cls-1" cx="663.47" cy="60.18" r="2.78"/><circle class="cls-1" cx="595.56" cy="66.66" r="2.78"/><circle class="cls-1" cx="603.1" cy="66.66" r="2.78"/><circle class="cls-1" cx="610.65" cy="66.66" r="2.78"/><circle class="cls-1" cx="618.19" cy="66.66" r="2.78"/><circle class="cls-1" cx="625.74" cy="66.66" r="2.78"/><circle class="cls-1" cx="633.29" cy="66.66" r="2.78"/><circle class="cls-1" cx="640.83" cy="66.66" r="2.78"/><circle class="cls-1" cx="648.38" cy="66.66" r="2.78"/><circle class="cls-1" cx="655.92" cy="66.66" r="2.78"/><circle class="cls-1" cx="663.47" cy="66.66" r="2.78"/><circle class="cls-1" cx="595.56" cy="73.15" r="2.78"/><circle class="cls-1" cx="603.1" cy="73.15" r="2.78"/><circle class="cls-1" cx="610.65" cy="73.15" r="2.78"/><circle class="cls-1" cx="618.19" cy="73.15" r="2.78"/><circle class="cls-1" cx="625.74" cy="73.15" r="2.78"/><circle class="cls-1" cx="633.29" cy="73.15" r="2.78"/><circle class="cls-1" cx="640.83" cy="73.15" r="2.78"/><circle class="cls-1" cx="648.38" cy="73.15" r="2.78"/><circle class="cls-1" cx="655.92" cy="73.15" r="2.78"/><circle class="cls-1" cx="663.47" cy="73.15" r="2.78"/><circle class="cls-1" cx="595.56" cy="79.64" r="2.78"/><circle class="cls-1" cx="603.1" cy="79.64" r="2.78"/><circle class="cls-1" cx="610.65" cy="79.64" r="2.78"/><circle class="cls-2" cx="618.19" cy="79.64" r="2.78"/><circle class="cls-2" cx="625.74" cy="79.64" r="2.78"/><circle class="cls-2" cx="633.29" cy="79.64" r="2.78"/><circle class="cls-2" cx="640.83" cy="79.64" r="2.78"/><circle class="cls-2" cx="648.38" cy="79.64" r="2.78"/><circle class="cls-2" cx="655.92" cy="79.64" r="2.78"/><circle class="cls-2" cx="663.47" cy="79.64" r="2.78"/><circle class="cls-2" cx="595.56" cy="86.12" r="2.78"/><circle class="cls-2" cx="603.1" cy="86.12" r="2.78"/><circle class="cls-2" cx="610.65" cy="86.12" r="2.78"/><circle class="cls-2" cx="618.19" cy="86.12" r="2.78"/><circle class="cls-2" cx="625.74" cy="86.12" r="2.78"/><circle class="cls-3" cx="633.29" cy="86.12" r="2.78"/><circle class="cls-3" cx="640.83" cy="86.12" r="2.78"/><circle class="cls-3" cx="648.38" cy="86.12" r="2.78"/><circle class="cls-3" cx="655.92" cy="86.12" r="2.78"/><circle class="cls-3" cx="663.47" cy="86.12" r="2.78"/><circle class="cls-3" cx="655.92" cy="92.61" r="2.78"/><circle class="cls-3" cx="663.47" cy="92.61" r="2.78"/><circle class="cls-3" cx="595.56" cy="92.61" r="2.78"/><circle class="cls-3" cx="603.1" cy="92.61" r="2.78"/><circle class="cls-3" cx="610.65" cy="92.61" r="2.78"/><circle class="cls-3" cx="618.19" cy="92.61" r="2.78"/><circle class="cls-3" cx="625.74" cy="92.61" r="2.78"/><circle class="cls-3" cx="633.29" cy="92.61" r="2.78"/><circle class="cls-3" cx="640.83" cy="92.61" r="2.78"/><circle class="cls-3" cx="648.38" cy="92.61" r="2.78"/><circle class="cls-3" cx="655.92" cy="99.09" r="2.78"/><circle class="cls-3" cx="663.47" cy="99.09" r="2.78"/><circle class="cls-3" cx="595.56" cy="99.09" r="2.78"/><circle class="cls-3" cx="603.1" cy="99.09" r="2.78"/><circle class="cls-3" cx="610.65" cy="99.09" r="2.78"/><circle class="cls-3" cx="618.19" cy="99.09" r="2.78"/><circle class="cls-3" cx="625.74" cy="99.09" r="2.78"/><circle class="cls-3" cx="633.29" cy="99.09" r="2.78"/><circle class="cls-3" cx="640.83" cy="99.09" r="2.78"/><circle class="cls-3" cx="648.38" cy="99.09" r="2.78"/><g class="cls-4"><path d="M593.74,18.66h2a2,2,0,0,1,2.21,1.84,1.69,1.69,0,0,1-.87,1.42,1.9,1.9,0,0,1,1.21,1.73,2,2,0,0,1-2.2,1.91h-2.33Zm2,3c.72,0,1.34-.31,1.34-1.06a1.22,1.22,0,0,0-1.34-1.17h-1.17v2.23Zm.35,3.13a1.24,1.24,0,0,0,1.34-1.2,1.21,1.21,0,0,0-1.34-1.17h-1.52v2.37Z"/><path d="M599.22,24.2c0-1,.75-1.45,1.8-1.45h1.48c0-.9-.31-1.45-1.22-1.45A1.56,1.56,0,0,0,600,22l-.6-.45a2.19,2.19,0,0,1,1.91-.95,1.78,1.78,0,0,1,1.91,2v3h-.65l-.06-.84a1.89,1.89,0,0,1-1.73.94A1.48,1.48,0,0,1,599.22,24.2Zm3.28-.81h-1.41c-.59,0-1.05.29-1.05.81s.45.75,1,.75A1.56,1.56,0,0,0,602.5,23.39Z"/><path d="M604.85,20.68h.8v.75a1.81,1.81,0,0,1,1.51-.83c1.23,0,1.7.94,1.7,2v3h-.8V22.69c0-.67-.2-1.33-1-1.33a1.45,1.45,0,0,0-1.42,1.45v2.75h-.8Z"/><path d="M610.08,26.27a1.52,1.52,0,0,1,.09-.53l.83-.35a1.33,1.33,0,0,1-.83-1.05,1.72,1.72,0,0,1,.56-1.13,1.7,1.7,0,0,1-.24-.9,1.67,1.67,0,0,1,1.78-1.69,2.13,2.13,0,0,1,.9.2l.8-.7.44.59-.72.53a1.69,1.69,0,0,1,.37,1.07A1.65,1.65,0,0,1,612.27,24a2,2,0,0,1-1-.28.94.94,0,0,0-.34.61c0,.52.9.5,1.56.52,1,0,2,.11,2,1.32s-1.1,1.64-2.21,1.64S610.08,27.42,610.08,26.27Zm3.66-.07c0-.6-.63-.67-1.32-.67-.26,0-.54,0-.79,0l-.86.65c0,.13.13.91,1.51.91C612.86,27.07,613.74,26.93,613.74,26.2Zm-.48-3.89a1,1,0,1,0-2,0,1,1,0,1,0,2,0Z"/><path d="M615.68,24.57V18.66h.8v6s0,.29.27.29a2.42,2.42,0,0,0,.44-.05v.65a2.54,2.54,0,0,1-.67.1C615.8,25.66,615.68,25.2,615.68,24.57Z"/><path d="M618,24.2c0-1,.75-1.45,1.8-1.45h1.48c0-.9-.31-1.45-1.22-1.45a1.56,1.56,0,0,0-1.27.7l-.6-.45a2.19,2.19,0,0,1,1.91-.95,1.78,1.78,0,0,1,1.91,2v3h-.65l-.06-.84a1.89,1.89,0,0,1-1.73.94A1.48,1.48,0,0,1,618,24.2Zm3.28-.81h-1.41c-.59,0-1,.29-1,.81s.45.75.95.75A1.56,1.56,0,0,0,621.32,23.39Z"/><path d="M623.29,23.12c0-1.4.7-2.54,2-2.54a1.74,1.74,0,0,1,1.5.75V18.66h.8v6.9h-.8v-.65a1.74,1.74,0,0,1-1.5.75C624,25.66,623.29,24.52,623.29,23.12Zm3.53,0c0-1-.4-1.8-1.35-1.8s-1.38.83-1.38,1.8.43,1.81,1.38,1.81S626.82,24.1,626.82,23.12Z"/><path d="M629.05,23.15a2.24,2.24,0,0,1,2.15-2.53c1.62,0,2.1,1.23,2.1,2.57a1.8,1.8,0,0,1,0,.2h-3.39a1.39,1.39,0,0,0,1.39,1.52,1.7,1.7,0,0,0,1.36-.51l.54.44a2.38,2.38,0,0,1-1.89.78A2.22,2.22,0,0,1,629.05,23.15Zm3.49-.4a1.29,1.29,0,0,0-1.34-1.43,1.32,1.32,0,0,0-1.31,1.43Z"/><path d="M634.1,24.43l.66-.34a1.25,1.25,0,0,0,1.18.87c.5,0,.95-.22.95-.77,0-1.19-2.61-.38-2.61-2.19a1.46,1.46,0,0,1,1.56-1.39,1.83,1.83,0,0,1,1.65,1l-.61.35a1.09,1.09,0,0,0-1-.62c-.45,0-.82.22-.82.66,0,1,2.64.27,2.64,2.18a1.58,1.58,0,0,1-1.72,1.51A1.9,1.9,0,0,1,634.1,24.43Z"/><path d="M639,18.66h.8v2.77a1.81,1.81,0,0,1,1.51-.83c1.23,0,1.7.94,1.7,2v3h-.8V22.69c0-.67-.2-1.33-1-1.33a1.45,1.45,0,0,0-1.42,1.45v2.75H639Z"/></g><circle class="cls-1" cx="689.44" cy="40.72" r="2.78"/><circle class="cls-1" cx="696.98" cy="40.72" r="2.78"/><circle class="cls-1" cx="704.53" cy="40.72" r="2.78"/><circle class="cls-1" cx="712.08" cy="40.72" r="2.78"/><circle class="cls-1" cx="719.62" cy="40.72" r="2.78"/><circle class="cls-1" cx="727.17" cy="40.72" r="2.78"/><circle class="cls-1" cx="734.71" cy="40.72" r="2.78"/><circle class="cls-1" cx="742.26" cy="40.72" r="2.78"/><circle class="cls-1" cx="749.81" cy="40.72" r="2.78"/><circle class="cls-1" cx="757.35" cy="40.72" r="2.78"/><circle class="cls-1" cx="689.44" cy="47.21" r="2.78"/><circle class="cls-1" cx="696.98" cy="47.21" r="2.78"/><circle class="cls-1" cx="704.53" cy="47.21" r="2.78"/><circle class="cls-1" cx="712.08" cy="47.21" r="2.78"/><circle class="cls-1" cx="719.62" cy="47.21" r="2.78"/><circle class="cls-1" cx="727.17" cy="47.21" r="2.78"/><circle class="cls-1" cx="734.71" cy="47.21" r="2.78"/><circle class="cls-1" cx="742.26" cy="47.21" r="2.78"/><circle class="cls-1" cx="749.81" cy="47.21" r="2.78"/><circle class="cls-1" cx="757.35" cy="47.21" r="2.78"/><circle class="cls-1" cx="689.44" cy="53.69" r="2.78"/><circle class="cls-1" cx="696.98" cy="53.69" r="2.78"/><circle class="cls-1" cx="704.53" cy="53.69" r="2.78"/><circle class="cls-1" cx="712.08" cy="53.69" r="2.78"/><circle class="cls-1" cx="719.62" cy="53.69" r="2.78"/><circle class="cls-1" cx="727.17" cy="53.69" r="2.78"/><circle class="cls-1" cx="734.71" cy="53.69" r="2.78"/><circle class="cls-1" cx="742.26" cy="53.69" r="2.78"/><circle class="cls-1" cx="749.81" cy="53.69" r="2.78"/><circle class="cls-1" cx="757.35" cy="53.69" r="2.78"/><circle class="cls-1" cx="689.44" cy="60.18" r="2.78"/><circle class="cls-1" cx="696.98" cy="60.18" r="2.78"/><circle class="cls-1" cx="704.53" cy="60.18" r="2.78"/><circle class="cls-1" cx="712.08" cy="60.18" r="2.78"/><circle class="cls-1" cx="719.62" cy="60.18" r="2.78"/><circle class="cls-1" cx="727.17" cy="60.18" r="2.78"/><circle class="cls-1" cx="734.71" cy="60.18" r="2.78"/><circle class="cls-1" cx="742.26" cy="60.18" r="2.78"/><circle class="cls-1" cx="749.81" cy="60.18" r="2.78"/><circle class="cls-1" cx="757.35" cy="60.18" r="2.78"/><circle class="cls-1" cx="689.44" cy="66.66" r="2.78"/><circle class="cls-1" cx="696.98" cy="66.66" r="2.78"/><circle class="cls-1" cx="704.53" cy="66.66" r="2.78"/><circle class="cls-1" cx="712.08" cy="66.66" r="2.78"/><circle class="cls-1" cx="719.62" cy="66.66" r="2.78"/><circle class="cls-1" cx="727.17" cy="66.66" r="2.78"/><circle class="cls-1" cx="734.71" cy="66.66" r="2.78"/><circle class="cls-1" cx="742.26" cy="66.66" r="2.78"/><circle class="cls-1" cx="749.81" cy="66.66" r="2.78"/><circle class="cls-1" cx="757.35" cy="66.66" r="2.78"/><circle class="cls-1" cx="689.44" cy="73.15" r="2.78"/><circle class="cls-1" cx="696.98" cy="73.15" r="2.78"/><circle class="cls-1" cx="704.53" cy="73.15" r="2.78"/><circle class="cls-1" cx="712.08" cy="73.15" r="2.78"/><circle class="cls-1" cx="719.62" cy="73.15" r="2.78"/><circle class="cls-1" cx="727.17" cy="73.15" r="2.78"/><circle class="cls-1" cx="734.71" cy="73.15" r="2.78"/><circle class="cls-1" cx="742.26" cy="73.15" r="2.78"/><circle class="cls-1" cx="749.81" cy="73.15" r="2.78"/><circle class="cls-1" cx="757.35" cy="73.15" r="2.78"/><circle class="cls-1" cx="689.44" cy="79.64" r="2.78"/><circle class="cls-1" cx="696.98" cy="79.64" r="2.78"/><circle class="cls-2" cx="704.53" cy="79.64" r="2.78"/><circle class="cls-2" cx="712.08" cy="79.64" r="2.78"/><circle class="cls-2" cx="719.62" cy="79.64" r="2.78"/><circle class="cls-2" cx="727.17" cy="79.64" r="2.78"/><circle class="cls-2" cx="734.71" cy="79.64" r="2.78"/><circle class="cls-2" cx="742.26" cy="79.64" r="2.78"/><circle class="cls-2" cx="749.81" cy="79.64" r="2.78"/><circle class="cls-2" cx="757.35" cy="79.64" r="2.78"/><circle class="cls-2" cx="689.44" cy="86.12" r="2.78"/><circle class="cls-2" cx="696.98" cy="86.12" r="2.78"/><circle class="cls-3" cx="704.53" cy="86.12" r="2.78"/><circle class="cls-3" cx="712.08" cy="86.12" r="2.78"/><circle class="cls-3" cx="719.62" cy="86.12" r="2.78"/><circle class="cls-3" cx="727.17" cy="86.12" r="2.78"/><circle class="cls-3" cx="734.71" cy="86.12" r="2.78"/><circle class="cls-3" cx="742.26" cy="86.12" r="2.78"/><circle class="cls-3" cx="749.81" cy="86.12" r="2.78"/><circle class="cls-3" cx="757.35" cy="86.12" r="2.78"/><circle class="cls-3" cx="749.81" cy="92.61" r="2.78"/><circle class="cls-3" cx="757.35" cy="92.61" r="2.78"/><circle class="cls-3" cx="689.44" cy="92.61" r="2.78"/><circle class="cls-3" cx="696.98" cy="92.61" r="2.78"/><circle class="cls-3" cx="704.53" cy="92.61" r="2.78"/><circle class="cls-3" cx="712.08" cy="92.61" r="2.78"/><circle class="cls-3" cx="719.62" cy="92.61" r="2.78"/><circle class="cls-3" cx="727.17" cy="92.61" r="2.78"/><circle class="cls-3" cx="734.71" cy="92.61" r="2.78"/><circle class="cls-3" cx="742.26" cy="92.61" r="2.78"/><circle class="cls-3" cx="749.81" cy="99.09" r="2.78"/><circle class="cls-3" cx="757.35" cy="99.09" r="2.78"/><circle class="cls-3" cx="689.44" cy="99.09" r="2.78"/><circle class="cls-3" cx="696.98" cy="99.09" r="2.78"/><circle class="cls-3" cx="704.53" cy="99.09" r="2.78"/><circle class="cls-3" cx="712.08" cy="99.09" r="2.78"/><circle class="cls-3" cx="719.62" cy="99.09" r="2.78"/><circle class="cls-3" cx="727.17" cy="99.09" r="2.78"/><circle class="cls-3" cx="734.71" cy="99.09" r="2.78"/><circle class="cls-3" cx="742.26" cy="99.09" r="2.78"/><g class="cls-4"><path d="M687.61,18.66h4.48v.74h-3.64v2.34h3.21v.74h-3.21v2.31h3.64v.77h-4.48Z"/><path d="M693.26,26.27a1.52,1.52,0,0,1,.09-.53l.83-.35a1.31,1.31,0,0,1-.83-1.05,1.72,1.72,0,0,1,.56-1.13,1.7,1.7,0,0,1-.24-.9,1.67,1.67,0,0,1,1.78-1.69,2.13,2.13,0,0,1,.9.2l.8-.7.43.59-.71.53a1.75,1.75,0,0,1,.37,1.07A1.65,1.65,0,0,1,695.45,24a2,2,0,0,1-1.05-.28.94.94,0,0,0-.34.61c0,.52.9.5,1.56.52,1,0,2,.11,2,1.32s-1.09,1.64-2.2,1.64S693.26,27.42,693.26,26.27Zm3.65-.07c0-.6-.62-.67-1.31-.67-.26,0-.54,0-.79,0l-.86.65c0,.13.13.91,1.51.91C696,27.07,696.91,26.93,696.91,26.2Zm-.47-3.89a1,1,0,1,0-2,0,1,1,0,1,0,2,0Z"/><path d="M700,25.51l-1.87-4.83H699l1.39,3.9,1.37-3.9h.88l-2.64,7h-.83Z"/><path d="M703.74,20.68h.8v.65a1.73,1.73,0,0,1,1.5-.75c1.26,0,2,1.14,2,2.54s-.71,2.54-2,2.54a1.73,1.73,0,0,1-1.5-.75v2.78h-.8Zm3.46,2.44c0-1-.42-1.83-1.36-1.83s-1.36.86-1.36,1.83.4,1.83,1.36,1.83S707.2,24.1,707.2,23.12Z"/><path d="M709.58,24.27V21.36h-.76v-.68h.76V19.56l.8-.7v1.82h1.25v.68h-1.25v2.93c0,.49.2.67.52.67a1.65,1.65,0,0,0,.63-.1v.7a2.2,2.2,0,0,1-.7.1C710,25.66,709.58,25.1,709.58,24.27Z"/></g><circle class="cls-1" cx="783.32" cy="40.72" r="2.78"/><circle class="cls-1" cx="790.87" cy="40.72" r="2.78"/><circle class="cls-1" cx="798.41" cy="40.72" r="2.78"/><circle class="cls-1" cx="805.96" cy="40.72" r="2.78"/><circle class="cls-1" cx="813.51" cy="40.72" r="2.78"/><circle class="cls-1" cx="821.05" cy="40.72" r="2.78"/><circle class="cls-1" cx="828.6" cy="40.72" r="2.78"/><circle class="cls-1" cx="836.14" cy="40.72" r="2.78"/><circle class="cls-1" cx="843.69" cy="40.72" r="2.78"/><circle class="cls-1" cx="851.24" cy="40.72" r="2.78"/><circle class="cls-1" cx="783.32" cy="47.21" r="2.78"/><circle class="cls-1" cx="790.87" cy="47.21" r="2.78"/><circle class="cls-1" cx="798.41" cy="47.21" r="2.78"/><circle class="cls-1" cx="805.96" cy="47.21" r="2.78"/><circle class="cls-1" cx="813.51" cy="47.21" r="2.78"/><circle class="cls-1" cx="821.05" cy="47.21" r="2.78"/><circle class="cls-1" cx="828.6" cy="47.21" r="2.78"/><circle class="cls-1" cx="836.14" cy="47.21" r="2.78"/><circle class="cls-1" cx="843.69" cy="47.21" r="2.78"/><circle class="cls-1" cx="851.24" cy="47.21" r="2.78"/><circle class="cls-1" cx="783.32" cy="53.69" r="2.78"/><circle class="cls-1" cx="790.87" cy="53.69" r="2.78"/><circle class="cls-1" cx="798.41" cy="53.69" r="2.78"/><circle class="cls-1" cx="805.96" cy="53.69" r="2.78"/><circle class="cls-1" cx="813.51" cy="53.69" r="2.78"/><circle class="cls-1" cx="821.05" cy="53.69" r="2.78"/><circle class="cls-1" cx="828.6" cy="53.69" r="2.78"/><circle class="cls-1" cx="836.14" cy="53.69" r="2.78"/><circle class="cls-1" cx="843.69" cy="53.69" r="2.78"/><circle class="cls-1" cx="851.24" cy="53.69" r="2.78"/><circle class="cls-1" cx="783.32" cy="60.18" r="2.78"/><circle class="cls-1" cx="790.87" cy="60.18" r="2.78"/><circle class="cls-1" cx="798.41" cy="60.18" r="2.78"/><circle class="cls-1" cx="805.96" cy="60.18" r="2.78"/><circle class="cls-1" cx="813.51" cy="60.18" r="2.78"/><circle class="cls-1" cx="821.05" cy="60.18" r="2.78"/><circle class="cls-1" cx="828.6" cy="60.18" r="2.78"/><circle class="cls-1" cx="836.14" cy="60.18" r="2.78"/><circle class="cls-1" cx="843.69" cy="60.18" r="2.78"/><circle class="cls-1" cx="851.24" cy="60.18" r="2.78"/><circle class="cls-1" cx="783.32" cy="66.66" r="2.78"/><circle class="cls-1" cx="790.87" cy="66.66" r="2.78"/><circle class="cls-1" cx="798.41" cy="66.66" r="2.78"/><circle class="cls-1" cx="805.96" cy="66.66" r="2.78"/><circle class="cls-1" cx="813.51" cy="66.66" r="2.78"/><circle class="cls-1" cx="821.05" cy="66.66" r="2.78"/><circle class="cls-1" cx="828.6" cy="66.66" r="2.78"/><circle class="cls-1" cx="836.14" cy="66.66" r="2.78"/><circle class="cls-1" cx="843.69" cy="66.66" r="2.78"/><circle class="cls-1" cx="851.24" cy="66.66" r="2.78"/><circle class="cls-1" cx="783.32" cy="73.15" r="2.78"/><circle class="cls-1" cx="790.87" cy="73.15" r="2.78"/><circle class="cls-1" cx="798.41" cy="73.15" r="2.78"/><circle class="cls-1" cx="805.96" cy="73.15" r="2.78"/><circle class="cls-1" cx="813.51" cy="73.15" r="2.78"/><circle class="cls-1" cx="821.05" cy="73.15" r="2.78"/><circle class="cls-1" cx="828.6" cy="73.15" r="2.78"/><circle class="cls-1" cx="836.14" cy="73.15" r="2.78"/><circle class="cls-1" cx="843.69" cy="73.15" r="2.78"/><circle class="cls-1" cx="851.24" cy="73.15" r="2.78"/><circle class="cls-1" cx="783.32" cy="79.64" r="2.78"/><circle class="cls-2" cx="790.87" cy="79.64" r="2.78"/><circle class="cls-2" cx="798.41" cy="79.64" r="2.78"/><circle class="cls-2" cx="805.96" cy="79.64" r="2.78"/><circle class="cls-2" cx="813.51" cy="79.64" r="2.78"/><circle class="cls-2" cx="821.05" cy="79.64" r="2.78"/><circle class="cls-2" cx="828.6" cy="79.64" r="2.78"/><circle class="cls-2" cx="836.14" cy="79.64" r="2.78"/><circle class="cls-2" cx="843.69" cy="79.64" r="2.78"/><circle class="cls-3" cx="851.24" cy="79.64" r="2.78"/><circle class="cls-3" cx="783.32" cy="86.12" r="2.78"/><circle class="cls-3" cx="790.87" cy="86.12" r="2.78"/><circle class="cls-3" cx="798.41" cy="86.12" r="2.78"/><circle class="cls-3" cx="805.96" cy="86.12" r="2.78"/><circle class="cls-3" cx="813.51" cy="86.12" r="2.78"/><circle class="cls-3" cx="821.05" cy="86.12" r="2.78"/><circle class="cls-3" cx="828.6" cy="86.12" r="2.78"/><circle class="cls-3" cx="836.14" cy="86.12" r="2.78"/><circle class="cls-3" cx="843.69" cy="86.12" r="2.78"/><circle class="cls-3" cx="851.24" cy="86.12" r="2.78"/><circle class="cls-3" cx="843.69" cy="92.61" r="2.78"/><circle class="cls-3" cx="851.24" cy="92.61" r="2.78"/><circle class="cls-3" cx="783.32" cy="92.61" r="2.78"/><circle class="cls-3" cx="790.87" cy="92.61" r="2.78"/><circle class="cls-3" cx="798.41" cy="92.61" r="2.78"/><circle class="cls-3" cx="805.96" cy="92.61" r="2.78"/><circle class="cls-3" cx="813.51" cy="92.61" r="2.78"/><circle class="cls-3" cx="821.05" cy="92.61" r="2.78"/><circle class="cls-3" cx="828.6" cy="92.61" r="2.78"/><circle class="cls-3" cx="836.14" cy="92.61" r="2.78"/><circle class="cls-3" cx="843.69" cy="99.09" r="2.78"/><circle class="cls-3" cx="851.24" cy="99.09" r="2.78"/><circle class="cls-3" cx="783.32" cy="99.09" r="2.78"/><circle class="cls-3" cx="790.87" cy="99.09" r="2.78"/><circle class="cls-3" cx="798.41" cy="99.09" r="2.78"/><circle class="cls-3" cx="805.96" cy="99.09" r="2.78"/><circle class="cls-3" cx="813.51" cy="99.09" r="2.78"/><circle class="cls-3" cx="821.05" cy="99.09" r="2.78"/><circle class="cls-3" cx="828.6" cy="99.09" r="2.78"/><circle class="cls-3" cx="836.14" cy="99.09" r="2.78"/><g class="cls-4"><path d="M781.49,18.66h.84v6.13h2.95v.77h-3.79Z"/><path d="M786.13,23.15a2.24,2.24,0,0,1,2.15-2.53c1.62,0,2.1,1.23,2.1,2.57a1.8,1.8,0,0,1,0,.2H787a1.39,1.39,0,0,0,1.39,1.52,1.7,1.7,0,0,0,1.36-.51l.54.44a2.38,2.38,0,0,1-1.89.78A2.22,2.22,0,0,1,786.13,23.15Zm3.49-.4a1.29,1.29,0,0,0-1.34-1.43A1.32,1.32,0,0,0,787,22.75Z"/><path d="M792.56,24.91v.65h-.8v-6.9h.8v2.67a1.75,1.75,0,0,1,1.5-.76c1.28,0,2,1.15,2,2.55s-.7,2.54-2,2.54A1.74,1.74,0,0,1,792.56,24.91Zm2.68-1.79c0-1-.43-1.84-1.38-1.84s-1.36.87-1.36,1.84.41,1.83,1.36,1.83S795.24,24.1,795.24,23.12Z"/><path d="M797.1,24.2c0-1,.75-1.45,1.8-1.45h1.48c0-.9-.31-1.45-1.22-1.45a1.56,1.56,0,0,0-1.27.7l-.6-.45a2.19,2.19,0,0,1,1.91-.95,1.78,1.78,0,0,1,1.91,2v3h-.65l-.06-.84a1.89,1.89,0,0,1-1.73.94A1.48,1.48,0,0,1,797.1,24.2Zm3.28-.81H799c-.59,0-1.05.29-1.05.81s.45.75,1,.75A1.56,1.56,0,0,0,800.38,23.39Z"/><path d="M802.73,20.68h.8v.75A1.81,1.81,0,0,1,805,20.6c1.23,0,1.7.94,1.7,2v3h-.8V22.69c0-.67-.2-1.33-1-1.33a1.45,1.45,0,0,0-1.42,1.45v2.75h-.8Z"/><path d="M808,23.14a2.36,2.36,0,1,1,4.7,0,2.36,2.36,0,1,1-4.7,0Zm3.81,0c0-.95-.41-1.82-1.46-1.82s-1.46.87-1.46,1.82S809.25,25,810.3,25,811.76,24.09,811.76,23.14Z"/><path d="M814.07,20.68h.8v.75a1.81,1.81,0,0,1,1.51-.83c1.23,0,1.7.94,1.7,2v3h-.8V22.69c0-.67-.2-1.33-1-1.33a1.45,1.45,0,0,0-1.42,1.45v2.75h-.8Z"/></g><circle class="cls-1" cx="126.14" cy="40.72" r="2.78"/><circle class="cls-1" cx="133.69" cy="40.72" r="2.78"/><circle class="cls-1" cx="141.23" cy="40.72" r="2.78"/><circle class="cls-1" cx="148.78" cy="40.72" r="2.78"/><circle class="cls-1" cx="156.32" cy="40.72" r="2.78"/><circle class="cls-1" cx="163.87" cy="40.72" r="2.78"/><circle class="cls-1" cx="171.42" cy="40.72" r="2.78"/><circle class="cls-1" cx="178.96" cy="40.72" r="2.78"/><circle class="cls-1" cx="186.51" cy="40.72" r="2.78"/><circle class="cls-1" cx="194.05" cy="40.72" r="2.78"/><circle class="cls-1" cx="126.14" cy="47.21" r="2.78"/><circle class="cls-1" cx="133.69" cy="47.21" r="2.78"/><circle class="cls-1" cx="141.23" cy="47.21" r="2.78"/><circle class="cls-1" cx="148.78" cy="47.21" r="2.78"/><circle class="cls-1" cx="156.32" cy="47.21" r="2.78"/><circle class="cls-1" cx="163.87" cy="47.21" r="2.78"/><circle class="cls-1" cx="171.42" cy="47.21" r="2.78"/><circle class="cls-1" cx="178.96" cy="47.21" r="2.78"/><circle class="cls-1" cx="186.51" cy="47.21" r="2.78"/><circle class="cls-1" cx="194.05" cy="47.21" r="2.78"/><circle class="cls-1" cx="126.14" cy="53.69" r="2.78"/><circle class="cls-1" cx="133.69" cy="53.69" r="2.78"/><circle class="cls-1" cx="141.23" cy="53.69" r="2.78"/><circle class="cls-1" cx="148.78" cy="53.69" r="2.78"/><circle class="cls-1" cx="156.32" cy="53.69" r="2.78"/><circle class="cls-1" cx="163.87" cy="53.69" r="2.78"/><circle class="cls-1" cx="171.42" cy="53.69" r="2.78"/><circle class="cls-1" cx="178.96" cy="53.69" r="2.78"/><circle class="cls-1" cx="186.51" cy="53.69" r="2.78"/><circle class="cls-1" cx="194.05" cy="53.69" r="2.78"/><circle class="cls-1" cx="126.14" cy="60.18" r="2.78"/><circle class="cls-1" cx="133.69" cy="60.18" r="2.78"/><circle class="cls-1" cx="141.23" cy="60.18" r="2.78"/><circle class="cls-1" cx="148.78" cy="60.18" r="2.78"/><circle class="cls-1" cx="156.32" cy="60.18" r="2.78"/><circle class="cls-1" cx="163.87" cy="60.18" r="2.78"/><circle class="cls-1" cx="171.42" cy="60.18" r="2.78"/><circle class="cls-2" cx="178.96" cy="60.18" r="2.78"/><circle class="cls-2" cx="186.51" cy="60.18" r="2.78"/><circle class="cls-2" cx="194.05" cy="60.18" r="2.78"/><circle class="cls-2" cx="126.14" cy="66.66" r="2.78"/><circle class="cls-2" cx="133.69" cy="66.66" r="2.78"/><circle class="cls-2" cx="141.23" cy="66.66" r="2.78"/><circle class="cls-2" cx="148.78" cy="66.66" r="2.78"/><circle class="cls-2" cx="156.32" cy="66.66" r="2.78"/><circle class="cls-2" cx="163.87" cy="66.66" r="2.78"/><circle class="cls-2" cx="171.42" cy="66.66" r="2.78"/><circle class="cls-2" cx="178.96" cy="66.66" r="2.78"/><circle class="cls-2" cx="186.51" cy="66.66" r="2.78"/><circle class="cls-2" cx="194.05" cy="66.66" r="2.78"/><circle class="cls-2" cx="126.14" cy="73.15" r="2.78"/><circle class="cls-2" cx="133.69" cy="73.15" r="2.78"/><circle class="cls-2" cx="141.23" cy="73.15" r="2.78"/><circle class="cls-2" cx="148.78" cy="73.15" r="2.78"/><circle class="cls-2" cx="156.32" cy="73.15" r="2.78"/><circle class="cls-2" cx="163.87" cy="73.15" r="2.78"/><circle class="cls-2" cx="171.42" cy="73.15" r="2.78"/><circle class="cls-3" cx="178.96" cy="73.15" r="2.78"/><circle class="cls-3" cx="186.51" cy="73.15" r="2.78"/><circle class="cls-3" cx="194.05" cy="73.15" r="2.78"/><circle class="cls-3" cx="126.14" cy="79.64" r="2.78"/><circle class="cls-3" cx="133.69" cy="79.64" r="2.78"/><circle class="cls-3" cx="141.23" cy="79.64" r="2.78"/><circle class="cls-3" cx="148.78" cy="79.64" r="2.78"/><circle class="cls-3" cx="156.32" cy="79.64" r="2.78"/><circle class="cls-3" cx="163.87" cy="79.64" r="2.78"/><circle class="cls-3" cx="171.42" cy="79.64" r="2.78"/><circle class="cls-3" cx="178.96" cy="79.64" r="2.78"/><circle class="cls-3" cx="186.51" cy="79.64" r="2.78"/><circle class="cls-3" cx="194.05" cy="79.64" r="2.78"/><circle class="cls-3" cx="126.14" cy="86.12" r="2.78"/><circle class="cls-3" cx="133.69" cy="86.12" r="2.78"/><circle class="cls-3" cx="141.23" cy="86.12" r="2.78"/><circle class="cls-3" cx="148.78" cy="86.12" r="2.78"/><circle class="cls-3" cx="156.32" cy="86.12" r="2.78"/><circle class="cls-3" cx="163.87" cy="86.12" r="2.78"/><circle class="cls-3" cx="171.42" cy="86.12" r="2.78"/><circle class="cls-3" cx="178.96" cy="86.12" r="2.78"/><circle class="cls-3" cx="186.51" cy="86.12" r="2.78"/><circle class="cls-3" cx="194.05" cy="86.12" r="2.78"/><circle class="cls-3" cx="186.51" cy="92.61" r="2.78"/><circle class="cls-3" cx="194.05" cy="92.61" r="2.78"/><circle class="cls-3" cx="126.14" cy="92.61" r="2.78"/><circle class="cls-3" cx="133.69" cy="92.61" r="2.78"/><circle class="cls-3" cx="141.23" cy="92.61" r="2.78"/><circle class="cls-3" cx="148.78" cy="92.61" r="2.78"/><circle class="cls-3" cx="156.32" cy="92.61" r="2.78"/><circle class="cls-3" cx="163.87" cy="92.61" r="2.78"/><circle class="cls-3" cx="171.42" cy="92.61" r="2.78"/><circle class="cls-3" cx="178.96" cy="92.61" r="2.78"/><circle class="cls-3" cx="186.51" cy="99.09" r="2.78"/><circle class="cls-3" cx="194.05" cy="99.09" r="2.78"/><circle class="cls-3" cx="126.14" cy="99.09" r="2.78"/><circle class="cls-3" cx="133.69" cy="99.09" r="2.78"/><circle class="cls-3" cx="141.23" cy="99.09" r="2.78"/><circle class="cls-3" cx="148.78" cy="99.09" r="2.78"/><circle class="cls-3" cx="156.32" cy="99.09" r="2.78"/><circle class="cls-3" cx="163.87" cy="99.09" r="2.78"/><circle class="cls-3" cx="171.42" cy="99.09" r="2.78"/><circle class="cls-3" cx="178.96" cy="99.09" r="2.78"/><g class="cls-4"><path d="M124.33,18.66h2a2,2,0,0,1,2.21,1.84,1.69,1.69,0,0,1-.87,1.42,1.9,1.9,0,0,1,1.21,1.73,2,2,0,0,1-2.2,1.91h-2.33Zm2,3c.72,0,1.34-.31,1.34-1.06a1.22,1.22,0,0,0-1.34-1.17h-1.17v2.23Zm.35,3.13a1.24,1.24,0,0,0,1.34-1.2,1.21,1.21,0,0,0-1.34-1.17h-1.52v2.37Z"/><path d="M129.81,23.14a2.36,2.36,0,1,1,4.7,0,2.36,2.36,0,1,1-4.7,0Zm3.81,0c0-.95-.41-1.82-1.46-1.82s-1.46.87-1.46,1.82.41,1.82,1.46,1.82S133.62,24.09,133.62,23.14Z"/><path d="M135.94,24.57V18.66h.8v6s0,.29.27.29a2.42,2.42,0,0,0,.44-.05v.65a2.54,2.54,0,0,1-.67.1C136.06,25.66,135.94,25.2,135.94,24.57Z"/><path d="M138.67,18.63h.91v1h-.91Zm.06,2.05h.8v4.88h-.8Z"/><path d="M140.6,20.68h.87l1.32,3.84,1.33-3.84H145l-1.84,4.88h-.7Z"/><path d="M146,18.63h.91v1H146Zm.06,2.05h.8v4.88h-.8Z"/><path d="M148.28,24.2c0-1,.75-1.45,1.8-1.45h1.48c0-.9-.31-1.45-1.22-1.45a1.56,1.56,0,0,0-1.27.7l-.6-.45a2.19,2.19,0,0,1,1.91-.95,1.78,1.78,0,0,1,1.91,2v3h-.65l-.06-.84a1.89,1.89,0,0,1-1.73.94A1.48,1.48,0,0,1,148.28,24.2Zm3.28-.81h-1.41c-.59,0-1.05.29-1.05.81s.45.75,1,.75A1.56,1.56,0,0,0,151.56,23.39Z"/></g><circle class="cls-1" cx="126.14" cy="140.37" r="2.78"/><circle class="cls-1" cx="133.69" cy="140.37" r="2.78"/><circle class="cls-1" cx="141.23" cy="140.37" r="2.78"/><circle class="cls-1" cx="148.78" cy="140.37" r="2.78"/><circle class="cls-1" cx="156.32" cy="140.37" r="2.78"/><circle class="cls-1" cx="163.87" cy="140.37" r="2.78"/><circle class="cls-1" cx="171.42" cy="140.37" r="2.78"/><circle class="cls-1" cx="178.96" cy="140.37" r="2.78"/><circle class="cls-1" cx="186.51" cy="140.37" r="2.78"/><circle class="cls-1" cx="194.05" cy="140.37" r="2.78"/><circle class="cls-1" cx="126.14" cy="146.86" r="2.78"/><circle class="cls-1" cx="133.69" cy="146.86" r="2.78"/><circle class="cls-1" cx="141.23" cy="146.86" r="2.78"/><circle class="cls-1" cx="148.78" cy="146.86" r="2.78"/><circle class="cls-1" cx="156.32" cy="146.86" r="2.78"/><circle class="cls-1" cx="163.87" cy="146.86" r="2.78"/><circle class="cls-1" cx="171.42" cy="146.86" r="2.78"/><circle class="cls-1" cx="178.96" cy="146.86" r="2.78"/><circle class="cls-1" cx="186.51" cy="146.86" r="2.78"/><circle class="cls-1" cx="194.05" cy="146.86" r="2.78"/><circle class="cls-1" cx="126.14" cy="153.34" r="2.78"/><circle class="cls-1" cx="133.69" cy="153.34" r="2.78"/><circle class="cls-1" cx="141.23" cy="153.34" r="2.78"/><circle class="cls-1" cx="148.78" cy="153.34" r="2.78"/><circle class="cls-1" cx="156.32" cy="153.34" r="2.78"/><circle class="cls-1" cx="163.87" cy="153.34" r="2.78"/><circle class="cls-1" cx="171.42" cy="153.34" r="2.78"/><circle class="cls-1" cx="178.96" cy="153.34" r="2.78"/><circle class="cls-1" cx="186.51" cy="153.34" r="2.78"/><circle class="cls-1" cx="194.05" cy="153.34" r="2.78"/><circle class="cls-1" cx="126.14" cy="159.83" r="2.78"/><circle class="cls-1" cx="133.69" cy="159.83" r="2.78"/><circle class="cls-1" cx="141.23" cy="159.83" r="2.78"/><circle class="cls-1" cx="148.78" cy="159.83" r="2.78"/><circle class="cls-1" cx="156.32" cy="159.83" r="2.78"/><circle class="cls-1" cx="163.87" cy="159.83" r="2.78"/><circle class="cls-1" cx="171.42" cy="159.83" r="2.78"/><circle class="cls-1" cx="178.96" cy="159.83" r="2.78"/><circle class="cls-1" cx="186.51" cy="159.83" r="2.78"/><circle class="cls-1" cx="194.05" cy="159.83" r="2.78"/><circle class="cls-1" cx="126.14" cy="166.31" r="2.78"/><circle class="cls-1" cx="133.69" cy="166.31" r="2.78"/><circle class="cls-1" cx="141.23" cy="166.31" r="2.78"/><circle class="cls-1" cx="148.78" cy="166.31" r="2.78"/><circle class="cls-1" cx="156.32" cy="166.31" r="2.78"/><circle class="cls-1" cx="163.87" cy="166.31" r="2.78"/><circle class="cls-1" cx="171.42" cy="166.31" r="2.78"/><circle class="cls-1" cx="178.96" cy="166.31" r="2.78"/><circle class="cls-1" cx="186.51" cy="166.31" r="2.78"/><circle class="cls-1" cx="194.05" cy="166.31" r="2.78"/><circle class="cls-1" cx="126.14" cy="172.8" r="2.78"/><circle class="cls-1" cx="133.69" cy="172.8" r="2.78"/><circle class="cls-1" cx="141.23" cy="172.8" r="2.78"/><circle class="cls-1" cx="148.78" cy="172.8" r="2.78"/><circle class="cls-1" cx="156.32" cy="172.8" r="2.78"/><circle class="cls-1" cx="163.87" cy="172.8" r="2.78"/><circle class="cls-1" cx="171.42" cy="172.8" r="2.78"/><circle class="cls-1" cx="178.96" cy="172.8" r="2.78"/><circle class="cls-1" cx="186.51" cy="172.8" r="2.78"/><circle class="cls-1" cx="194.05" cy="172.8" r="2.78"/><circle class="cls-1" cx="126.14" cy="179.29" r="2.78"/><circle class="cls-1" cx="133.69" cy="179.29" r="2.78"/><circle class="cls-1" cx="141.23" cy="179.29" r="2.78"/><circle class="cls-1" cx="148.78" cy="179.29" r="2.78"/><circle class="cls-1" cx="156.32" cy="179.29" r="2.78"/><circle class="cls-1" cx="163.87" cy="179.29" r="2.78"/><circle class="cls-1" cx="171.42" cy="179.29" r="2.78"/><circle class="cls-1" cx="178.96" cy="179.29" r="2.78"/><circle class="cls-1" cx="186.51" cy="179.29" r="2.78"/><circle class="cls-1" cx="194.05" cy="179.29" r="2.78"/><circle class="cls-1" cx="126.14" cy="185.77" r="2.78"/><circle class="cls-1" cx="133.69" cy="185.77" r="2.78"/><circle class="cls-2" cx="141.23" cy="185.77" r="2.78"/><circle class="cls-2" cx="148.78" cy="185.77" r="2.78"/><circle class="cls-2" cx="156.32" cy="185.77" r="2.78"/><circle class="cls-2" cx="163.87" cy="185.77" r="2.78"/><circle class="cls-2" cx="171.42" cy="185.77" r="2.78"/><circle class="cls-2" cx="178.96" cy="185.77" r="2.78"/><circle class="cls-3" cx="186.51" cy="185.77" r="2.78"/><circle class="cls-3" cx="194.05" cy="185.77" r="2.78"/><circle class="cls-3" cx="186.51" cy="192.26" r="2.78"/><circle class="cls-3" cx="194.05" cy="192.26" r="2.78"/><circle class="cls-3" cx="126.14" cy="192.26" r="2.78"/><circle class="cls-3" cx="133.69" cy="192.26" r="2.78"/><circle class="cls-3" cx="141.23" cy="192.26" r="2.78"/><circle class="cls-3" cx="148.78" cy="192.26" r="2.78"/><circle class="cls-3" cx="156.32" cy="192.26" r="2.78"/><circle class="cls-3" cx="163.87" cy="192.26" r="2.78"/><circle class="cls-3" cx="171.42" cy="192.26" r="2.78"/><circle class="cls-3" cx="178.96" cy="192.26" r="2.78"/><circle class="cls-3" cx="186.51" cy="198.74" r="2.78"/><circle class="cls-3" cx="194.05" cy="198.74" r="2.78"/><circle class="cls-3" cx="126.14" cy="198.74" r="2.78"/><circle class="cls-3" cx="133.69" cy="198.74" r="2.78"/><circle class="cls-3" cx="141.23" cy="198.74" r="2.78"/><circle class="cls-3" cx="148.78" cy="198.74" r="2.78"/><circle class="cls-3" cx="156.32" cy="198.74" r="2.78"/><circle class="cls-3" cx="163.87" cy="198.74" r="2.78"/><circle class="cls-3" cx="171.42" cy="198.74" r="2.78"/><circle class="cls-3" cx="178.96" cy="198.74" r="2.78"/><g class="cls-4"><path d="M124.26,121.09h.84V128h-.84Z"/><path d="M126.92,123.11h.8v.75a1.81,1.81,0,0,1,1.51-.83c1.23,0,1.7.94,1.7,2v3h-.8v-2.87c0-.67-.2-1.33-1-1.33a1.45,1.45,0,0,0-1.42,1.45V128h-.8Z"/><path d="M132.18,125.55c0-1.4.7-2.54,2-2.54a1.74,1.74,0,0,1,1.5.75v-2.67h.8V128h-.8v-.65a1.73,1.73,0,0,1-1.5.74C132.88,128.08,132.18,127,132.18,125.55Zm3.53,0c0-1-.4-1.8-1.35-1.8s-1.38.83-1.38,1.8.43,1.81,1.38,1.81S135.71,126.53,135.71,125.55Z"/><path d="M138.31,121.06h.91v1h-.91Zm.06,2h.8V128h-.8Z"/><path d="M140.59,126.63c0-1,.75-1.45,1.8-1.45h1.48c0-.9-.31-1.45-1.22-1.45a1.56,1.56,0,0,0-1.27.7l-.6-.45a2.19,2.19,0,0,1,1.91-1,1.78,1.78,0,0,1,1.91,2v3H144l-.06-.84a1.88,1.88,0,0,1-1.73.93A1.47,1.47,0,0,1,140.59,126.63Zm3.28-.81h-1.41c-.59,0-1.05.29-1.05.81s.45.75,1,.75A1.56,1.56,0,0,0,143.87,125.82Z"/></g></g></svg>