<svg id="flowchunks" xmlns="http://www.w3.org/2000/svg" viewBox="0 0 964.29 559.59"><defs><style>.cls-1{fill:#abd5ff;}.cls-1,.cls-2,.cls-3{stroke:#02388e;}.cls-2{fill:#61a9ff;}.cls-3{fill:#e6f4ff;}.cls-4{stroke:#000;}.cls-5{isolation:isolate;}.cls-6{fill:#fff;stroke:#576fff;}</style></defs><path class="cls-1" d="M464.94,423.7h-.09v1.92c104,0,155.8,22.33,207.87,44.73s104.35,44.89,208.54,44.89h.09v-1.92c-104,0-155.81-22.33-207.87-44.73S569.13,423.7,464.94,423.7"/><rect class="cls-1" x="42.35" y="286.05" width="416.5" height="140.03"/><path class="cls-2" d="M42.35,286.05V85.71c101.72,0,151.13-2.38,203.44-4.89s106.53-5.11,213.06-5.11V276.05c-101.72,0-151.13,2.38-203.45,4.89S148.88,286.05,42.35,286.05Z"/><path class="cls-3" d="M458.85,475.71c-104.6,0-157.78-2.56-209.2-5-51-2.44-103.65-5-207.3-5V426.08c104.6,0,157.77,2.56,209.2,5,51,2.44,103.65,5,207.3,5Z"/><path class="cls-1" d="M880.35,466.11c-105.1,0-158.52-12.33-210.18-24.25C619.45,430.15,567,418,463.85,418V400.87c105.1,0,158.52,12.33,210.18,24.26C724.75,436.84,777.2,449,880.35,449Z"/><path class="cls-1" d="M463.85,373.68v-40.8c103.63,0,156.32-2.53,207.27-5,51.43-2.47,104.61-5,209.23-5v40.8c-103.64,0-156.32,2.53-207.27,5C621.65,371.13,568.46,373.68,463.85,373.68Z"/><path class="cls-1" d="M463.85,332.88V286.05c100.25,0,149-16.59,200.71-34.15,53-18,107.79-36.64,215.79-36.64v46.82c-100.25,0-149.05,16.59-200.71,34.16C626.64,314.25,571.85,332.88,463.85,332.88Z"/><path class="cls-1" d="M880.35,503.33c-104.65,0-157.83-20.33-209.26-40-51-19.48-103.64-39.63-207.24-39.63V418c104.65,0,157.83,20.33,209.26,40,50.95,19.48,103.64,39.62,207.24,39.62Z"/><path class="cls-1" d="M880.35,525.71c-46.73,0-87.2-5.1-123.71-15.58-32.56-9.34-59-22-84.64-34.26S620,451,587.43,441.64c-36.47-10.47-76.89-15.56-123.58-15.56v-.45c46.73,0,87.2,5.09,123.71,15.57,32.56,9.35,59,22,84.64,34.26s52,24.9,84.56,34.23c36.48,10.47,76.9,15.56,123.59,15.56Z"/><path class="cls-1" d="M880.35,439c-105.36,0-158.91-9.79-210.7-19.26-52.92-9.68-102.91-18.82-205.8-18.82V373.68c105.36,0,158.91,9.79,210.69,19.26,52.93,9.67,102.92,18.81,205.81,18.81Z"/><path class="cls-2" d="M880.35,312.88c-105.92,0-159.75-9.52-211.8-18.72-52.64-9.31-102.37-18.11-204.7-18.11V235.26c105.91,0,159.74,9.52,211.8,18.72,52.64,9.31,102.36,18.1,204.7,18.1Z"/><path class="cls-2" d="M463.85,186.85V136.57c101.73,0,151.17-9.5,203.51-19.55s106.47-20.45,213-20.45v50.28c-101.73,0-151.17,9.5-203.51,19.55S570.37,186.85,463.85,186.85Z"/><path class="cls-2" d="M463.85,235.26V186.85c102.39,0,152.13-7.16,204.8-14.75,52-7.5,105.84-15.25,211.7-15.25v48.41c-102.39,0-152.14,7.16-204.8,14.75C623.52,227.5,569.71,235.26,463.85,235.26Z"/><path class="cls-2" d="M463.85,136.57V75.71C564.37,75.71,613.25,64,665,51.55c52.92-12.71,107.63-25.84,215.36-25.84V86.57c-100.52,0-149.4,11.74-201.15,24.16C626.29,123.43,571.58,136.57,463.85,136.57Z"/><path class="cls-3" d="M463.85,464.16V436.08c102.07,0,151.69-14.86,204.22-30.61,52.16-15.63,106.1-31.79,212.28-31.79v28.07c-102.07,0-151.69,14.87-204.22,30.61C624,448,570,464.16,463.85,464.16Z"/><path class="cls-3" d="M880.35,487.66c-104.29,0-157.31-3-208.58-6-51.11-2.93-104-6-207.92-6V464.16c104.29,0,157.31,3,208.58,6,51.11,2.93,104,6,207.92,6Z"/><rect class="cls-4" x="37.09" y="85.71" width="5" height="380"/><g class="cls-5"><path d="M7.6,327.72c-4.92,0-9.08-2.52-9.08-8a7.48,7.48,0,0,1,4.75-7.22l.81,2a5.44,5.44,0,0,0-3.57,5.25c0,4.11,3.27,5.85,7,5.85,3.9,0,7.19-1.74,7.19-5.9a5.37,5.37,0,0,0-5.56-5.46v4H7.4v-6.05h9V314l-3.12.08a5.9,5.9,0,0,1,3.37,5.63C16.66,325.17,12.53,327.72,7.6,327.72Z"/><path d="M10.26,308.89c-3.37,0-6.46-1.79-6.46-5.48,0-4.14,3.14-5.36,6.56-5.36a4.65,4.65,0,0,1,.51.05v8.65c2.09,0,3.88-1.23,3.88-3.55a4.35,4.35,0,0,0-1.3-3.47l1.12-1.38a6.1,6.1,0,0,1,2,4.83C16.56,307,13.65,308.89,10.26,308.89Zm-1-8.9c-2.15.05-3.65,1.14-3.65,3.42s1.66,3.24,3.65,3.34Z"/><path d="M4,294.91v-2.07H6.23a3.68,3.68,0,0,1-2.45-3.42,3.88,3.88,0,0,1,.64-2.22L6.1,288a2.39,2.39,0,0,0-.54,1.58c0,2.17,2.45,3.31,5.51,3.31h5.34v2.05Z"/><path d="M4,285.34v-2H6A3.65,3.65,0,0,1,3.73,280a3.89,3.89,0,0,1,2.42-3.8,4.14,4.14,0,0,1-2.4-3.88c0-3.13,2.4-4.36,5.08-4.36h7.58v2H9.08c-1.7,0-3.57.54-3.57,2.55s1.87,3.12,3.86,3.12h7v2H9c-1.71,0-3.52.51-3.52,2.52s1.87,3.12,3.86,3.12h7v2Z"/><path d="M12.94,264.82c-2.66,0-3.7-1.92-3.7-4.59v-3.78c-2.3,0-3.7.79-3.7,3.11a4,4,0,0,0,1.78,3.24l-1.14,1.53a5.6,5.6,0,0,1-2.43-4.87c0-3.11,2-4.87,5-4.87h7.66v1.66l-2.15.15a4.81,4.81,0,0,1,2.4,4.41A3.76,3.76,0,0,1,12.94,264.82Zm-2.07-8.37v3.6c0,1.5.74,2.68,2.07,2.68s1.91-1.15,1.91-2.43A4,4,0,0,0,10.87,256.45Z"/><path d="M4,250.45v-2H5.87a4.62,4.62,0,0,1-2.12-3.85c0-3.14,2.4-4.34,5.08-4.34h7.58v2H9.08c-1.7,0-3.39.51-3.39,2.53a3.7,3.7,0,0,0,3.7,3.62h7v2Z"/><path d="M16.28,233.12,4,237.89v-2.24l10-3.55L4,228.61v-2.25l17.8,6.74v2.12Z"/></g><rect class="cls-6" x="287.9" y="444.18" width="175.95" height="23.43"/><path d="M401.48,452.18l-.17,0h-.1a.63.63,0,0,1-.44-.15.54.54,0,0,1,0-.78.9.9,0,0,1,.43-.24l2.61-.7.19,0h.19a.32.32,0,0,1,.27.15.82.82,0,0,1,.09.42v9.51h1.41a2.25,2.25,0,0,1,1,.13.5.5,0,0,1,.21.47.65.65,0,0,1-.17.48.82.82,0,0,1-.53.16h-5.26a.77.77,0,0,1-.52-.16.62.62,0,0,1-.18-.48.5.5,0,0,1,.21-.47,2.25,2.25,0,0,1,1-.13h1.46v-8.59Z"/><path d="M414.38,461.9a3,3,0,0,1-2.62-1.56,9.91,9.91,0,0,1,0-8.55,3,3,0,0,1,5.25,0,9.77,9.77,0,0,1,0,8.53A3,3,0,0,1,414.38,461.9Zm0-10.41a1.74,1.74,0,0,0-1.57,1.2,8.19,8.19,0,0,0-.56,3.38,8.28,8.28,0,0,0,.56,3.39,1.64,1.64,0,0,0,3.16,0,8.28,8.28,0,0,0,.56-3.39,8.19,8.19,0,0,0-.56-3.38A1.76,1.76,0,0,0,414.38,451.49Z"/><path d="M423.46,460.17a1.46,1.46,0,0,1,.48-1.13,1.8,1.8,0,0,1,1.25-.44,1.76,1.76,0,0,1,1.25.43,1.58,1.58,0,0,1,0,2.27,1.79,1.79,0,0,1-1.25.43,1.76,1.76,0,0,1-1.25-.43A1.46,1.46,0,0,1,423.46,460.17Z"/><path d="M435.78,461.61a.89.89,0,0,1-.58-.14.71.71,0,0,1-.14-.5.62.62,0,0,1,.15-.46.75.75,0,0,1,.5-.14h1v-1.48h-4.11a.43.43,0,0,1-.34-.14.6.6,0,0,1-.12-.4v-.61a1.36,1.36,0,0,1,.25-.74l.07-.11,3.71-6.3a1.12,1.12,0,0,1,.2-.28.33.33,0,0,1,.21-.06l.19,0,.07,0,.89.14a.25.25,0,0,1,.2.13.61.61,0,0,1,.08.32v6.67h.44a.34.34,0,0,0,.3-.15.3.3,0,0,1,.24-.15.38.38,0,0,1,.3.13.47.47,0,0,1,.12.32.66.66,0,0,1,0,.15.39.39,0,0,1,0,.14l-.07.36a.83.83,0,0,1-.18.43.57.57,0,0,1-.38.11H438v1.48h.3a1.58,1.58,0,0,1,.78.13.52.52,0,0,1,.21.47.62.62,0,0,1-.18.48.77.77,0,0,1-.52.16Zm1-4.06V451.6l-3.34,5.95Z"/><path d="M443.19,452.88a2.27,2.27,0,0,1,.73-1.71,2.6,2.6,0,0,1,1.85-.67,2.57,2.57,0,0,1,1.83.67,2.38,2.38,0,0,1,0,3.41,2.57,2.57,0,0,1-1.83.67,2.6,2.6,0,0,1-1.85-.67A2.25,2.25,0,0,1,443.19,452.88Zm6.36,1.55.13,0,.11,0a.49.49,0,0,1,.36.14.45.45,0,0,1,.14.35.5.5,0,0,1-.1.28.63.63,0,0,1-.26.2L444,457.69l-.13,0h-.11a.46.46,0,0,1-.34-.14.48.48,0,0,1-.14-.35.42.42,0,0,1,.1-.28.67.67,0,0,1,.26-.21Zm-5.26-1.55a1.25,1.25,0,0,0,.41,1,1.54,1.54,0,0,0,1.07.37,1.52,1.52,0,0,0,1.07-.37,1.34,1.34,0,0,0,0-1.93,1.56,1.56,0,0,0-1.07-.37,1.54,1.54,0,0,0-1.07.37A1.26,1.26,0,0,0,444.29,452.88Zm.95,6.37a2.21,2.21,0,0,1,.73-1.7,2.64,2.64,0,0,1,1.85-.66,2.6,2.6,0,0,1,1.83.66,2.37,2.37,0,0,1,0,3.4,2.57,2.57,0,0,1-1.83.67A2.62,2.62,0,0,1,446,461,2.23,2.23,0,0,1,445.24,459.25Zm1.1,0a1.26,1.26,0,0,0,.41,1,1.7,1.7,0,0,0,2.14,0,1.25,1.25,0,0,0,.4-1,1.24,1.24,0,0,0-.4-1,1.77,1.77,0,0,0-2.14,0A1.26,1.26,0,0,0,446.34,459.25Z"/><path d="M297.28,456.22v-7.33h1.51v7.33c0,2.25.65,3.84,2.88,3.84s2.88-1.59,2.88-3.84v-7.33h1.52v7.24c0,3.17-1.28,5.37-4.4,5.37S297.28,459.3,297.28,456.22Z"/><path d="M309.19,448.89h2.4l3.55,9.82,3.54-9.82h2.4v12.43h-1.51V450.39L316,460.24h-1.65l-3.6-9.85v10.93h-1.52Z"/><path d="M324.4,448.89h1.52v12.43H324.4Z"/><path d="M328.65,455.11c0-3.48,1.78-6.41,5.64-6.41a5.26,5.26,0,0,1,5.09,3.35l-1.4.57a3.49,3.49,0,0,0-3.71-2.52c-2.9,0-4.12,2.3-4.12,4.92s1.22,5.07,4.16,5.07a3.62,3.62,0,0,0,3.69-2.54l1.4.58a5.26,5.26,0,0,1-5.09,3.37C330.45,461.5,328.65,458.58,328.65,455.11Z"/><path d="M341,459.28l1.18-.61a2.25,2.25,0,0,0,2.13,1.57c.9,0,1.71-.4,1.71-1.39,0-2.14-4.7-.68-4.7-3.94a2.63,2.63,0,0,1,2.81-2.51,3.3,3.3,0,0,1,3,1.75l-1.1.63a2,2,0,0,0-1.87-1.11c-.81,0-1.48.39-1.48,1.18,0,1.82,4.76.49,4.76,3.93a2.85,2.85,0,0,1-3.1,2.72A3.41,3.41,0,0,1,341,459.28Z"/><rect class="cls-6" x="287.9" y="163.79" width="175.69" height="23.43"/><path d="M303.26,168.51h1.51v11h5.31v1.38h-6.82Z"/><path d="M312.4,168.51h2.4l3.54,9.81,3.55-9.81h2.4v12.42h-1.52V170l-3.6,9.85h-1.65L313.91,170v10.93H312.4Z"/><path d="M327.61,168.51h1.51v12.42h-1.51Z"/><path d="M331.86,174.72c0-3.47,1.78-6.41,5.64-6.41a5.26,5.26,0,0,1,5.09,3.35l-1.4.58a3.51,3.51,0,0,0-3.71-2.53c-2.9,0-4.13,2.31-4.13,4.92s1.23,5.08,4.16,5.08a3.61,3.61,0,0,0,3.69-2.54l1.41.58a5.28,5.28,0,0,1-5.1,3.36C333.66,181.11,331.86,178.2,331.86,174.72Z"/><path d="M344.15,178.9l1.19-.61a2.25,2.25,0,0,0,2.13,1.56c.9,0,1.71-.39,1.71-1.38,0-2.15-4.7-.69-4.7-3.95a2.63,2.63,0,0,1,2.81-2.5,3.31,3.31,0,0,1,3,1.75l-1.1.63a2,2,0,0,0-1.87-1.12c-.81,0-1.48.4-1.48,1.19,0,1.82,4.75.48,4.75,3.92a2.84,2.84,0,0,1-3.09,2.72A3.42,3.42,0,0,1,344.15,178.9Z"/><path d="M401.6,174.06a7,7,0,0,1,1.08-.31,4.42,4.42,0,0,1,.94-.1,3.4,3.4,0,0,1,2.56,1.06,3.71,3.71,0,0,1,1,2.65,3.65,3.65,0,0,1-1.13,2.77,4,4,0,0,1-2.9,1.09,6.64,6.64,0,0,1-2.48-.4c-.66-.26-1-.59-1-1a.57.57,0,0,1,.18-.41.6.6,0,0,1,.43-.18,9.45,9.45,0,0,1,1,.34,5,5,0,0,0,1.73.34,2.64,2.64,0,0,0,1.91-.71,2.42,2.42,0,0,0,.74-1.82,2.55,2.55,0,0,0-.7-1.82,2.31,2.31,0,0,0-1.75-.72,3.39,3.39,0,0,0-1.55.39,3.35,3.35,0,0,1-.92.4.41.41,0,0,1-.37-.19,1.65,1.65,0,0,1-.11-.71v-4.38a.47.47,0,0,1,.18-.42,1.1,1.1,0,0,1,.63-.13h4.45a1,1,0,0,1,.63.17.64.64,0,0,1,.21.52.61.61,0,0,1-.22.51,1,1,0,0,1-.62.18h-4Z"/><path d="M411.33,180.93a1,1,0,0,1-.69-.19.71.71,0,0,1-.23-.58c0-.38.56-1.1,1.69-2.15l.25-.24.74-.71q3-2.87,3-4.17a2.18,2.18,0,0,0-.53-1.52,1.81,1.81,0,0,0-1.39-.59,2.59,2.59,0,0,0-1.06.23,2.12,2.12,0,0,0-.81.61,2.75,2.75,0,0,0-.17.24c-.22.39-.46.59-.73.59a.51.51,0,0,1-.45-.19,1.43,1.43,0,0,1-.13-.74,1.27,1.27,0,0,1,.06-.46,1,1,0,0,1,.23-.31,3.92,3.92,0,0,1,1.39-.87,4.79,4.79,0,0,1,1.7-.32,3.36,3.36,0,0,1,2.44.94,3.06,3.06,0,0,1,1,2.31c0,1.15-1,2.68-3,4.59q-.76.71-1.17,1.11l-1.08,1h4a1,1,0,0,1,.21-.58.57.57,0,0,1,.46-.2.59.59,0,0,1,.46.19.8.8,0,0,1,.16.53.34.34,0,0,1,0,.09.55.55,0,0,1,0,.09l-.07.68a.76.76,0,0,1-.15.43.45.45,0,0,1-.35.15Z"/><path d="M423.46,179.49a1.44,1.44,0,0,1,.48-1.12,2,2,0,0,1,2.5,0,1.57,1.57,0,0,1,0,2.26,1.79,1.79,0,0,1-1.25.43,1.76,1.76,0,0,1-1.25-.43A1.43,1.43,0,0,1,423.46,179.49Z"/><path d="M436.12,180.76a.83.83,0,0,1-.13.27.33.33,0,0,1-.23.06H435a.47.47,0,0,1-.28-.07.22.22,0,0,1-.1-.19.61.61,0,0,1,0-.14,1.13,1.13,0,0,1,0-.15l3.45-9.38h-4.46a1.07,1.07,0,0,1-.19.61.56.56,0,0,1-.46.2.57.57,0,0,1-.44-.15.65.65,0,0,1-.15-.47v-.13s0-.06,0-.08l.09-.79a.51.51,0,0,1,.18-.38.59.59,0,0,1,.41-.13h5.81a.57.57,0,0,1,.38.11.45.45,0,0,1,.11.35v.3a1,1,0,0,1,0,.27c0,.12-.08.27-.14.46Z"/><path d="M443.19,172.2a2.25,2.25,0,0,1,.73-1.7,2.61,2.61,0,0,1,1.85-.68,2.57,2.57,0,0,1,1.83.68,2.24,2.24,0,0,1,.72,1.7,2.21,2.21,0,0,1-.72,1.7,2.57,2.57,0,0,1-1.83.68,2.61,2.61,0,0,1-1.85-.68A2.21,2.21,0,0,1,443.19,172.2Zm6.36,1.55.13,0h.11a.46.46,0,0,1,.5.48.53.53,0,0,1-.1.29.73.73,0,0,1-.26.2L444,177l-.13,0h-.11a.42.42,0,0,1-.34-.14.48.48,0,0,1-.14-.35.44.44,0,0,1,.1-.28.65.65,0,0,1,.26-.2Zm-5.26-1.55a1.22,1.22,0,0,0,.41,1,1.5,1.5,0,0,0,1.07.37,1.56,1.56,0,0,0,1.07-.36,1.35,1.35,0,0,0,0-1.94,1.56,1.56,0,0,0-1.07-.36,1.5,1.5,0,0,0-1.07.37A1.24,1.24,0,0,0,444.29,172.2Zm.95,6.38a2.2,2.2,0,0,1,.73-1.7,2.6,2.6,0,0,1,1.85-.67,2.57,2.57,0,0,1,1.83.67,2.37,2.37,0,0,1,0,3.4,2.61,2.61,0,0,1-1.83.67,2.66,2.66,0,0,1-1.85-.67A2.25,2.25,0,0,1,445.24,178.58Zm1.1,0a1.28,1.28,0,0,0,.41,1,1.73,1.73,0,0,0,2.14,0,1.27,1.27,0,0,0,.4-1,1.22,1.22,0,0,0-.4-1,1.73,1.73,0,0,0-2.14,0A1.26,1.26,0,0,0,446.34,178.58Z"/><rect class="cls-6" x="287.9" y="344.35" width="175.69" height="23.43"/><path d="M309.43,349.07h1.51v11h5.31v1.38h-6.82Z"/><path d="M318.5,349.07h3.24c4.05,0,6.29,2.21,6.29,6.3,0,3.93-2.29,6.12-6.31,6.12H318.5Zm3,11c2.86,0,5-1.45,5-4.83,0-3.17-1.55-4.84-4.79-4.84H320v9.67Z"/><path d="M330.26,355.28c0-3.48,1.78-6.41,5.63-6.41a5.28,5.28,0,0,1,5.1,3.35l-1.41.58a3.5,3.5,0,0,0-3.71-2.53c-2.9,0-4.12,2.31-4.12,4.92s1.22,5.08,4.16,5.08a3.61,3.61,0,0,0,3.69-2.54l1.41.57a5.28,5.28,0,0,1-5.1,3.37C332.06,361.67,330.26,358.76,330.26,355.28Z"/><path d="M342.55,359.46l1.19-.61a2.25,2.25,0,0,0,2.12,1.56c.9,0,1.71-.39,1.71-1.38,0-2.15-4.7-.69-4.7-3.95a2.63,2.63,0,0,1,2.81-2.5,3.28,3.28,0,0,1,3,1.75l-1.1.63a1.94,1.94,0,0,0-1.87-1.12c-.81,0-1.47.4-1.47,1.19,0,1.82,4.75.48,4.75,3.92a2.85,2.85,0,0,1-3.1,2.72A3.43,3.43,0,0,1,342.55,359.46Z"/><path d="M405,355.7a2.77,2.77,0,0,1,2.17,2.84,3.24,3.24,0,0,1-1.09,2.51,4,4,0,0,1-2.83,1,5.29,5.29,0,0,1-2.37-.51c-.7-.34-1-.72-1-1.13A.59.59,0,0,1,400,360a.7.7,0,0,1,.47-.17,5.09,5.09,0,0,1,1.08.45,4.06,4.06,0,0,0,1.75.45,2.44,2.44,0,0,0,1.7-.6,2.17,2.17,0,0,0,.2-2.87,2.07,2.07,0,0,0-1.25-.69,5.73,5.73,0,0,0-.62-.07c-.49,0-.74-.23-.74-.61s.24-.55.72-.61l.47-.06a1.85,1.85,0,0,0,1.11-.56,1.6,1.6,0,0,0,.42-1.11,1.83,1.83,0,0,0-.52-1.36,1.79,1.79,0,0,0-1.32-.53,2.9,2.9,0,0,0-1.51.46,3.16,3.16,0,0,1-1,.45.55.55,0,0,1-.4-.15.54.54,0,0,1-.17-.4c0-.36.33-.71,1-1.07a4.54,4.54,0,0,1,2.18-.53,3.28,3.28,0,0,1,2.28.83,2.7,2.7,0,0,1,.91,2,2.49,2.49,0,0,1-.44,1.52A2.84,2.84,0,0,1,405,355.7Z"/><path d="M412.3,356a3.4,3.4,0,0,1,1.06-.93,2.66,2.66,0,0,1,1.26-.3,3.08,3.08,0,0,1,2.36,1,3.65,3.65,0,0,1,1,2.58A3.75,3.75,0,0,1,417,361a3.14,3.14,0,0,1-2.41,1,3.29,3.29,0,0,1-2.77-1.37,6,6,0,0,1-1-3.67,7.2,7.2,0,0,1,1.54-4.81,5.08,5.08,0,0,1,4.06-1.81,3.3,3.3,0,0,1,1.12.12.48.48,0,0,1,.28.47c0,.37-.35.57-1,.58a6.13,6.13,0,0,0-1.1.09,3.59,3.59,0,0,0-2.26,1.39A6,6,0,0,0,412.3,356Zm.19,2.33a2.62,2.62,0,0,0,.58,1.77,1.83,1.83,0,0,0,1.46.68,1.75,1.75,0,0,0,1.39-.64,2.53,2.53,0,0,0,.54-1.68,2.62,2.62,0,0,0-.56-1.74,1.88,1.88,0,0,0-2.85,0A2.43,2.43,0,0,0,412.49,358.32Z"/><path d="M423.46,360.3a1.44,1.44,0,0,1,.48-1.12,2,2,0,0,1,2.5,0,1.44,1.44,0,0,1,.48,1.13,1.47,1.47,0,0,1-.48,1.14,1.84,1.84,0,0,1-1.25.43,1.81,1.81,0,0,1-1.25-.43A1.47,1.47,0,0,1,423.46,360.3Z"/><path d="M434.23,356.06A3.13,3.13,0,0,1,433,355a2.63,2.63,0,0,1-.43-1.51,2.86,2.86,0,0,1,1-2.23,4,4,0,0,1,5,0,2.75,2.75,0,0,1,1,2.15,2.9,2.9,0,0,1-.42,1.59,3.16,3.16,0,0,1-1.31,1.07,2.77,2.77,0,0,1,1.83,2.7,3.07,3.07,0,0,1-1,2.36A3.69,3.69,0,0,1,436,362a3.65,3.65,0,0,1-2.59-.92,3.11,3.11,0,0,1-1-2.39,2.8,2.8,0,0,1,.47-1.59A3,3,0,0,1,434.23,356.06Zm-.38,2.66a2,2,0,0,0,.59,1.51,2.08,2.08,0,0,0,1.55.58,2.18,2.18,0,0,0,1.56-.56,2.18,2.18,0,0,0,0-3,2.41,2.41,0,0,0-3.08,0A1.92,1.92,0,0,0,433.85,358.72Zm.09-5.23a1.86,1.86,0,0,0,.58,1.42,2,2,0,0,0,1.47.56,2.06,2.06,0,0,0,1.48-.56,1.92,1.92,0,0,0,.57-1.44,1.86,1.86,0,0,0-.57-1.4,2.1,2.1,0,0,0-1.48-.55,2.06,2.06,0,0,0-1.48.55A1.89,1.89,0,0,0,433.94,353.49Z"/><path d="M443.19,353a2.25,2.25,0,0,1,.73-1.71,2.61,2.61,0,0,1,1.85-.68,2.57,2.57,0,0,1,1.83.68,2.38,2.38,0,0,1,0,3.41,2.57,2.57,0,0,1-1.83.67,2.6,2.6,0,0,1-1.85-.67A2.25,2.25,0,0,1,443.19,353Zm6.36,1.54.13,0h.11a.46.46,0,0,1,.5.48.53.53,0,0,1-.1.29.63.63,0,0,1-.26.2L444,357.82l-.13,0-.11,0a.46.46,0,0,1-.34-.14.52.52,0,0,1-.14-.36.44.44,0,0,1,.1-.28.65.65,0,0,1,.26-.2ZM444.29,353a1.22,1.22,0,0,0,.41,1,1.5,1.5,0,0,0,1.07.37,1.56,1.56,0,0,0,1.07-.36,1.24,1.24,0,0,0,.41-1,1.27,1.27,0,0,0-.41-1,1.56,1.56,0,0,0-1.07-.36,1.5,1.5,0,0,0-1.07.37A1.26,1.26,0,0,0,444.29,353Zm.95,6.37a2.2,2.2,0,0,1,.73-1.7,2.64,2.64,0,0,1,1.85-.67,2.61,2.61,0,0,1,1.83.67,2.37,2.37,0,0,1,0,3.4,2.57,2.57,0,0,1-1.83.67,2.62,2.62,0,0,1-1.85-.67A2.25,2.25,0,0,1,445.24,359.39Zm1.1,0a1.26,1.26,0,0,0,.41,1,1.73,1.73,0,0,0,2.14,0,1.25,1.25,0,0,0,.4-1,1.22,1.22,0,0,0-.4-1,1.73,1.73,0,0,0-2.14,0A1.26,1.26,0,0,0,446.34,359.39Z"/><rect class="cls-4" x="458.59" y="436.08" width="5" height="39.62"/><rect class="cls-4" x="458.59" y="75.71" width="5" height="200.35"/><rect class="cls-4" x="458.59" y="286.05" width="5" height="140.03"/><rect class="cls-4" x="880.09" y="448.95" width="5" height="17.17"/><path d="M893.92,451.54h2.37a2.4,2.4,0,0,1,2.65,2.2,2,2,0,0,1-1,1.71,2.27,2.27,0,0,1,1.45,2.07,2.45,2.45,0,0,1-2.64,2.29h-2.79Zm2.4,3.58c.86,0,1.6-.37,1.6-1.27a1.45,1.45,0,0,0-1.6-1.4h-1.41v2.67Zm.42,3.76a1.49,1.49,0,0,0,1.6-1.44,1.45,1.45,0,0,0-1.6-1.41h-1.83v2.85Z"/><path d="M900.49,458.18c0-1.25.9-1.74,2.16-1.74h1.78c0-1.08-.37-1.74-1.46-1.74a1.88,1.88,0,0,0-1.53.84l-.72-.54a2.65,2.65,0,0,1,2.29-1.14,2.14,2.14,0,0,1,2.29,2.35v3.6h-.78l-.07-1a2.26,2.26,0,0,1-2.07,1.13A1.77,1.77,0,0,1,900.49,458.18Zm3.94-1h-1.69c-.71,0-1.26.35-1.26,1s.54.9,1.14.9A1.88,1.88,0,0,0,904.43,457.21Z"/><path d="M907.25,454h1v.9a2.17,2.17,0,0,1,1.81-1c1.48,0,2,1.13,2,2.39v3.56h-1v-3.44c0-.8-.24-1.6-1.19-1.6a1.75,1.75,0,0,0-1.7,1.74v3.3h-1Z"/><path d="M913.53,460.66a1.9,1.9,0,0,1,.1-.63l1-.42a1.59,1.59,0,0,1-1-1.26,2.07,2.07,0,0,1,.68-1.36,2,2,0,0,1-.29-1.08,2,2,0,0,1,2.13-2,2.45,2.45,0,0,1,1.08.24l1-.84.53.71-.86.63a2.06,2.06,0,0,1,.44,1.28,2,2,0,0,1-2.15,2,2.51,2.51,0,0,1-1.26-.34,1.11,1.11,0,0,0-.4.73c0,.63,1.08.6,1.87.63,1.23,0,2.46.13,2.46,1.58s-1.32,2-2.66,2C915,462.5,913.53,462.05,913.53,460.66Zm4.39-.07c0-.73-.76-.81-1.59-.81-.31,0-.64,0-.94,0l-1,.79c0,.16.16,1.09,1.81,1.09C916.86,461.63,917.92,461.47,917.92,460.59Zm-.58-4.68a1.17,1.17,0,0,0-1.19-1.24,1.24,1.24,0,1,0,1.19,1.24Z"/><path d="M920.25,458.62v-7.08h1v7.2s0,.35.32.35a3,3,0,0,0,.53-.06v.78a3.12,3.12,0,0,1-.81.12C920.39,459.93,920.25,459.38,920.25,458.62Z"/><path d="M923.08,458.18c0-1.25.9-1.74,2.16-1.74H927c0-1.08-.37-1.74-1.46-1.74a1.87,1.87,0,0,0-1.52.84l-.72-.54a2.64,2.64,0,0,1,2.29-1.14,2.14,2.14,0,0,1,2.29,2.35v3.6h-.78l-.07-1a2.27,2.27,0,0,1-2.08,1.13A1.76,1.76,0,0,1,923.08,458.18Zm3.93-1h-1.69c-.71,0-1.26.35-1.26,1s.54.9,1.14.9A1.88,1.88,0,0,0,927,457.21Z"/><path d="M929.38,456.88c0-1.67.84-3,2.37-3a2.08,2.08,0,0,1,1.8.9v-3.2h1v8.27h-1V459a2.08,2.08,0,0,1-1.8.9C930.22,459.93,929.38,458.56,929.38,456.88Zm4.23,0c0-1.16-.48-2.15-1.62-2.15s-1.65,1-1.65,2.15.51,2.18,1.65,2.18S933.61,458.06,933.61,456.88Z"/><path d="M936.29,456.92c0-1.58.84-3,2.58-3,1.94,0,2.52,1.47,2.52,3.08a1.85,1.85,0,0,1,0,.24H937.3A1.66,1.66,0,0,0,939,459a2,2,0,0,0,1.63-.61l.64.53a2.85,2.85,0,0,1-2.26.93A2.67,2.67,0,0,1,936.29,456.92Zm4.19-.48a1.54,1.54,0,0,0-1.61-1.71,1.58,1.58,0,0,0-1.57,1.71Z"/><path d="M942.35,458.46l.79-.41a1.5,1.5,0,0,0,1.42,1c.6,0,1.14-.26,1.14-.92,0-1.43-3.13-.46-3.13-2.63a1.75,1.75,0,0,1,1.87-1.66,2.19,2.19,0,0,1,2,1.16l-.74.42a1.29,1.29,0,0,0-1.24-.75c-.54,0-1,.27-1,.8,0,1.21,3.17.32,3.17,2.61a1.9,1.9,0,0,1-2.06,1.81A2.27,2.27,0,0,1,942.35,458.46Z"/><path d="M948.21,451.54h1v3.32a2.17,2.17,0,0,1,1.81-1c1.47,0,2,1.13,2,2.39v3.56h-1v-3.44c0-.8-.24-1.6-1.19-1.6a1.74,1.74,0,0,0-1.7,1.74v3.3h-1Z"/><rect class="cls-4" x="880.09" y="272.08" width="5" height="40.8"/><path d="M893.92,286.49h2.37A2.41,2.41,0,0,1,899,288.7a2,2,0,0,1-1.05,1.7,2.28,2.28,0,0,1,1.45,2.07,2.46,2.46,0,0,1-2.64,2.3h-2.79Zm2.4,3.59c.86,0,1.61-.38,1.61-1.28a1.47,1.47,0,0,0-1.61-1.4h-1.41v2.68Zm.42,3.75a1.49,1.49,0,0,0,1.61-1.44,1.45,1.45,0,0,0-1.61-1.4h-1.83v2.84Z"/><path d="M900.5,291.86a2.82,2.82,0,1,1,2.81,3A2.86,2.86,0,0,1,900.5,291.86Zm4.57,0c0-1.14-.5-2.18-1.76-2.18s-1.75,1-1.75,2.18.49,2.19,1.75,2.19S905.07,293,905.07,291.86Z"/><path d="M907.85,293.58v-7.09h1v7.21s0,.35.32.35a2.82,2.82,0,0,0,.53-.06v.78a3,3,0,0,1-.8.12C908,294.89,907.85,294.33,907.85,293.58Z"/><path d="M911.13,286.45h1.09v1.19h-1.09Zm.07,2.46h1v5.86h-1Z"/><path d="M913.44,288.91h1l1.58,4.61,1.6-4.61h1l-2.21,5.86h-.84Z"/><path d="M919.92,286.45H921v1.19h-1.09Zm.07,2.46h1v5.86h-1Z"/><path d="M922.66,293.13c0-1.24.9-1.73,2.16-1.73h1.77c0-1.08-.37-1.74-1.46-1.74a1.86,1.86,0,0,0-1.52.84l-.72-.54a2.62,2.62,0,0,1,2.29-1.14,2.14,2.14,0,0,1,2.29,2.35v3.6h-.78l-.07-1a2.27,2.27,0,0,1-2.08,1.13A1.77,1.77,0,0,1,922.66,293.13Zm3.93-1H924.9c-.7,0-1.26.35-1.26,1s.54.9,1.14.9A1.87,1.87,0,0,0,926.59,292.16Z"/><rect class="cls-4" x="880.09" y="411.75" width="5" height="27.19"/><path d="M893.92,419.36h2.37a2.41,2.41,0,0,1,2.66,2.2,2.05,2.05,0,0,1-1.05,1.71,2.27,2.27,0,0,1,1.45,2.07,2.45,2.45,0,0,1-2.64,2.29h-2.79Zm2.4,3.58c.86,0,1.61-.37,1.61-1.27a1.46,1.46,0,0,0-1.61-1.4h-1.41v2.67Zm.42,3.76a1.5,1.5,0,0,0,1.61-1.44,1.46,1.46,0,0,0-1.61-1.41h-1.83v2.85Z"/><path d="M900.87,425.26v-3.48h1v3.48c0,.8.22,1.66,1.17,1.66a1.81,1.81,0,0,0,1.72-1.81v-3.33h1v5.85h-1v-.93a2.15,2.15,0,0,1-1.81,1.06C901.43,427.76,900.87,426.58,900.87,425.26Z"/><path d="M907.77,421.78h1v1.07a1.73,1.73,0,0,1,1.61-1.16,1.87,1.87,0,0,1,1,.3l-.36.8a1.13,1.13,0,0,0-.74-.26c-1,0-1.56,1.15-1.56,2.59v2.51h-1Z"/><path d="M912.12,425.26v-3.48h1v3.48c0,.8.23,1.66,1.18,1.66a1.81,1.81,0,0,0,1.71-1.81v-3.33h1v5.85h-1v-.93a2.13,2.13,0,0,1-1.81,1.06C912.69,427.76,912.12,426.58,912.12,425.26Z"/><path d="M919.13,421.78h1v.9a2.17,2.17,0,0,1,1.81-1c1.48,0,2,1.13,2,2.39v3.56h-1v-3.44c0-.81-.24-1.6-1.19-1.6a1.75,1.75,0,0,0-1.7,1.74v3.3h-1Z"/><path d="M925.44,424.7c0-1.67.84-3,2.38-3a2.11,2.11,0,0,1,1.8.9v-3.2h1v8.27h-1v-.78a2.11,2.11,0,0,1-1.8.9C926.28,427.75,925.44,426.38,925.44,424.7Zm4.24,0c0-1.16-.48-2.15-1.62-2.15s-1.66,1-1.66,2.15.52,2.18,1.66,2.18S929.68,425.88,929.68,424.7Z"/><path d="M932.8,419.32h1.09v1.19H932.8Zm.07,2.46h1v5.85h-1Z"/><rect class="cls-4" x="880.09" y="476.11" width="5" height="11.55"/><path d="M893.5,480c0-2.31,1.19-4.27,3.75-4.27a3.53,3.53,0,0,1,3.4,2.23l-.94.39a2.32,2.32,0,0,0-2.47-1.68c-1.93,0-2.74,1.53-2.74,3.27s.81,3.38,2.77,3.38a2.38,2.38,0,0,0,2.45-1.69l.94.39a3.51,3.51,0,0,1-3.39,2.24C894.7,484.29,893.5,482.35,893.5,480Z"/><path d="M901.82,481.27a2.82,2.82,0,1,1,2.81,3A2.85,2.85,0,0,1,901.82,481.27Zm4.57,0c0-1.14-.5-2.18-1.76-2.18s-1.75,1-1.75,2.18.49,2.18,1.75,2.18S906.39,482.41,906.39,481.27Z"/><path d="M909.17,483v-7.09h1v7.21s0,.35.32.35a2.82,2.82,0,0,0,.53-.06v.78a3,3,0,0,1-.8.12C909.32,484.29,909.17,483.74,909.17,483Z"/><path d="M912,481.27a2.83,2.83,0,1,1,2.82,3A2.86,2.86,0,0,1,912,481.27Zm4.57,0c0-1.14-.49-2.18-1.75-2.18s-1.75,1-1.75,2.18.49,2.18,1.75,2.18S916.57,482.41,916.57,481.27Z"/><path d="M919.36,478.32h1v.94a1.7,1.7,0,0,1,1.57-1.05,1.84,1.84,0,0,1,1.79,1.14,2,2,0,0,1,1.82-1.13c1.48,0,2,1.13,2,2.39v3.56h-1v-3.44c0-.81-.25-1.68-1.2-1.68a1.62,1.62,0,0,0-1.46,1.81v3.31h-1V480.7c0-.8-.24-1.65-1.19-1.65a1.62,1.62,0,0,0-1.46,1.81v3.31h-1Z"/><path d="M930.54,483.39v.78h-1v-8.28h1v3.21a2.12,2.12,0,0,1,1.8-.91c1.54,0,2.38,1.37,2.38,3.05s-.84,3.05-2.38,3.05A2.11,2.11,0,0,1,930.54,483.39Zm3.22-2.15c0-1.16-.52-2.2-1.66-2.2s-1.63,1-1.63,2.2.49,2.2,1.63,2.2S933.76,482.42,933.76,481.24Z"/><path d="M936.44,475.86h1.09v1.19h-1.09Zm.07,2.46h1v5.85h-1Z"/><path d="M939.17,482.54c0-1.25.9-1.74,2.16-1.74h1.78c0-1.08-.38-1.74-1.47-1.74a1.88,1.88,0,0,0-1.52.84l-.72-.54a2.64,2.64,0,0,1,2.29-1.14,2.14,2.14,0,0,1,2.29,2.35v3.6h-.78l-.07-1a2.27,2.27,0,0,1-2.08,1.13A1.77,1.77,0,0,1,939.17,482.54Zm3.94-1h-1.7c-.7,0-1.25.35-1.25,1s.54.9,1.13.9A1.88,1.88,0,0,0,943.11,481.57Z"/><rect class="cls-4" x="880.09" y="156.85" width="5" height="48.4"/><path d="M893.9,155.25h5.38v.89H894.9V159h3.87v.88H894.9v2.77h4.38v.93H893.9Z"/><path d="M900.68,164.38a2.06,2.06,0,0,1,.1-.64l1-.42a1.56,1.56,0,0,1-1-1.26,2,2,0,0,1,.68-1.35,2,2,0,0,1-.29-1.08,2,2,0,0,1,2.13-2,2.6,2.6,0,0,1,1.08.24l1-.84.53.71-.86.63a2.07,2.07,0,0,1,.44,1.29,2,2,0,0,1-2.15,2,2.51,2.51,0,0,1-1.26-.33,1.11,1.11,0,0,0-.4.73c0,.62,1.07.6,1.87.62,1.23,0,2.46.13,2.46,1.58s-1.32,2-2.66,2C902.13,166.21,900.68,165.77,900.68,164.38Zm4.39-.07c0-.74-.76-.82-1.59-.82-.31,0-.65,0-.94,0l-1,.79c0,.15.16,1.09,1.81,1.09C904,165.35,905.07,165.18,905.07,164.31Zm-.58-4.68a1.17,1.17,0,0,0-1.19-1.25,1.16,1.16,0,0,0-1.17,1.25,1.18,1.18,0,1,0,2.36,0Z"/><path d="M908.76,163.47l-2.24-5.8h1.06l1.66,4.68,1.65-4.68h1.05l-3.16,8.38h-1Z"/><path d="M913.25,157.67h1v.78a2.07,2.07,0,0,1,1.8-.9c1.52,0,2.37,1.37,2.37,3s-.85,3.05-2.37,3.05a2.07,2.07,0,0,1-1.8-.9v3.34h-1Zm4.16,2.93c0-1.16-.5-2.19-1.64-2.19s-1.63,1-1.63,2.19.48,2.2,1.63,2.2S917.41,161.78,917.41,160.6Z"/><path d="M920.26,162v-3.49h-.91v-.82h.91v-1.34l1-.84v2.18h1.5v.82h-1.5V162c0,.59.24.81.62.81a2,2,0,0,0,.76-.12v.84a2.69,2.69,0,0,1-.84.12C920.71,163.65,920.26,163,920.26,162Z"/><rect class="cls-4" x="880.09" y="497.66" width="5" height="5.67"/><path d="M893.9,494.5h5.38v.89H894.9v2.81h3.87v.89H894.9v2.77h4.38v.92H893.9Z"/><path d="M901.34,501.23v-3.49h-.92v-.81h.92v-1.35l1-.84v2.19h1.49v.81H902.3v3.52c0,.58.24.8.62.8a1.94,1.94,0,0,0,.75-.12v.84a2.61,2.61,0,0,1-.84.12C901.79,502.9,901.34,502.23,901.34,501.23Z"/><path d="M905.2,494.5h1v3.33a2.17,2.17,0,0,1,1.81-1c1.48,0,2,1.13,2,2.39v3.56h-1v-3.44c0-.81-.24-1.6-1.19-1.6a1.75,1.75,0,0,0-1.7,1.74v3.3h-1Z"/><path d="M911.91,494.47H913v1.19h-1.09Zm.07,2.46h1v5.85h-1Z"/><path d="M914.64,499.88a2.83,2.83,0,1,1,2.82,3A2.87,2.87,0,0,1,914.64,499.88Zm4.57,0c0-1.14-.49-2.19-1.75-2.19s-1.75,1.05-1.75,2.19.49,2.18,1.75,2.18S919.21,501,919.21,499.88Z"/><path d="M922,496.93h1v.78a2.06,2.06,0,0,1,1.8-.9c1.52,0,2.38,1.36,2.38,3s-.86,3-2.38,3a2.08,2.08,0,0,1-1.8-.9v3.35h-1Zm4.16,2.92c0-1.16-.5-2.19-1.64-2.19s-1.63,1-1.63,2.19.48,2.2,1.63,2.2S926.17,501,926.17,499.85Z"/><path d="M928.79,494.47h1.09v1.19h-1.09Zm.07,2.46h1v5.85h-1Z"/><path d="M931.53,501.15c0-1.25.9-1.74,2.16-1.74h1.77c0-1.08-.37-1.74-1.46-1.74a1.87,1.87,0,0,0-1.52.84l-.72-.54a2.64,2.64,0,0,1,2.29-1.14,2.14,2.14,0,0,1,2.29,2.35v3.6h-.78l-.07-1a2.27,2.27,0,0,1-2.08,1.13A1.76,1.76,0,0,1,931.53,501.15Zm3.93-1h-1.69c-.71,0-1.26.34-1.26,1s.54.9,1.14.9A1.88,1.88,0,0,0,935.46,500.18Z"/><rect class="cls-4" x="880.09" y="25.71" width="5" height="60.86"/><path d="M893.84,50.14h1v8.28h-1Z"/><path d="M897,52.57h1v.9a2.15,2.15,0,0,1,1.81-1c1.47,0,2,1.13,2,2.39v3.56h-1V55c0-.81-.24-1.6-1.19-1.6a1.74,1.74,0,0,0-1.7,1.74v3.3h-1Z"/><path d="M903.34,55.49c0-1.68.84-3,2.37-3a2.06,2.06,0,0,1,1.8.9V50.14h1v8.28h-1v-.78a2.08,2.08,0,0,1-1.8.9C904.18,58.54,903.34,57.17,903.34,55.49Zm4.23,0c0-1.16-.48-2.16-1.62-2.16s-1.65,1-1.65,2.16.52,2.17,1.65,2.17S907.57,56.67,907.57,55.49Z"/><path d="M910.7,50.11h1.09V51.3H910.7Zm.07,2.46h1v5.85h-1Z"/><path d="M913.43,56.79c0-1.25.9-1.74,2.16-1.74h1.78c0-1.08-.38-1.74-1.47-1.74a1.88,1.88,0,0,0-1.52.84l-.72-.54A2.62,2.62,0,0,1,916,52.47a2.14,2.14,0,0,1,2.29,2.35v3.6h-.78l-.07-1a2.27,2.27,0,0,1-2.08,1.13A1.77,1.77,0,0,1,913.43,56.79Zm3.94-1h-1.7c-.7,0-1.26.34-1.26,1s.54.9,1.14.9A1.88,1.88,0,0,0,917.37,55.82Z"/><rect class="cls-4" x="880.09" y="96.57" width="5" height="50.28"/><path d="M893.9,115.72h1v4.77l4.5-4.77h1.32L897.57,119l3.1,5h-1.21l-2.59-4.29-2,2V124h-1Z"/><path d="M901.5,121.1c0-1.58.84-3,2.58-3,1.95,0,2.52,1.47,2.52,3.08,0,.08,0,.24,0,.24h-4.07a1.67,1.67,0,0,0,1.67,1.82,2,2,0,0,0,1.63-.61l.65.53a2.89,2.89,0,0,1-2.27.94A2.67,2.67,0,0,1,901.5,121.1Zm4.19-.48a1.54,1.54,0,0,0-1.61-1.71,1.58,1.58,0,0,0-1.57,1.71Z"/><path d="M908.19,118.14h1v.9a2.17,2.17,0,0,1,1.81-1c1.47,0,2,1.13,2,2.39V124h-1v-3.44c0-.8-.24-1.59-1.19-1.59a1.73,1.73,0,0,0-1.7,1.74V124h-1Z"/><path d="M916.33,123.93l-2.24-5.79h1.06l1.66,4.68,1.65-4.68h1l-3.16,8.37h-1Z"/><path d="M920.3,122.36c0-1.25.9-1.74,2.15-1.74h1.78c0-1.08-.37-1.74-1.46-1.74a1.88,1.88,0,0,0-1.53.84l-.72-.54a2.65,2.65,0,0,1,2.29-1.14,2.15,2.15,0,0,1,2.3,2.36V124h-.78l-.08-1a2.25,2.25,0,0,1-2.07,1.12A1.76,1.76,0,0,1,920.3,122.36Zm3.93-1h-1.69c-.71,0-1.26.35-1.26,1s.54.9,1.14.9A1.87,1.87,0,0,0,924.23,121.39Z"/><rect class="cls-4" x="880.09" y="373.68" width="5" height="28.07"/><path d="M893.9,381.72h1v7.36h3.54V390H893.9Z"/><path d="M899.46,387.11c0-1.58.84-3,2.58-3,2,0,2.52,1.48,2.52,3.09,0,.08,0,.24,0,.24h-4.07a1.67,1.67,0,0,0,1.67,1.82,2,2,0,0,0,1.63-.61l.65.53a2.88,2.88,0,0,1-2.27.93A2.67,2.67,0,0,1,899.46,387.11Zm4.19-.48a1.54,1.54,0,0,0-1.61-1.72c-1,0-1.52.78-1.57,1.72Z"/><path d="M907.18,389.22V390h-1v-8.28h1v3.21A2.08,2.08,0,0,1,909,384c1.53,0,2.37,1.38,2.37,3.06s-.84,3.05-2.37,3.05A2.08,2.08,0,0,1,907.18,389.22Zm3.21-2.15c0-1.16-.51-2.2-1.65-2.2s-1.63,1-1.63,2.2.49,2.2,1.63,2.2S910.39,388.25,910.39,387.07Z"/><path d="M912.63,388.37c0-1.25.9-1.74,2.16-1.74h1.77c0-1.08-.37-1.74-1.46-1.74a1.85,1.85,0,0,0-1.52.84l-.72-.54a2.62,2.62,0,0,1,2.29-1.14,2.14,2.14,0,0,1,2.29,2.35V390h-.78l-.07-1a2.27,2.27,0,0,1-2.08,1.13A1.76,1.76,0,0,1,912.63,388.37Zm3.93-1h-1.69c-.71,0-1.26.34-1.26,1s.54.9,1.14.9A1.88,1.88,0,0,0,916.56,387.4Z"/><path d="M919.38,384.15h1v.9a2.16,2.16,0,0,1,1.81-1c1.48,0,2,1.13,2,2.39V390h-1v-3.44c0-.81-.24-1.6-1.18-1.6a1.75,1.75,0,0,0-1.71,1.74V390h-1Z"/><path d="M925.65,387.1a2.83,2.83,0,1,1,2.82,3A2.86,2.86,0,0,1,925.65,387.1Zm4.57,0c0-1.14-.49-2.19-1.75-2.19s-1.76,1-1.76,2.19.5,2.18,1.76,2.18S930.22,388.24,930.22,387.1Z"/><path d="M933,384.15h1v.9a2.15,2.15,0,0,1,1.81-1c1.48,0,2,1.13,2,2.39V390h-1v-3.44c0-.81-.24-1.6-1.19-1.6a1.75,1.75,0,0,0-1.7,1.74V390h-1Z"/><rect class="cls-4" x="880.09" y="525.25" width="5" height="0.46"/><path d="M893.89,519.49h2.43a2.37,2.37,0,0,1,2.62,2.33A2.15,2.15,0,0,1,897.2,524l2.25,3.81h-1.17l-2.12-3.68H894.9v3.68h-1Zm2.57,3.69a1.39,1.39,0,0,0,1.49-1.37,1.43,1.43,0,0,0-1.62-1.42h-1.42v2.79Z"/><path d="M900,521.91h1l1.16,4.54,1.31-4.54h.86l1.31,4.53,1.16-4.53h1l-1.67,5.85h-.91L904,523.15l-1.34,4.61h-.92Z"/><path d="M908.75,526.13c0-1.25.9-1.74,2.16-1.74h1.78c0-1.08-.38-1.74-1.47-1.74a1.88,1.88,0,0,0-1.52.84L909,523a2.62,2.62,0,0,1,2.29-1.14,2.14,2.14,0,0,1,2.29,2.35v3.6h-.78l-.07-1a2.27,2.27,0,0,1-2.08,1.13A1.78,1.78,0,0,1,908.75,526.13Zm3.94-1H911c-.7,0-1.26.34-1.26,1s.54.9,1.14.9A1.88,1.88,0,0,0,912.69,525.16Z"/><path d="M915.51,521.91h1v.89a2.16,2.16,0,0,1,1.81-1c1.47,0,2,1.13,2,2.39v3.56h-1v-3.44c0-.81-.24-1.6-1.19-1.6a1.73,1.73,0,0,0-1.7,1.74v3.3h-1Z"/><path d="M921.82,524.83c0-1.68.84-3,2.37-3a2.08,2.08,0,0,1,1.8.89v-3.2h1v8.28h-1V527a2.08,2.08,0,0,1-1.8.9C922.66,527.88,921.82,526.51,921.82,524.83Zm4.23,0c0-1.16-.48-2.16-1.62-2.16s-1.65,1-1.65,2.16.51,2.17,1.65,2.17S926.05,526,926.05,524.83Z"/><path d="M928.73,526.13c0-1.25.9-1.74,2.16-1.74h1.77c0-1.08-.37-1.74-1.46-1.74a1.88,1.88,0,0,0-1.52.84L929,523a2.62,2.62,0,0,1,2.29-1.14,2.14,2.14,0,0,1,2.29,2.35v3.6h-.78l-.07-1a2.27,2.27,0,0,1-2.08,1.13A1.77,1.77,0,0,1,928.73,526.13Zm3.93-1H931c-.7,0-1.26.34-1.26,1s.54.9,1.14.9A1.87,1.87,0,0,0,932.66,525.16Z"/><rect class="cls-4" x="880.09" y="513.33" width="5" height="1.91"/><path d="M893.24,514.44l1-.29a1.79,1.79,0,0,0,1.95,1.6c1,0,1.62-.46,1.62-1.43,0-2-4-1.5-4-4a2.14,2.14,0,0,1,2.29-2.12,2.48,2.48,0,0,1,2.32,1.32l-.78.5a1.69,1.69,0,0,0-1.54-.95,1.22,1.22,0,0,0-1.3,1.17c0,1.91,4,1.37,4,4a2.4,2.4,0,0,1-2.61,2.41A2.72,2.72,0,0,1,893.24,514.44Z"/><path d="M900.28,514.2v-3.48h1v3.48c0,.8.23,1.66,1.17,1.66a1.81,1.81,0,0,0,1.72-1.81v-3.33h1v5.85h-1v-.93a2.14,2.14,0,0,1-1.81,1.06C900.84,516.7,900.28,515.52,900.28,514.2Z"/><path d="M906.83,513.65c0-1.68.84-3,2.38-3a2.08,2.08,0,0,1,1.79.9v-3.2h1v8.27h-1v-.78a2.08,2.08,0,0,1-1.79.9C907.67,516.69,906.83,515.33,906.83,513.65Zm4.23,0c0-1.17-.48-2.16-1.61-2.16s-1.66,1-1.66,2.16.52,2.17,1.66,2.17S911.06,514.82,911.06,513.65Z"/><path d="M913.74,514.94c0-1.25.9-1.74,2.16-1.74h1.78c0-1.08-.38-1.74-1.47-1.74a1.88,1.88,0,0,0-1.52.84l-.72-.54a2.64,2.64,0,0,1,2.29-1.14,2.14,2.14,0,0,1,2.29,2.35v3.6h-.78l-.07-1a2.26,2.26,0,0,1-2.07,1.13A1.77,1.77,0,0,1,913.74,514.94Zm3.94-1H916c-.71,0-1.26.35-1.26,1s.54.9,1.14.9A1.87,1.87,0,0,0,917.68,514Z"/><path d="M920.5,510.72h1v.9a2.17,2.17,0,0,1,1.81-1c1.47,0,2,1.13,2,2.39v3.56h-1v-3.44c0-.8-.24-1.59-1.19-1.59a1.74,1.74,0,0,0-1.7,1.73v3.3h-1Z"/><rect class="cls-4" x="880.09" y="215.26" width="5" height="46.83"/><path d="M895.65,233.53h-2.77v-.85h6.54v.85h-2.77V241h-1Z"/><path d="M899.07,239.32c0-1.25.9-1.74,2.16-1.74H903c0-1.08-.37-1.74-1.46-1.74a1.88,1.88,0,0,0-1.53.84l-.72-.54a2.66,2.66,0,0,1,2.3-1.14,2.14,2.14,0,0,1,2.29,2.35V241h-.78l-.07-1a2.27,2.27,0,0,1-2.08,1.13A1.76,1.76,0,0,1,899.07,239.32Zm3.93-1h-1.69c-.71,0-1.26.35-1.26,1s.54.9,1.14.9A1.88,1.88,0,0,0,903,238.35Z"/><path d="M905.82,235.1h1v.9a2.19,2.19,0,0,1,1.81-1c1.48,0,2,1.13,2,2.39V241h-1v-3.44c0-.8-.24-1.6-1.18-1.6a1.75,1.75,0,0,0-1.71,1.74V241h-1Z"/><path d="M911.88,240.24l3.52-4.33h-3.35v-.81h4.51v.78l-3.45,4.26h3.45V241h-4.68Z"/><path d="M917.56,239.32c0-1.25.9-1.74,2.16-1.74h1.77c0-1.08-.37-1.74-1.46-1.74a1.87,1.87,0,0,0-1.52.84l-.72-.54a2.64,2.64,0,0,1,2.29-1.14,2.14,2.14,0,0,1,2.29,2.35V241h-.78l-.07-1a2.27,2.27,0,0,1-2.08,1.13A1.76,1.76,0,0,1,917.56,239.32Zm3.93-1H919.8c-.71,0-1.26.35-1.26,1s.54.9,1.14.9A1.87,1.87,0,0,0,921.49,238.35Z"/><path d="M924.31,235.1h1v.9a2.2,2.2,0,0,1,1.81-1c1.48,0,2,1.13,2,2.39V241h-1v-3.44c0-.8-.24-1.6-1.18-1.6a1.75,1.75,0,0,0-1.71,1.74V241h-1Z"/><path d="M931,232.64h1.09v1.19H931Zm.07,2.46h1V241h-1Z"/><path d="M933.76,239.32c0-1.25.9-1.74,2.16-1.74h1.77c0-1.08-.37-1.74-1.46-1.74a1.87,1.87,0,0,0-1.52.84l-.72-.54a2.64,2.64,0,0,1,2.29-1.14,2.14,2.14,0,0,1,2.29,2.35V241h-.78l-.07-1a2.27,2.27,0,0,1-2.08,1.13A1.76,1.76,0,0,1,933.76,239.32Zm3.93-1H936c-.71,0-1.26.35-1.26,1s.54.9,1.14.9A1.87,1.87,0,0,0,937.69,238.35Z"/><rect class="cls-4" x="880.09" y="322.88" width="5" height="40.8"/><path d="M893.71,340.08V335.2h1v4.88c0,1.5.43,2.55,1.92,2.55s1.92-1.05,1.92-2.55V335.2h1V340c0,2.11-.85,3.57-2.93,3.57S893.71,342.13,893.71,340.08Z"/><path d="M901.14,344.32a1.83,1.83,0,0,1,.11-.63l1-.42a1.58,1.58,0,0,1-1-1.26,2.1,2.1,0,0,1,.67-1.36,2.05,2.05,0,0,1,1.85-3.1,2.49,2.49,0,0,1,1.08.24l1-.84.53.71-.87.63a2,2,0,0,1,.45,1.29,2,2,0,0,1-2.15,2,2.41,2.41,0,0,1-1.26-.34,1.12,1.12,0,0,0-.41.73c0,.63,1.08.6,1.87.63,1.24,0,2.46.13,2.46,1.58s-1.32,2-2.65,2S901.14,345.72,901.14,344.32Zm4.39-.07c0-.73-.75-.81-1.58-.81-.31,0-.65,0-1,0l-1,.79c0,.16.16,1.1,1.81,1.1C904.48,345.3,905.53,345.13,905.53,344.25Zm-.57-4.67a1.19,1.19,0,1,0-2.37,0,1.19,1.19,0,1,0,2.37,0Z"/><path d="M907.35,341.84c0-1.25.9-1.74,2.16-1.74h1.77c0-1.08-.37-1.74-1.46-1.74a1.88,1.88,0,0,0-1.53.84l-.71-.54a2.63,2.63,0,0,1,2.29-1.14,2.15,2.15,0,0,1,2.29,2.36v3.59h-.78l-.08-1a2.25,2.25,0,0,1-2.07,1.12A1.76,1.76,0,0,1,907.35,341.84Zm3.93-1h-1.69c-.71,0-1.26.35-1.26,1s.54.9,1.14.9A1.87,1.87,0,0,0,911.28,340.87Z"/><path d="M914.1,337.62h1v.9a2.19,2.19,0,0,1,1.81-1c1.48,0,2,1.13,2,2.39v3.56h-1V340c0-.8-.24-1.59-1.18-1.59a1.74,1.74,0,0,0-1.71,1.73v3.3h-1Z"/><path d="M920.41,340.55c0-1.68.84-3.05,2.38-3.05a2.1,2.1,0,0,1,1.8.9v-3.2h1v8.27h-1v-.78a2.07,2.07,0,0,1-1.8.9C921.25,343.59,920.41,342.23,920.41,340.55Zm4.24,0c0-1.17-.48-2.16-1.62-2.16s-1.66,1-1.66,2.16.52,2.17,1.66,2.17S924.65,341.72,924.65,340.55Z"/><path d="M927.33,341.84c0-1.25.9-1.74,2.16-1.74h1.77c0-1.08-.37-1.74-1.46-1.74a1.88,1.88,0,0,0-1.53.84l-.72-.54a2.66,2.66,0,0,1,2.3-1.14,2.15,2.15,0,0,1,2.29,2.36v3.59h-.78l-.07-1a2.27,2.27,0,0,1-2.08,1.12A1.76,1.76,0,0,1,927.33,341.84Zm3.93-1h-1.69c-.71,0-1.26.35-1.26,1s.54.9,1.14.9A1.87,1.87,0,0,0,931.26,340.87Z"/><rect class="cls-1" x="843.31" y="493.73" width="34.31" height="12.16"/><rect class="cls-1" x="843.1" y="508.36" width="34.31" height="12.16"/><rect class="cls-1" x="843" y="525.48" width="34.31" height="12.16"/><path d="M840.65,52.13l-.12,0h-.07a.4.4,0,0,1-.29-.11.34.34,0,0,1-.12-.27.39.39,0,0,1,.1-.25.62.62,0,0,1,.29-.15l1.74-.47.13,0h.12a.21.21,0,0,1,.18.1.58.58,0,0,1,.06.28v6.34h.94a1.46,1.46,0,0,1,.66.09c.1,0,.14.16.14.32a.42.42,0,0,1-.11.31.52.52,0,0,1-.35.11h-3.51a.52.52,0,0,1-.35-.11A.39.39,0,0,1,840,58a.34.34,0,0,1,.14-.32,1.55,1.55,0,0,1,.67-.09h1V51.87Z"/><path d="M847.86,54.58a2.1,2.1,0,0,1,.7-.61,1.76,1.76,0,0,1,.85-.21,2.05,2.05,0,0,1,1.57.7,2.43,2.43,0,0,1,.65,1.71,2.5,2.5,0,0,1-.63,1.76,2.1,2.1,0,0,1-1.61.68,2.18,2.18,0,0,1-1.84-.91,3.94,3.94,0,0,1-.7-2.45,4.73,4.73,0,0,1,1-3.2,3.35,3.35,0,0,1,2.7-1.21,2.06,2.06,0,0,1,.75.08.31.31,0,0,1,.19.31c0,.25-.23.38-.7.39a4.72,4.72,0,0,0-.73.05,2.39,2.39,0,0,0-1.5.93A4,4,0,0,0,847.86,54.58Zm.13,1.56a1.77,1.77,0,0,0,.38,1.17,1.2,1.2,0,0,0,1,.46,1.14,1.14,0,0,0,.92-.43,1.67,1.67,0,0,0,.36-1.12,1.75,1.75,0,0,0-.37-1.16,1.18,1.18,0,0,0-1-.44,1.2,1.2,0,0,0-.94.42A1.61,1.61,0,0,0,848,56.14Z"/><path d="M855.3,57.46a1,1,0,0,1,.32-.75,1.15,1.15,0,0,1,.83-.29,1.2,1.2,0,0,1,.84.28,1,1,0,0,1,.31.76.93.93,0,0,1-.32.75,1.33,1.33,0,0,1-1.66,0A1,1,0,0,1,855.3,57.46Z"/><path d="M862.25,52.13l-.11,0h-.07a.44.44,0,0,1-.3-.11.37.37,0,0,1-.11-.27.35.35,0,0,1,.1-.25.54.54,0,0,1,.28-.15l1.75-.47.12,0H864a.21.21,0,0,1,.17.1.49.49,0,0,1,.07.28v6.34h.93a1.55,1.55,0,0,1,.67.09A.34.34,0,0,1,866,58a.39.39,0,0,1-.12.31.52.52,0,0,1-.35.11H862a.52.52,0,0,1-.35-.11.42.42,0,0,1-.11-.31c0-.16,0-.27.14-.32a1.46,1.46,0,0,1,.66-.09h1V51.87Z"/><path d="M868.45,52.6a1.5,1.5,0,0,1,.49-1.14,1.89,1.89,0,0,1,2.45,0,1.5,1.5,0,0,1,.48,1.14,1.46,1.46,0,0,1-.48,1.13,1.89,1.89,0,0,1-2.45,0A1.47,1.47,0,0,1,868.45,52.6Zm4.24,1,.09,0h.08a.36.36,0,0,1,.23.08.32.32,0,0,1,.09.24.33.33,0,0,1-.06.19.46.46,0,0,1-.18.13L869,55.81l-.09,0h-.07a.3.3,0,0,1-.23-.09.34.34,0,0,1-.09-.24.3.3,0,0,1,.06-.18.49.49,0,0,1,.18-.14Zm-3.5-1a.82.82,0,0,0,.27.64,1,1,0,0,0,.71.25,1,1,0,0,0,.72-.25.81.81,0,0,0,.27-.64.85.85,0,0,0-.27-.65,1,1,0,0,0-.72-.24,1,1,0,0,0-.71.25A.82.82,0,0,0,869.19,52.6Zm.63,4.25a1.46,1.46,0,0,1,.48-1.13,1.77,1.77,0,0,1,1.24-.45,1.72,1.72,0,0,1,1.22.45,1.46,1.46,0,0,1,.48,1.13,1.47,1.47,0,0,1-.48,1.13,1.89,1.89,0,0,1-2.45,0A1.45,1.45,0,0,1,869.82,56.85Zm.73,0a.83.83,0,0,0,.28.65,1,1,0,0,0,.71.25,1,1,0,0,0,.71-.25.86.86,0,0,0,.27-.65.83.83,0,0,0-.27-.65,1,1,0,0,0-.71-.24,1,1,0,0,0-.71.24A.82.82,0,0,0,870.55,56.85Z"/><path d="M840.65,117.71h-.19a.39.39,0,0,1-.29-.1.35.35,0,0,1-.12-.28.37.37,0,0,1,.1-.24.73.73,0,0,1,.29-.16l1.74-.47.13,0h.12a.19.19,0,0,1,.18.1.55.55,0,0,1,.06.28v6.34h.94a1.69,1.69,0,0,1,.66.08.33.33,0,0,1,.14.32.44.44,0,0,1-.11.32.52.52,0,0,1-.35.1h-3.51a.52.52,0,0,1-.35-.1.41.41,0,0,1-.12-.32.35.35,0,0,1,.14-.32,1.79,1.79,0,0,1,.67-.08h1v-5.73Z"/><path d="M850.16,120a2,2,0,0,1,1.07.68,2,2,0,0,1,.37,1.21,2.15,2.15,0,0,1-.72,1.68,2.7,2.7,0,0,1-1.88.66,3.51,3.51,0,0,1-1.59-.35q-.69-.34-.69-.75a.38.38,0,0,1,.12-.29.44.44,0,0,1,.31-.11,3.25,3.25,0,0,1,.72.3,2.87,2.87,0,0,0,1.17.29,1.63,1.63,0,0,0,1.13-.39,1.45,1.45,0,0,0,.14-1.92,1.43,1.43,0,0,0-.83-.46l-.42,0c-.33,0-.49-.16-.49-.41s.16-.37.48-.41l.31,0a1.28,1.28,0,0,0,.74-.37,1.05,1.05,0,0,0,.28-.74,1.24,1.24,0,0,0-.35-.91,1.15,1.15,0,0,0-.88-.35,2,2,0,0,0-1,.3,2.25,2.25,0,0,1-.64.31.41.41,0,0,1-.28-.11.35.35,0,0,1-.1-.26c0-.24.21-.48.65-.71a3,3,0,0,1,1.45-.36,2.2,2.2,0,0,1,1.52.55,1.77,1.77,0,0,1,.61,1.37,1.7,1.7,0,0,1-.29,1A1.81,1.81,0,0,1,850.16,120Z"/><path d="M855.3,123a1,1,0,0,1,.32-.75,1.2,1.2,0,0,1,.83-.29,1.16,1.16,0,0,1,.84.29,1.06,1.06,0,0,1,0,1.51,1.37,1.37,0,0,1-1.66,0A1,1,0,0,1,855.3,123Z"/><path d="M861.61,124a.72.72,0,0,1-.46-.12.5.5,0,0,1-.15-.39c0-.26.38-.73,1.13-1.43l.17-.17.49-.47c1.35-1.27,2-2.2,2-2.78a1.44,1.44,0,0,0-.36-1,1.24,1.24,0,0,0-.93-.38,1.69,1.69,0,0,0-.7.15,1.34,1.34,0,0,0-.54.41.92.92,0,0,0-.12.16q-.21.39-.48.39a.33.33,0,0,1-.3-.13.94.94,0,0,1-.09-.49.8.8,0,0,1,0-.31,1.05,1.05,0,0,1,.15-.21,2.89,2.89,0,0,1,.93-.58,3.2,3.2,0,0,1,1.14-.21,2.24,2.24,0,0,1,1.62.63,2,2,0,0,1,.66,1.54c0,.77-.67,1.79-2,3.06-.34.31-.6.56-.78.74l-.72.69H865a.69.69,0,0,1,.14-.39.42.42,0,0,1,.31-.13.35.35,0,0,1,.3.13.49.49,0,0,1,.11.35v.06a.18.18,0,0,0,0,.06l0,.46a.47.47,0,0,1-.1.28.29.29,0,0,1-.23.1Z"/><path d="M868.45,118.17a1.5,1.5,0,0,1,.49-1.13,1.89,1.89,0,0,1,2.45,0,1.58,1.58,0,0,1,0,2.27,1.89,1.89,0,0,1-2.45,0A1.5,1.5,0,0,1,868.45,118.17Zm4.24,1a.32.32,0,0,1,.09,0h.08a.31.31,0,0,1,.32.32.33.33,0,0,1-.06.19.49.49,0,0,1-.18.14L869,121.38l-.09,0h-.07a.3.3,0,0,1-.23-.09.32.32,0,0,1-.09-.23.33.33,0,0,1,.06-.19.62.62,0,0,1,.18-.14Zm-3.5-1a.81.81,0,0,0,.27.64,1,1,0,0,0,.71.25,1,1,0,0,0,.72-.24.85.85,0,0,0,.27-.65.81.81,0,0,0-.27-.64,1,1,0,0,0-.72-.25,1,1,0,0,0-.71.25A.82.82,0,0,0,869.19,118.17Zm.63,4.25a1.49,1.49,0,0,1,.48-1.13,1.76,1.76,0,0,1,1.24-.44,1.71,1.71,0,0,1,1.22.44,1.58,1.58,0,0,1,0,2.27,1.93,1.93,0,0,1-2.45,0A1.47,1.47,0,0,1,869.82,122.42Zm.73,0a.82.82,0,0,0,.28.65,1,1,0,0,0,.71.25,1,1,0,0,0,.71-.25.85.85,0,0,0,.27-.65.81.81,0,0,0-.27-.64,1,1,0,0,0-.71-.25,1,1,0,0,0-.71.25A.8.8,0,0,0,870.55,122.42Z"/><path d="M840.65,174.77h-.19a.39.39,0,0,1-.29-.1.34.34,0,0,1-.12-.27.37.37,0,0,1,.1-.25.73.73,0,0,1,.29-.16l1.74-.47.13,0h.12a.19.19,0,0,1,.18.1.55.55,0,0,1,.06.28v6.34h.94a1.69,1.69,0,0,1,.66.08.34.34,0,0,1,.14.32.44.44,0,0,1-.11.32.52.52,0,0,1-.35.1h-3.51a.52.52,0,0,1-.35-.1.41.41,0,0,1-.12-.32.36.36,0,0,1,.14-.32,1.79,1.79,0,0,1,.67-.08h1V174.5Z"/><path d="M847.21,181.05a.72.72,0,0,1-.46-.12.5.5,0,0,1-.15-.39c0-.26.37-.73,1.12-1.43l.17-.17c.12-.1.28-.26.5-.46,1.35-1.28,2-2.21,2-2.79a1.46,1.46,0,0,0-.35-1,1.21,1.21,0,0,0-.93-.39,1.74,1.74,0,0,0-.71.15,1.49,1.49,0,0,0-.54.41l-.11.16c-.14.26-.31.39-.48.39a.31.31,0,0,1-.3-.13.94.94,0,0,1-.09-.49.83.83,0,0,1,0-.31,1.05,1.05,0,0,1,.15-.21,2.7,2.7,0,0,1,.93-.57,3,3,0,0,1,1.13-.22,2.26,2.26,0,0,1,1.63.63,2,2,0,0,1,.65,1.54c0,.77-.66,1.79-2,3.06-.34.31-.6.56-.78.74l-.72.69h2.68a.58.58,0,0,1,.14-.38.37.37,0,0,1,.3-.14.42.42,0,0,1,.31.13.54.54,0,0,1,.11.35.15.15,0,0,1,0,.06v.07l-.05.45a.55.55,0,0,1-.1.28.29.29,0,0,1-.23.1Z"/><path d="M855.3,180.09a1,1,0,0,1,.32-.75,1.35,1.35,0,0,1,1.67,0,1,1,0,0,1,.31.75.94.94,0,0,1-.32.76,1.33,1.33,0,0,1-1.66,0A1,1,0,0,1,855.3,180.09Z"/><path d="M863.74,180.94a.49.49,0,0,1-.09.18.21.21,0,0,1-.15,0H863a.3.3,0,0,1-.18,0,.14.14,0,0,1-.07-.13.28.28,0,0,1,0-.09.22.22,0,0,1,0-.1l2.3-6.25h-3a.74.74,0,0,1-.12.41.41.41,0,0,1-.31.13.45.45,0,0,1-.3-.1.46.46,0,0,1-.09-.31v-.09a.07.07,0,0,1,0-.05l.06-.53a.35.35,0,0,1,.12-.25.38.38,0,0,1,.27-.09h3.88a.37.37,0,0,1,.25.07.32.32,0,0,1,.08.23v.2a.81.81,0,0,1,0,.19c0,.07,0,.18-.1.31Z"/><path d="M868.45,175.24a1.5,1.5,0,0,1,.49-1.14,1.89,1.89,0,0,1,2.45,0,1.58,1.58,0,0,1,0,2.27,1.89,1.89,0,0,1-2.45,0A1.5,1.5,0,0,1,868.45,175.24Zm4.24,1,.09,0h.08a.31.31,0,0,1,.32.32.33.33,0,0,1-.06.19.49.49,0,0,1-.18.14L869,178.44l-.09,0h-.07a.31.31,0,0,1-.23-.1.32.32,0,0,1-.09-.23.33.33,0,0,1,.06-.19.46.46,0,0,1,.18-.13Zm-3.5-1a.8.8,0,0,0,.27.63,1,1,0,0,0,.71.25,1,1,0,0,0,.72-.24.91.91,0,0,0,0-1.29,1,1,0,0,0-.72-.25,1,1,0,0,0-.71.25A.85.85,0,0,0,869.19,175.24Zm.63,4.24a1.49,1.49,0,0,1,.48-1.13,1.81,1.81,0,0,1,1.24-.44,1.76,1.76,0,0,1,1.22.44,1.58,1.58,0,0,1,0,2.27,1.89,1.89,0,0,1-2.45,0A1.47,1.47,0,0,1,869.82,179.48Zm.73,0a.81.81,0,0,0,.28.65,1,1,0,0,0,.71.25,1,1,0,0,0,.71-.25.83.83,0,0,0,.27-.65.81.81,0,0,0-.27-.64,1,1,0,0,0-.71-.25,1,1,0,0,0-.71.25A.8.8,0,0,0,870.55,179.48Z"/><path d="M840.65,234.66l-.12,0h-.07a.44.44,0,0,1-.29-.1.35.35,0,0,1-.12-.28.37.37,0,0,1,.1-.24.63.63,0,0,1,.29-.16l1.74-.47.13,0h.12a.2.2,0,0,1,.18.11.55.55,0,0,1,.06.28v6.34h.94a1.51,1.51,0,0,1,.66.08.33.33,0,0,1,.14.32.44.44,0,0,1-.11.32.52.52,0,0,1-.35.1h-3.51a.52.52,0,0,1-.35-.1.41.41,0,0,1-.12-.32.35.35,0,0,1,.14-.32,1.6,1.6,0,0,1,.67-.08h1V234.4Z"/><path d="M847.21,241a.72.72,0,0,1-.46-.12.5.5,0,0,1-.15-.39c0-.26.37-.73,1.12-1.43l.17-.17.5-.47c1.35-1.27,2-2.2,2-2.78a1.49,1.49,0,0,0-.35-1,1.21,1.21,0,0,0-.93-.39,1.6,1.6,0,0,0-.71.16,1.39,1.39,0,0,0-.54.41l-.11.15c-.14.27-.31.4-.48.4a.33.33,0,0,1-.3-.13.94.94,0,0,1-.09-.49.8.8,0,0,1,0-.31.69.69,0,0,1,.15-.21,2.89,2.89,0,0,1,.93-.58,3.18,3.18,0,0,1,1.13-.21,2.26,2.26,0,0,1,1.63.63,2,2,0,0,1,.65,1.54c0,.77-.66,1.78-2,3.05l-.78.75-.72.69h2.68a.63.63,0,0,1,.14-.39.37.37,0,0,1,.3-.13.39.39,0,0,1,.31.13.52.52,0,0,1,.11.35.18.18,0,0,1,0,.06v.06l-.05.45a.55.55,0,0,1-.1.29.29.29,0,0,1-.23.1Z"/><path d="M855.3,240a1,1,0,0,1,.32-.75,1.37,1.37,0,0,1,1.67,0,1,1,0,0,1,.31.76,1,1,0,0,1-.32.76,1.37,1.37,0,0,1-1.66,0A1,1,0,0,1,855.3,240Z"/><path d="M864.56,236.92a1.85,1.85,0,0,1,1.45,1.89,2.16,2.16,0,0,1-.73,1.68,2.69,2.69,0,0,1-1.88.65,3.54,3.54,0,0,1-1.59-.34q-.69-.35-.69-.75a.38.38,0,0,1,.12-.29.45.45,0,0,1,.31-.12,3.43,3.43,0,0,1,.73.3,2.67,2.67,0,0,0,1.16.3,1.59,1.59,0,0,0,1.13-.4,1.43,1.43,0,0,0,.14-1.91,1.4,1.4,0,0,0-.83-.46l-.42-.05c-.33,0-.49-.15-.49-.41s.16-.36.48-.4l.31,0a1.21,1.21,0,0,0,.74-.38,1,1,0,0,0,.28-.73,1.22,1.22,0,0,0-.34-.91,1.18,1.18,0,0,0-.88-.35,2,2,0,0,0-1,.3,2.22,2.22,0,0,1-.65.3.36.36,0,0,1-.27-.1.33.33,0,0,1-.11-.26c0-.24.22-.48.65-.72a3.12,3.12,0,0,1,1.46-.35,2.17,2.17,0,0,1,1.52.55,1.8,1.8,0,0,1,.6,1.37,1.63,1.63,0,0,1-.29,1A1.88,1.88,0,0,1,864.56,236.92Z"/><path d="M868.45,235.13a1.5,1.5,0,0,1,.49-1.13,1.89,1.89,0,0,1,2.45,0,1.58,1.58,0,0,1,0,2.27,1.89,1.89,0,0,1-2.45,0A1.5,1.5,0,0,1,868.45,235.13Zm4.24,1,.09,0h.08a.32.32,0,0,1,.23.09.3.3,0,0,1,.09.23.33.33,0,0,1-.06.19.38.38,0,0,1-.18.13L869,238.34l-.09,0h-.07a.3.3,0,0,1-.23-.09.32.32,0,0,1-.09-.23.33.33,0,0,1,.06-.19.49.49,0,0,1,.18-.14Zm-3.5-1a.82.82,0,0,0,.27.64,1,1,0,0,0,.71.25,1,1,0,0,0,.72-.25.89.89,0,0,0,0-1.28,1,1,0,0,0-.72-.25,1,1,0,0,0-.71.25A.82.82,0,0,0,869.19,235.13Zm.63,4.25a1.47,1.47,0,0,1,.48-1.13,1.77,1.77,0,0,1,1.24-.45,1.72,1.72,0,0,1,1.22.45,1.47,1.47,0,0,1,.48,1.13,1.46,1.46,0,0,1-.48,1.13,1.89,1.89,0,0,1-2.45,0A1.43,1.43,0,0,1,869.82,239.38Zm.73,0a.82.82,0,0,0,.28.65,1,1,0,0,0,.71.25,1,1,0,0,0,.71-.25.92.92,0,0,0,0-1.3,1,1,0,0,0-.71-.24,1,1,0,0,0-.71.25A.8.8,0,0,0,870.55,239.38Z"/><path d="M840.65,288.48l-.12,0h-.07a.39.39,0,0,1-.29-.1.34.34,0,0,1-.12-.27.37.37,0,0,1,.1-.25.73.73,0,0,1,.29-.16l1.74-.47.13,0h.12a.19.19,0,0,1,.18.1.55.55,0,0,1,.06.28v6.34h.94a1.69,1.69,0,0,1,.66.08.34.34,0,0,1,.14.32.44.44,0,0,1-.11.32.52.52,0,0,1-.35.11h-3.51a.52.52,0,0,1-.35-.11.41.41,0,0,1-.12-.32.36.36,0,0,1,.14-.32,1.79,1.79,0,0,1,.67-.08h1v-5.73Z"/><path d="M849.25,295a2,2,0,0,1-1.75-1,6.57,6.57,0,0,1,0-5.7,2,2,0,0,1,3.5,0,6.53,6.53,0,0,1,0,5.68A2,2,0,0,1,849.25,295Zm0-6.94a1.16,1.16,0,0,0-1,.8,6.88,6.88,0,0,0,0,4.51,1.09,1.09,0,0,0,2.1,0,6.88,6.88,0,0,0,0-4.51A1.16,1.16,0,0,0,849.25,288Z"/><path d="M855.3,293.8a1,1,0,0,1,.32-.75,1.35,1.35,0,0,1,1.67,0,1,1,0,0,1,.31.75.94.94,0,0,1-.32.76,1.33,1.33,0,0,1-1.66,0A1,1,0,0,1,855.3,293.8Z"/><path d="M863.74,294.65a.49.49,0,0,1-.09.18.21.21,0,0,1-.15,0H863a.24.24,0,0,1-.18-.05.13.13,0,0,1-.07-.12.31.31,0,0,1,0-.1.22.22,0,0,1,0-.1l2.3-6.25h-3a.74.74,0,0,1-.12.41.46.46,0,0,1-.61,0,.46.46,0,0,1-.09-.31v-.09a.07.07,0,0,1,0-.05l.06-.53a.35.35,0,0,1,.12-.25.38.38,0,0,1,.27-.09h3.88a.44.44,0,0,1,.25.07.33.33,0,0,1,.08.24v.19a.81.81,0,0,1,0,.19,2.64,2.64,0,0,1-.1.31Z"/><path d="M868.45,289a1.5,1.5,0,0,1,.49-1.14,1.89,1.89,0,0,1,2.45,0,1.58,1.58,0,0,1,0,2.27,1.89,1.89,0,0,1-2.45,0A1.5,1.5,0,0,1,868.45,289Zm4.24,1,.09,0h.08a.32.32,0,0,1,.23.09.32.32,0,0,1,.09.24.35.35,0,0,1-.06.19.46.46,0,0,1-.18.13L869,292.15l-.09,0h-.07a.28.28,0,0,1-.23-.1.32.32,0,0,1-.09-.23.33.33,0,0,1,.06-.19.46.46,0,0,1,.18-.13Zm-3.5-1a.84.84,0,0,0,.27.64,1,1,0,0,0,.71.24,1,1,0,0,0,.72-.24.91.91,0,0,0,0-1.29,1,1,0,0,0-.72-.24,1,1,0,0,0-.71.24A.85.85,0,0,0,869.19,289Zm.63,4.25a1.5,1.5,0,0,1,.48-1.14,1.81,1.81,0,0,1,1.24-.44,1.76,1.76,0,0,1,1.22.44,1.58,1.58,0,0,1,0,2.27,1.89,1.89,0,0,1-2.45,0A1.46,1.46,0,0,1,869.82,293.2Zm.73,0a.8.8,0,0,0,.28.64,1,1,0,0,0,.71.25,1,1,0,0,0,.71-.25.91.91,0,0,0,0-1.29,1,1,0,0,0-.71-.25,1,1,0,0,0-.71.25A.81.81,0,0,0,870.55,293.2Z"/><path d="M840.65,337l-.12,0h-.07a.44.44,0,0,1-.29-.1.35.35,0,0,1-.12-.28.37.37,0,0,1,.1-.24.63.63,0,0,1,.29-.16l1.74-.47.13,0h.12a.2.2,0,0,1,.18.11.55.55,0,0,1,.06.28v6.34h.94a1.51,1.51,0,0,1,.66.08.33.33,0,0,1,.14.32.44.44,0,0,1-.11.32.52.52,0,0,1-.35.1h-3.51a.52.52,0,0,1-.35-.1.41.41,0,0,1-.12-.32.35.35,0,0,1,.14-.32,1.6,1.6,0,0,1,.67-.08h1v-5.73Z"/><path d="M849.25,343.47a2,2,0,0,1-1.75-1,6.55,6.55,0,0,1,0-5.69,2,2,0,0,1,3.5,0,6.55,6.55,0,0,1,0,5.69A2,2,0,0,1,849.25,343.47Zm0-6.93a1.15,1.15,0,0,0-1,.8,5.4,5.4,0,0,0-.38,2.25,5.48,5.48,0,0,0,.38,2.26,1.09,1.09,0,0,0,2.1,0,5.48,5.48,0,0,0,.38-2.26,5.4,5.4,0,0,0-.38-2.25A1.15,1.15,0,0,0,849.25,336.54Z"/><path d="M855.3,342.32a1,1,0,0,1,.32-.75,1.37,1.37,0,0,1,1.67,0,1,1,0,0,1,.31.76,1,1,0,0,1-.32.76,1.37,1.37,0,0,1-1.66,0A1,1,0,0,1,855.3,342.32Z"/><path d="M863.74,343.16a.47.47,0,0,1-.09.19.27.27,0,0,1-.15,0H863a.3.3,0,0,1-.18-.05.14.14,0,0,1-.07-.13.28.28,0,0,1,0-.09.22.22,0,0,1,0-.1l2.3-6.25h-3a.68.68,0,0,1-.12.4.37.37,0,0,1-.31.13.45.45,0,0,1-.3-.09.47.47,0,0,1-.09-.32v-.08a.13.13,0,0,1,0-.06l.06-.52a.38.38,0,0,1,.12-.26.43.43,0,0,1,.27-.08h3.88a.37.37,0,0,1,.25.07.32.32,0,0,1,.08.23v.2a.81.81,0,0,1,0,.19c0,.07,0,.17-.1.3Z"/><path d="M868.45,337.46a1.5,1.5,0,0,1,.49-1.13,1.89,1.89,0,0,1,2.45,0,1.58,1.58,0,0,1,0,2.27,1.89,1.89,0,0,1-2.45,0A1.5,1.5,0,0,1,868.45,337.46Zm4.24,1,.09,0h.08a.32.32,0,0,1,.23.09.3.3,0,0,1,.09.23.33.33,0,0,1-.06.19.38.38,0,0,1-.18.13L869,340.67l-.09,0h-.07a.3.3,0,0,1-.23-.09.32.32,0,0,1-.09-.23.33.33,0,0,1,.06-.19.49.49,0,0,1,.18-.14Zm-3.5-1a.82.82,0,0,0,.27.64,1,1,0,0,0,.71.25,1,1,0,0,0,.72-.25.89.89,0,0,0,0-1.28,1,1,0,0,0-.72-.25,1,1,0,0,0-.71.25A.82.82,0,0,0,869.19,337.46Zm.63,4.25a1.47,1.47,0,0,1,.48-1.13,1.77,1.77,0,0,1,1.24-.45,1.72,1.72,0,0,1,1.22.45,1.47,1.47,0,0,1,.48,1.13,1.46,1.46,0,0,1-.48,1.13,1.89,1.89,0,0,1-2.45,0A1.43,1.43,0,0,1,869.82,341.71Zm.73,0a.82.82,0,0,0,.28.65,1,1,0,0,0,.71.25,1,1,0,0,0,.71-.25.92.92,0,0,0,0-1.3,1,1,0,0,0-.71-.24,1,1,0,0,0-.71.25A.8.8,0,0,0,870.55,341.71Z"/><path d="M849.34,391.29a.67.67,0,0,1-.09.19.27.27,0,0,1-.15,0h-.52a.36.36,0,0,1-.19,0,.15.15,0,0,1-.06-.13.28.28,0,0,1,0-.09.44.44,0,0,1,0-.1l2.31-6.25h-3a.68.68,0,0,1-.12.4.38.38,0,0,1-.31.14.41.41,0,0,1-.3-.1.42.42,0,0,1-.1-.32.19.19,0,0,1,0-.08v-.06l.06-.52a.42.42,0,0,1,.12-.26.47.47,0,0,1,.28-.08h3.87a.34.34,0,0,1,.25.07.28.28,0,0,1,.08.23v.2a.81.81,0,0,1,0,.19l-.09.3Z"/><path d="M855.3,390.45a1,1,0,0,1,.32-.75,1.37,1.37,0,0,1,1.67,0,1,1,0,0,1,.31.76,1,1,0,0,1-.32.76,1.37,1.37,0,0,1-1.66,0A1,1,0,0,1,855.3,390.45Z"/><path d="M864.56,387.38a2,2,0,0,1,1.07.68,2,2,0,0,1,.38,1.21,2.16,2.16,0,0,1-.73,1.68,2.69,2.69,0,0,1-1.88.65,3.54,3.54,0,0,1-1.59-.34q-.69-.35-.69-.75a.38.38,0,0,1,.12-.29.45.45,0,0,1,.31-.12,3.43,3.43,0,0,1,.73.3,2.67,2.67,0,0,0,1.16.3,1.59,1.59,0,0,0,1.13-.4,1.43,1.43,0,0,0,.14-1.91,1.4,1.4,0,0,0-.83-.46l-.42-.05c-.33,0-.49-.15-.49-.41s.16-.36.48-.4l.31,0a1.21,1.21,0,0,0,.74-.38,1,1,0,0,0,.28-.73,1.22,1.22,0,0,0-.34-.91,1.18,1.18,0,0,0-.88-.35,2.05,2.05,0,0,0-1,.3,2.25,2.25,0,0,1-.64.31.41.41,0,0,1-.28-.11.35.35,0,0,1-.1-.26c0-.24.22-.48.65-.72a3.12,3.12,0,0,1,1.46-.35,2.17,2.17,0,0,1,1.52.55,1.8,1.8,0,0,1,.6,1.37,1.63,1.63,0,0,1-.29,1A1.88,1.88,0,0,1,864.56,387.38Z"/><path d="M868.45,385.59a1.5,1.5,0,0,1,.49-1.13,1.89,1.89,0,0,1,2.45,0,1.58,1.58,0,0,1,0,2.27,1.89,1.89,0,0,1-2.45,0A1.5,1.5,0,0,1,868.45,385.59Zm4.24,1,.09,0h.08a.32.32,0,0,1,.23.09.3.3,0,0,1,.09.23.33.33,0,0,1-.06.19.38.38,0,0,1-.18.13L869,388.8l-.09,0h-.07a.3.3,0,0,1-.23-.09.28.28,0,0,1-.09-.23.33.33,0,0,1,.06-.19.49.49,0,0,1,.18-.14Zm-3.5-1a.82.82,0,0,0,.27.64,1,1,0,0,0,.71.25,1,1,0,0,0,.72-.25.89.89,0,0,0,0-1.28,1,1,0,0,0-.72-.25,1,1,0,0,0-.71.25A.82.82,0,0,0,869.19,385.59Zm.63,4.25a1.47,1.47,0,0,1,.48-1.13,1.74,1.74,0,0,1,1.24-.44,1.71,1.71,0,0,1,1.22.44,1.47,1.47,0,0,1,.48,1.13,1.5,1.5,0,0,1-.48,1.14,1.93,1.93,0,0,1-2.45,0A1.47,1.47,0,0,1,869.82,389.84Zm.73,0a.85.85,0,0,0,.27.65,1.07,1.07,0,0,0,.72.25,1,1,0,0,0,.71-.25.92.92,0,0,0,0-1.3,1,1,0,0,0-.71-.24,1,1,0,0,0-.72.25A.82.82,0,0,0,870.55,389.84Z"/><path d="M849.34,429c0,.1-.06.16-.09.18a.21.21,0,0,1-.15.05h-.52a.3.3,0,0,1-.18-.05.15.15,0,0,1-.07-.13.28.28,0,0,1,0-.09.44.44,0,0,1,0-.1l2.31-6.26h-3a.71.71,0,0,1-.12.41.46.46,0,0,1-.61,0,.44.44,0,0,1-.1-.31.17.17,0,0,1,0-.08v-.06l.06-.52a.49.49,0,0,1,.12-.26.47.47,0,0,1,.28-.08h3.87a.34.34,0,0,1,.25.07.28.28,0,0,1,.08.23v.2a.67.67,0,0,1,0,.18c0,.08,0,.18-.09.31Z"/><path d="M855.3,428.11a1,1,0,0,1,.32-.75,1.15,1.15,0,0,1,.83-.29,1.2,1.2,0,0,1,.84.28,1,1,0,0,1,.31.76,1,1,0,0,1-.32.76,1.37,1.37,0,0,1-1.66,0A1,1,0,0,1,855.3,428.11Z"/><path d="M862.25,422.78l-.11,0h-.07a.44.44,0,0,1-.3-.11.34.34,0,0,1-.11-.27.33.33,0,0,1,.1-.24A.55.55,0,0,1,862,422l1.75-.47.12,0H864a.2.2,0,0,1,.17.11.43.43,0,0,1,.07.27v6.34h.93a1.55,1.55,0,0,1,.67.09.35.35,0,0,1,.14.32.39.39,0,0,1-.12.31.48.48,0,0,1-.35.11H862a.48.48,0,0,1-.35-.11.42.42,0,0,1-.11-.31.33.33,0,0,1,.14-.32,1.46,1.46,0,0,1,.66-.09h1v-5.72Z"/><path d="M868.45,423.25a1.5,1.5,0,0,1,.49-1.13,1.86,1.86,0,0,1,2.45,0,1.58,1.58,0,0,1,0,2.27,1.93,1.93,0,0,1-2.45,0A1.5,1.5,0,0,1,868.45,423.25Zm4.24,1,.09,0h.08a.32.32,0,0,1,.23.09.29.29,0,0,1,.09.23.33.33,0,0,1-.06.19.38.38,0,0,1-.18.13L869,426.46l-.09,0h-.07a.3.3,0,0,1-.23-.09.33.33,0,0,1,0-.42.49.49,0,0,1,.18-.14Zm-3.5-1a.82.82,0,0,0,.27.64,1,1,0,0,0,.71.25,1,1,0,0,0,.72-.25.81.81,0,0,0,.27-.64.85.85,0,0,0-.27-.65,1,1,0,0,0-.72-.24,1,1,0,0,0-.71.25A.82.82,0,0,0,869.19,423.25Zm.63,4.25a1.47,1.47,0,0,1,.48-1.13,1.77,1.77,0,0,1,1.24-.45,1.72,1.72,0,0,1,1.22.45,1.47,1.47,0,0,1,.48,1.13,1.46,1.46,0,0,1-.48,1.13,1.89,1.89,0,0,1-2.45,0A1.43,1.43,0,0,1,869.82,427.5Zm.73,0a.82.82,0,0,0,.28.65,1,1,0,0,0,.71.25,1,1,0,0,0,.71-.25.85.85,0,0,0,.27-.65.83.83,0,0,0-.27-.65,1,1,0,0,0-.71-.24,1,1,0,0,0-.71.25A.79.79,0,0,0,870.55,427.5Z"/><path d="M849.93,461.22a.57.57,0,0,1-.38-.09.42.42,0,0,1-.1-.33.4.4,0,0,1,.1-.31.45.45,0,0,1,.33-.1h.68v-1h-2.73a.26.26,0,0,1-.23-.1.36.36,0,0,1-.08-.27v-.4a.89.89,0,0,1,.16-.49l.05-.08,2.47-4.19a.7.7,0,0,1,.14-.19.2.2,0,0,1,.14,0h.17l.6.1a.15.15,0,0,1,.13.09.39.39,0,0,1,0,.2v4.46h.3a.24.24,0,0,0,.2-.11.2.2,0,0,1,.16-.1.25.25,0,0,1,.19.09.29.29,0,0,1,.09.22s0,.06,0,.09a.29.29,0,0,1,0,.09l-.05.24a.61.61,0,0,1-.12.29.36.36,0,0,1-.25.08h-.49v1h.2a1,1,0,0,1,.52.09.36.36,0,0,1,.14.32.39.39,0,0,1-.12.31.49.49,0,0,1-.35.11Zm.63-2.7v-4l-2.22,4Z"/><path d="M856.12,460.26a1,1,0,0,1,.32-.75,1.16,1.16,0,0,1,.83-.3,1.21,1.21,0,0,1,.84.29,1.05,1.05,0,0,1,0,1.51,1.24,1.24,0,0,1-.84.29,1.2,1.2,0,0,1-.83-.29A1,1,0,0,1,856.12,460.26Z"/><path d="M863.15,456.64a4,4,0,0,1,.72-.21,2.83,2.83,0,0,1,.63-.07,2.26,2.26,0,0,1,1.7.71,2.61,2.61,0,0,1-.07,3.61,2.65,2.65,0,0,1-1.93.73,4.38,4.38,0,0,1-1.65-.27c-.45-.17-.67-.39-.67-.64a.38.38,0,0,1,.13-.28.38.38,0,0,1,.28-.12,5.8,5.8,0,0,1,.69.23,3.46,3.46,0,0,0,1.16.23,1.73,1.73,0,0,0,1.27-.48,1.59,1.59,0,0,0,.49-1.21,1.66,1.66,0,0,0-.46-1.21,1.56,1.56,0,0,0-1.17-.48,2.16,2.16,0,0,0-1,.26,2.55,2.55,0,0,1-.61.26.26.26,0,0,1-.25-.13,1,1,0,0,1-.08-.47v-2.92a.32.32,0,0,1,.12-.28.83.83,0,0,1,.42-.08h3a.68.68,0,0,1,.42.11.44.44,0,0,1,.14.35.42.42,0,0,1-.15.34.61.61,0,0,1-.41.12h-2.66Z"/><path d="M869.28,455.4a1.5,1.5,0,0,1,.48-1.14,1.73,1.73,0,0,1,1.23-.45,1.7,1.7,0,0,1,1.22.45,1.5,1.5,0,0,1,.48,1.14,1.47,1.47,0,0,1-.48,1.13A1.7,1.7,0,0,1,871,457a1.73,1.73,0,0,1-1.23-.45A1.47,1.47,0,0,1,869.28,455.4Zm4.23,1,.09,0h.08a.36.36,0,0,1,.23.08.33.33,0,0,1,.1.24.37.37,0,0,1-.07.19.43.43,0,0,1-.17.13l-3.94,1.56-.09,0h-.07a.32.32,0,0,1-.23-.09.34.34,0,0,1-.09-.24.35.35,0,0,1,.06-.19.59.59,0,0,1,.18-.13Zm-3.5-1a.84.84,0,0,0,.27.64,1.19,1.19,0,0,0,1.43,0,.81.81,0,0,0,.27-.64.83.83,0,0,0-.27-.65,1,1,0,0,0-.72-.24,1,1,0,0,0-.71.25A.81.81,0,0,0,870,455.4Zm.63,4.25a1.43,1.43,0,0,1,.49-1.13,1.89,1.89,0,0,1,2.45,0,1.46,1.46,0,0,1,.48,1.13,1.49,1.49,0,0,1-.48,1.13,1.89,1.89,0,0,1-2.45,0A1.46,1.46,0,0,1,870.64,459.65Zm.73,0a.87.87,0,0,0,.28.65,1,1,0,0,0,.71.24,1,1,0,0,0,.71-.24.86.86,0,0,0,.27-.65.83.83,0,0,0-.27-.65,1,1,0,0,0-.71-.24,1,1,0,0,0-.71.24A.85.85,0,0,0,871.37,459.65Z"/><path d="M864.56,481.44a1.85,1.85,0,0,1,1.45,1.89,2.16,2.16,0,0,1-.73,1.68,2.7,2.7,0,0,1-1.88.66,3.54,3.54,0,0,1-1.59-.35q-.69-.35-.69-.75a.38.38,0,0,1,.12-.29.44.44,0,0,1,.31-.11,3.43,3.43,0,0,1,.73.3,2.79,2.79,0,0,0,1.16.29,1.63,1.63,0,0,0,1.13-.39,1.45,1.45,0,0,0,.14-1.92,1.4,1.4,0,0,0-.83-.46l-.42,0c-.33,0-.49-.16-.49-.41s.16-.37.48-.41l.31,0a1.25,1.25,0,0,0,.74-.37,1.05,1.05,0,0,0,.28-.74,1.24,1.24,0,0,0-.34-.91,1.18,1.18,0,0,0-.88-.35,2,2,0,0,0-1,.3,2.39,2.39,0,0,1-.65.31.37.37,0,0,1-.27-.11.33.33,0,0,1-.11-.26c0-.24.22-.48.65-.71a3,3,0,0,1,1.46-.36,2.22,2.22,0,0,1,1.52.55,1.8,1.8,0,0,1,.6,1.37,1.63,1.63,0,0,1-.29,1A1.81,1.81,0,0,1,864.56,481.44Z"/><path d="M868.45,479.65a1.5,1.5,0,0,1,.49-1.13,1.89,1.89,0,0,1,2.45,0,1.58,1.58,0,0,1,0,2.27,1.89,1.89,0,0,1-2.45,0A1.5,1.5,0,0,1,868.45,479.65Zm4.24,1,.09,0h.08a.31.31,0,0,1,.32.32.33.33,0,0,1-.06.19.49.49,0,0,1-.18.14L869,482.86l-.09,0h-.07a.3.3,0,0,1-.23-.09.32.32,0,0,1-.09-.23.33.33,0,0,1,.06-.19.62.62,0,0,1,.18-.14Zm-3.5-1a.81.81,0,0,0,.27.64,1,1,0,0,0,.71.25,1,1,0,0,0,.72-.24.85.85,0,0,0,.27-.65.81.81,0,0,0-.27-.64,1,1,0,0,0-.72-.25,1,1,0,0,0-.71.25A.82.82,0,0,0,869.19,479.65Zm.63,4.25a1.49,1.49,0,0,1,.48-1.13,1.76,1.76,0,0,1,1.24-.44,1.71,1.71,0,0,1,1.22.44,1.58,1.58,0,0,1,0,2.27,1.93,1.93,0,0,1-2.45,0A1.47,1.47,0,0,1,869.82,483.9Zm.73,0a.82.82,0,0,0,.28.65,1,1,0,0,0,.71.25,1,1,0,0,0,.71-.25.85.85,0,0,0,.27-.65.81.81,0,0,0-.27-.64,1,1,0,0,0-.71-.25,1,1,0,0,0-.71.25A.8.8,0,0,0,870.55,483.9Z"/><path d="M848.1,497.26l-.11,0h-.07a.4.4,0,0,1-.29-.11.34.34,0,0,1-.12-.27.39.39,0,0,1,.1-.25.57.57,0,0,1,.29-.15l1.74-.47.13,0h.12a.21.21,0,0,1,.18.11.51.51,0,0,1,.06.27v6.34h.94a1.46,1.46,0,0,1,.66.09c.1.05.14.16.14.32a.42.42,0,0,1-.11.31.53.53,0,0,1-.36.11h-3.5a.51.51,0,0,1-.35-.11.39.39,0,0,1-.12-.31.34.34,0,0,1,.14-.32,1.52,1.52,0,0,1,.66-.09h1V497Z"/><path d="M855.56,502.59a.93.93,0,0,1,.32-.75,1.15,1.15,0,0,1,.83-.29,1.19,1.19,0,0,1,.83.28,1,1,0,0,1,.32.76,1,1,0,0,1-.32.75,1.15,1.15,0,0,1-.83.29,1.18,1.18,0,0,1-.84-.29A1,1,0,0,1,855.56,502.59Z"/><path d="M863.77,503.55a.57.57,0,0,1-.38-.09.42.42,0,0,1-.1-.33.4.4,0,0,1,.1-.31.5.5,0,0,1,.33-.1h.68v-1h-2.74a.28.28,0,0,1-.22-.09.4.4,0,0,1-.09-.27V501a.91.91,0,0,1,.17-.49l.05-.08,2.47-4.19a.7.7,0,0,1,.14-.19.2.2,0,0,1,.14,0h.17l.6.1s.09,0,.13.09a.41.41,0,0,1,0,.21v4.45h.3a.26.26,0,0,0,.2-.1.18.18,0,0,1,.15-.11.25.25,0,0,1,.2.09.29.29,0,0,1,.08.22V501s0,.06,0,.1l0,.24a.57.57,0,0,1-.12.28.36.36,0,0,1-.25.08h-.49v1h.2a1.07,1.07,0,0,1,.52.09.36.36,0,0,1,.14.32.39.39,0,0,1-.12.31.51.51,0,0,1-.35.11Zm.63-2.7v-4l-2.22,4Z"/><path d="M868.71,497.73a1.48,1.48,0,0,1,.49-1.14,1.89,1.89,0,0,1,2.45,0,1.51,1.51,0,0,1,.48,1.14,1.46,1.46,0,0,1-.48,1.13,1.89,1.89,0,0,1-2.45,0A1.43,1.43,0,0,1,868.71,497.73Zm4.24,1,.08,0h.08a.36.36,0,0,1,.24.08.32.32,0,0,1,.09.24.28.28,0,0,1-.07.19.37.37,0,0,1-.17.13l-3.94,1.57-.08,0h-.08a.32.32,0,0,1-.23-.09.34.34,0,0,1-.09-.24.31.31,0,0,1,.07-.18.39.39,0,0,1,.17-.14Zm-3.51-1a.82.82,0,0,0,.27.64,1,1,0,0,0,.72.25,1,1,0,0,0,.71-.25.81.81,0,0,0,.27-.64.85.85,0,0,0-.27-.65,1,1,0,0,0-.71-.24,1,1,0,0,0-.72.25A.82.82,0,0,0,869.44,497.73Zm.64,4.25a1.47,1.47,0,0,1,.48-1.13,1.91,1.91,0,0,1,2.46,0,1.57,1.57,0,0,1,0,2.26,1.73,1.73,0,0,1-1.23.45,1.76,1.76,0,0,1-1.23-.45A1.47,1.47,0,0,1,870.08,502Zm.73,0a.86.86,0,0,0,.27.65,1.15,1.15,0,0,0,1.43,0,.86.86,0,0,0,.27-.65.83.83,0,0,0-.27-.65,1.19,1.19,0,0,0-1.43,0A.85.85,0,0,0,870.81,502Z"/><path d="M849.46,518.32a2,2,0,0,1-1.75-1,6.55,6.55,0,0,1,0-5.69,2,2,0,0,1,3.5,0,6.55,6.55,0,0,1,0,5.69A2,2,0,0,1,849.46,518.32Zm0-6.93a1.15,1.15,0,0,0-1.05.79,6.91,6.91,0,0,0,0,4.52,1.09,1.09,0,0,0,2.1,0,6.91,6.91,0,0,0,0-4.52A1.15,1.15,0,0,0,849.46,511.39Z"/><path d="M855.51,517.17a1,1,0,0,1,.32-.75,1.15,1.15,0,0,1,.83-.29,1.2,1.2,0,0,1,.84.28,1,1,0,0,1,.31.76,1,1,0,0,1-.32.76,1.19,1.19,0,0,1-.83.28,1.18,1.18,0,0,1-.83-.28A1,1,0,0,1,855.51,517.17Z"/><path d="M862.54,513.55a5.09,5.09,0,0,1,.72-.21,3.37,3.37,0,0,1,.62-.07,2.24,2.24,0,0,1,1.71.72,2.41,2.41,0,0,1,.68,1.76,2.47,2.47,0,0,1-.75,1.85,2.71,2.71,0,0,1-1.94.72,4.47,4.47,0,0,1-1.65-.26c-.44-.18-.66-.4-.66-.65a.37.37,0,0,1,.12-.27.4.4,0,0,1,.29-.12,5.24,5.24,0,0,1,.69.22,3.41,3.41,0,0,0,1.16.23,1.78,1.78,0,0,0,1.27-.47,1.61,1.61,0,0,0,.49-1.22,1.72,1.72,0,0,0-.46-1.21,1.56,1.56,0,0,0-1.17-.48,2.25,2.25,0,0,0-1,.26,2.15,2.15,0,0,1-.62.26.28.28,0,0,1-.25-.12,1.25,1.25,0,0,1-.07-.47v-2.93a.29.29,0,0,1,.12-.27.73.73,0,0,1,.42-.09h3a.66.66,0,0,1,.42.12.42.42,0,0,1,.14.34.41.41,0,0,1-.15.34.63.63,0,0,1-.41.12h-2.66Z"/><path d="M868.66,512.31a1.5,1.5,0,0,1,.49-1.13,1.86,1.86,0,0,1,2.45,0,1.58,1.58,0,0,1,0,2.27,1.93,1.93,0,0,1-2.45,0A1.5,1.5,0,0,1,868.66,512.31Zm4.24,1,.09,0h.07a.32.32,0,0,1,.24.09.29.29,0,0,1,.09.23.33.33,0,0,1-.06.19.38.38,0,0,1-.18.13l-3.93,1.57-.09,0h-.07a.3.3,0,0,1-.23-.09.3.3,0,0,1-.1-.24.34.34,0,0,1,.07-.18.46.46,0,0,1,.17-.14Zm-3.5-1a.82.82,0,0,0,.27.64,1,1,0,0,0,.71.25,1,1,0,0,0,.72-.25.81.81,0,0,0,.27-.64.85.85,0,0,0-.27-.65,1,1,0,0,0-.72-.24,1,1,0,0,0-.71.25A.82.82,0,0,0,869.4,512.31Zm.63,4.25a1.47,1.47,0,0,1,.48-1.13,1.77,1.77,0,0,1,1.24-.45,1.72,1.72,0,0,1,1.22.45,1.47,1.47,0,0,1,.48,1.13,1.46,1.46,0,0,1-.48,1.13,1.89,1.89,0,0,1-2.45,0A1.43,1.43,0,0,1,870,516.56Zm.73,0a.85.85,0,0,0,.27.65,1.07,1.07,0,0,0,.72.25,1,1,0,0,0,.71-.25.85.85,0,0,0,.27-.65.83.83,0,0,0-.27-.65,1,1,0,0,0-.71-.24,1,1,0,0,0-.72.25A.81.81,0,0,0,870.76,516.56Z"/><path d="M849.35,535.44a2,2,0,0,1-1.75-1,6.64,6.64,0,0,1,0-5.69,2,2,0,0,1,1.75-1,2,2,0,0,1,1.75,1,6.55,6.55,0,0,1,0,5.69A2,2,0,0,1,849.35,535.44Zm0-6.93a1.15,1.15,0,0,0-1.05.79,7.09,7.09,0,0,0,0,4.52,1.1,1.1,0,0,0,2.11,0,7.09,7.09,0,0,0,0-4.52A1.16,1.16,0,0,0,849.35,528.51Z"/><path d="M855.41,534.29a1,1,0,0,1,.31-.75,1.17,1.17,0,0,1,.83-.29,1.2,1.2,0,0,1,.84.28,1.06,1.06,0,0,1,0,1.52,1.39,1.39,0,0,1-1.67,0A1,1,0,0,1,855.41,534.29Z"/><path d="M862.35,529l-.11,0h-.07a.4.4,0,0,1-.29-.11.32.32,0,0,1-.12-.27.37.37,0,0,1,.1-.24.58.58,0,0,1,.29-.16l1.74-.47.13,0h.12a.21.21,0,0,1,.18.11.51.51,0,0,1,.06.27v6.34h.94a1.46,1.46,0,0,1,.66.09.33.33,0,0,1,.14.32.42.42,0,0,1-.12.32.49.49,0,0,1-.35.1h-3.5a.5.5,0,0,1-.35-.1.42.42,0,0,1-.12-.32.35.35,0,0,1,.14-.32,1.52,1.52,0,0,1,.66-.09h1V528.7Z"/><path d="M868.56,529.43a1.49,1.49,0,0,1,.48-1.13,1.73,1.73,0,0,1,1.24-.46,1.7,1.7,0,0,1,1.22.46,1.58,1.58,0,0,1,0,2.27,1.77,1.77,0,0,1-1.22.44,1.81,1.81,0,0,1-1.24-.44A1.5,1.5,0,0,1,868.56,529.43Zm4.24,1,.08,0H873a.32.32,0,0,1,.24.09.29.29,0,0,1,.09.23.28.28,0,0,1-.07.19.31.31,0,0,1-.17.13l-3.94,1.57-.08,0H869a.32.32,0,0,1-.23-.09.32.32,0,0,1-.09-.24.27.27,0,0,1,.07-.18.39.39,0,0,1,.17-.14Zm-3.51-1a.82.82,0,0,0,.27.64,1,1,0,0,0,.72.25,1,1,0,0,0,.71-.25.81.81,0,0,0,.27-.64.85.85,0,0,0-.27-.65,1,1,0,0,0-.71-.24,1,1,0,0,0-.72.25A.82.82,0,0,0,869.29,529.43Zm.63,4.25a1.48,1.48,0,0,1,.49-1.13,1.89,1.89,0,0,1,2.45,0,1.56,1.56,0,0,1,0,2.26,1.73,1.73,0,0,1-1.23.45,1.76,1.76,0,0,1-1.23-.45A1.47,1.47,0,0,1,869.92,533.68Zm.74,0a.85.85,0,0,0,.27.65,1.15,1.15,0,0,0,1.43,0,.85.85,0,0,0,.27-.65.83.83,0,0,0-.27-.65,1,1,0,0,0-.72-.24,1,1,0,0,0-.71.25A.81.81,0,0,0,870.66,533.68Z"/></svg>